<svg xmlns="http://www.w3.org/2000/svg" xmlns:xlink="http://www.w3.org/1999/xlink" width="60.968" height="95.203" viewBox="0 0 60.968 95.203"><defs><style>.a{fill:none;}.b{clip-path:url(#a);}.c{fill:#ce1010;stroke:#707070;}.d{fill:#d8d8d8;}.e{fill:#fff;}.f{stroke:none;}</style><clipPath id="a"><rect class="a" width="95.203" height="60.968"/></clipPath></defs><g class="b" transform="translate(0 95.203) rotate(-90)"><g class="c" transform="translate(2.362 1.466)"><circle class="f" cx="28.5" cy="28.5" r="28.5"/><circle class="a" cx="28.5" cy="28.5" r="28"/></g><path class="d" d="M2031.434,425.559a7.415,7.415,0,0,0,.823-.121,4.335,4.335,0,0,0,3.325-2.857,4.349,4.349,0,0,0,.213-1.257c0-.091,0-.183,0-.274q0-2.422,0-4.844c0-.1,0-.289,0-.391l-.081.048a1.812,1.812,0,0,1-.189.1,8.942,8.942,0,0,1-1.718.653,8.805,8.805,0,0,1-1.632.287,9.444,9.444,0,0,1-.983.033,8.8,8.8,0,0,1-4.011-1.022,9.1,9.1,0,0,1-3.89-4.184,8.269,8.269,0,0,1-.6-2.1,10.459,10.459,0,0,1-.108-1.548l-.058-6.109-8.708.076c0,4.692,0,10.192,0,14.884h-4.461l0-26.716a10.461,10.461,0,0,1,.068-1.246,8.167,8.167,0,0,1,1.722-4.206,9.178,9.178,0,0,1,2.025-1.9,8.32,8.32,0,0,1,3.243-1.326,12.055,12.055,0,0,1,1.405-.152c.072,0,.333,0,.4,0l.018,4.385c-.148.006-.39.027-.535.037-.122.015-.245.029-.365.051a4.086,4.086,0,0,0-1.923.9,4.412,4.412,0,0,0-1.232,1.575,3.95,3.95,0,0,0-.353,1.411c-.01.172-.012.345-.012.518l.027,7.954,13.2,0,.006,10.192a4.031,4.031,0,0,0,.975,2.541,4.33,4.33,0,0,0,1.85,1.319,4.022,4.022,0,0,0,1.231.246,5.328,5.328,0,0,0,1.1-.055,4.157,4.157,0,0,0,1.911-.856,4.72,4.72,0,0,0,.871-.9,4.1,4.1,0,0,0,.8-2.357c.005-.152,0-.3,0-.457,0-3.077,0-6.55,0-9.627l4.37-.019v21.917a30.16,30.16,0,0,1-.174,3.543,7.658,7.658,0,0,1-1.5,2.82,9.187,9.187,0,0,1-1.923,1.83,8.385,8.385,0,0,1-3.735,1.465c-.326.046-.654.063-.98.091-.112.01-.305,0-.418,0Z" transform="translate(-1944.964 -369.276)"/><path class="e" d="M1046.457,673.728h4.007a8.013,8.013,0,0,0,1.1-.085,9.727,9.727,0,0,0,3.739-1.311,9.371,9.371,0,0,0,3.882-4.432,8.385,8.385,0,0,0,.65-2.65c.019-.243.035-.487.038-.729,0-.182-.021-.365-.027-.547a7.39,7.39,0,0,0-.223-1.5,9.136,9.136,0,0,0-2.84-4.676,9.546,9.546,0,0,0-2.881-1.778,9.7,9.7,0,0,0-3.6-.7h-3.851Z" transform="translate(-1012.924 -634.509)"/><path class="e" d="M30.766,0A30.485,30.485,0,1,0,61.533,30.487,30.626,30.626,0,0,0,30.766,0M19.4,47.7H10.7V20.365a8.054,8.054,0,0,1,8.09-8.016H19.4Zm5.537-28.112a7.712,7.712,0,0,1,.514-2.156,8.122,8.122,0,0,1,6.776-5.085c.285-.028.573-.041.859-.042,1.384,0,2.768-.007,4.152,0q.861,0,1.719.079a18.467,18.467,0,0,1,5.5,1.339,18.211,18.211,0,0,1,5.038,3.113,17.8,17.8,0,0,1,3.777,4.577,17.213,17.213,0,0,1,1.894,4.866,16.607,16.607,0,0,1,.344,2.225,14.556,14.556,0,0,1,.067,1.825c-.02.466-.039.933-.087,1.4q-.09.879-.265,1.745a16.988,16.988,0,0,1-.794,2.715,17.428,17.428,0,0,1-2.877,4.9A18.1,18.1,0,0,1,47.188,44.9a18.419,18.419,0,0,1-5.315,2.26,17.058,17.058,0,0,1-1.746.347c-.355.051-.71.093-1.067.13-.317.033-.634.036-.95.06-.584.044-1.168.034-1.752.034H24.9Z" transform="translate(0 -0.003)"/></g></svg>