<svg xmlns="http://www.w3.org/2000/svg" xmlns:xlink="http://www.w3.org/1999/xlink" width="122" height="138" viewBox="0 0 122 138"><defs><style>.a{fill:#fff;}.b{clip-path:url(#a);}.c{fill:#d5d5d5;}</style><clipPath id="a"><rect class="a" width="122" height="138" transform="translate(4055 473)"/></clipPath></defs><g class="b" transform="translate(-4055 -473)"><path class="c" d="M5604.525-22542.766a12.991,12.991,0,0,1,0-18.383l30.134-30.139H1678a13,13,0,0,1-13-13,13,13,0,0,1,13-13H5634.656l-30.136-30.133a13,13,0,0,1,0-18.383,13,13,0,0,1,18.389,0l52.328,52.328a13,13,0,0,1,0,18.383l-52.328,52.328a12.948,12.948,0,0,1-9.189,3.809A12.96,12.96,0,0,1,5604.525-22542.766Z" transform="translate(-1506 23147.289)"/></g></svg>