<svg xmlns="http://www.w3.org/2000/svg" xmlns:xlink="http://www.w3.org/1999/xlink" width="131.896" height="205.962" viewBox="0 0 131.896 205.962"><defs><style>.a,.c{fill:none;}.b{clip-path:url(#a);}.c{stroke:#707070;}.d{fill:gray;}.e{fill:#ce1010;}.f{stroke:none;}</style><clipPath id="a"><rect class="a" width="205.962" height="131.896"></rect></clipPath></defs><g class="b" transform="translate(0 205.962) rotate(-90)"><g class="c" transform="translate(5.11 3.171)"><circle class="f" cx="61.657" cy="61.657" r="61.657"></circle><circle class="a" cx="61.657" cy="61.657" r="61.157"></circle></g><path class="d" d="M2057.124,476.951a16.056,16.056,0,0,0,1.781-.262,9.377,9.377,0,0,0,7.193-6.18,9.414,9.414,0,0,0,.46-2.719c.005-.2,0-.4,0-.593q0-5.239,0-10.479c0-.219.01-.626,0-.845l-.175.1a3.912,3.912,0,0,1-.41.225,19.328,19.328,0,0,1-3.717,1.413,19.052,19.052,0,0,1-3.53.621,20.445,20.445,0,0,1-2.127.071,19.037,19.037,0,0,1-8.677-2.212,19.677,19.677,0,0,1-8.416-9.051,17.9,17.9,0,0,1-1.3-4.549,22.669,22.669,0,0,1-.233-3.349l-.126-13.217-18.838.163c0,10.15,0,22.05,0,32.2h-9.65l0-57.8a22.691,22.691,0,0,1,.146-2.7,17.674,17.674,0,0,1,3.725-9.1,19.858,19.858,0,0,1,4.381-4.107,18,18,0,0,1,7.015-2.869,26.09,26.09,0,0,1,3.04-.33c.156-.01.72-.009.875-.007l.038,9.486c-.321.014-.843.059-1.157.081-.264.031-.529.063-.79.11a8.838,8.838,0,0,0-4.161,1.951,9.547,9.547,0,0,0-2.665,3.408,8.551,8.551,0,0,0-.764,3.052c-.022.372-.027.746-.027,1.12l.058,17.208,28.558,0,.014,22.049a8.723,8.723,0,0,0,2.11,5.5,9.368,9.368,0,0,0,4,2.854,8.7,8.7,0,0,0,2.662.533,11.53,11.53,0,0,0,2.387-.12,8.992,8.992,0,0,0,4.135-1.853,10.215,10.215,0,0,0,1.885-1.943,8.864,8.864,0,0,0,1.741-5.1c.011-.329,0-.659,0-.988,0-6.656,0-14.17,0-20.827l9.454-.041v47.414a65.184,65.184,0,0,1-.375,7.665,16.575,16.575,0,0,1-3.254,6.1,19.875,19.875,0,0,1-4.161,3.959,18.138,18.138,0,0,1-8.081,3.17c-.706.1-1.414.135-2.12.2-.242.021-.66,0-.9,0Z" transform="translate(-1870.057 -355.189)"></path><path class="e" d="M1046.457,695.148h8.668a17.356,17.356,0,0,0,2.386-.183,21.047,21.047,0,0,0,8.088-2.835,20.275,20.275,0,0,0,8.4-9.589,18.146,18.146,0,0,0,1.406-5.733c.04-.526.075-1.053.082-1.578.005-.394-.045-.789-.059-1.184a16,16,0,0,0-.482-3.252,19.766,19.766,0,0,0-6.144-10.116,20.651,20.651,0,0,0-6.233-3.846,20.986,20.986,0,0,0-7.78-1.516c-2.5,0-5.824,0-8.33,0Z" transform="translate(-973.913 -610.304)"></path><path class="e" d="M66.559,0C29.8,0,0,29.529,0,65.951S29.8,131.9,66.559,131.9s66.559-29.526,66.559-65.948S103.319,0,66.559,0M41.966,103.189H23.148V44.053a17.423,17.423,0,0,1,17.5-17.342h1.315Zm11.98-60.818a16.684,16.684,0,0,1,1.112-4.663,17.571,17.571,0,0,1,14.659-11c.617-.06,1.239-.089,1.859-.091,2.994-.009,5.988-.014,8.982,0q1.862.009,3.72.172a39.952,39.952,0,0,1,11.894,2.9,39.4,39.4,0,0,1,10.9,6.734,38.514,38.514,0,0,1,8.172,9.9,37.237,37.237,0,0,1,4.1,10.528,35.926,35.926,0,0,1,.744,4.813,31.489,31.489,0,0,1,.145,3.949c-.043,1.009-.085,2.018-.188,3.024q-.195,1.9-.573,3.775a36.752,36.752,0,0,1-1.719,5.873,37.7,37.7,0,0,1-6.223,10.6,39.162,39.162,0,0,1-9.438,8.247,39.848,39.848,0,0,1-11.5,4.89,36.905,36.905,0,0,1-3.778.751c-.768.11-1.536.2-2.308.28-.685.071-1.371.079-2.055.131-1.263.1-2.527.073-3.79.073-7.962,0-16.828,0-24.79,0Z" transform="translate(0 -0.003)"></path></g></svg>