<svg xmlns="http://www.w3.org/2000/svg" width="115.09" height="100" viewBox="0 0 115.09 100"><defs><style>.a{fill:#ce1010;stroke:#fff;stroke-width:2px;}.b{fill:none;}</style></defs><g transform="translate(-758.91 -1774)"><g transform="translate(492 427)"><path class="a" d="M10.381,12.762H29.624a2.381,2.381,0,0,0,0-4.762H10.381a2.381,2.381,0,1,0,0,4.762Z" transform="translate(259.964 1369)"></path><path class="a" d="M10.291,34.285a2.381,2.381,0,0,0,0,4.762h0C21.261,38.958,28.5,33.589,31.82,23.1A2.381,2.381,0,0,0,29.588,20H10.344a2.381,2.381,0,1,0,0,4.762H26.118C23.142,31.1,17.933,34.226,10.291,34.285Z" transform="translate(260 1364.143)"></path><path class="a" d="M64.251,57.508l-1.887-4.762L57.12,39.556a1.785,1.785,0,0,0-.149-.3,4.762,4.762,0,0,0-8.434-.893h0a4.69,4.69,0,0,0-.411.786l-6.672,13.6-2.333,4.762-2.976,6.107a2.382,2.382,0,1,0,4.28,2.1l4-8.2H59.132l3.184,8.024a2.381,2.381,0,0,0,2.214,1.5,2.429,2.429,0,0,0,.881-.167,2.381,2.381,0,0,0,1.333-3.1ZM46.757,52.746l3.684-7.518,2.131-4.345a2.91,2.91,0,0,0,.125.429L54.3,45.366l2.934,7.381Z" transform="translate(248.67 1357.586)"></path></g><rect class="b" width="115" height="100" transform="translate(759 1774)"></rect></g></svg>