<svg xmlns="http://www.w3.org/2000/svg" width="115" height="100" viewBox="0 0 115 100"><defs><style>.a{fill:#ce1010;stroke:#fff;stroke-width:0.2px;}.b{fill:none;}</style></defs><g transform="translate(-536 -1441)"><g transform="translate(538.552 1472)"><path class="a" d="M32,31.728a6.719,6.719,0,0,1,3.892,4.808h4.27a8.049,8.049,0,1,1,0,2.683H35.89A6.676,6.676,0,0,1,34.683,41.9h1.341a1.341,1.341,0,0,1,.949.393l7.656,7.656h2.127a1.341,1.341,0,0,1,0,2.683H44.073a1.341,1.341,0,0,1-.949-.393l-7.656-7.656h-4.81v6.037a7.378,7.378,0,1,1-14.514-1.88A8.956,8.956,0,0,1,7.7,44.268,8.7,8.7,0,0,1,8.283,34.4,8.312,8.312,0,0,1,4.5,27.146a8.453,8.453,0,0,1,3.356-6.984c.1-5.141,2.888-9.479,6.706-10.311q0-.072,0-.144C14.561,5.407,17.887,3,22.61,3A8.052,8.052,0,0,1,30.2,8.366h4.482a1.341,1.341,0,0,1,.949.393l7.656,7.656h3.638a5.366,5.366,0,1,1,0,2.683H34.683a1.341,1.341,0,1,1,0-2.683h4.81l-5.366-5.366H30.659V29.274L33.734,26.2a1.341,1.341,0,0,1,.949-.393H41.39a1.341,1.341,0,1,1,0,2.683H35.239ZM27.976,31.3V27.146a4.024,4.024,0,0,0-4.024-4.024,1.341,1.341,0,1,1,0-2.683,6.678,6.678,0,0,1,4.024,1.341V11.049A5.366,5.366,0,0,0,22.61,5.683c-3.393,0-5.366,1.428-5.366,4.024A3.354,3.354,0,0,0,20.6,13.061a1.341,1.341,0,0,1,0,2.683,6.036,6.036,0,0,1-5.375-3.286c-2.275.451-4.211,3.126-4.611,6.64h1.266a6.709,6.709,0,0,1,6.6,5.492,6.018,6.018,0,0,1,3.037,1.642,1.341,1.341,0,0,1-1.9,1.9,3.354,3.354,0,0,0-4.743,0,1.341,1.341,0,0,1-1.9-1.9,6.019,6.019,0,0,1,2.76-1.578,4.026,4.026,0,0,0-3.857-2.873h-.671c-2.149,0-4.024,2.345-4.024,5.366s1.876,5.366,4.024,5.366h.671a6.037,6.037,0,0,1,5.434,3.4,6.816,6.816,0,0,1,3.956-1.392h2.239A6.716,6.716,0,0,1,27.976,31.3Zm-5.333,5.9H21.268A4.686,4.686,0,0,0,17.721,39.3a5.315,5.315,0,0,0-.477,2.606,1.341,1.341,0,1,1-2.683,0,8.238,8.238,0,0,1,.66-3.63A3.354,3.354,0,0,0,11.878,35.2h-.515a5.787,5.787,0,0,0-1.341,7.731c1.663,2.88,5.322,3.994,7.893,2.51a1.35,1.35,0,0,1,.221-.1,7.354,7.354,0,0,1,5.145-2.089,1.341,1.341,0,1,1,0,2.683,4.7,4.7,0,1,0,4.7,4.7V44.451a6.71,6.71,0,0,1-5.366-6.573Q22.61,37.538,22.643,37.207ZM48.1,43.244a5.366,5.366,0,1,0-5.366-5.366A5.366,5.366,0,0,0,48.1,43.244ZM29.317,41.9a4.024,4.024,0,1,0-4.024-4.024A4.024,4.024,0,0,0,29.317,41.9Zm22.8-21.463a2.683,2.683,0,1,0-2.683-2.683A2.683,2.683,0,0,0,52.122,20.439Zm0,29.512h1.341a1.341,1.341,0,0,1,0,2.683H52.122a1.341,1.341,0,0,1,0-2.683Zm-6.707-38.9a4.024,4.024,0,1,1,4.024-4.024A4.024,4.024,0,0,1,45.415,11.049Zm0-2.683a1.341,1.341,0,1,0-1.341-1.341A1.341,1.341,0,0,0,45.415,8.366ZM36.024,58a4.024,4.024,0,1,1,4.024-4.024A4.024,4.024,0,0,1,36.024,58Zm0-2.683a1.341,1.341,0,1,0-1.341-1.341A1.341,1.341,0,0,0,36.024,55.317ZM33.341,5.683a1.341,1.341,0,1,1,0-2.683h4.024a1.341,1.341,0,1,1,0,2.683ZM48.1,41.9a4.024,4.024,0,1,1,4.024-4.024A4.024,4.024,0,0,1,48.1,41.9Zm0-2.683a1.341,1.341,0,1,0-1.341-1.341A1.341,1.341,0,0,0,48.1,39.22Z" transform="translate(-4.5 -3)"></path></g><rect class="b" width="115" height="100" transform="translate(536 1441)"></rect></g></svg>