<svg xmlns="http://www.w3.org/2000/svg" width="115" height="100" viewBox="0 0 115 100"><defs><style>.a{fill:#ce1010;}.b{fill:none;}.c,.d{stroke:none;}.d{fill:#fff;}</style></defs><g transform="translate(-1205 -1774)"><g transform="translate(1205.55 1799.533)"><g class="a" transform="translate(-2.017)"><path class="c" d="M 40.79977035522461 57.38590240478516 C 40.79971694946289 57.38590240478516 40.79972076416016 57.38590240478516 40.79966735839844 57.38590240478516 C 40.59334564208984 57.38589477539062 40.38701629638672 57.36554336547852 40.18639755249023 57.32542419433594 C 39.061767578125 57.10048294067383 38.13373565673828 56.3740234375 37.64029693603516 55.33229446411133 L 34.93558502197266 49.4925651550293 L 34.73154449462891 49.05202484130859 L 34.33817672729492 49.33658218383789 L 31.44750595092773 51.42770385742188 C 30.46371650695801 52.14095306396484 29.31536674499512 52.5178337097168 28.12626647949219 52.5178337097168 C 26.63044929504395 52.5178337097168 25.19722557067871 51.92620468139648 24.09024238586426 50.85184097290039 L 14.62284469604492 41.38443374633789 C 13.67043876647949 40.40311431884766 13.08566188812256 39.13429641723633 12.9760160446167 37.81124496459961 C 12.86377620697021 36.45688247680664 13.23401546478271 35.14849472045898 14.04672622680664 34.02751541137695 L 16.13809585571289 31.13649368286133 L 16.42519569396973 30.7396240234375 L 15.9789457321167 30.53763389587402 L 10.13947010040283 27.89451026916504 C 9.09928035736084 27.40072822570801 8.373990058898926 26.4733943939209 8.149255752563477 25.34977340698242 C 7.938412666320801 24.29555702209473 8.28143310546875 23.19284629821777 9.090496063232422 22.32329368591309 L 14.25173568725586 17.16205406188965 C 16.60371589660645 14.81008338928223 19.66409492492676 13.56690406799316 23.10202598571777 13.56690406799316 C 24.0098762512207 13.56690406799316 24.9477653503418 13.65488338470459 25.88965606689453 13.82838344573975 L 25.89299583435059 13.82900428771973 L 25.8963565826416 13.82956409454346 C 26.10528564453125 13.86438369750977 26.3204460144043 13.8820333480835 26.53585624694824 13.88202381134033 C 27.53725624084473 13.88197422027588 28.55804634094238 13.50651359558105 29.41018676757812 12.82480335235596 L 29.41382598876953 12.82188415527344 L 29.41740608215332 12.81888389587402 C 33.8813362121582 9.07353401184082 38.75516510009766 6.338233947753906 43.90349578857422 4.688963890075684 C 47.67706680297852 3.480093717575073 51.5303955078125 2.867153882980347 55.35646438598633 2.867153882980347 C 56.61413192749023 2.867153882980347 57.84053421020508 2.935005187988281 59.00150299072266 3.068792819976807 C 60.70869445800781 3.297795057296753 62.00246810913086 4.592020988464355 62.22159576416016 6.290273666381836 C 62.49358749389648 8.411773681640625 62.77122497558594 12.77850341796875 61.57428741455078 18.18426322937012 C 60.16648101806641 24.54241180419922 57.16613006591797 30.53471946716309 52.65694808959961 35.99435806274414 C 51.81204223632812 36.97134780883789 51.43384170532227 38.31074523925781 51.64511489868164 39.57832336425781 C 52.42236709594727 44.12226486206055 51.23876571655273 48.23529434204102 48.31262588500977 51.16143417358398 L 43.20613479614258 56.32944488525391 L 43.20212554931641 56.33349227905273 L 43.19824600219727 56.33765411376953 C 42.57649230957031 57.00382232666016 41.70225524902344 57.38590240478516 40.79977035522461 57.38590240478516 Z M 35.3441162109375 44.68658447265625 C 35.50358581542969 44.68658447265625 35.66059494018555 44.70943450927734 35.81077575683594 44.75448226928711 C 36.33937454223633 44.9130744934082 36.78539657592773 45.27629470825195 36.97477722167969 45.702392578125 L 36.9760856628418 45.70535278320312 L 36.97745513916016 45.70829391479492 L 40.5446662902832 53.39624404907227 L 40.78890609741211 53.92263412475586 L 41.19394683837891 53.50707244873047 L 45.92785263061523 48.65022659301758 C 48.64422607421875 45.93260955810547 48.69139862060547 42.51388549804688 48.25179672241211 40.12203598022461 C 47.89108657836914 37.82900619506836 48.53144836425781 35.50395965576172 50.00901412963867 33.74224472045898 C 54.20204544067383 28.6734733581543 56.97179412841797 23.06215476989746 58.24308395385742 17.06207466125488 C 59.18458557128906 12.61849403381348 59.08387756347656 9.000823974609375 58.8336067199707 6.748443603515625 L 58.7974853515625 6.423383712768555 L 58.47173690795898 6.394203662872314 C 57.56308746337891 6.312833786010742 56.62623596191406 6.271574020385742 55.68721771240234 6.271574020385742 C 52.19179534912109 6.271574020385742 48.67324447631836 6.821813583374023 45.22930526733398 7.907013893127441 C 40.41134643554688 9.425164222717285 35.84975433349609 11.96817398071289 31.67124557495117 15.46540355682373 C 30.22656631469727 16.67706298828125 28.43257522583008 17.34421348571777 26.61943626403809 17.34421348571777 C 26.17511558532715 17.34421348571777 25.73002624511719 17.30372428894043 25.29653549194336 17.22387313842773 C 24.55202674865723 17.08672332763672 23.81698608398438 17.0171947479248 23.11183547973633 17.0171947479248 C 20.57757568359375 17.0171947479248 18.42022514343262 17.88955307006836 16.69973564147949 19.61005401611328 L 11.96395587921143 24.34583473205566 L 11.55633544921875 24.75344467163086 L 12.08083629608154 24.99262428283691 L 19.76214027404785 28.49529838562012 C 19.97442436218262 28.60195159912109 20.11399459838867 28.69796180725098 20.2515754699707 28.83254241943359 C 20.47843933105469 29.11918830871582 20.6240291595459 29.37840843200684 20.72187042236328 29.66953277587891 C 20.8652458190918 30.15402412414551 20.77117538452148 30.69875335693359 20.47580528259277 31.09257316589355 L 20.47342491149902 31.09574317932129 L 20.47111511230469 31.09895324707031 L 16.84450912475586 36.13933944702148 C 16.19221687316895 37.01260757446289 16.28618812561035 38.21329498291016 17.06876564025879 38.99586486816406 L 26.54124641418457 48.40683364868164 C 26.95669555664062 48.82228469848633 27.52824592590332 49.06108474731445 28.10843658447266 49.06108474731445 C 28.57445907592773 49.06108474731445 29.02027320861816 48.91181945800781 29.39788627624512 48.6294059753418 L 34.37761688232422 45.00219345092773 L 34.37986755371094 45.00055313110352 L 34.38210678100586 44.99887466430664 C 34.65061569213867 44.79749298095703 34.99226760864258 44.68658447265625 35.3441162109375 44.68658447265625 Z"></path><path class="d" d="M 55.35546493530273 3.267154693603516 C 51.57110595703125 3.267154693603516 47.75891494750977 3.873744964599609 44.02477645874023 5.070083618164062 C 38.92640686035156 6.703483581542969 34.09828567504883 9.413654327392578 29.67450714111328 13.12531280517578 L 29.66735458374023 13.13131332397461 L 29.66006469726562 13.13714218139648 C 28.73721694946289 13.87543487548828 27.6276741027832 14.28202438354492 26.53582763671875 14.28202438354492 C 26.29839706420898 14.28202438354492 26.06111526489258 14.26254272460938 25.83058547973633 14.22411346435547 L 25.82387542724609 14.22300338745117 L 25.81718444824219 14.22176361083984 C 24.89912414550781 14.05265426635742 23.98561477661133 13.96690368652344 23.10202407836914 13.96690368652344 C 19.77248764038086 13.96690368652344 16.80991744995117 15.16957473754883 14.53458404541016 17.44490432739258 L 9.378383636474609 22.60110473632812 C 8.661567687988281 23.37445449829102 8.356616973876953 24.34694671630859 8.541484832763672 25.27132415771484 C 8.740947723388672 26.2685661315918 9.384471893310547 27.09200286865234 10.30753707885742 27.53150939941406 L 16.14389419555664 30.1732234954834 L 17.03638458251953 30.57719421386719 L 16.46218490600586 31.37093353271484 L 14.37057495117188 34.26229476928711 C 12.83466720581055 36.38078308105469 13.05580139160156 39.19313049316406 14.90748977661133 41.10338592529297 L 24.37096405029297 50.56686019897461 C 25.40259552001953 51.56711196899414 26.73598098754883 52.11783218383789 28.12626647949219 52.11783218383789 C 29.23048400878906 52.11783218383789 30.29764556884766 51.76729583740234 31.21305465698242 51.10361480712891 L 34.10372543334961 49.01249313354492 L 34.89046478271484 48.44337463378906 L 35.29854583740234 49.32445526123047 L 38.00327682495117 55.16419982910156 C 38.44244384765625 56.08880615234375 39.26658630371094 56.73353576660156 40.26485443115234 56.93319320678711 C 40.43970489501953 56.96816253662109 40.61962509155273 56.98589324951172 40.79963684082031 56.98589324951172 C 41.59175491333008 56.98589324951172 42.35943603515625 56.65014266967773 42.90582656860352 56.06472396850586 L 42.91359710693359 56.05640411376953 L 42.92160797119141 56.04829406738281 L 48.02977752685547 50.87858581542969 C 50.86156463623047 48.04680252075195 52.00559616088867 44.05817413330078 51.25056457519531 39.64408111572266 C 51.02024078369141 38.26221466064453 51.4315185546875 36.80238342285156 52.35090637207031 35.73675155639648 C 56.81803894042969 30.32718658447266 59.79000091552734 24.39240264892578 61.18374633789062 18.09778213500977 C 62.36754608154297 12.75132369995117 62.09351348876953 8.436794281005859 61.82488632202148 6.341453552246094 C 61.62943267822266 4.826728820800781 60.4754524230957 3.671920776367188 58.95232772827148 3.465782165527344 C 57.80775451660156 3.334014892578125 56.5979118347168 3.267185211181641 55.35582733154297 3.267154693603516 L 55.35546493530273 3.267154693603516 M 48.64612579345703 40.05474853515625 C 49.10195922851562 42.54002380371094 49.04750061035156 46.09326171875 46.21241760253906 48.93135070800781 L 41.48039627075195 53.78627395629883 L 40.67031860351562 54.61739349365234 L 40.18181610107422 53.56460571289062 L 36.61460494995117 45.87664413452148 L 36.61188507080078 45.87076568603516 L 36.60924530029297 45.86484527587891 C 36.46806716918945 45.54718399047852 36.10952758789062 45.26172256469727 35.69583511352539 45.13761520385742 C 35.58296585083008 45.10375213623047 35.46462631225586 45.08658599853516 35.3441162109375 45.08658599853516 C 35.0782470703125 45.08658599853516 34.82183456420898 45.16908264160156 34.62210464477539 45.31887435913086 L 34.61763763427734 45.32222366333008 L 34.61311721801758 45.32551574707031 L 29.63568115234375 48.95105361938477 C 29.18875503540039 49.28475570678711 28.66079330444336 49.46108245849609 28.10843658447266 49.46108245849609 C 27.42294692993164 49.46108245849609 26.74830627441406 49.17958450317383 26.25932693481445 48.69060516357422 L 16.78590774536133 39.27870178222656 C 15.86219024658203 38.35498046875 15.75174713134766 36.93656158447266 16.52194213867188 35.90276336669922 L 20.14642715454102 30.86534309387207 L 20.15105438232422 30.8589038848877 L 20.15580749511719 30.85257339477539 C 20.37533950805664 30.55986022949219 20.44561386108398 30.15373611450195 20.3403434753418 29.78997802734375 C 20.26014709472656 29.55412673950195 20.14001846313477 29.3397388458252 19.95425796508789 29.10158348083496 C 19.85403442382812 29.00691032409668 19.75014495849609 28.93735694885254 19.58896255493164 28.85594749450684 L 11.91487503051758 25.35656356811523 L 10.86587524414062 24.87822341918945 L 11.68110656738281 24.06298446655273 L 16.41688537597656 19.32720565795898 C 18.21501541137695 17.52908325195312 20.46751403808594 16.61730194091797 23.11179733276367 16.61719512939453 C 23.84101486206055 16.61715316772461 24.60044479370117 16.68891525268555 25.36899566650391 16.83049392700195 C 25.77865600585938 16.90595245361328 26.19936752319336 16.9442138671875 26.61943435668945 16.9442138671875 C 28.33872604370117 16.9442138671875 30.04142761230469 16.31028366088867 31.41450500488281 15.15866470336914 C 35.63339614868164 11.62763214111328 40.24091339111328 9.059474945068359 45.10907745361328 7.525493621826172 C 48.59195709228516 6.428031921386719 52.15094757080078 5.871574401855469 55.68718719482422 5.871574401855469 C 56.63807678222656 5.871574401855469 57.58693695068359 5.913372039794922 58.50741577148438 5.995803833007812 L 59.15892791748047 6.054141998291016 L 59.23116683959961 6.704273223876953 C 59.48467636108398 8.985885620117188 59.5869255065918 12.64932250976562 58.63439559936523 17.14498519897461 C 57.34957504272461 23.20892333984375 54.55186462402344 28.87813377380371 50.31895446777344 33.99512481689453 L 50.31723785400391 33.99721527099609 L 50.31548309326172 33.99929428100586 C 48.91336059570312 35.67105102539062 48.30517578125 37.87764739990234 48.64612579345703 40.05474853515625 M 55.35646057128906 2.467151641845703 C 56.84976959228516 2.467193603515625 58.10152435302734 2.562301635742188 59.05108642578125 2.671863555908203 C 60.89619445800781 2.917884826660156 62.37228393554688 4.332462310791016 62.61830520629883 6.23907470703125 C 63.23333740234375 11.0363655090332 63.47935485839844 23.52161407470703 52.96222686767578 36.25286102294922 C 52.16267395019531 37.17542266845703 51.85515594482422 38.40549468994141 52.03967666625977 39.51256561279297 C 52.83922576904297 44.18684387207031 51.60914611816406 48.43059539794922 48.59546661376953 51.44427490234375 L 43.49066543579102 56.6105842590332 C 42.79022216796875 57.36105728149414 41.80501556396484 57.7859001159668 40.79963684082031 57.7859001159668 C 40.56911468505859 57.7859001159668 40.33739471435547 57.76354217529297 40.10795593261719 57.71765518188477 C 38.87788772583008 57.47163391113281 37.83232498168945 56.67209243774414 37.2787971496582 55.50352478027344 L 34.57262420654297 49.66067504882812 L 31.68195724487305 51.75179290771484 C 30.59753036499023 52.53800201416016 29.35809707641602 52.91783142089844 28.12626647949219 52.91783142089844 C 26.56353378295898 52.91783142089844 25.01324462890625 52.30612564086914 23.80948638916016 51.13676452636719 L 14.33791732788086 41.66519165039062 C 12.24679565429688 39.51256561279297 11.93927764892578 36.25287628173828 13.72288513183594 33.792724609375 L 15.81400680541992 30.90204429626465 L 9.971157073974609 28.25739288330078 C 8.802585601806641 27.70386505126953 8.003044128417969 26.65829467773438 7.757026672363281 25.42822265625 C 7.511016845703125 24.19815444946289 7.941535949707031 22.96807479858398 8.802585601806641 22.04552459716797 L 13.96889495849609 16.87921524047852 C 16.40310668945312 14.44500732421875 19.56948089599609 13.16690444946289 23.10203170776367 13.16690444946289 C 24.03222274780273 13.16690444946289 24.98783111572266 13.25553131103516 25.96211624145508 13.43500518798828 C 26.15212249755859 13.46667098999023 26.34375381469727 13.48202514648438 26.53582763671875 13.48202514648438 C 27.46286773681641 13.48202514648438 28.39608383178711 13.12383270263672 29.16030502319336 12.51245498657227 C 39.27291870117188 4.027725219726562 49.3054084777832 2.46697998046875 55.35646057128906 2.467151641845703 Z M 40.90750503540039 53.22788238525391 L 45.64329528808594 48.36909484863281 C 48.22644805908203 45.78594207763672 48.28794860839844 42.5262451171875 47.85742568969727 40.18911361694336 C 47.4884033203125 37.85196304321289 48.10343551635742 35.39181518554688 49.70253753662109 33.48520660400391 C 59.42011642456055 21.73800277709961 58.80507659912109 10.11381530761719 58.43605804443359 6.792613983154297 C 57.71849822998047 6.728351593017578 56.79082489013672 6.671573638916016 55.68718719482422 6.671573638916016 C 50.45293426513672 6.671573638916016 41.27403259277344 7.949897766113281 31.9279670715332 15.77214431762695 C 30.39827728271484 17.05511474609375 28.51235198974609 17.74421691894531 26.61943817138672 17.74421691894531 C 26.15301513671875 17.74421691894531 25.68610000610352 17.70236587524414 25.22406768798828 17.61725234985352 C 24.57929992675781 17.49848175048828 23.86474609375 17.41716003417969 23.11183166503906 17.41719055175781 C 21.13560485839844 17.41727066040039 18.89762878417969 17.97784042358398 16.98257446289062 19.89289474487305 L 12.24679565429688 24.6286735534668 L 19.93475723266602 28.13438415527344 C 20.18076705932617 28.25739288330078 20.36527633666992 28.38040351867676 20.54978561401367 28.56491470336914 C 20.79580688476562 28.87243461608887 20.98031616210938 29.1799430847168 21.10332489013672 29.54897308349609 C 21.28783416748047 30.16400337219238 21.16482543945312 30.84055328369141 20.79580688476562 31.33257293701172 L 17.16708755493164 36.37588500976562 C 16.61355590820312 37.11392211914062 16.73656463623047 38.09798431396484 17.35159683227539 38.7130241394043 L 26.82316589355469 48.12307357788086 C 27.17073822021484 48.47064971923828 27.63615798950195 48.66108322143555 28.10843276977539 48.66108322143555 C 28.47185897827148 48.66108322143555 28.83934783935547 48.54830932617188 29.16030502319336 48.30759429931641 L 34.14210510253906 44.67887496948242 C 34.48181915283203 44.42409133911133 34.90946197509766 44.28658294677734 35.3441162109375 44.28658294677734 C 35.53900527954102 44.28658294677734 35.73531723022461 44.31423568725586 35.92571640014648 44.37135314941406 C 36.54074478149414 44.55587387084961 37.09427642822266 44.98639297485352 37.34029769897461 45.53992462158203 L 40.90750503540039 53.22788238525391 Z"></path></g><g class="a" transform="translate(-17.939 -8.751)"><path class="c" d="M 56.95322418212891 40.63719940185547 C 54.93819427490234 40.63719940185547 53.05098342895508 39.85971832275391 51.63923263549805 38.44796752929688 C 50.22748565673828 37.03621673583984 49.45000457763672 35.14900970458984 49.45000457763672 33.13397979736328 C 49.45000457763672 31.11894798278809 50.22748565673828 29.23172760009766 51.63923263549805 27.81997871398926 C 53.05006408691406 26.40914916992188 54.98694229125977 25.59999847412109 56.95322418212891 25.59999847412109 C 58.91949462890625 25.59999847412109 60.85637283325195 26.40914916992188 62.26721572875977 27.81997871398926 C 63.67896270751953 29.23172760009766 64.45644378662109 31.11894798278809 64.45644378662109 33.13397979736328 C 64.45644378662109 35.14900970458984 63.67896270751953 37.03621673583984 62.26721572875977 38.44796752929688 C 60.85546493530273 39.85971832275391 58.96825408935547 40.63719940185547 56.95322418212891 40.63719940185547 Z M 56.94073486328125 29.04375839233398 L 56.92827606201172 29.0445384979248 C 55.81559371948242 29.11407852172852 54.80662536621094 29.54856872558594 54.08722305297852 30.26798820495605 C 53.3275146484375 31.02768898010254 52.90913391113281 32.04551696777344 52.90913391113281 33.13397979736328 C 52.90913391113281 34.22243881225586 53.3275146484375 35.24026870727539 54.08722305297852 35.99996948242188 C 54.8469352722168 36.75967788696289 55.86476516723633 37.17807006835938 56.95322418212891 37.17807006835938 C 58.04168319702148 37.17807006835938 59.05951309204102 36.75967788696289 59.8192138671875 35.99996948242188 C 61.38254547119141 34.43664932250977 61.38521575927734 31.84042739868164 59.82516479492188 30.21255874633789 L 59.82222366333008 30.20948791503906 L 59.8192138671875 30.20647811889648 C 59.06942367553711 29.45668792724609 58.05159378051758 29.04375839233398 56.95322418212891 29.04375839233398 L 56.94073486328125 29.04375839233398 Z"></path><path class="d" d="M 56.95322418212891 26 C 55.09223556518555 26 53.25845336914062 26.76644897460938 51.92208480834961 28.10282897949219 C 50.58588409423828 29.43902969360352 49.85000610351562 31.22578811645508 49.85000610351562 33.13397979736328 C 49.85000610351562 35.04216766357422 50.58588409423828 36.82892608642578 51.92208480834961 38.16511917114258 C 53.25827407836914 39.50131988525391 55.0450439453125 40.23719787597656 56.95322418212891 40.23719787597656 C 58.86140441894531 40.23719787597656 60.64817428588867 39.50131988525391 61.984375 38.16511917114258 C 63.32056427001953 36.82892608642578 64.05644226074219 35.04216766357422 64.05644226074219 33.13397979736328 C 64.05644226074219 31.22578811645508 63.32056427001953 29.43902969360352 61.984375 28.10282897949219 C 60.64798355102539 26.76644897460938 58.81420516967773 26 56.95322418212891 26 M 56.95322418212891 37.57806777954102 C 55.75791549682617 37.57806777954102 54.63963317871094 37.11806869506836 53.80437469482422 36.28281784057617 C 52.96912384033203 35.44755554199219 52.50913238525391 34.32927703857422 52.50912475585938 33.13397979736328 C 52.50912475585938 31.93867874145508 52.96912384033203 30.82040023803711 53.80437469482422 29.98512649536133 C 54.59275436401367 29.19675827026367 55.69331359863281 28.72093963623047 56.90332412719727 28.64531707763672 L 56.92825317382812 28.64375686645508 L 56.95322418212891 28.64375686645508 C 58.15844345092773 28.64375686645508 59.27672576904297 29.09828948974609 60.10206604003906 29.92362976074219 L 60.10807418823242 29.92964935302734 L 60.11396408081055 29.93578720092773 C 61.82340240478516 31.71955871582031 61.81806564331055 34.56681823730469 60.10206604003906 36.28281784057617 C 59.26680374145508 37.11806869506836 58.14852523803711 37.57806777954102 56.95322418212891 37.57806777954102 M 56.95322418212891 25.19999694824219 C 59.04435348510742 25.19999694824219 61.0739631652832 26.06105804443359 62.55005264282227 27.53713989257812 C 65.625244140625 30.61232757568359 65.625244140625 35.6556282043457 62.55005264282227 38.73080825805664 C 61.0124626159668 40.26840209960938 58.98284530639648 41.03720092773438 56.95322418212891 41.03720092773438 C 54.92360305786133 41.03720092773438 52.89398574829102 40.26840209960938 51.35639572143555 38.73080825805664 C 48.28120422363281 35.6556282043457 48.28120422363281 30.61232757568359 51.35639572143555 27.53713989257812 C 52.83247375488281 26.06105804443359 54.86209487915039 25.19999694824219 56.95322418212891 25.19999694824219 Z M 56.95322418212891 36.77806854248047 C 57.89115524291992 36.77806854248047 58.82908248901367 36.42442321777344 59.53637313842773 35.71712875366211 C 60.95096588134766 34.30254745483398 60.95096588134766 31.96540832519531 59.53637313842773 30.48931884765625 C 58.85983276367188 29.81277847290039 57.93727493286133 29.44375991821289 56.95322418212891 29.44375991821289 C 55.96916580200195 29.50525665283203 55.04660415649414 29.8742790222168 54.37006378173828 30.55081939697266 C 52.95548248291016 31.96540832519531 52.95548248291016 34.30254745483398 54.37006378173828 35.71712875366211 C 55.07735824584961 36.42442321777344 56.01529312133789 36.77806854248047 56.95322418212891 36.77806854248047 Z"></path></g><g class="a" transform="translate(0 -24.939)"><path class="c" d="M 4.602631568908691 74.59946441650391 C 4.154221534729004 74.59946441650391 3.719531297683716 74.41172790527344 3.378631353378296 74.07082366943359 C 2.669401407241821 73.36159515380859 2.669411420822144 72.33206176757812 3.378631353378296 71.62282562255859 L 6.822831153869629 68.17862701416016 C 7.163731575012207 67.83772277832031 7.598421573638916 67.64999389648438 8.046831130981445 67.64999389648438 C 8.495241165161133 67.64999389648438 8.929931640625 67.83772277832031 9.270831108093262 68.17862701416016 C 9.980061531066895 68.88785552978516 9.980061531066895 69.91739654541016 9.270831108093262 70.62662506103516 L 5.826631546020508 74.07082366943359 C 5.48573112487793 74.41172790527344 5.051041126251221 74.59946441650391 4.602631568908691 74.59946441650391 Z"></path><path class="d" d="M 8.046831130981445 68.04998779296875 C 7.70526123046875 68.04998779296875 7.371021270751953 68.19611358642578 7.105681419372559 68.46147155761719 L 3.661480903625488 71.90566253662109 C 3.116141319274902 72.45101165771484 3.116141319274902 73.24264526367188 3.661480903625488 73.78798675537109 C 3.926821708679199 74.05332183837891 4.261061668395996 74.19945526123047 4.602631568908691 74.19945526123047 C 4.944201469421387 74.19945526123047 5.278441429138184 74.05332183837891 5.543781280517578 73.78797912597656 L 8.987981796264648 70.34377288818359 C 9.533330917358398 69.79843902587891 9.533330917358398 69.00681304931641 8.987981796264648 68.46147155761719 C 8.722631454467773 68.19612884521484 8.388391494750977 68.04998779296875 8.046831130981445 68.04998779296875 M 8.046831130981445 67.24999237060547 C 8.584989547729492 67.24999237060547 9.123146057128906 67.46525573730469 9.553670883178711 67.89578247070312 C 10.41472148895264 68.7568359375 10.41472148895264 70.04841613769531 9.553670883178711 70.90946197509766 L 6.109471321105957 74.35366821289062 C 5.678946495056152 74.78419494628906 5.140789031982422 74.99945831298828 4.602631568908691 74.99945831298828 C 4.064474105834961 74.99945831298828 3.52631664276123 74.78419494628906 3.095791816711426 74.35366821289062 C 2.2347412109375 73.49261474609375 2.2347412109375 72.20104217529297 3.095791816711426 71.33998870849609 L 6.53999137878418 67.89578247070312 C 6.970516204833984 67.46525573730469 7.508673667907715 67.24999237060547 8.046831130981445 67.24999237060547 Z"></path></g><g class="a" transform="translate(-2.271 -28.365)"><path class="c" d="M 10.50262641906738 85.34458160400391 C 10.0542163848877 85.34458160400391 9.619526863098145 85.15683746337891 9.278626441955566 84.81594848632812 C 8.569396018981934 84.10670471191406 8.569396018981934 83.07717132568359 9.278626441955566 82.36793518066406 L 14.567946434021 77.07862854003906 C 14.90884685516357 76.73773956298828 15.34353637695312 76.54999542236328 15.79194641113281 76.54999542236328 C 16.2403564453125 76.54999542236328 16.67504692077637 76.73773956298828 17.01594734191895 77.07862854003906 L 17.02117729187012 77.08386993408203 L 17.0266056060791 77.08890533447266 C 17.35218620300293 77.3912353515625 17.53603553771973 77.80307769775391 17.54428672790527 78.24858093261719 C 17.55307579040527 78.72323608398438 17.36543655395508 79.17713165283203 17.01594734191895 79.52662658691406 L 11.7266263961792 84.81594848632812 C 11.38572597503662 85.15683746337891 10.95103645324707 85.34458160400391 10.50262641906738 85.34458160400391 Z"></path><path class="d" d="M 15.79194641113281 76.94999694824219 C 15.45037651062012 76.94999694824219 15.11613655090332 77.09613037109375 14.85078620910645 77.36148071289062 L 9.56147575378418 82.65078735351562 C 9.01612663269043 83.19612884521484 9.016136169433594 83.98775482177734 9.56147575378418 84.53309631347656 C 9.826816558837891 84.79844665527344 10.16105651855469 84.944580078125 10.50262641906738 84.944580078125 C 10.84418678283691 84.944580078125 11.17843627929688 84.79844665527344 11.44377613067627 84.53311157226562 L 16.73309707641602 79.24376678466797 C 17.00505638122559 78.97181701660156 17.15111541748047 78.62100982666016 17.14435577392578 78.2559814453125 C 17.13813781738281 77.92012023925781 16.99965667724609 77.6097412109375 16.75442504882812 77.38201904296875 L 16.74357604980469 77.3719482421875 L 16.73309707641602 77.36148071289062 C 16.4677562713623 77.09613037109375 16.13351631164551 76.94999694824219 15.79194641113281 76.94999694824219 M 15.79194641113281 76.15000152587891 C 16.33010482788086 76.15000152587891 16.86826133728027 76.36526489257812 17.29878616333008 76.79579162597656 C 18.15983581542969 77.5953369140625 18.15983581542969 78.94841003417969 17.29878616333008 79.80945587158203 L 12.00946617126465 85.09878540039062 C 11.57894134521484 85.52931213378906 11.04078388214111 85.74457550048828 10.50262641906738 85.74457550048828 C 9.964468002319336 85.74457550048828 9.426311492919922 85.52931213378906 8.995786666870117 85.09878540039062 C 8.134737014770508 84.23773193359375 8.134737014770508 82.94615173339844 8.995786666870117 82.08509826660156 L 14.28510665893555 76.79579162597656 C 14.71563148498535 76.36526489257812 15.25378894805908 76.15000152587891 15.79194641113281 76.15000152587891 Z"></path></g><g class="a" transform="translate(-6.852 -31.767)"><path class="c" d="M 22.40263366699219 92.31377410888672 C 21.9542236328125 92.31377410888672 21.51953315734863 92.12603759765625 21.17863273620605 91.78513336181641 C 20.83773231506348 91.44423675537109 20.65000343322754 91.00954437255859 20.65000343322754 90.56113433837891 C 20.65000343322754 90.11272430419922 20.83773231506348 89.67803192138672 21.17863273620605 89.33713531494141 L 24.61726570129395 85.89849853515625 C 24.97479820251465 85.56871032714844 25.42181968688965 85.38715362548828 25.8767032623291 85.38715362548828 C 26.32702255249023 85.38715362548828 26.73994255065918 85.56204223632812 27.07083320617676 85.89293670654297 C 27.78006362915039 86.60216522216797 27.78006362915039 87.63170623779297 27.07083320617676 88.34093475341797 L 23.62663269042969 91.78513336181641 C 23.28573226928711 92.12603759765625 22.85104370117188 92.31377410888672 22.40263366699219 92.31377410888672 Z"></path><path class="d" d="M 25.8765926361084 85.78715515136719 L 25.87662315368652 85.78715515136719 C 25.52507209777832 85.78715515136719 25.17676544189453 85.92908477783203 24.89436340332031 86.18710327148438 L 21.46147346496582 89.61998748779297 C 21.19613265991211 89.88532257080078 21.04999351501465 90.21956634521484 21.04999351501465 90.56113433837891 C 21.04999351501465 90.90270233154297 21.19613265991211 91.23694610595703 21.46148300170898 91.50229644775391 C 21.7268238067627 91.76763153076172 22.06106376647949 91.91376495361328 22.40263366699219 91.91376495361328 C 22.74420356750488 91.91376495361328 23.07844352722168 91.76763153076172 23.34378242492676 91.50228881835938 L 26.78798294067383 88.05808258056641 C 27.33333206176758 87.51274871826172 27.33333206176758 86.72112274169922 26.78798294067383 86.17578125 C 26.53376388549805 85.92155456542969 26.21860313415527 85.78716278076172 25.8765926361084 85.78715515136719 M 25.87670135498047 84.98715209960938 C 26.40483856201172 84.98717498779297 26.93113708496094 85.18755340576172 27.35367202758789 85.61009216308594 C 28.21472358703613 86.47114562988281 28.21472358703613 87.76272583007812 27.35367202758789 88.62377166748047 L 23.90947341918945 92.06797790527344 C 23.47894859313965 92.49850463867188 22.9407901763916 92.71376800537109 22.40263366699219 92.71376800537109 C 21.86447525024414 92.71376800537109 21.32631874084473 92.49850463867188 20.89579391479492 92.06797790527344 C 20.03473281860352 91.20692443847656 20.03473281860352 89.91534423828125 20.89579391479492 89.05429840087891 L 24.33999252319336 85.61009216308594 C 24.77850532531738 85.20290374755859 25.3285961151123 84.98712921142578 25.87670135498047 84.98715209960938 Z"></path></g></g><rect class="b" width="115" height="100" transform="translate(1205 1774)"></rect></g></svg>