<svg xmlns="http://www.w3.org/2000/svg" width="170" height="135" viewBox="0 0 170 135"><defs><style>.a{fill:#1c43b9;}.b{fill:none;}</style></defs><g transform="translate(-1000 -1167)"><g transform="translate(998.838 1180.583)"><g transform="translate(1.162 3.8)"><g transform="translate(37.192 46.577)"><path class="a" d="M41.117,30.6A19.031,19.031,0,1,0,60.061,49.543,19.138,19.138,0,0,0,41.117,30.6ZM31.037,61.535a10.995,10.995,0,0,1,20.16,0,16.071,16.071,0,0,1-10.08,3.823A16.071,16.071,0,0,1,31.037,61.535ZM53.8,58.754a14.459,14.459,0,0,0-12.687-7.3,14.667,14.667,0,0,0-12.687,7.3,15.2,15.2,0,0,1-2.954-9.037,15.555,15.555,0,0,1,31.109,0A16.322,16.322,0,0,1,53.8,58.754Z" transform="translate(-22 -30.6)"></path></g><g transform="translate(48.662 51.79)"><path class="a" d="M36.247,33.6a7.647,7.647,0,1,0,7.647,7.647A7.6,7.6,0,0,0,36.247,33.6Zm0,11.818a4.171,4.171,0,1,1,4.171-4.171A4.229,4.229,0,0,1,36.247,45.418Z" transform="translate(-28.6 -33.6)"></path></g><path class="a" d="M111.654,62.716h-10.08a1.642,1.642,0,0,0-1.738,1.738v3.3H94.622V48.117A5.229,5.229,0,0,0,89.408,42.9H77.764V27.262H94.448v3.3A1.642,1.642,0,0,0,96.186,32.3h10.08A1.642,1.642,0,0,0,108,30.564V20.484a1.642,1.642,0,0,0-1.738-1.738H96.186a1.642,1.642,0,0,0-1.738,1.738v3.3H76.026a1.642,1.642,0,0,0-1.738,1.738V42.9H58.125v-25.9a6.532,6.532,0,0,0,5.04-6.43A6.786,6.786,0,0,0,56.388,3.8a6.678,6.678,0,0,0-6.778,6.778,6.532,6.532,0,0,0,5.04,6.43V42.73H39.182V25.35a1.642,1.642,0,0,0-1.738-1.738H19.022v-3.3a1.642,1.642,0,0,0-1.738-1.738H7.2A1.642,1.642,0,0,0,5.466,20.31V30.39A1.642,1.642,0,0,0,7.2,32.128h10.08a1.642,1.642,0,0,0,1.738-1.738v-3.3H35.706V42.73H24.583a5.229,5.229,0,0,0-5.214,5.214V67.582H13.808a6.532,6.532,0,0,0-6.43-5.04A6.786,6.786,0,0,0,.6,69.32a6.715,6.715,0,0,0,1.912,4.692,6.346,6.346,0,0,0,7.3,1.39,6.913,6.913,0,0,0,4-4.519H19.37V92.261H12.418a1.581,1.581,0,0,0-1.39.7,1.667,1.667,0,0,0-.348,1.564l2.433,9.211a1.727,1.727,0,0,0,1.738,1.217H98.793a1.89,1.89,0,0,0,1.738-1.217l2.433-9.211a1.773,1.773,0,0,0-.348-1.564,2.145,2.145,0,0,0-1.39-.7H94.448V71.232h5.214v3.3a1.642,1.642,0,0,0,1.738,1.738h10.08a1.642,1.642,0,0,0,1.738-1.738V64.454A1.438,1.438,0,0,0,111.654,62.716ZM98.1,22.222h6.6v6.6H98.1ZM53.085,10.578a3.3,3.3,0,1,1,3.3,3.3A3.418,3.418,0,0,1,53.085,10.578ZM15.546,28.826h-6.6v-6.6h6.6ZM8.421,72.448A3.242,3.242,0,0,1,3.9,69.494a3.3,3.3,0,0,1,3.3-3.3,3.418,3.418,0,0,1,3.3,3.3A3.082,3.082,0,0,1,8.421,72.448Zm89.156,29.371H16.241l-1.564-5.735h84.29Zm-74.9-9.211V48.117a1.742,1.742,0,0,1,1.738-1.738H89.234a1.742,1.742,0,0,1,1.738,1.738V92.608ZM109.916,72.8h-6.6v-6.6h6.6Z" transform="translate(-0.6 -3.8)"></path></g></g><rect class="b" width="170" height="135" transform="translate(1000 1167)"></rect></g></svg>