<svg xmlns="http://www.w3.org/2000/svg" width="170.15" height="135" viewBox="0 0 170.15 135"><defs><style>.a{fill:#1c43b9;stroke:#fff;stroke-width:0.3px;}.b{fill:none;}</style></defs><g transform="translate(-999.85 -1755)"><path class="a" d="M-2603,9184.25v-77.8h18.41a1.81,1.81,0,0,1,.727-.705l14.689-7.763a1.806,1.806,0,0,1,1.689,0l14.678,7.763a1.8,1.8,0,0,1,.725.705h18.421v77.8Zm3.633-3.661h62.073v-70.479h-14.532v4.447h7.548v42.638l-16.639,17.114h-31.465v-59.752h7.548v-4.447h-14.532Zm10.618-9.942h25.143v-16.693h15.695v-35.735h-3.914v1.959a1.824,1.824,0,0,1-1.817,1.832h-29.376a1.826,1.826,0,0,1-1.817-1.832v-1.959h-3.914Zm28.776-2.542,10.2-10.49h-10.2Zm-21.229-59.634v9.876h25.742v-9.887l-12.87-6.818Zm-1.417,37.793V9142.6h26.914v3.661Zm0-10.983v-3.662h12.38v3.662Z" transform="translate(3603 -7314.511)"></path><rect class="b" width="170" height="135" transform="translate(1000 1755)"></rect></g></svg>