<svg xmlns="http://www.w3.org/2000/svg" width="171" height="135" viewBox="0 0 171 135"><defs><style>.a{fill:#1c43b9;stroke:#fff;stroke-width:2px;}.b{fill:none;}</style></defs><g transform="translate(-537 -1460)"><g transform="translate(619.84 1409) rotate(90)"><path class="a" d="M61.38,73.073V60.968a11.636,11.636,0,0,1,.079-22.574A3.086,3.086,0,0,1,61.38,38V2.924a2.923,2.923,0,1,1,5.847,0V38a3.087,3.087,0,0,1-.079.394,11.634,11.634,0,0,1,.079,22.574V73.073a2.923,2.923,0,1,1-5.847,0ZM58.46,49.691a5.847,5.847,0,1,0,5.847-5.844A5.854,5.854,0,0,0,58.46,49.691ZM35.074,73.073V37.588a11.638,11.638,0,0,1,0-22.556V2.924a2.923,2.923,0,1,1,5.847,0V15.032a11.638,11.638,0,0,1,0,22.556V73.073a2.923,2.923,0,1,1-5.847,0Zm-2.92-46.767A5.847,5.847,0,1,0,38,20.458,5.85,5.85,0,0,0,32.153,26.307ZM8.767,73.073V60.968a11.636,11.636,0,0,1,.079-22.574A3.086,3.086,0,0,1,8.767,38V2.924a2.923,2.923,0,1,1,5.847,0V38a3.086,3.086,0,0,1-.079.394,11.636,11.636,0,0,1,.079,22.574V73.073a2.923,2.923,0,1,1-5.847,0ZM5.847,49.691a5.844,5.844,0,1,0,5.846-5.844A5.85,5.85,0,0,0,5.847,49.691Z" transform="translate(97 5.84)"></path></g><rect class="b" width="170" height="135" transform="translate(538 1460)"></rect></g></svg>