<svg xmlns="http://www.w3.org/2000/svg" width="170.75" height="135" viewBox="0 0 170.75 135"><defs><style>.a{fill:#1c43b9;stroke:#fff;stroke-width:1.5px;}.b{fill:none;}</style></defs><g transform="translate(-537.25 -1460)"><g transform="translate(535.525 1513.139)"><path class="a" d="M46.326,35.2A11.126,11.126,0,1,0,57.452,46.326,11.149,11.149,0,0,0,46.326,35.2Zm0,16.839a5.713,5.713,0,1,1,5.713-5.713A5.711,5.711,0,0,1,46.326,52.039Z" transform="translate(-8.124 -8.124)"></path><path class="a" d="M67.23,27.321h11.5a2.706,2.706,0,1,0,0-5.413H73.846L88.5,7.173a2.711,2.711,0,0,0-3.834-3.834L70.012,18V13.112a2.706,2.706,0,1,0-5.413,0v11.5A2.587,2.587,0,0,0,67.23,27.321Z" transform="translate(-15.421 -0.019)"></path><path class="a" d="M17.98,21.814H13.094a2.706,2.706,0,1,0,0,5.413H24.6A2.7,2.7,0,0,0,27.3,24.52V13.094a2.706,2.706,0,1,0-5.413,0V17.98L7.155,3.321a2.6,2.6,0,0,0-3.834,0,2.6,2.6,0,0,0,0,3.834Z"></path><path class="a" d="M24.614,64.5h-11.5a2.706,2.706,0,1,0,0,5.413H18L3.339,84.647a2.744,2.744,0,0,0,1.955,4.661,2.864,2.864,0,0,0,1.955-.827L21.908,73.822v4.886a2.706,2.706,0,0,0,5.413,0v-11.5A2.7,2.7,0,0,0,24.614,64.5Z" transform="translate(-0.019 -15.397)"></path><path class="a" d="M73.822,70.013h4.886a2.706,2.706,0,1,0,0-5.413h-11.5A2.7,2.7,0,0,0,64.5,67.306v11.5a2.706,2.706,0,1,0,5.413,0V73.922L84.572,88.581a2.73,2.73,0,0,0,1.955.827,2.864,2.864,0,0,0,1.955-.827,2.722,2.722,0,0,0,0-3.834Z" transform="translate(-15.397 -15.422)"></path></g><rect class="b" width="170" height="135" transform="translate(538 1460)"></rect></g></svg>