<svg xmlns="http://www.w3.org/2000/svg" width="170" height="135" viewBox="0 0 170 135"><defs><style>.a{fill:none;}.b{fill:#1c43b9;}</style></defs><g transform="translate(-1000 -1755)"><rect class="a" width="170" height="135" transform="translate(1000 1755)"></rect><path class="b" d="M73.867,72.933H76.8v2.933H73.867Zm-66-26.4H10.8V43.6H7.867ZM76.8,14.267H73.867V17.2H76.8Zm4.544,55.95a7.3,7.3,0,0,1-10.767,9.717A41.065,41.065,0,0,1,10.21,58.758l2.765-.98A38.265,38.265,0,0,0,22.4,72.414a40.931,40.931,0,0,1,7.9-5.265,69.222,69.222,0,0,1-3.338-20.617H16.519a7.329,7.329,0,1,1,0-2.932H26.954a69.2,69.2,0,0,1,3.337-20.614,40.984,40.984,0,0,1-7.9-5.267,38.28,38.28,0,0,0-9.42,14.637l-2.765-.98A41.018,41.018,0,0,1,70.577,10.2a7.263,7.263,0,0,1,4.756-1.8,7.318,7.318,0,0,1,6.01,11.515,40.867,40.867,0,0,1,0,50.3Zm-67.61-25.15a4.4,4.4,0,1,0-4.4,4.4A4.405,4.405,0,0,0,13.733,45.067Zm57.2-29.333a4.4,4.4,0,1,0,4.4-4.4A4.405,4.405,0,0,0,70.933,15.733Zm-.356,5.535q-1.472.915-3.007,1.7A69.21,69.21,0,0,1,70.913,43.6H87a38.109,38.109,0,0,0-7.8-21.663,7.189,7.189,0,0,1-8.624-.669ZM58.838,8.261a32.761,32.761,0,0,1,7.716,11.931c.751-.393,1.487-.811,2.215-1.255a7.066,7.066,0,0,1,0-6.406A37.9,37.9,0,0,0,58.838,8.261ZM50.4,24.479a37.938,37.938,0,0,0,13.489-3.024C60.678,13.34,55.86,7.893,50.4,7.057ZM34.08,21.487a37.991,37.991,0,0,0,13.386,2.979V7.064C42.121,7.923,37.314,13.417,34.08,21.487Zm-2.765-1.3A32.76,32.76,0,0,1,39.03,8.259a37.936,37.936,0,0,0-14.388,7.474A37.937,37.937,0,0,0,31.316,20.191ZM39.03,81.874a32.74,32.74,0,0,1-7.715-11.93A37.9,37.9,0,0,0,24.642,74.4,37.956,37.956,0,0,0,39.03,81.874Zm8.436-16.208a38.027,38.027,0,0,0-13.485,3.023c3.211,8.111,8.029,13.552,13.485,14.388Zm2.933-16.2V62.718a40.864,40.864,0,0,1,14.486,3.2,66.9,66.9,0,0,0,3.093-19.382H59.2V43.6h8.779a66.952,66.952,0,0,0-3.093-19.382,40.833,40.833,0,0,1-14.486,3.2V40.667H47.467V27.433a40.951,40.951,0,0,1-14.406-3.164A65.952,65.952,0,0,0,29.886,43.6h8.781v2.933H29.886A67.015,67.015,0,0,0,32.976,65.9a40.93,40.93,0,0,1,14.491-3.2V49.467ZM63.886,68.68A37.885,37.885,0,0,0,50.4,65.654V83.077C55.86,82.241,60.678,76.794,63.886,68.68ZM68,74.4a7.266,7.266,0,0,1,.767-3.2c-.727-.444-1.464-.862-2.218-1.255a32.73,32.73,0,0,1-7.712,11.93A37.957,37.957,0,0,0,68.767,77.6,7.266,7.266,0,0,1,68,74.4Zm11.733,0a4.4,4.4,0,1,0-4.4,4.4A4.405,4.405,0,0,0,79.733,74.4ZM87,46.535H70.913A69.146,69.146,0,0,1,67.57,67.166q1.533.783,3.007,1.7A7.189,7.189,0,0,1,79.2,68.2,38.116,38.116,0,0,0,87,46.535Zm-45.4,0h2.933V43.6H41.6Zm5.867,0H50.4V43.6H47.465Zm8.8-2.933H53.332v2.933h2.933Z" transform="translate(998 1783.26)"></path></g></svg>