<svg xmlns="http://www.w3.org/2000/svg" width="170.244" height="135" viewBox="0 0 170.244 135"><defs><style>.a{fill:#1c43b9;stroke:#1c43b9;stroke-width:0.5px;}.b{fill:none;}</style></defs><g transform="translate(-537.756 -1460)"><g transform="translate(538.006 1468.64)"><path class="a" d="M94.77,130.314a1.29,1.29,0,0,1,2.579,0V149.55a1.29,1.29,0,0,1-2.579,0Zm-35.8-.188H18.586v25.652H58.975ZM17.3,127.552h42.97a1.294,1.294,0,0,1,1.29,1.286v28.222a1.287,1.287,0,0,1-1.29,1.278H17.3A1.289,1.289,0,0,1,16,157.061V128.839A1.3,1.3,0,0,1,17.3,127.552Zm85.939,8.622h42.972a1.29,1.29,0,0,1,1.292,1.286v19.6a1.289,1.289,0,0,1-1.292,1.278H103.236a1.288,1.288,0,0,1-1.291-1.278v-19.6A1.289,1.289,0,0,1,103.236,136.175Zm41.68,2.561H104.528v17.042h40.389Zm-42.971-19.6H61.556v36.645h40.389V119.133Zm-41.679-2.571h42.969a1.289,1.289,0,0,1,1.292,1.285V157.06a1.289,1.289,0,0,1-1.292,1.278H60.267a1.289,1.289,0,0,1-1.292-1.278V117.847A1.289,1.289,0,0,1,60.267,116.562ZM86.5,44.5a6.741,6.741,0,0,0-9.5.005,6.707,6.707,0,1,0,9.5-.005Zm-4.752-4.52a9.243,9.243,0,1,1-9.295,9.255,9.288,9.288,0,0,1,9.295-9.255Zm.032,21.381H76.413a1.28,1.28,0,0,1-.777-.263L59.868,50.512a1.64,1.64,0,0,0-1.689.078,5.276,5.276,0,0,0-1.531,1.278,6.427,6.427,0,0,0-1.111,1.868,2.627,2.627,0,0,0,.082,2.5L71.7,69.9a1.258,1.258,0,0,1,.445.971l.012,39.426a3.339,3.339,0,0,0,2.349,2.562,4.938,4.938,0,0,0,1.772.345,3.677,3.677,0,0,0,1.637-.332c1.079-.5,1.909-1.673,1.968-3.732L80.431,88.8a1.323,1.323,0,0,1,2.641,0l.556,20.346c.054,2.06.883,3.23,1.961,3.732a3.685,3.685,0,0,0,1.638.332A4.945,4.945,0,0,0,89,112.864a3.334,3.334,0,0,0,2.35-2.562V70.876a1.3,1.3,0,0,1,.455-.971l16.077-13.666a2.623,2.623,0,0,0,.084-2.5,6.383,6.383,0,0,0-1.113-1.868,5.208,5.208,0,0,0-1.53-1.278,1.637,1.637,0,0,0-1.687-.078L87.867,61.1a1.258,1.258,0,0,1-.776.263Zm-.032-2.572H86.7l15.49-10.408a4.085,4.085,0,0,1,4.3-.068,7.8,7.8,0,0,1,2.319,1.909,8.892,8.892,0,0,1,1.565,2.631,4.936,4.936,0,0,1-.612,5.132c-4.465,4.4-10.918,9.3-15.838,13.477l-.01,38.991a5.844,5.844,0,0,1-4,4.805,7.551,7.551,0,0,1-2.684.511,6.318,6.318,0,0,1-2.727-.564,5.532,5.532,0,0,1-2.759-2.781,5.537,5.537,0,0,1-2.76,2.781,6.321,6.321,0,0,1-2.726.564,7.515,7.515,0,0,1-2.684-.511,5.845,5.845,0,0,1-4-4.805L69.573,71.46c-4.92-4.177-11.371-9.081-15.835-13.477a4.935,4.935,0,0,1-.613-5.132,9.081,9.081,0,0,1,1.558-2.631,7.909,7.909,0,0,1,2.325-1.909,4.085,4.085,0,0,1,4.3.068L76.8,58.787h4.951Z" transform="translate(-16.005 -39.978)"></path></g><rect class="b" width="170" height="135" transform="translate(538 1460)"></rect></g></svg>