<svg xmlns="http://www.w3.org/2000/svg" width="172.15" height="135" viewBox="0 0 172.15 135"><defs><style>.a{fill:#1c43b9;stroke:#1b43b9;stroke-width:0.3px;}.b{fill:none;}</style></defs><g transform="translate(-997.85 -1167)"><g transform="translate(996 1193.457)"><path class="a" d="M9.676,22.054h3.351v-6.7H14.7V12H8v3.351H9.676Z" transform="translate(4.054 6.757)"></path><rect class="a" width="3" height="4" transform="translate(17 41.543)"></rect><path class="a" d="M2.926,31.986,5.351,33.2V48.92A1.675,1.675,0,0,0,7.027,50.6H23.784A1.675,1.675,0,0,0,25.46,48.92V33.2l2.425-1.213a1.675,1.675,0,0,0,.926-1.5V20.433a6.714,6.714,0,0,0-5.77-6.638,8.257,8.257,0,0,0,.743-3.416,8.379,8.379,0,1,0-16.757,0,8.257,8.257,0,0,0,.743,3.416A6.714,6.714,0,0,0,2,20.433V30.487a1.676,1.676,0,0,0,.927,1.5ZM5.351,20.433A3.355,3.355,0,0,1,8.7,17.081h2.312a1.675,1.675,0,0,0,1.1-2.937,4.953,4.953,0,0,1-1.74-3.765,5.027,5.027,0,1,1,10.054,0,4.953,4.953,0,0,1-1.74,3.765,1.675,1.675,0,0,0,1.1,2.937h2.312a3.355,3.355,0,0,1,3.351,3.351v9.018l-2.425,1.213a1.675,1.675,0,0,0-.926,1.5V47.244H8.7V32.163a1.676,1.676,0,0,0-.927-1.5L5.351,29.451Z" transform="translate(0 0)"></path><path class="a" d="M9.676,53.054h3.351v-6.7H14.7V43H8v3.351H9.676Z" transform="translate(4.054 27.704)"></path><rect class="a" width="3" height="4" transform="translate(17 93.543)"></rect><path class="a" d="M2.926,62.986,5.351,64.2V79.92A1.675,1.675,0,0,0,7.027,81.6H23.784A1.675,1.675,0,0,0,25.46,79.92V64.2l2.425-1.213a1.675,1.675,0,0,0,.926-1.5V51.433a6.714,6.714,0,0,0-5.77-6.638,8.257,8.257,0,0,0,.743-3.416,8.379,8.379,0,0,0-16.757,0,8.257,8.257,0,0,0,.743,3.416A6.714,6.714,0,0,0,2,51.433V61.487a1.676,1.676,0,0,0,.927,1.5ZM5.351,51.433A3.355,3.355,0,0,1,8.7,48.081h2.312a1.675,1.675,0,0,0,1.1-2.937,4.953,4.953,0,0,1-1.74-3.765,5.027,5.027,0,0,1,10.054,0,4.953,4.953,0,0,1-1.74,3.765,1.676,1.676,0,0,0,1.1,2.937h2.312a3.355,3.355,0,0,1,3.351,3.351v9.018l-2.425,1.213a1.675,1.675,0,0,0-.926,1.5V78.244H8.7V63.163a1.676,1.676,0,0,0-.927-1.5L5.351,60.451Z" transform="translate(0 20.947)"></path><path class="a" d="M57.027,22.054v-6.7H58.7V12H52v3.351h1.676v6.7Z" transform="translate(33.786 6.757)"></path><rect class="a" width="3" height="4" transform="translate(91 41.543)"></rect><path class="a" d="M67.041,13.795a8.257,8.257,0,0,0,.743-3.416,8.379,8.379,0,0,0-16.757,0,8.257,8.257,0,0,0,.743,3.416A6.714,6.714,0,0,0,46,20.433V30.487a1.676,1.676,0,0,0,.927,1.5L49.351,33.2V48.92A1.675,1.675,0,0,0,51.027,50.6H67.784A1.675,1.675,0,0,0,69.46,48.92V33.2l2.425-1.213a1.675,1.675,0,0,0,.926-1.5V20.433A6.714,6.714,0,0,0,67.041,13.795ZM69.46,29.451l-2.425,1.213a1.675,1.675,0,0,0-.926,1.5V47.244H52.7V32.163a1.676,1.676,0,0,0-.927-1.5l-2.425-1.212V20.433A3.355,3.355,0,0,1,52.7,17.081h2.312a1.675,1.675,0,0,0,1.1-2.937,4.953,4.953,0,0,1-1.74-3.765,5.027,5.027,0,1,1,10.054,0,4.953,4.953,0,0,1-1.74,3.765,1.675,1.675,0,0,0,1.1,2.937h2.312a3.355,3.355,0,0,1,3.351,3.351Z" transform="translate(29.731)"></path><path class="a" d="M57.027,53.054v-6.7H58.7V43H52v3.351h1.676v6.7Z" transform="translate(33.786 27.704)"></path><rect class="a" width="3" height="4" transform="translate(91 93.543)"></rect><path class="a" d="M67.041,44.795a8.257,8.257,0,0,0,.743-3.416,8.379,8.379,0,0,0-16.757,0,8.257,8.257,0,0,0,.743,3.416A6.714,6.714,0,0,0,46,51.433V61.487a1.676,1.676,0,0,0,.927,1.5L49.351,64.2V79.92A1.675,1.675,0,0,0,51.027,81.6H67.784A1.675,1.675,0,0,0,69.46,79.92V64.2l2.425-1.213a1.675,1.675,0,0,0,.926-1.5V51.433a6.714,6.714,0,0,0-5.77-6.638ZM69.46,60.451l-2.425,1.213a1.676,1.676,0,0,0-.926,1.5V78.244H52.7V63.163a1.676,1.676,0,0,0-.927-1.5l-2.425-1.212V51.433A3.355,3.355,0,0,1,52.7,48.081h2.312a1.675,1.675,0,0,0,1.1-2.937,4.953,4.953,0,0,1-1.74-3.765,5.027,5.027,0,1,1,10.054,0,4.953,4.953,0,0,1-1.74,3.765,1.676,1.676,0,0,0,1.1,2.937h2.312a3.355,3.355,0,0,1,3.351,3.351Z" transform="translate(29.731 20.947)"></path><rect class="a" width="3" height="2" transform="translate(32 19.543)"></rect><rect class="a" width="3" height="2" transform="translate(39 19.543)"></rect><rect class="a" width="2" height="2" transform="translate(46 19.543)"></rect><rect class="a" width="3" height="4" transform="translate(32 87.543)"></rect><rect class="a" width="3" height="4" transform="translate(39 87.543)"></rect><rect class="a" width="2" height="4" transform="translate(46 87.543)"></rect><rect class="a" width="3" height="4" transform="translate(69 87.543)"></rect><rect class="a" width="3" height="4" transform="translate(63 87.543)"></rect><rect class="a" width="3" height="4" transform="translate(56 87.543)"></rect><rect class="a" width="3" height="2" transform="translate(69 19.543)"></rect><rect class="a" width="3" height="2" transform="translate(63 19.543)"></rect><rect class="a" width="3" height="2" transform="translate(56 19.543)"></rect><path class="a" d="M48.03,23h0a9.521,9.521,0,0,0-6.988,3.071L39.381,27.84l-1.663-1.769a9.484,9.484,0,0,0-13.974,0,10.792,10.792,0,0,0,.182,14.562L38.152,55.978a1.676,1.676,0,0,0,1.224.537h0a1.673,1.673,0,0,0,1.221-.529L55.017,40.641a10.791,10.791,0,0,0,0-14.57h0A9.522,9.522,0,0,0,48.03,23Zm4.546,15.347L39.389,52.382,26.376,38.347a7.4,7.4,0,0,1-.19-9.981,6.137,6.137,0,0,1,9.09,0l2.883,3.069a1.728,1.728,0,0,0,2.443,0l2.88-3.069a6.276,6.276,0,0,1,9.092,0A7.394,7.394,0,0,1,52.576,38.347Z" transform="translate(12.844 14.19)"></path><path class="a" d="M27.293,18.663l6.7,6.7a1.675,1.675,0,0,0,2.37,0l6.7-6.7L40.7,16.293l-5.518,5.518-5.518-5.518Z" transform="translate(17.091 9.658)"></path><path class="a" d="M36.365,45.491a1.675,1.675,0,0,0-2.37,0l-6.7,6.7,2.37,2.369,5.518-5.518L40.7,54.563l2.369-2.37Z" transform="translate(17.091 29.056)"></path></g><rect class="b" width="170" height="135" transform="translate(1000 1167)"></rect></g></svg>