<svg xmlns="http://www.w3.org/2000/svg" width="170" height="135" viewBox="0 0 170 135"><defs><style>.a{fill:#1c43b9;}.b{fill:none;}</style></defs><g transform="translate(-538 -1167)"><g transform="translate(539.471 1182.017)"><path class="a" d="M113.849,87.868,104.025,71a1.681,1.681,0,0,0-1.452-.834H76.546V69.8a10.754,10.754,0,0,1,2.57-6.818A24.042,24.042,0,0,0,84.523,47.2,24.415,24.415,0,0,0,61.479,23.7,24.084,24.084,0,0,0,41.873,63.073a10.3,10.3,0,0,1,2.5,6.579v.519H23.551A1.68,1.68,0,0,0,22.1,71L12.276,87.868a1.681,1.681,0,0,0,1.452,2.526h8.143v19.073a1.68,1.68,0,0,0,1.68,1.68h79.023a1.68,1.68,0,0,0,1.68-1.68V90.394H112.4a1.68,1.68,0,0,0,1.452-2.526ZM44.464,60.933a20.719,20.719,0,0,1,1.668-28.141,20.493,20.493,0,0,1,15.207-5.737,21.006,21.006,0,0,1,19.825,20.22h0a20.684,20.684,0,0,1-4.651,13.578A14.074,14.074,0,0,0,73.185,69.8v.371h-3.3V58.818a8.876,8.876,0,0,0-17.752,0V70.171h-4.4v-.519A13.807,13.807,0,0,0,44.464,60.933Zm22.06,9.237H55.492V58.818a5.516,5.516,0,0,1,11.031,0Zm-42.007,3.36H72.322l-7.862,13.5H16.651Zm.715,16.863H65.426a1.681,1.681,0,0,0,.437-.058l.013-.005a1.683,1.683,0,0,0,.388-.161c.01-.006.017-.015.027-.02a1.673,1.673,0,0,0,.318-.243c.006-.006.009-.014.015-.019a1.674,1.674,0,0,0,.254-.328l6.691-11.487v29.713H25.231Zm75.662,17.392H76.929V78.074L83.62,89.56a1.68,1.68,0,0,0,1.452.834h15.822Zm1.68-20.753H86.037l-7.865-13.5h23.436l7.866,13.5Z" transform="translate(-12.048 -6.973)"></path><path class="a" d="M48,21.063a1.68,1.68,0,0,0,1.68-1.68V12.93a1.68,1.68,0,1,0-3.36,0v6.452A1.68,1.68,0,0,0,48,21.063Z" transform="translate(-0.251 -11.25)"></path><path class="a" d="M33.433,24.978A1.68,1.68,0,0,0,36.151,23l-3.792-5.221a1.68,1.68,0,1,0-2.719,1.976Z" transform="translate(-6.103 -9.24)"></path><path class="a" d="M20.157,35.087l6.137,1.994a1.68,1.68,0,0,0,1.038-3.2L21.2,31.89a1.68,1.68,0,1,0-1.038,3.2Z" transform="translate(-9.657 -4.174)"></path><path class="a" d="M26.593,48.383l-6.136,1.994a1.68,1.68,0,1,0,1.038,3.2l6.136-1.994a1.68,1.68,0,0,0-1.038-3.2Z" transform="translate(-9.554 1.502)"></path><path class="a" d="M78.389,49.455l-6.137-1.994a1.68,1.68,0,0,0-1.038,3.2l6.137,1.994a1.68,1.68,0,1,0,1.038-3.2Z" transform="translate(7.916 1.185)"></path><path class="a" d="M71.433,36.241a1.687,1.687,0,0,0,.52-.083l6.136-1.994a1.68,1.68,0,1,0-1.038-3.2l-6.136,1.994a1.681,1.681,0,0,0,.519,3.279Z" transform="translate(7.813 -4.492)"></path><path class="a" d="M62.368,25.1a1.679,1.679,0,0,0,1.361-.692l3.793-5.22A1.68,1.68,0,1,0,64.8,17.212l-3.793,5.22A1.68,1.68,0,0,0,62.368,25.1Z" transform="translate(4.694 -9.436)"></path></g><rect class="b" width="170" height="135" transform="translate(538 1167)"></rect></g></svg>