<svg xmlns="http://www.w3.org/2000/svg" width="115" height="100" viewBox="0 0 115 100"><defs><style>.a{fill:#ce1010;}.b{fill:none;}</style></defs><g transform="translate(-536 -867)"><g transform="translate(538.019 876.512)"><path class="a" d="M98.526,64h-5.7a1.258,1.258,0,0,0-1.165.784l-10.783,26.5a.806.806,0,0,1-.578.383H61.658a.737.737,0,0,1-.529-.361l-1.741-4.669h7.069a1.258,1.258,0,1,0,0-2.515H58.449l-1.407-3.773H70.229a1.258,1.258,0,0,0,0-2.515s-14.023.013-14.113.033L54.7,74.061H80.143a1.258,1.258,0,1,0,0-2.515H54.154a2.071,2.071,0,0,0-2.007,2.877l6.625,17.763a3.216,3.216,0,0,0,2.886,2H80.3a3.3,3.3,0,0,0,2.908-1.95L93.668,66.515h4.857a1.258,1.258,0,0,0,0-2.515Z" transform="translate(-19.302 -23.756)"></path><path class="a" d="M89.773,116a3.773,3.773,0,1,0,3.773,3.773A3.773,3.773,0,0,0,89.773,116Zm0,5.031a1.258,1.258,0,1,1,1.258-1.258A1.258,1.258,0,0,1,89.773,121.031Z" transform="translate(-31.929 -43.058)"></path><path class="a" d="M71.773,116a3.773,3.773,0,1,0,3.773,3.773A3.773,3.773,0,0,0,71.773,116Zm0,5.031a1.258,1.258,0,1,1,1.258-1.258A1.258,1.258,0,0,1,71.773,121.031Z" transform="translate(-25.247 -43.058)"></path><path class="a" d="M64.118,57.863V40.256A1.258,1.258,0,0,0,62.861,39H45.254A1.258,1.258,0,0,0,44,40.256v1.011l2.515,1.05v-.8H61.6V56.605H46.787c-.021,0-.042,0-.063,0s-.036,0-.053,0h-.16V56.6a6.238,6.238,0,0,1-2.273-.509L44,56v1.867a1.258,1.258,0,0,0,1.258,1.258H62.861a1.258,1.258,0,0,0,1.258-1.258Z" transform="translate(-16.337 -14.476)"></path><path class="a" d="M17.543,15.092A7.546,7.546,0,1,0,10,7.545a7.546,7.546,0,0,0,7.547,7.546Zm0-12.576a5.031,5.031,0,1,1-5.032,5.031A5.03,5.03,0,0,1,17.543,2.515Z" transform="translate(-3.717)"></path><path class="a" d="M36.3,49.4a1.2,1.2,0,0,1-1.6.572c-.026-.013-16.631-6.346-16.631-6.346a1.257,1.257,0,1,0-.9,2.35l16.513,6.3a3.755,3.755,0,0,0,2.819.1,3.667,3.667,0,0,0,2.079-1.926c.15-.329.3-.657.456-.983a3.682,3.682,0,0,0-1.726-4.941c-.02-.01-22.578-9.43-22.578-9.43a1.258,1.258,0,1,0-.969,2.322L36.248,46.8a1.191,1.191,0,0,1,.518,1.59C36.609,48.73,36.452,49.067,36.3,49.4Z" transform="translate(-4.83 -12.991)"></path><path class="a" d="M22.628,56.182a1.259,1.259,0,0,1-1.258,1.258H6.279a1.259,1.259,0,0,1-1.258-1.258V32.238a6.129,6.129,0,0,1,5.412-6.211A10.058,10.058,0,0,1,7.4,24.3a8.78,8.78,0,0,0-4.9,7.933V56.182a3.759,3.759,0,0,0,1.226,2.776l2.042,8.721L.257,83.813a3.541,3.541,0,0,0,1.7,4.545l1.908.866a3.212,3.212,0,0,0,2.5.055,3.529,3.529,0,0,0,1.937-1.926l7.618-17.411a5.779,5.779,0,0,0,.375-2.761l-1.017-7.227h5.457V85.6a1.335,1.335,0,0,1-1.258,1.4H16.968a1.334,1.334,0,0,1-1.257-1.4V76.71L13.2,82.459V85.6a3.849,3.849,0,0,0,3.772,3.912h2.515A3.849,3.849,0,0,0,23.257,85.6V59.444a3.773,3.773,0,0,0,1.886-3.263v-6.6l-2.515-.959ZM13.621,68.938,5.994,86.369a.864.864,0,0,1-1.087.564L3,86.067a1.03,1.03,0,0,1-.4-1.333c.01-.024.019-.049.028-.073L8.271,68.15a1.257,1.257,0,0,0,.034-.693l-1.756-7.5h6.2l1.067,7.575a3.385,3.385,0,0,1-.19,1.408Z" transform="translate(0 -9.022)"></path><path class="a" d="M27.393,26.027a6.129,6.129,0,0,1,5.41,6.211v1.475l2.515,1.05V32.238a8.781,8.781,0,0,0-4.9-7.933A10.055,10.055,0,0,1,27.393,26.027Z" transform="translate(-10.174 -9.022)"></path></g><rect class="b" width="115" height="100" transform="translate(536 867)"></rect></g></svg>