<svg xmlns="http://www.w3.org/2000/svg" width="115" height="100" viewBox="0 0 115 100"><defs><style>.a{fill:#ce1010;stroke:#fff;stroke-width:0.3px;}.b{fill:none;}</style></defs><g transform="translate(-982 -1774)"><g transform="translate(955 1773.148)"><g transform="translate(29.004 29.002)"><g transform="translate(0 0)"><path class="a" d="M62.774,90.875H57.106a1.363,1.363,0,0,1-1.33-1.066l-1.7-7.631a22.879,22.879,0,0,1-5.7-2.361l-6.619,4.19a1.363,1.363,0,0,1-1.693-.188l-4-4a1.363,1.363,0,0,1-.188-1.693l4.189-6.617a22.706,22.706,0,0,1-2.361-5.7L30.07,64.1A1.363,1.363,0,0,1,29,62.773V57.1a1.363,1.363,0,0,1,1.066-1.33l7.631-1.7a22.873,22.873,0,0,1,2.361-5.7l-4.19-6.619a1.363,1.363,0,0,1,.188-1.693l4-4a1.363,1.363,0,0,1,1.694-.187l6.616,4.2a22.921,22.921,0,0,1,5.7-2.368l1.705-7.635A1.363,1.363,0,0,1,57.106,29h5.668a1.363,1.363,0,0,1,1.33,1.066l1.889,8.458a1.363,1.363,0,0,1-2.66.594l-1.651-7.393H58.2L56.547,39.12a1.363,1.363,0,0,1-1.028,1.032,20.226,20.226,0,0,0-6.425,2.673,1.363,1.363,0,0,1-1.464,0l-6.41-4.069-2.461,2.461,4.059,6.411a1.363,1.363,0,0,1,0,1.458,20.182,20.182,0,0,0-2.662,6.424,1.363,1.363,0,0,1-1.033,1.034L31.73,58.2V61.68l7.393,1.651a1.363,1.363,0,0,1,1.033,1.035,20.007,20.007,0,0,0,2.66,6.421,1.363,1.363,0,0,1,0,1.461l-4.059,6.411,2.462,2.462,6.411-4.059a1.364,1.364,0,0,1,1.458,0,20.177,20.177,0,0,0,6.424,2.662,1.363,1.363,0,0,1,1.034,1.033L58.2,88.149h3.484l1.651-7.393a1.363,1.363,0,0,1,1.034-1.033,20.007,20.007,0,0,0,6.421-2.66,1.363,1.363,0,0,1,1.461,0l6.411,4.059,2.462-2.462-4.059-6.411a1.363,1.363,0,0,1,0-1.458,20.177,20.177,0,0,0,2.662-6.424,1.363,1.363,0,0,1,1.033-1.034l7.393-1.651V58.2l-7.393-1.651a1.363,1.363,0,1,1,.594-2.66l8.458,1.889a1.363,1.363,0,0,1,1.066,1.33v5.668a1.363,1.363,0,0,1-1.066,1.33l-7.631,1.7a22.877,22.877,0,0,1-2.361,5.7l4.19,6.619a1.363,1.363,0,0,1-.188,1.693l-4,4a1.363,1.363,0,0,1-1.693.188l-6.617-4.189a22.7,22.7,0,0,1-5.7,2.361l-1.7,7.631A1.363,1.363,0,0,1,62.774,90.875Z" transform="translate(-29.004 -29.002)"></path><g transform="translate(17.308 17.308)"><path class="a" d="M169.629,183.257A13.629,13.629,0,0,1,169.605,156h0a1.363,1.363,0,0,1,0,2.726,10.9,10.9,0,1,0,10.922,10.9V169.6h0a1.363,1.363,0,0,1,1.36-1.366h0a1.364,1.364,0,0,1,1.363,1.359v.031a13.617,13.617,0,0,1-13.629,13.629Zm8.656-20.957a1.356,1.356,0,0,1-.962-.4h0a1.363,1.363,0,0,1,1.923-1.931h0a1.362,1.362,0,0,1-.962,2.328Z" transform="translate(-156 -156)"></path></g><g transform="translate(22.759 22.759)"><path class="a" d="M204.177,212.354h0A8.177,8.177,0,0,1,204.151,196h0a1.363,1.363,0,0,1,0,2.726,5.451,5.451,0,1,0,5.469,5.451v-.023a1.364,1.364,0,0,1,1.357-1.368h.005a1.366,1.366,0,0,1,1.363,1.357v.034a8.171,8.171,0,0,1-8.177,8.177Zm4.8-11.65h0a1.366,1.366,0,1,1,.966-.4A1.358,1.358,0,0,1,208.978,200.7Z" transform="translate(-196 -196)"></path></g><g transform="translate(29.573 12.81)"><path class="a" d="M247.363,130.221A1.363,1.363,0,0,1,246,128.858v-4.5a1.363,1.363,0,0,1,2.726,0v4.5A1.363,1.363,0,0,1,247.363,130.221Z" transform="translate(-246 -122.997)"></path></g><g transform="translate(29.573 42.384)"><path class="a" d="M247.363,347.218A1.363,1.363,0,0,1,246,345.855v-4.5a1.363,1.363,0,0,1,2.726,0v4.5A1.363,1.363,0,0,1,247.363,347.218Z" transform="translate(-246 -339.994)"></path></g><g transform="translate(42.111 29.846)"><path class="a" d="M343.858,250.723h-4.5a1.363,1.363,0,1,1,0-2.726h4.5a1.363,1.363,0,1,1,0,2.726Z" transform="translate(-337.997 -247.997)"></path></g><g transform="translate(12.538 29.846)"><path class="a" d="M126.861,250.723h-4.5a1.363,1.363,0,1,1,0-2.726h4.5a1.363,1.363,0,1,1,0,2.726Z" transform="translate(-121 -247.997)"></path></g><g transform="translate(30.119 14.173)"><path class="a" d="M251.363,150.713a1.363,1.363,0,0,1-.964-2.327L265.391,133.4a1.363,1.363,0,0,1,1.927,1.927l-14.991,14.991A1.359,1.359,0,0,1,251.363,150.713Z" transform="translate(-250 -132.996)"></path></g><g transform="translate(44.138 0.544)"><path class="a" d="M355.14,49.409a1.363,1.363,0,0,1-1.349-1.17l-.912-6.388a1.363,1.363,0,0,1,.385-1.156l7.3-7.3a1.363,1.363,0,0,1,2.313.771l.913,6.388a1.363,1.363,0,0,1-.385,1.156l-7.3,7.3A1.362,1.362,0,0,1,355.14,49.409Zm.533-7.269.431,3.015,4.892-4.891-.431-3.015Z" transform="translate(-352.864 -32.995)"></path></g><g transform="translate(45.05 6.932)"><path class="a" d="M367.31,90.808a1.353,1.353,0,0,1-.193-.014l-6.388-.913a1.363,1.363,0,0,1-.771-2.313l7.3-7.3a1.364,1.364,0,0,1,1.156-.385l6.388.913a1.363,1.363,0,0,1,.771,2.313l-7.3,7.3A1.363,1.363,0,0,1,367.31,90.808Zm-3.5-3.239,3.015.431,4.891-4.891-3.015-.431Z" transform="translate(-359.559 -79.869)"></path></g></g></g></g><rect class="b" width="115" height="100" transform="translate(982 1774)"></rect></g></svg>