<svg xmlns="http://www.w3.org/2000/svg" width="170.001" height="135" viewBox="0 0 170.001 135"><defs><style>.a{fill:#1c43b9;}.b{fill:none;}</style></defs><g transform="translate(-537.999 -1755)"><g transform="translate(379 -160.502)"><path class="a" d="M39.722,56.039c-.315-.46-1.453-2.066-5.877-8.318a4.666,4.666,0,0,0-7.936,4.87l.682,1.179-2.653-.885-4.165-8.331-1.111-4.443a4.108,4.108,0,0,0-8.037,1.673l.11.664-.482-.562a4.7,4.7,0,0,0-6.164-.848A4.689,4.689,0,0,0,2.85,47.63L12.19,60.974a4.873,4.873,0,0,0,.784.877l6.432,5.628c.471.412,1.017.84,1.59,1.286,1.98,1.548,4.222,3.3,4.086,5.2-.078,1.082-.195,2.16-.312,3.236l-.024.226,3.228.349L28,77.55c.122-1.117.242-2.234.322-3.353.261-3.625-2.835-6.046-5.323-7.99-.521-.408-1.021-.8-1.452-1.174l-6.429-5.625a1.664,1.664,0,0,1-.263-.294L5.511,45.766a1.441,1.441,0,0,1,.38-2.027,1.449,1.449,0,0,1,1.9.26l7.426,8.667a4.892,4.892,0,0,0,2.048,1.414l4.37,1.458.026.052.052-.026,7.332,2.446.346.6a1.645,1.645,0,0,1,.218.814v1.937h3.248V59.421a4.9,4.9,0,0,0-.653-2.439l-3.433-5.93A1.419,1.419,0,0,1,30.037,49a1.422,1.422,0,0,1,1.158.6s5.778,8.165,5.885,8.319c2.8,3.946,2.587,8.73,2.355,13.8-.091,1.967-.182,4-.083,5.969l3.245-.166c-.094-1.816-.008-3.681.083-5.654.245-5.393.5-10.969-2.951-15.825ZM18.345,51.019a1.626,1.626,0,0,1-.661-.463l-2.863-3.34-.994-5.966a.862.862,0,0,1,1.686-.352l1.153,4.615a1.7,1.7,0,0,0,.122.333l2.791,5.585Z" transform="translate(157 1959.837)"></path><path class="a" d="M75.589,41.035a4.7,4.7,0,0,0-6.164.849l-.482.562.11-.666a4.107,4.107,0,0,0-8.037-1.669l-1.111,4.441L55.74,52.883l-2.657.887.732-1.267a4.666,4.666,0,0,0-7.983-4.781c-4.424,6.25-5.56,7.856-5.875,8.316l-.006,0C36.5,60.891,36.754,66.467,37,71.86c.091,1.975.175,3.839.083,5.654l3.245.166c.1-1.971.008-4-.083-5.969-.232-5.065-.448-9.849,2.361-13.8.1-.146,5.879-8.311,5.877-8.309a1.425,1.425,0,0,1,1.159-.6,1.4,1.4,0,0,1,1.2.672,1.36,1.36,0,0,1,.109,1.293l-3.48,6.02a4.885,4.885,0,0,0-.653,2.437v1.937h3.248V59.421a1.62,1.62,0,0,1,.219-.812l.346-.6,7.332-2.447.052.026.026-.052,4.425-1.476a4.862,4.862,0,0,0,1.988-1.392L71.89,44a1.445,1.445,0,0,1,1.9-.261,1.442,1.442,0,0,1,.38,2.028l-9.344,13.35a1.722,1.722,0,0,1-.258.287l-6.432,5.628c-.43.377-.929.766-1.452,1.174-2.488,1.944-5.585,4.365-5.323,7.988.08,1.12.2,2.239.322,3.355l.024.224,3.228-.349-.024-.226c-.117-1.077-.235-2.155-.312-3.238-.136-1.9,2.106-3.649,4.086-5.2.573-.447,1.117-.874,1.59-1.286l6.436-5.632a4.747,4.747,0,0,0,.779-.87L76.83,47.632a4.694,4.694,0,0,0-1.241-6.6Zm-13.6,9.524a1.557,1.557,0,0,1-.6.44l-1.289.43,2.791-5.585a1.6,1.6,0,0,0,.122-.333L64.165,40.9A.863.863,0,0,1,65,40.248a.842.842,0,0,1,.656.305.851.851,0,0,1,.192.7l-.994,5.965Z" transform="translate(178.757 1959.837)"></path><path class="a" d="M42.239,52.845V39.234l2.35-1.176a1.621,1.621,0,0,0,.9-1.452V26.863A8.111,8.111,0,0,0,40.8,19.529,6.431,6.431,0,0,0,42.239,15.5a6.5,6.5,0,0,0-12.991,0,6.431,6.431,0,0,0,1.444,4.034A8.111,8.111,0,0,0,26,26.863v9.743a1.626,1.626,0,0,0,.9,1.453l2.35,1.174V52.845a1.622,1.622,0,0,0,1.624,1.624h9.743A1.622,1.622,0,0,0,42.239,52.845Zm-6.5-40.6A3.248,3.248,0,1,1,32.5,15.5,3.251,3.251,0,0,1,35.743,12.248ZM38.991,38.23V51.221H32.5V38.23a1.626,1.626,0,0,0-.9-1.453L29.248,35.6v-8.74a4.878,4.878,0,0,1,4.872-4.872h3.248a4.878,4.878,0,0,1,4.872,4.872V35.6l-2.35,1.176A1.621,1.621,0,0,0,38.991,38.23Z" transform="translate(171.974 1942.367)"></path><path class="a" d="M62.735,16.615v-6.5A1.622,1.622,0,0,0,61.111,8.5H56.239V3.624A1.622,1.622,0,0,0,54.615,2h-6.5A1.622,1.622,0,0,0,46.5,3.624V8.5H41.624A1.622,1.622,0,0,0,40,10.119v6.5a1.622,1.622,0,0,0,1.624,1.624H46.5v4.872a1.622,1.622,0,0,0,1.624,1.624h6.5a1.622,1.622,0,0,0,1.624-1.624V18.239h4.872A1.622,1.622,0,0,0,62.735,16.615Zm-3.248-1.624H54.615a1.622,1.622,0,0,0-1.624,1.624v4.872H49.743V16.615a1.622,1.622,0,0,0-1.624-1.624H43.248V11.743H48.12a1.622,1.622,0,0,0,1.624-1.624V5.248h3.248v4.872a1.622,1.622,0,0,0,1.624,1.624h4.872Z" transform="translate(180.709 1938)"></path><path class="a" d="M51.669,34.575,48.9,32.885a30.652,30.652,0,0,1-1.734,2.545l2.589,1.963C50.434,36.492,51.078,35.543,51.669,34.575Z" transform="translate(185.178 1957.269)"></path><path class="a" d="M26.281,44.415c1.095.307,2.212.563,3.324.76l.562-3.2a30.4,30.4,0,0,1-3-.687Z" transform="translate(172.149 1962.511)"></path><path class="a" d="M30.652,41.946l-.242,3.238c.853.063,1.715.1,2.582.1.274,0,.549,0,.822-.01l-.08-3.248C32.7,42.052,31.669,42.021,30.652,41.946Z" transform="translate(174.725 1962.922)"></path><path class="a" d="M34.354,42.057l.393,3.223a33.926,33.926,0,0,0,3.358-.583l-.719-3.168A29.3,29.3,0,0,1,34.354,42.057Z" transform="translate(177.186 1962.662)"></path><path class="a" d="M53.383,30.57l-3.055-1.1c-.348.96-.749,1.916-1.192,2.842l2.928,1.4A33.631,33.631,0,0,0,53.383,30.57Z" transform="translate(186.409 1955.136)"></path><path class="a" d="M42.257,43.283l-1.338-2.959a30.031,30.031,0,0,1-2.869,1.125l1.034,3.079C40.157,44.168,41.225,43.749,42.257,43.283Z" transform="translate(179.491 1961.91)"></path><path class="a" d="M37.136,2.562l-.745,3.163c.991.234,1.989.523,2.96.857L40.41,3.512C39.335,3.142,38.233,2.823,37.136,2.562Z" transform="translate(178.457 1938.351)"></path><path class="a" d="M41.5,40.1l1.627,2.809c.981-.568,1.942-1.189,2.86-1.851l-1.9-2.636C43.263,39.022,42.391,39.587,41.5,40.1Z" transform="translate(181.647 1960.724)"></path><path class="a" d="M54.24,26.263l-3.214-.473c-.148,1.005-.351,2.023-.6,3.025l3.149.786A33.251,33.251,0,0,0,54.24,26.263Z" transform="translate(187.214 1952.843)"></path><path class="a" d="M54.264,23.689q0-.9-.045-1.794l-3.245.171q.041.806.042,1.624c0,.49-.013.978-.034,1.46l3.245.153Q54.263,24.5,54.264,23.689Z" transform="translate(187.555 1950.412)"></path><path class="a" d="M54.23,21.091a33.8,33.8,0,0,0-.682-3.34L50.4,18.56a30.747,30.747,0,0,1,.619,3.022Z" transform="translate(187.198 1947.827)"></path><path class="a" d="M44.582,38.065l2.15,2.433c.853-.755,1.673-1.556,2.437-2.381L46.787,35.91A30.732,30.732,0,0,1,44.582,38.065Z" transform="translate(183.567 1959.156)"></path><path class="a" d="M11,24.212l3.248.013c0-1.026.06-2.064.166-3.079l-3.232-.333C11.067,21.935,11,23.078,11,24.212Z" transform="translate(162.616 1949.737)"></path><path class="a" d="M16.056,31.43a30.421,30.421,0,0,1-1.043-2.9l-3.108.939a33.4,33.4,0,0,0,1.153,3.21Z" transform="translate(163.18 1954.555)"></path><path class="a" d="M11.433,20.005l3.181.656c.206-1,.466-2,.773-2.986l-3.1-.968A34.059,34.059,0,0,0,11.433,20.005Z" transform="translate(162.886 1947.176)"></path><path class="a" d="M14.771,27.862a29.634,29.634,0,0,1-.442-3.048l-3.235.3a34.052,34.052,0,0,0,.49,3.374Z" transform="translate(162.674 1952.234)"></path><path class="a" d="M19.268,11.5,16.791,9.4c-.732.862-1.429,1.772-2.072,2.7l2.671,1.85C17.972,13.11,18.6,12.287,19.268,11.5Z" transform="translate(164.936 1942.619)"></path><path class="a" d="M12.688,15.914l2.985,1.278a30.743,30.743,0,0,1,1.354-2.767l-2.842-1.574A34.044,34.044,0,0,0,12.688,15.914Z" transform="translate(163.669 1944.77)"></path><path class="a" d="M25.15,7.141l-1.465-2.9c-1.012.512-2.006,1.078-2.96,1.687l1.747,2.738C23.335,8.118,24.236,7.6,25.15,7.141Z" transform="translate(168.683 1939.399)"></path><path class="a" d="M29.05,5.643a30.331,30.331,0,0,1,3.061-.356L31.9,2.046a34.048,34.048,0,0,0-3.387.393Z" transform="translate(173.541 1938.029)"></path><path class="a" d="M26.677,41.171c-.95-.375-1.9-.805-2.808-1.275l-1.487,2.886c1.008.52,2.053.994,3.1,1.408Z" transform="translate(169.717 1961.643)"></path><path class="a" d="M28.561,5.872l-.853-3.134A33.718,33.718,0,0,0,24.467,3.8L25.635,6.83A30.482,30.482,0,0,1,28.561,5.872Z" transform="translate(171.018 1938.46)"></path><path class="a" d="M20.458,37.436c-.723-.711-1.429-1.473-2.1-2.267l-2.486,2.087c.732.875,1.51,1.716,2.309,2.5Z" transform="translate(165.657 1958.694)"></path><path class="a" d="M23.4,39.637c-.849-.554-1.692-1.163-2.5-1.811l-2.027,2.537c.893.713,1.82,1.385,2.757,2Z" transform="translate(167.523 1960.352)"></path><path class="a" d="M22.011,9.045,20,6.495a33.653,33.653,0,0,0-2.567,2.239l2.252,2.337C20.423,10.362,21.205,9.679,22.011,9.045Z" transform="translate(166.629 1940.804)"></path><path class="a" d="M17.979,34.667c-.575-.848-1.114-1.734-1.6-2.637l-2.855,1.548c.539,1,1.135,1.975,1.768,2.91Z" transform="translate(164.188 1956.736)"></path><path class="a" d="M32.629,5.257c1.031.034,2.064.119,3.074.252l.429-3.219a33.692,33.692,0,0,0-3.4-.278Z" transform="translate(176.11 1938.007)"></path></g><rect class="b" width="170" height="135" transform="translate(538 1755)"></rect></g></svg>