<svg xmlns="http://www.w3.org/2000/svg" width="170" height="135" viewBox="0 0 170 135"><defs><style>.a,.b{fill:#1c43b9;}.b{stroke:#fff;stroke-width:0.25px;}.c{fill:none;}.d,.e{stroke:none;}.e{fill:#fff;}</style></defs><g transform="translate(-538 -1460)"><g transform="translate(532.601 1477.464)"><g transform="translate(5.399 1.999)"><g class="a" transform="translate(21.04 12.423)"><path class="d" d="M 35.7017707824707 25.27854156494141 C 34.28092956542969 25.27854156494141 33.125 24.12261009216309 33.125 22.7017707824707 C 33.125 21.28093147277832 34.28092956542969 20.125 35.7017707824707 20.125 C 37.12261199951172 20.125 38.27854156494141 21.28093147277832 38.27854156494141 22.7017707824707 C 38.27854156494141 24.12261009216309 37.12261199951172 25.27854156494141 35.7017707824707 25.27854156494141 Z"></path><path class="e" d="M 35.7017707824707 25.15354156494141 C 37.05368041992188 25.15354156494141 38.15354156494141 24.05368041992188 38.15354156494141 22.7017707824707 C 38.15354156494141 21.34986114501953 37.05368041992188 20.25 35.7017707824707 20.25 C 34.34986114501953 20.25 33.25 21.34986114501953 33.25 22.7017707824707 C 33.25 24.05368041992188 34.34986114501953 25.15354156494141 35.7017707824707 25.15354156494141 M 35.7017707824707 25.40354156494141 C 34.20962142944336 25.40354156494141 33 24.19392013549805 33 22.7017707824707 C 33 21.20963096618652 34.20962142944336 20 35.7017707824707 20 C 37.19392013549805 20 38.40354156494141 21.20963096618652 38.40354156494141 22.7017707824707 C 38.40354156494141 24.19392013549805 37.19392013549805 25.40354156494141 35.7017707824707 25.40354156494141 Z"></path></g><g class="a" transform="translate(28.25 12.423)"><path class="d" d="M 44.7017707824707 25.27854156494141 C 43.28092956542969 25.27854156494141 42.125 24.12261009216309 42.125 22.7017707824707 C 42.125 21.28093147277832 43.28092956542969 20.125 44.7017707824707 20.125 C 46.12261199951172 20.125 47.27854156494141 21.28093147277832 47.27854156494141 22.7017707824707 C 47.27854156494141 24.12261009216309 46.12261199951172 25.27854156494141 44.7017707824707 25.27854156494141 Z"></path><path class="e" d="M 44.7017707824707 25.15354156494141 C 46.05368041992188 25.15354156494141 47.15354156494141 24.05368041992188 47.15354156494141 22.7017707824707 C 47.15354156494141 21.34986114501953 46.05368041992188 20.25 44.7017707824707 20.25 C 43.34986114501953 20.25 42.25 21.34986114501953 42.25 22.7017707824707 C 42.25 24.05368041992188 43.34986114501953 25.15354156494141 44.7017707824707 25.15354156494141 M 44.7017707824707 25.40354156494141 C 43.20962142944336 25.40354156494141 42 24.19392013549805 42 22.7017707824707 C 42 21.20963096618652 43.20962142944336 20 44.7017707824707 20 C 46.19392013549805 20 47.40354156494141 21.20963096618652 47.40354156494141 22.7017707824707 C 47.40354156494141 24.19392013549805 46.19392013549805 25.40354156494141 44.7017707824707 25.40354156494141 Z"></path></g><g class="b" transform="translate(59.601 43)"><rect class="d" width="11" height="4"></rect><rect class="c" x="0.125" y="0.125" width="10.75" height="3.75"></rect></g><g class="a" transform="translate(-2.998 -1.999)"><path class="d" d="M 100.2657165527344 109.9468460083008 L 48.03144073486328 109.9468460083008 C 47.79811859130859 109.9465103149414 47.5714111328125 109.8985748291016 47.35781097412109 109.8043746948242 L 47.33039855957031 109.7922973632812 L 47.30049133300781 109.7939376831055 L 44.52465438842773 109.9468460083008 L 33.62198638916016 109.9468460083008 C 29.71821212768555 109.9468460083008 26.54226493835449 106.7708969116211 26.54226493835449 102.8671264648438 L 26.54226493835449 102.7421264648438 L 26.41726493835449 102.7421264648438 L 24.61609268188477 102.7421264648438 C 23.69183921813965 102.7421264648438 22.93990516662598 101.9901885986328 22.93990516662598 101.0659332275391 L 22.93990516662598 84.85529327392578 C 22.94086647033691 84.41362762451172 23.11230659484863 83.99692535400391 23.42265319824219 83.68224334716797 L 23.47402572631836 83.63014984130859 L 23.45375823974609 83.55986022949219 L 20.66731834411621 73.89111328125 L 20.64197158813477 73.80312347412109 L 20.55043983459473 73.80076599121094 C 16.72910499572754 73.70204162597656 13.10923957824707 72.416015625 10.0821590423584 70.08168029785156 C 7.055078983306885 67.74736022949219 4.891185760498047 64.57327270507812 3.82441258430481 60.90253829956055 C 3.168265819549561 58.64427185058594 2.97015905380249 56.31445693969727 3.235572576522827 53.97781753540039 C 3.500999212265015 51.64117813110352 4.216612339019775 49.4151496887207 5.362545967102051 47.36157608032227 C 8.519172668457031 41.68913650512695 14.51033210754395 38.16543197631836 20.99807929992676 38.16543197631836 C 21.66914558410645 38.16543197631836 22.34837341308594 38.20380401611328 23.01689338684082 38.27948379516602 C 26.53895950317383 38.67823028564453 29.8328800201416 40.09681701660156 32.54256057739258 42.38188171386719 C 35.25222396850586 44.66695022583008 37.20647811889648 47.67413711547852 38.19402694702148 51.07835006713867 C 38.85022735595703 53.33696365356445 39.04835891723633 55.66708374023438 38.7829475402832 58.0040168762207 C 38.51752090454102 60.34095001220703 37.8018798828125 62.56728363037109 36.65589141845703 64.62116241455078 C 35.91913223266602 65.94073486328125 35.01642608642578 67.16421508789062 33.97285079956055 68.25757598876953 L 34.11919784545898 68.45568084716797 C 34.16382598876953 68.43336486816406 34.20777130126953 68.40936279296875 34.25161361694336 68.38539123535156 C 34.30788040161133 68.35462951660156 34.36103820800781 68.3255615234375 34.41492080688477 68.30055236816406 C 35.26303863525391 67.89311218261719 36.16121292114258 67.60329437255859 37.08598709106445 67.43846893310547 L 52.98979949951172 64.44468688964844 L 53.00849151611328 64.441162109375 L 53.02530670166016 64.43224334716797 L 57.09598541259766 62.27081680297852 L 57.16235733032227 62.23557662963867 L 57.16235733032227 62.16041564941406 L 57.16234588623047 60.24756240844727 L 57.16234588623047 60.1781120300293 L 57.10337066650391 60.14141845703125 C 54.88597106933594 58.76217651367188 53.05329132080078 56.82121658325195 51.80345153808594 54.52838897705078 C 50.55361175537109 52.23556518554688 49.91533279418945 49.64352416992188 49.95761108398438 47.03252410888672 L 49.95762634277344 45.22930908203125 L 49.95762634277344 45.10430908203125 L 49.83262634277344 45.10430908203125 C 45.92885208129883 45.10430908203125 42.75290679931641 41.92834854125977 42.75290679931641 38.02457809448242 C 42.75290679931641 34.12080383300781 45.92885208129883 30.94485664367676 49.83262634277344 30.94485664367676 L 49.95762634277344 30.94485664367676 L 49.95762634277344 30.81985664367676 C 49.95762634277344 30.79464340209961 49.96003723144531 30.7679500579834 49.96258544921875 30.73969650268555 C 49.9654655456543 30.70781707763672 49.96844100952148 30.67486953735352 49.96844100952148 30.63973617553711 L 49.96844100952148 30.53769683837891 L 49.86846542358398 30.51727104187012 C 47.86787796020508 30.10839080810547 46.0543327331543 29.0125904083252 44.76189422607422 27.43173599243164 C 43.46945190429688 25.85087013244629 42.75598526000977 23.85569763183594 42.75290679931641 21.81376266479492 C 42.75290679931641 20.88969612121582 43.50484085083008 20.13776397705078 44.42908096313477 20.13776397705078 L 49.83983993530273 20.13776397705078 L 49.96483993530273 20.13776397705078 L 49.96483993530273 20.01276397705078 L 49.96483993530273 18.92125701904297 C 49.96483993530273 17.30740356445312 50.02359771728516 15.85099029541016 50.14446640014648 14.46881675720215 L 50.14494705200195 14.46337699890137 L 50.14494705200195 14.45792388916016 L 50.14494705200195 14.44898414611816 C 50.2726936340332 12.99490737915039 50.45937347412109 11.51895618438721 50.69985198974609 10.06177711486816 C 51.06049346923828 7.842977046966553 52.20502471923828 5.822830200195312 53.92267990112305 4.37316370010376 C 55.63602447509766 2.922603607177734 57.81561279296875 2.123816967010498 60.06006622314453 2.123816967010498 C 60.43810653686523 2.123816967010498 60.82024002075195 2.146750211715698 61.19585418701172 2.19197678565979 C 63.80912017822266 2.506603479385376 66.19557189941406 3.908083438873291 67.74333190917969 6.037056922912598 L 67.8443603515625 6.176016807556152 L 67.94549560546875 6.037137031555176 C 69.49606323242188 3.907710313796997 71.88557434082031 2.50803017616272 74.50131988525391 2.196990251541138 C 74.87230682373047 2.152883529663086 75.24970245361328 2.130510330200195 75.62302398681641 2.130510330200195 C 77.87459564208984 2.130510330200195 80.05937194824219 2.933896780014038 81.77486419677734 4.392683506011963 C 83.49363708496094 5.84207010269165 84.63753509521484 7.862163543701172 84.99618530273438 10.08119010925293 C 85.23648071289062 11.5337085723877 85.42315673828125 13.00842666625977 85.5511474609375 14.46519756317139 L 85.5511474609375 14.46873664855957 L 85.5511474609375 14.47395038604736 L 85.55158233642578 14.47916316986084 C 85.67249298095703 15.92453670501709 85.73126220703125 17.3810977935791 85.73126220703125 18.93205642700195 L 85.73126220703125 20.01276397705078 L 85.73126220703125 20.13776397705078 L 85.85626220703125 20.13776397705078 L 91.25979614257812 20.13776397705078 C 92.18405151367188 20.13776397705078 92.93598937988281 20.88969612121582 92.93598937988281 21.81394958496094 C 92.93290710449219 23.85569763183594 92.21943664550781 25.85087013244629 90.927001953125 27.43173599243164 C 89.63455963134766 29.0125904083252 87.82101440429688 30.10839080810547 85.82042694091797 30.51727104187012 L 85.72045135498047 30.53769683837891 L 85.72045135498047 30.63973617553711 C 85.72045135498047 30.67486953735352 85.72342681884766 30.70781707763672 85.72630310058594 30.73969650268555 C 85.72885131835938 30.7679500579834 85.73126220703125 30.79464340209961 85.73126220703125 30.81985664367676 L 85.73126220703125 30.94485664367676 L 85.85626220703125 30.94485664367676 C 89.76004028320312 30.94485664367676 92.93598937988281 34.12080383300781 92.93598937988281 38.02457809448242 C 92.93598937988281 41.92834854125977 89.76004028320312 45.10430908203125 85.85626220703125 45.10430908203125 L 85.73126220703125 45.10430908203125 L 85.73126220703125 45.22930908203125 L 85.73125457763672 47.03048324584961 C 85.774169921875 49.6441764831543 85.13619995117188 52.23689651489258 83.88632202148438 54.53042984008789 C 82.63643646240234 56.8239631652832 80.80345153808594 58.76545715332031 78.58550262451172 60.14501571655273 L 78.52653503417969 60.18170928955078 L 78.52653503417969 60.25116348266602 L 78.52653503417969 62.16041564941406 L 78.52653503417969 62.23557662963867 L 78.59290313720703 62.27081680297852 L 82.66357421875 64.43222808837891 L 82.68037414550781 64.44114685058594 L 82.69906616210938 64.44467163085938 L 98.60529327392578 67.44003295898438 C 99.53964233398438 67.60915374755859 100.4456558227539 67.90496063232422 101.2990112304688 68.31941986083984 C 101.8640518188477 68.58009338378906 102.4020538330078 68.89871215820312 102.9003295898438 69.26748657226562 C 103.4020767211914 69.62393951416016 103.8698806762695 70.02892303466797 104.2927169799805 70.47264099121094 C 104.9361724853516 71.10587310791016 105.4828262329102 71.82356262207031 105.9203033447266 72.60865783691406 C 106.0896682739258 72.90085601806641 106.2326507568359 73.17366027832031 106.3463745117188 73.42132568359375 C 106.5989074707031 73.96257781982422 106.8105316162109 74.52729797363281 106.9756774902344 75.10049438476562 C 107.2197494506836 76.0245361328125 107.3443984985352 76.98041534423828 107.3454360961914 77.93889617919922 L 107.3454360961914 102.8671264648438 C 107.3454360961914 106.7708969116211 104.1694946289062 109.9468460083008 100.2657165527344 109.9468460083008 Z M 56.91235733032227 93.73621368408203 L 56.91235733032227 93.86121368408203 L 56.91235733032227 106.469482421875 L 56.91235733032227 106.594482421875 L 57.03735733032227 106.594482421875 L 100.2657165527344 106.594482421875 C 102.3209838867188 106.594482421875 103.9930801391602 104.9223937988281 103.9930801391602 102.8671264648438 L 103.9930801391602 93.86121368408203 L 103.9930801391602 93.73621368408203 L 103.8680801391602 93.73621368408203 L 57.03735733032227 93.73621368408203 L 56.91235733032227 93.73621368408203 Z M 49.70762634277344 93.73621368408203 L 49.70762634277344 93.86121368408203 L 49.70762634277344 104.6683120727539 L 49.70762634277344 106.469482421875 L 49.70762634277344 106.594482421875 L 49.83262634277344 106.594482421875 L 53.43498611450195 106.594482421875 L 53.55998611450195 106.594482421875 L 53.55998611450195 106.469482421875 L 53.55998611450195 93.86121368408203 L 53.55998611450195 93.73621368408203 L 53.43498611450195 93.73621368408203 L 49.83262634277344 93.73621368408203 L 49.70762634277344 93.73621368408203 Z M 29.89462661743164 102.7421264648438 L 29.89462661743164 102.8671264648438 C 29.89462661743164 104.9223937988281 31.56671905517578 106.594482421875 33.62198638916016 106.594482421875 L 39.02553176879883 106.594482421875 L 39.02610397338867 106.344482421875 C 38.69574737548828 106.3429794311523 38.37566757202148 106.2455673217773 38.10044097900391 106.0627670288086 L 33.15097427368164 102.7631225585938 L 33.11949157714844 102.7421264648438 L 33.08163833618164 102.7421264648438 L 30.01962661743164 102.7421264648438 L 29.89462661743164 102.7421264648438 Z M 26.29226493835449 86.53148651123047 L 26.29226493835449 86.65648651123047 L 26.29226493835449 99.26476287841797 L 26.29226493835449 99.38976287841797 L 26.41726493835449 99.38976287841797 L 33.62198638916016 99.38976287841797 C 33.95178604125977 99.39127349853516 34.27187728881836 99.48868560791016 34.54709243774414 99.67147064208984 L 39.49655914306641 102.9711227416992 L 39.52803802490234 102.9921264648438 L 39.56589126586914 102.9921264648438 L 46.23026657104492 102.9921264648438 L 46.35526657104492 102.9921264648438 L 46.35526657104492 102.8671264648438 L 46.35526657104492 93.02365875244141 L 46.35526657104492 92.95677947998047 L 46.29962539672852 92.91967010498047 L 36.75336074829102 86.55249786376953 L 36.72186660766602 86.53148651123047 L 36.68399810791016 86.53148651123047 L 26.41726493835449 86.53148651123047 L 26.29226493835449 86.53148651123047 Z M 97.16585540771484 86.53148651123047 L 97.13436889648438 86.55248260498047 L 91.73082733154297 90.15485382080078 L 91.38732147216797 90.38385772705078 L 91.80015563964844 90.38385772705078 L 103.8680801391602 90.38385772705078 L 103.9930801391602 90.38385772705078 L 103.9930801391602 90.25885772705078 L 103.9930801391602 86.65648651123047 L 103.9930801391602 86.53148651123047 L 103.8680801391602 86.53148651123047 L 97.20370483398438 86.53148651123047 L 97.16585540771484 86.53148651123047 Z M 84.40097045898438 82.92912292480469 L 84.43997192382812 83.08454895019531 L 85.6864013671875 88.05221557617188 C 85.86949157714844 88.7857666015625 85.53588104248047 89.55497741699219 84.87509155273438 89.92266845703125 L 84.46633148193359 90.14956665039062 L 84.04425048828125 90.38385772705078 L 84.52700042724609 90.38385772705078 L 85.31590270996094 90.38385772705078 L 85.35377502441406 90.38385772705078 L 85.38526916503906 90.36284637451172 L 95.73305511474609 83.460693359375 C 96.00954437255859 83.27705383300781 96.33137512207031 83.17964172363281 96.66355895996094 83.17912292480469 L 103.8680801391602 83.17912292480469 L 103.9930801391602 83.17912292480469 L 103.9930801391602 83.05412292480469 L 103.9930801391602 77.93877410888672 C 103.992561340332 77.28175354003906 103.9081726074219 76.62636566162109 103.7422637939453 75.99073791503906 C 103.6244888305664 75.59149932861328 103.4761428833008 75.20187377929688 103.30029296875 74.828857421875 C 103.2151718139648 74.64185333251953 103.1178817749023 74.45596313476562 103.0118408203125 74.27787017822266 C 102.7190628051758 73.74411010742188 102.3481292724609 73.25321960449219 101.911506652832 72.82266998291016 C 101.6166381835938 72.51239013671875 101.2876510620117 72.22600555419922 100.9365463256836 71.97432708740234 C 100.6075057983398 71.72872161865234 100.2498016357422 71.51522064208984 99.87530517578125 71.34114837646484 C 99.28324127197266 71.04925537109375 98.65113067626953 70.83957672119141 97.99910736083984 70.71919250488281 L 85.05625152587891 68.28227233886719 L 84.84304046630859 68.24212646484375 L 84.91523742675781 68.44670867919922 L 89.23808288574219 80.69474792480469 C 89.41897583007812 81.20697784423828 89.33970642089844 81.77748107910156 89.02603912353516 82.22087097167969 C 88.71234893798828 82.66436004638672 88.20072937011719 82.92912292480469 87.65744018554688 82.92912292480469 L 84.56121063232422 82.92912292480469 L 84.40097045898438 82.92912292480469 Z M 67.84443664550781 74.82181549072266 L 67.74962615966797 74.93218994140625 L 65.94844055175781 77.02876281738281 L 65.91825103759766 77.06389617919922 L 65.91825103759766 77.11021423339844 L 65.91825103759766 89.27000427246094 L 65.91825103759766 89.29692077636719 L 65.92932891845703 89.32147216796875 L 66.37603759765625 90.31032562255859 L 66.40926361083984 90.38385772705078 L 66.48995971679688 90.38385772705078 L 69.19173431396484 90.38385772705078 L 69.27207946777344 90.38385772705078 L 69.30544281005859 90.31076049804688 L 69.75933074951172 89.31651306152344 L 69.77062225341797 89.29179382324219 L 69.77062225341797 89.26460266113281 L 69.77062225341797 77.11021423339844 L 69.77062225341797 77.06389617919922 L 69.74044036865234 77.02876281738281 L 67.93925476074219 74.93218994140625 L 67.84443664550781 74.82181549072266 Z M 53.44082641601562 79.57675170898438 C 53.96001434326172 79.57675170898438 54.44122695922852 79.81130981445312 54.76107788085938 80.22026824951172 C 55.08227920532227 80.63089752197266 55.19351959228516 81.15636444091797 55.06630706787109 81.66192626953125 L 53.60010528564453 87.52676391601562 L 53.57685089111328 87.61978912353516 L 53.66066741943359 87.66635131835938 L 58.52386474609375 90.36812591552734 L 58.55218505859375 90.38385772705078 L 58.58457183837891 90.38385772705078 L 62.52375793457031 90.38385772705078 L 62.71920013427734 90.38385772705078 L 62.63723754882812 90.20642852783203 L 53.70157241821289 70.86354064941406 L 53.57255935668945 70.58428192138672 L 53.47021102905273 70.87437438964844 L 50.45863723754883 79.41017913818359 L 50.39986419677734 79.57676696777344 L 50.57651901245117 79.57676696777344 L 53.43498611450195 79.57676696777344 L 53.44082641601562 79.57675170898438 Z M 50.84223937988281 68.25833892822266 L 50.62902450561523 68.29848480224609 L 37.6965446472168 70.73368072509766 C 37.05858612060547 70.8477783203125 36.43806457519531 71.04885864257812 35.85334396362305 71.33112335205078 C 35.47617340087891 71.50315093994141 35.11399841308594 71.71737670898438 34.77931976318359 71.96668243408203 C 34.44107818603516 72.20349884033203 34.12210464477539 72.47734832763672 33.8342399597168 72.77847290039062 C 33.3826789855957 73.21443176269531 32.99580001831055 73.71749877929688 32.68785095214844 74.27016448974609 C 32.57605361938477 74.45325469970703 32.4761848449707 74.63938903808594 32.39350509643555 74.81910705566406 C 32.32237243652344 74.97322845458984 32.26522445678711 75.1329345703125 32.2099723815918 75.28739166259766 C 32.18742752075195 75.35041809082031 32.16489410400391 75.41339111328125 32.14145278930664 75.47589874267578 L 32.12694549560547 75.51456451416016 L 32.13833236694336 75.55426025390625 L 34.29975891113281 83.08859252929688 L 34.32573318481445 83.17912292480469 L 34.41991806030273 83.17912292480469 L 37.22434616088867 83.17912292480469 C 37.55415725708008 83.18063354492188 37.87425231933594 83.27804565429688 38.14945220947266 83.46084594726562 L 48.50246429443359 90.36285400390625 L 48.5339469909668 90.38385772705078 L 48.57180023193359 90.38385772705078 L 51.16730499267578 90.38385772705078 L 51.65007781982422 90.38385772705078 L 51.22797393798828 90.14956665039062 L 50.819091796875 89.92261505126953 C 50.15841293334961 89.55497741699219 49.82479858398438 88.78575134277344 50.0079460144043 88.05205535888672 L 51.24894714355469 83.08441925048828 L 51.28774642944336 82.92912292480469 L 51.12767791748047 82.92912292480469 L 48.03144073486328 82.92912292480469 C 47.49192047119141 82.92855072021484 46.98255920410156 82.66597747802734 46.66904067993164 82.22670745849609 C 46.35551834106445 81.78746032714844 46.27273178100586 81.22041320800781 46.44758605957031 80.70986938476562 L 50.77003860473633 68.46292114257812 L 50.84223937988281 68.25833892822266 Z M 82.11635589599609 70.58062744140625 L 81.98731994628906 70.85993957519531 L 73.05165100097656 90.20282745361328 L 72.96969604492188 90.38025665283203 L 73.16513061523438 90.38025665283203 L 77.10791778564453 90.38025665283203 L 77.14030456542969 90.38025665283203 L 77.16862487792969 90.36452484130859 L 82.03181457519531 87.66273498535156 L 82.11562347412109 87.61618041992188 L 82.09236907958984 87.52314758300781 L 80.66333770751953 81.80699920654297 L 80.62803649902344 81.65857696533203 C 80.5023193359375 81.15453338623047 80.61360168457031 80.63064575195312 80.93337249755859 80.22120666503906 C 81.25313568115234 79.81179046630859 81.73445129394531 79.57689666748047 82.25392913818359 79.57676696777344 L 85.11237335205078 79.57676696777344 L 85.28900146484375 79.57676696777344 L 85.23025512695312 79.41018676757812 L 82.21868133544922 70.87078857421875 L 82.11635589599609 70.58062744140625 Z M 29.77555847167969 79.50057983398438 L 29.65542602539062 79.53517913818359 L 26.20255851745605 80.52942657470703 L 26.08263969421387 80.56396484375 L 26.11697196960449 80.68393707275391 L 26.80502510070801 83.08850860595703 L 26.83094596862793 83.17912292480469 L 26.92519950866699 83.17912292480469 L 30.66806602478027 83.17912292480469 L 30.8341064453125 83.17912292480469 L 30.78818511962891 83.01954650878906 L 29.81013298034668 79.62071990966797 L 29.77555847167969 79.50057983398438 Z M 62.56589126586914 80.95562744140625 L 62.34250640869141 81.24066925048828 L 62.29027938842773 81.30731201171875 L 62.24321365356445 81.36736297607422 L 62.27511978149414 81.43666839599609 L 62.32734680175781 81.55014801025391 L 62.56589126586914 81.49789428710938 L 62.56589126586914 81.31777954101562 L 62.56589126586914 80.95562744140625 Z M 73.12298583984375 80.95030975341797 L 73.12298583984375 81.3123779296875 L 73.12298583984375 81.49250030517578 L 73.36153411865234 81.54476165771484 L 73.41377258300781 81.43128204345703 L 73.44569396972656 81.36196136474609 L 73.39859771728516 81.30189514160156 L 73.34635925292969 81.23526000976562 L 73.12298583984375 80.95030975341797 Z M 58.52840042114258 65.30107116699219 L 58.44677352905273 65.34433746337891 L 55.66394424438477 66.81951141357422 L 55.55938720703125 66.87493896484375 L 55.60901260375977 66.98237609863281 L 60.61989212036133 77.82908630371094 L 60.70170593261719 78.00617980957031 L 60.82841110229492 77.85784149169922 L 62.95019912719727 75.37401580810547 L 62.95747756958008 75.36550903320312 L 62.96311950683594 75.35582733154297 L 62.969970703125 75.34409332275391 L 65.48416900634766 72.42223358154297 L 65.559814453125 72.33432006835938 L 65.47782897949219 72.25232696533203 L 58.59371948242188 65.36640167236328 L 58.52840042114258 65.30107116699219 Z M 72.71170806884766 75.34409332275391 L 72.71855926513672 75.35582733154297 L 72.72425079345703 75.3656005859375 L 72.73161315917969 75.37417602539062 L 74.86061096191406 77.85800170898438 L 74.98741149902344 78.00593566894531 L 75.06902313232422 77.82901763916016 L 80.07269287109375 66.9822998046875 L 80.12223815917969 66.87489318847656 L 80.01773071289062 66.81949615478516 L 77.23491668701172 65.34432220458984 L 77.15328979492188 65.30105590820312 L 77.08797454833984 65.36638641357422 L 70.20384979248047 72.25232696533203 L 70.12186431884766 72.33432006835938 L 70.19750213623047 72.42223358154297 L 72.71170806884766 75.34409332275391 Z M 27.75997161865234 72.49712371826172 L 27.6313591003418 72.54896545410156 C 27.08686637878418 72.76841735839844 26.51543998718262 72.96331024169922 25.93291854858398 73.12820434570312 C 25.35907936096191 73.27964019775391 24.76870536804199 73.40422058105469 24.18035888671875 73.49789428710938 L 24.04074668884277 73.52012634277344 L 24.07990646362305 73.65596008300781 L 25.10838508605957 77.22409820556641 L 25.14294624328613 77.34401702880859 L 25.26291847229004 77.30963134765625 L 28.72658538818359 76.31717681884766 L 28.8468132019043 76.28273773193359 L 28.81230545043945 76.16252136230469 L 27.79823875427246 72.63040161132812 L 27.75997161865234 72.49712371826172 Z M 21.0089054107666 41.50341796875 C 15.73146533966064 41.50341796875 10.86023902893066 44.37100219726562 8.296172142028809 48.98712539672852 C 7.367012500762939 50.65377807617188 6.786639213562012 52.46036529541016 6.571252346038818 54.35652542114258 C 6.355865955352783 56.25268173217773 6.516265869140625 58.14341735839844 7.047986030578613 59.97620391845703 C 7.943599224090576 63.0623779296875 9.77863883972168 65.70133972167969 12.35475921630859 67.60780334472656 C 14.8488655090332 69.45357513427734 17.92209243774414 70.47008514404297 21.00831985473633 70.47008514404297 C 22.36046600341797 70.47008514404297 23.71131896972656 70.27935028076172 25.02338600158691 69.90317535400391 C 26.86367988586426 69.38086700439453 28.55742645263672 68.51364135742188 30.0572395324707 67.32566833496094 C 31.55706596374512 66.1376953125 32.78906631469727 64.68750762939453 33.71899795532227 63.01540374755859 C 34.64896011352539 61.34329605102539 35.23102569580078 59.53165817260742 35.44906616210938 57.63080215454102 C 35.66710662841797 55.72996520996094 35.51034545898438 53.83357620239258 34.98315811157227 51.99433517456055 C 34.17947769165039 49.22688293457031 32.59006500244141 46.78295135498047 30.38662528991699 44.92632293701172 C 28.18318557739258 43.06970977783203 25.50507926940918 41.91783142089844 22.64185333251953 41.59523010253906 C 22.10110664367676 41.53430938720703 21.55169296264648 41.50341796875 21.0089054107666 41.50341796875 Z M 60.51472091674805 61.83449554443359 L 60.51472091674805 62.01092529296875 L 60.51472091674805 62.49364471435547 L 60.51472091674805 62.54541778564453 L 60.55133056640625 62.58203125 L 67.75605010986328 69.78675079345703 L 67.84443664550781 69.87513732910156 L 67.93282318115234 69.78675079345703 L 75.13755798339844 62.58203125 L 75.17417144775391 62.54541778564453 L 75.17417144775391 62.49364471435547 L 75.17417144775391 62.01092529296875 L 75.17417144775391 61.83449554443359 L 75.00772094726562 61.89299011230469 C 72.70030212402344 62.7039909362793 70.29022216796875 63.11520385742188 67.84442901611328 63.11520385742188 C 65.39863586425781 63.11520385742188 62.98857116699219 62.7039909362793 60.68117141723633 61.89299011230469 L 60.51472091674805 61.83449554443359 Z M 54.98233413696289 30.69485664367676 L 54.94491958618164 30.7385368347168 L 53.34006500244141 32.61176300048828 L 53.30998611450195 32.64685821533203 L 53.30998611450195 32.69308471679688 L 53.30998611450195 47.03049850463867 C 53.25156021118164 49.23759078979492 53.81332015991211 51.41329574584961 54.93457412719727 53.31911087036133 C 56.05582427978516 55.22491073608398 57.68477249145508 56.77276229858398 59.64530563354492 57.79531097412109 C 62.17219924926758 59.08444213867188 65.00613403320312 59.76557540893555 67.84173583984375 59.76557540893555 C 70.67734527587891 59.76557540893555 73.51127624511719 59.08444213867188 76.03717041015625 57.79581832885742 C 77.99939727783203 56.77318954467773 79.62922668457031 55.22558975219727 80.75142669677734 53.31983184814453 C 81.87362670898438 51.41405868530273 82.43638610839844 49.23812484741211 82.37886810302734 47.02724456787109 L 82.37890625 32.69308471679688 L 82.37890625 32.64685821533203 L 82.34882354736328 32.61176300048828 L 80.74397277832031 30.7385368347168 L 80.70655822753906 30.69485664367676 L 80.64905548095703 30.69485664367676 L 55.03984069824219 30.69485664367676 L 54.98233413696289 30.69485664367676 Z M 85.73126220703125 34.29721832275391 L 85.73126220703125 34.42221832275391 L 85.73126220703125 41.62694931030273 L 85.73126220703125 41.75194931030273 L 85.85626220703125 41.75194931030273 C 87.91152954101562 41.75194931030273 89.58362579345703 40.07985687255859 89.58362579345703 38.02457809448242 C 89.58362579345703 35.96931076049805 87.91152954101562 34.29721832275391 85.85626220703125 34.29721832275391 L 85.73126220703125 34.29721832275391 Z M 49.95762634277344 34.29665756225586 L 49.83206558227539 34.29721832275391 C 47.78625106811523 34.30636215209961 46.11441421508789 35.97820281982422 46.10526657104492 38.02401733398438 C 46.10526657104492 40.07985687255859 47.77735900878906 41.75194931030273 49.83262634277344 41.75194931030273 L 49.95762634277344 41.75194931030273 L 49.95762634277344 41.62694931030273 L 49.95762634277344 34.42221832275391 L 49.95762634277344 34.29665756225586 Z M 46.36122512817383 23.49013710021973 L 46.42047882080078 23.65696334838867 C 47.20235824584961 25.85855102539062 49.29737091064453 27.33965682983398 51.6336669921875 27.34249687194824 L 84.05507659912109 27.34249687194824 C 86.39151763916016 27.33964347839355 88.48654937744141 25.8585376739502 89.26840972900391 23.65696334838867 L 89.32766723632812 23.49013710021973 L 89.15062713623047 23.49013710021973 L 46.53826522827148 23.49013710021973 L 46.36122512817383 23.49013710021973 Z M 53.3712272644043 16.49731636047363 C 53.33058929443359 17.3257884979248 53.30998611450195 18.14011383056641 53.30998611450195 18.91764450073242 L 53.30998611450195 18.95006942749023 L 53.30998611450195 20.01276397705078 L 53.30998611450195 20.13776397705078 L 53.43498611450195 20.13776397705078 L 82.24668884277344 20.13776397705078 L 82.37168884277344 20.13776397705078 L 82.37168884277344 20.01276397705078 L 82.37168884277344 18.91764450073242 C 82.36985778808594 18.10254287719727 82.34925079345703 17.2883129119873 82.31045532226562 16.49732208251953 L 82.31045532226562 16.41040420532227 L 82.31045532226562 16.28540420532227 L 82.18545532226562 16.28540420532227 L 53.4962272644043 16.28540420532227 L 53.3712272644043 16.28540420532227 L 53.3712272644043 16.41040420532227 L 53.3712272644043 16.49731636047363 Z M 60.03890609741211 5.478256702423096 C 58.59000015258789 5.478256702423096 57.18557357788086 5.996829986572266 56.08434677124023 6.938457012176514 C 54.97693252563477 7.873430252075195 54.23955917358398 9.177070617675781 54.00864028930664 10.60871028900146 C 53.92723846435547 11.10579013824463 53.86954498291016 11.61188316345215 53.81374740600586 12.10132312774658 C 53.7878532409668 12.3284969329834 53.76106643676758 12.5634298324585 53.73242568969727 12.79253673553467 L 53.71486663818359 12.93304347991943 L 53.85646438598633 12.93304347991943 L 81.83242797851562 12.93304347991943 L 81.97471618652344 12.93304347991943 L 81.95638275146484 12.79193687438965 C 81.92204284667969 12.52751064300537 81.89163970947266 12.2606840133667 81.86225128173828 12.00263023376465 C 81.81031799316406 11.5466833114624 81.75662231445312 11.07521724700928 81.68017578125 10.61186981201172 C 81.44459533691406 9.179817199707031 80.70554351806641 7.873870372772217 79.59912872314453 6.934657096862793 C 78.49281311035156 5.995510101318359 77.08435821533203 5.478310108184814 75.63320922851562 5.478310108184814 L 75.62538909912109 5.478310108184814 C 73.56714630126953 5.484616756439209 71.65587615966797 6.510016918182373 70.51253509521484 8.221243858337402 C 69.91489410400391 9.110589981079102 68.9180908203125 9.64171028137207 67.84625244140625 9.64171028137207 C 66.77442932128906 9.64171028137207 65.77761077880859 9.110589981079102 65.17977142333984 8.220963478088379 C 64.03543853759766 6.509430408477783 62.12282562255859 5.484043598175049 60.06369400024414 5.478310108184814 L 60.03890609741211 5.478256702423096 Z"></path><path class="e" d="M 100.2657165527344 109.8218460083008 C 104.1005554199219 109.8218460083008 107.2204360961914 106.7019653320312 107.2204360961914 102.8671264648438 L 107.2204360961914 77.93903350830078 C 107.2194137573242 76.99219512939453 107.0963821411133 76.04790496826172 106.8547973632812 75.13240051269531 C 106.6915512084961 74.56636810302734 106.4824981689453 74.00871276855469 106.2327728271484 73.47348022460938 C 106.1207046508789 73.22939300537109 105.9795455932617 72.96013641357422 105.8111038208008 72.66950988769531 C 105.3794250488281 71.89480590820312 104.8400115966797 71.18661499023438 104.2078628540039 70.56460571289062 L 104.2050018310547 70.56177520751953 L 104.2022247314453 70.55886840820312 C 103.7849044799805 70.12093353271484 103.3231887817383 69.72121429443359 102.8259735107422 69.36795043945312 C 102.3345489501953 69.00425720214844 101.8039474487305 68.69003295898438 101.2444152832031 68.43185424804688 C 100.4012908935547 68.02237701416016 99.50617218017578 67.73012542724609 98.58216094970703 67.56287384033203 L 82.67593383789062 64.56751251220703 L 82.63855743408203 64.56047058105469 L 82.60495758056641 64.54263305664062 L 78.53429412841797 62.38121795654297 L 78.40153503417969 62.31072235107422 L 78.40153503417969 62.16041564941406 L 78.40153503417969 60.25116348266602 L 78.40153503417969 60.11224365234375 L 78.51949310302734 60.03888320922852 C 80.71913146972656 58.67069625854492 82.53700256347656 56.74521636962891 83.77655792236328 54.47061538696289 C 85.01613616943359 52.19601821899414 85.64884185791016 49.62467193603516 85.60625457763672 47.03048324584961 L 85.60626220703125 45.22930908203125 L 85.60626220703125 44.97930908203125 L 85.85626220703125 44.97930908203125 C 89.69110870361328 44.97930908203125 92.81098937988281 41.85942840576172 92.81098937988281 38.02457809448242 C 92.81098937988281 34.18973541259766 89.69110870361328 31.06985664367676 85.85626220703125 31.06985664367676 L 85.60626220703125 31.06985664367676 L 85.60626220703125 30.81985664367676 C 85.60626220703125 30.80027008056641 85.60410308837891 30.77630996704102 85.60181427001953 30.75093650817871 C 85.59882354736328 30.71791076660156 85.59545135498047 30.68049621582031 85.59545135498047 30.63973617553711 L 85.59545135498047 30.4356575012207 L 85.79540252685547 30.39480400085449 C 87.76787567138672 29.99167060852051 89.55594635009766 28.91127014160156 90.83022308349609 27.35261726379395 C 92.10450744628906 25.79396438598633 92.80794525146484 23.82681655883789 92.81098937988281 21.81394958496094 C 92.81098937988281 20.95861625671387 92.11513519287109 20.26276397705078 91.25979614257812 20.26276397705078 L 85.85626220703125 20.26276397705078 L 85.60626220703125 20.26276397705078 L 85.60626220703125 20.01276397705078 L 85.60626220703125 18.93205642700195 C 85.60626220703125 17.38460350036621 85.54763793945312 15.93145656585693 85.42700958251953 14.489577293396 L 85.4261474609375 14.47917652130127 L 85.4261474609375 14.47065734863281 C 85.29845428466797 13.01887607574463 85.11233520507812 11.54911804199219 84.87278747558594 10.10113716125488 C 84.51889038085938 7.911616802215576 83.39022827148438 5.918363571166992 81.69389343261719 4.487910270690918 C 80.00096893310547 3.048323631286621 77.844970703125 2.255510330200195 75.62302398681641 2.255510330200195 C 75.25467681884766 2.255510330200195 74.88225555419922 2.277590274810791 74.51608276367188 2.321123600006104 C 71.93476104736328 2.62805700302124 69.57670593261719 4.009310245513916 68.04653167724609 6.110710144042969 L 67.84427642822266 6.38848352432251 L 67.64222717285156 6.110550403594971 C 66.11483764648438 4.009603500366211 63.75978469848633 2.626563549041748 61.1809196472168 2.316083669662476 C 60.81025314331055 2.271443605422974 60.43314743041992 2.248816967010498 60.06006622314453 2.248816967010498 C 57.84515762329102 2.248816967010498 55.69425201416016 3.037096977233887 54.00329208374023 4.468697071075439 C 52.30843734741211 5.899123668670654 51.17909240722656 7.892470359802246 50.82318496704102 10.08213710784912 C 50.58353424072266 11.53433418273926 50.39741516113281 13.00531673431396 50.26994705200195 14.45444488525391 L 50.26994705200195 14.45792388916016 L 50.26994705200195 14.46883010864258 L 50.26900100708008 14.47969722747803 C 50.1484375 15.85823059082031 50.08983993530273 17.31106948852539 50.08983993530273 18.92125701904297 L 50.08983993530273 20.01276397705078 L 50.08983993530273 20.26276397705078 L 49.83983993530273 20.26276397705078 L 44.42908096313477 20.26276397705078 C 43.57376098632812 20.26276397705078 42.87790679931641 20.95861625671387 42.87790679931641 21.81357765197754 C 42.88094711303711 23.82681655883789 43.58438491821289 25.79396438598633 44.85866546630859 27.35261726379395 C 46.1329460144043 28.91127014160156 47.92101287841797 29.99167060852051 49.89349365234375 30.39480400085449 L 50.09344100952148 30.4356575012207 L 50.09344100952148 30.63973617553711 C 50.09344100952148 30.68049621582031 50.09006500244141 30.71791076660156 50.08707809448242 30.75093650817871 C 50.08478546142578 30.77630996704102 50.08262634277344 30.80027008056641 50.08262634277344 30.81985664367676 L 50.08262634277344 31.06985664367676 L 49.83262634277344 31.06985664367676 C 45.99778747558594 31.06985664367676 42.87790679931641 34.18973541259766 42.87790679931641 38.02457809448242 C 42.87790679931641 41.85942840576172 45.99778747558594 44.97930908203125 49.83262634277344 44.97930908203125 L 50.08262634277344 44.97930908203125 L 50.08262634277344 45.22930908203125 L 50.08259963989258 47.03454971313477 C 50.04066467285156 49.62400436401367 50.67367935180664 52.19464492797852 51.91320037841797 54.46856307983398 C 53.15273284912109 56.74246978759766 54.97029113769531 58.66741561889648 57.16938400268555 60.03528213500977 L 57.28734588623047 60.108642578125 L 57.28734588623047 60.24756240844727 L 57.28735733032227 62.16041564941406 L 57.28735733032227 62.31072235107422 L 57.15459823608398 62.38121795654297 L 53.08391952514648 64.54264068603516 L 53.05031967163086 64.56048583984375 L 53.01293182373047 64.56752014160156 L 37.10791778564453 67.5615234375 C 36.19430541992188 67.72438049316406 35.30695724487305 68.01069641113281 34.46754455566406 68.4139404296875 C 34.41740036010742 68.43721771240234 34.36599731445312 68.46532440185547 34.31157302856445 68.49507141113281 C 34.26639938354492 68.51976013183594 34.22109222412109 68.54447174072266 34.17511749267578 68.56746673583984 L 33.88242721557617 68.17127227783203 C 34.91872024536133 67.08553314208984 35.81513214111328 65.87060546875 36.54673385620117 64.56025695800781 C 37.68461227416992 62.52090835571289 38.39519882202148 60.31032180786133 38.65873336791992 57.98991012573242 C 38.92227935791016 55.66950988769531 38.72554397583008 53.35586929321289 38.07397079467773 51.11317825317383 C 37.09333419799805 47.73273849487305 35.15271759033203 44.74655151367188 32.46197128295898 42.47744369506836 C 29.77121162414551 40.20833587646484 26.50030517578125 38.79965591430664 23.00284004211426 38.4036979675293 C 22.33891868591309 38.32853698730469 21.66442489624023 38.29043197631836 20.99807929992676 38.29043197631836 C 14.55567932128906 38.29043197631836 8.606359481811523 41.78953552246094 5.471692562103271 47.4224967956543 C 4.333878993988037 49.4615364074707 3.623319149017334 51.67181777954102 3.359772443771362 53.99192428588867 C 3.09623908996582 56.31203079223633 3.292945861816406 58.62536239624023 3.944439172744751 60.86764526367188 C 5.003758907318115 64.51274871826172 7.152545928955078 67.66468048095703 10.15849208831787 69.98269653320312 C 13.16442584991455 72.30072021484375 16.75902557373047 73.57777404785156 20.55366516113281 73.67580413818359 L 20.73673248291016 73.68053436279297 L 20.78743934631348 73.85649871826172 L 23.57387924194336 83.52524566650391 L 23.61439895629883 83.66583251953125 L 23.51165199279785 83.77001953125 C 23.22445297241211 84.06123352050781 23.06579971313477 84.44685363769531 23.06490516662598 84.85529327392578 L 23.06490516662598 101.0659332275391 C 23.06490516662598 101.921272277832 23.7607593536377 102.6171264648438 24.61609268188477 102.6171264648438 L 26.41726493835449 102.6171264648438 L 26.66726493835449 102.6171264648438 L 26.66726493835449 102.8671264648438 C 26.66726493835449 106.7019653320312 29.78714561462402 109.8218460083008 33.62198638916016 109.8218460083008 L 44.52117538452148 109.8218460083008 L 47.29362487792969 109.6691207885742 L 47.35343933105469 109.6658325195312 L 47.40823745727539 109.6900024414062 C 47.60591888427734 109.7771759033203 47.81571960449219 109.821533203125 48.03144073486328 109.8218460083008 L 100.2657165527344 109.8218460083008 M 56.78735733032227 93.61121368408203 L 57.03735733032227 93.61121368408203 L 103.8680801391602 93.61121368408203 L 104.1180801391602 93.61121368408203 L 104.1180801391602 93.86121368408203 L 104.1180801391602 102.8671264648438 C 104.1180801391602 104.991325378418 102.3899154663086 106.719482421875 100.2657165527344 106.719482421875 L 57.03735733032227 106.719482421875 L 56.78735733032227 106.719482421875 L 56.78735733032227 106.469482421875 L 56.78735733032227 93.86121368408203 L 56.78735733032227 93.61121368408203 M 49.58262634277344 93.61121368408203 L 49.83262634277344 93.61121368408203 L 53.43498611450195 93.61121368408203 L 53.68498611450195 93.61121368408203 L 53.68498611450195 93.86121368408203 L 53.68498611450195 106.469482421875 L 53.68498611450195 106.719482421875 L 53.43498611450195 106.719482421875 L 49.83262634277344 106.719482421875 L 49.58262634277344 106.719482421875 L 49.58262634277344 106.469482421875 L 49.58262634277344 104.6683120727539 L 49.58262634277344 93.86121368408203 L 49.58262634277344 93.61121368408203 M 29.76962661743164 102.6171264648438 L 30.01962661743164 102.6171264648438 L 33.08163833618164 102.6171264648438 L 33.15733337402344 102.6171264648438 L 33.22031784057617 102.6591110229492 L 38.16959762573242 105.9586334228516 C 38.4244270324707 106.1278991699219 38.72079849243164 106.2180938720703 39.02666473388672 106.219482421875 L 39.02553176879883 106.719482421875 L 33.62198638916016 106.719482421875 C 31.4977855682373 106.719482421875 29.76962661743164 104.991325378418 29.76962661743164 102.8671264648438 L 29.76962661743164 102.6171264648438 M 26.16726493835449 86.40648651123047 L 26.41726493835449 86.40648651123047 L 36.68399810791016 86.40648651123047 L 36.75971984863281 86.40648651123047 L 36.82271957397461 86.44849395751953 L 46.36898422241211 92.815673828125 L 46.48026657104492 92.88990020751953 L 46.48026657104492 93.02365875244141 L 46.48026657104492 102.8671264648438 L 46.48026657104492 103.1171264648438 L 46.23026657104492 103.1171264648438 L 39.56589126586914 103.1171264648438 L 39.49020004272461 103.1171264648438 L 39.42721176147461 103.0751342773438 L 34.47793197631836 99.77560424804688 C 34.22311782836914 99.60635375976562 33.9267463684082 99.51615142822266 33.62198638916016 99.51476287841797 L 26.41726493835449 99.51476287841797 L 26.16726493835449 99.51476287841797 L 26.16726493835449 99.26476287841797 L 26.16726493835449 86.65648651123047 L 26.16726493835449 86.40648651123047 M 97.12801361083984 86.40648651123047 L 97.20370483398438 86.40648651123047 L 103.8680801391602 86.40648651123047 L 104.1180801391602 86.40648651123047 L 104.1180801391602 86.65648651123047 L 104.1180801391602 90.25885772705078 L 104.1180801391602 90.50885772705078 L 103.8680801391602 90.50885772705078 L 91.80015563964844 90.50885772705078 L 90.97446441650391 90.50885772705078 L 91.66147613525391 90.05084228515625 L 97.06502532958984 86.44847106933594 L 97.12801361083984 86.40648651123047 M 84.24073028564453 82.80412292480469 L 84.56121063232422 82.80412292480469 L 87.65744018554688 82.80412292480469 C 88.16020965576172 82.80412292480469 88.63368988037109 82.55909729003906 88.92398834228516 82.14867401123047 C 89.21426391601562 81.73836517333984 89.28762817382812 81.21040344238281 89.12020874023438 80.73635101318359 L 84.79737091064453 68.48831176757812 L 84.65296173095703 68.07913970947266 L 85.07937622070312 68.15943145751953 L 98.02181243896484 70.59626770019531 C 98.68424224853516 70.71858215332031 99.32646942138672 70.93148040771484 99.93071746826172 71.22907257080078 C 100.3119964599609 71.40650177001953 100.6761932373047 71.62400817871094 101.0093612670898 71.87273406982422 C 101.3657531738281 72.12818145751953 101.6997375488281 72.41876220703125 102.0020904541016 72.73644256591797 C 102.4450607299805 73.17379760742188 102.821647644043 73.67209625244141 103.1214447021484 74.21762084960938 C 103.2289810180664 74.39852142333984 103.32763671875 74.58719635009766 103.4133605957031 74.77555084228516 C 103.5919342041016 75.15433502197266 103.7425689697266 75.54998779296875 103.8610916137695 75.9515380859375 L 103.8622131347656 75.95533752441406 L 103.8632125854492 75.95917510986328 C 104.0318145751953 76.60507202148438 104.117561340332 77.27102661132812 104.1180801391602 77.93877410888672 L 104.1180801391602 83.05412292480469 L 104.1180801391602 83.30412292480469 L 103.8680801391602 83.30412292480469 L 96.66375732421875 83.30412292480469 C 96.35618591308594 83.30460357666016 96.05819702148438 83.39480590820312 95.80241394042969 83.56468200683594 L 85.45462799072266 90.46682739257812 L 85.39163970947266 90.50885772705078 L 85.31590270996094 90.50885772705078 L 84.52700042724609 90.50885772705078 L 83.56151580810547 90.50885772705078 L 84.40566253662109 90.04026794433594 L 84.81430816650391 89.81344604492188 C 85.42582702636719 89.47317504882812 85.73455810546875 88.76130676269531 85.56516265869141 88.08263397216797 L 84.31873321533203 83.11496734619141 L 84.24073028564453 82.80412292480469 M 67.84443664550781 74.6300048828125 L 68.03406524658203 74.85073852539062 L 69.83525085449219 76.94731140136719 L 69.89562225341797 77.017578125 L 69.89562225341797 77.11021423339844 L 69.89562225341797 89.26460266113281 L 69.89562225341797 89.31896209716797 L 69.87305450439453 89.36843109130859 L 69.41915893554688 90.36268615722656 L 69.35242462158203 90.50885772705078 L 69.19173431396484 90.50885772705078 L 66.48995971679688 90.50885772705078 L 66.32857513427734 90.50885772705078 L 66.26213073730469 90.36177825927734 L 65.81542205810547 89.3729248046875 L 65.79325103759766 89.32386016845703 L 65.79325103759766 89.27000427246094 L 65.79325103759766 77.11021423339844 L 65.79325103759766 77.017578125 L 65.85362243652344 76.94731140136719 L 67.65481567382812 74.85073852539062 L 67.84443664550781 74.6300048828125 M 53.44082641601562 79.70175170898438 L 53.43498611450195 79.70176696777344 L 50.57651901245117 79.70176696777344 L 50.22321319580078 79.70176696777344 L 50.34075927734375 79.36859130859375 L 53.35233306884766 70.83278656005859 L 53.55703735351562 70.25260162353516 L 53.81504058837891 70.81112670898438 L 62.75070571899414 90.15401458740234 L 62.91463851928711 90.50885772705078 L 62.52375793457031 90.50885772705078 L 58.58457183837891 90.50885772705078 L 58.5197868347168 90.50885772705078 L 58.46315765380859 90.47738647460938 L 53.59996032714844 87.77561950683594 L 53.43233108520508 87.6824951171875 L 53.47883987426758 87.49644470214844 L 54.94509124755859 81.63143157958984 C 55.06281280517578 81.16356658935547 54.95986557006836 80.67728424072266 54.66262435913086 80.29727172851562 C 54.36661148071289 79.91881561279297 53.92129135131836 79.70175170898438 53.44082641601562 79.70175170898438 M 32.58109664916992 74.20496368408203 C 32.89385223388672 73.64466094970703 33.28618621826172 73.13450622558594 33.74739837646484 72.68840789794922 C 34.03911972045898 72.38374328613281 34.36206436157227 72.10655212402344 34.70740509033203 71.8643798828125 C 35.04777908325195 71.61113739013672 35.41600036621094 71.39338684082031 35.8018913269043 71.21717834472656 C 36.39602279663086 70.93067932128906 37.02640151977539 70.72655487060547 37.67341232299805 70.61083984375 L 50.60589218139648 68.17564392089844 L 51.03231811523438 68.09535217285156 L 50.88790512084961 68.50452423095703 L 46.56583786010742 80.7503662109375 C 46.40402603149414 81.22284698486328 46.48064041137695 81.74760437011719 46.77077102661133 82.15409851074219 C 47.06092071533203 82.56059265136719 47.53229141235352 82.8035888671875 48.03144073486328 82.80412292480469 L 51.12767791748047 82.80412292480469 L 51.44781112670898 82.80412292480469 L 51.37022399902344 83.11470794677734 L 50.12922668457031 88.08233642578125 C 49.95974731445312 88.76130676269531 50.26846694946289 89.47317504882812 50.87974548339844 89.81332397460938 L 51.28862762451172 90.04026794433594 L 52.13286590576172 90.50885772705078 L 51.16730499267578 90.50885772705078 L 48.57180023193359 90.50885772705078 L 48.4961051940918 90.50885772705078 L 48.43312072753906 90.46687316894531 L 38.08029174804688 83.56496429443359 C 37.82547760009766 83.39571380615234 37.52910614013672 83.30551147460938 37.22434616088867 83.30412292480469 L 34.41991806030273 83.30412292480469 L 34.23155975341797 83.30412292480469 L 34.17961120605469 83.12305450439453 L 32.01818466186523 75.58872222900391 L 31.99541282653809 75.50933837890625 L 32.0244140625 75.43201446533203 C 32.04762649536133 75.37008666992188 32.0699462890625 75.30770874023438 32.09227752685547 75.24526977539062 C 32.14845275878906 75.0882568359375 32.20654678344727 74.92588043212891 32.27994537353516 74.76686859130859 C 32.36402893066406 74.58407592773438 32.46533584594727 74.39505004882812 32.58109664916992 74.20496368408203 M 82.13190460205078 70.24889373779297 L 82.33657073974609 70.82921600341797 L 85.34814453125 79.36861419677734 L 85.46562957763672 79.70176696777344 L 85.11237335205078 79.70176696777344 L 82.25397491455078 79.70176696777344 C 81.77322387695312 79.70189666748047 81.32779693603516 79.91927337646484 81.03187561035156 80.29814910888672 C 80.73596954345703 80.67704010009766 80.63297271728516 81.16188049316406 80.74933624267578 81.62832641601562 L 80.81815338134766 81.91088104248047 L 82.21363830566406 87.49282836914062 L 82.26014709472656 87.67888641357422 L 82.09252166748047 87.77200317382812 L 77.22933197021484 90.47379302978516 L 77.17270660400391 90.50525665283203 L 77.10791778564453 90.50525665283203 L 73.16513061523438 90.50525665283203 L 72.77425384521484 90.50525665283203 L 72.93818664550781 90.15041351318359 L 81.87385559082031 70.80752563476562 L 82.13190460205078 70.24889373779297 M 29.86111831665039 79.34587097167969 L 29.93026542663574 79.58616638183594 L 30.9083194732666 82.98499298095703 L 31.00014495849609 83.30412292480469 L 30.66806602478027 83.30412292480469 L 26.92519950866699 83.30412292480469 L 26.7367057800293 83.30412292480469 L 26.68483924865723 83.12289428710938 L 25.99678611755371 80.71832275390625 L 25.92813301086426 80.47837829589844 L 26.16797256469727 80.40930938720703 L 29.62084007263184 79.41505432128906 L 29.86111831665039 79.34587097167969 M 62.69089126586914 80.59349822998047 L 62.69089126586914 81.31777954101562 L 62.69089126586914 81.49789428710938 L 62.21378707885742 81.6024169921875 L 62.16156005859375 81.48893737792969 L 62.09775924682617 81.35031127929688 L 62.19189071655273 81.23020172119141 L 62.24411773681641 81.16356658935547 L 62.69089126586914 80.59349822998047 M 72.99798583984375 80.58824157714844 L 73.44473266601562 81.15813446044922 L 73.49697113037109 81.22477722167969 L 73.59114837646484 81.34490966796875 L 73.52732086181641 81.48356628417969 L 73.47508239746094 81.5970458984375 L 72.99798583984375 81.49250030517578 L 72.99798583984375 81.3123779296875 L 72.99798583984375 80.58824157714844 M 58.55147933959961 65.14734649658203 L 58.6821174621582 65.27801513671875 L 65.56622314453125 72.1639404296875 L 65.73020172119141 72.32796478271484 L 65.57893371582031 72.50376129150391 L 63.07216262817383 75.41698455810547 L 63.07107925415039 75.41884613037109 L 63.05978393554688 75.43817901611328 L 63.04523849487305 75.4552001953125 L 60.92345428466797 77.93903350830078 L 60.67004013061523 78.23569488525391 L 60.50642395019531 77.88150024414062 L 55.49554443359375 67.0347900390625 L 55.39627838134766 66.81992340087891 L 55.60540008544922 66.70906829833984 L 58.38822555541992 65.23389434814453 L 58.55147933959961 65.14734649658203 M 72.60951232910156 75.41698455810547 L 70.10274505615234 72.50376129150391 L 69.95147705078125 72.32796478271484 L 70.11545562744141 72.1639404296875 L 76.99957275390625 65.27799987792969 L 77.13021087646484 65.1473388671875 L 77.29346466064453 65.23388671875 L 80.07627868652344 66.70906066894531 L 80.28529357910156 66.81984710693359 L 80.18619537353516 67.03466033935547 L 75.18253326416016 77.88137817382812 L 75.01930236816406 78.23521423339844 L 74.76570892333984 77.93935394287109 L 72.63670349121094 75.45552062988281 L 72.62200164794922 75.43836212158203 L 72.610595703125 75.41884613037109 L 72.60951232910156 75.41698455810547 M 27.84185218811035 72.32935333251953 L 27.91838645935059 72.59590911865234 L 28.93245315551758 76.12802886962891 L 29.00147819519043 76.36844635009766 L 28.76102638244629 76.43734741210938 L 25.29735946655273 77.42980194091797 L 25.05739974975586 77.49855041503906 L 24.98826599121094 77.25871276855469 L 23.95978546142578 73.69057464599609 L 23.88147926330566 73.41889953613281 L 24.16070556640625 73.37444305419922 C 24.74494552612305 73.28143310546875 25.33119964599609 73.15772247314453 25.89888000488281 73.0079345703125 C 26.47710609436035 72.84424591064453 27.04427909851074 72.65081787109375 27.58463859558105 72.43301391601562 L 27.84185218811035 72.32935333251953 M 21.0089054107666 41.37841796875 C 21.55635833740234 41.37841796875 22.11046600341797 41.40957641601562 22.65583992004395 41.47101593017578 C 25.54367828369141 41.79639053344727 28.24479866027832 42.95816421508789 30.46717262268066 44.83073806762695 C 32.68954467773438 46.70331192016602 34.2926139831543 49.16824340820312 35.10331726074219 51.95989608764648 C 35.63506698608398 53.81502914428711 35.79317092895508 55.72779083251953 35.5732536315918 57.64505767822266 C 35.35333251953125 59.56230926513672 34.7662239074707 61.38960266113281 33.82823944091797 63.07614898681641 C 32.89026641845703 64.76271057128906 31.64762496948242 66.22541809082031 30.13485336303711 67.42366027832031 C 28.62207984924316 68.62189483642578 26.91370582580566 69.49662017822266 25.05782508850098 70.02333831787109 C 23.73454666137695 70.40272521972656 22.37209320068359 70.59508514404297 21.00831985473633 70.59508514404297 C 17.89550590515137 70.59508514404297 14.79587936401367 69.56986999511719 12.2804126739502 67.70828247070312 C 9.682092666625977 65.78539276123047 7.831239223480225 63.12373733520508 6.927945613861084 60.01103210449219 C 6.391585826873779 58.16229629516602 6.229785919189453 56.25509643554688 6.447052478790283 54.3424186706543 C 6.664305686950684 52.42973709106445 7.249745845794678 50.60741806030273 8.186905860900879 48.92641830444336 C 10.77298545837402 44.27064514160156 15.68609237670898 41.37841796875 21.0089054107666 41.37841796875 M 60.38972091674805 61.65805816650391 L 60.72261428833008 61.77507019042969 C 63.01665115356445 62.58137512207031 65.41278839111328 62.99020385742188 67.84442901611328 62.99020385742188 C 70.27609252929688 62.99020385742188 72.67222595214844 62.58137512207031 74.96627807617188 61.77507019042969 L 75.29917144775391 61.65805816650391 L 75.29917144775391 62.01092529296875 L 75.29917144775391 62.49364471435547 L 75.29917144775391 62.59720230102539 L 75.22594451904297 62.67041778564453 L 68.02120971679688 69.87513732910156 L 67.84443664550781 70.05191040039062 L 67.66766357421875 69.87513732910156 L 60.46294403076172 62.67041778564453 L 60.38972091674805 62.59720230102539 L 60.38972091674805 62.49364471435547 L 60.38972091674805 62.01092529296875 L 60.38972091674805 61.65805816650391 M 53.18498611450195 47.02745056152344 L 53.18498611450195 32.69308471679688 L 53.18498611450195 32.60063171386719 L 53.24513244628906 32.53042984008789 L 54.8499870300293 30.65720367431641 L 54.92482757568359 30.56985664367676 L 55.03984069824219 30.56985664367676 L 80.64905548095703 30.56985664367676 L 80.76406860351562 30.56985664367676 L 80.83890533447266 30.65720367431641 L 82.44375610351562 32.53042984008789 L 82.50390625 32.60063171386719 L 82.50390625 32.69308471679688 L 82.50390625 47.027099609375 C 82.5614013671875 49.26028060913086 81.99268341064453 51.45823669433594 80.85914611816406 53.38325500488281 C 79.72505187988281 55.3092155456543 78.07795715332031 56.87321853637695 76.09398651123047 57.90716171264648 C 73.55057525634766 59.2047233581543 70.69699859619141 59.89057540893555 67.84173583984375 59.89057540893555 C 64.98648071289062 59.89057540893555 62.13289260864258 59.2047233581543 59.58749389648438 57.90615081787109 C 57.60618591308594 56.87274932861328 55.9599723815918 55.30849838256836 54.82682418823242 53.38249588012695 C 53.69431304931641 51.45754241943359 53.12661361694336 49.260009765625 53.18498611450195 47.02745056152344 M 85.60626220703125 34.17221832275391 L 85.85626220703125 34.17221832275391 C 87.98046875 34.17221832275391 89.70862579345703 35.90037536621094 89.70862579345703 38.02457809448242 C 89.70862579345703 40.14877700805664 87.98046875 41.87694931030273 85.85626220703125 41.87694931030273 L 85.60626220703125 41.87694931030273 L 85.60626220703125 41.62694931030273 L 85.60626220703125 34.42221832275391 L 85.60626220703125 34.17221832275391 M 50.08262634277344 34.17109680175781 L 50.08262634277344 34.42221832275391 L 50.08262634277344 41.62694931030273 L 50.08262634277344 41.87694931030273 L 49.83262634277344 41.87694931030273 C 47.70842742919922 41.87694931030273 45.98026657104492 40.14877700805664 45.98026657104492 38.02345657348633 C 45.98971939086914 35.90933609008789 47.71738433837891 34.18167114257812 49.83150482177734 34.17221832275391 L 50.08262634277344 34.17109680175781 M 46.18418502807617 23.36513710021973 L 46.53826522827148 23.36513710021973 L 89.15062713623047 23.36513710021973 L 89.50470733642578 23.36513710021973 L 89.38621520996094 23.69880294799805 C 88.58669281005859 25.9500560760498 86.44439697265625 27.46457672119141 84.05507659912109 27.46749687194824 L 51.63350677490234 27.46749687194824 C 49.2445068359375 27.46459007263184 47.10221099853516 25.95006942749023 46.30268096923828 23.69880294799805 L 46.18418502807617 23.36513710021973 M 53.2462272644043 16.49444580078125 L 53.2462272644043 16.41040420532227 L 53.2462272644043 16.16040420532227 L 53.4962272644043 16.16040420532227 L 82.18545532226562 16.16040420532227 L 82.43545532226562 16.16040420532227 L 82.43545532226562 16.41040420532227 L 82.43545532226562 16.49445915222168 C 82.4742431640625 17.28639030456543 82.49484252929688 18.10143089294434 82.49668884277344 18.91764450073242 L 82.49668884277344 20.01276397705078 L 82.49668884277344 20.26276397705078 L 82.24668884277344 20.26276397705078 L 53.43498611450195 20.26276397705078 L 53.18498611450195 20.26276397705078 L 53.18498611450195 20.01276397705078 L 53.18498611450195 18.95006942749023 L 53.18498611450195 18.91764450073242 C 53.18498611450195 18.13907623291016 53.20558929443359 17.32385444641113 53.2462272644043 16.49444580078125 M 60.03890609741211 5.353256702423096 L 60.06403732299805 5.353310108184814 C 62.16485214233398 5.359163761138916 64.11618804931641 6.405310153961182 65.28351593017578 8.151243209838867 C 65.85809326171875 9.006257057189941 66.81613159179688 9.51671028137207 67.84625244140625 9.51671028137207 C 68.87638854980469 9.51671028137207 69.83439636230469 9.006257057189941 70.40859985351562 8.151790618896484 C 71.57510375976562 6.405910015106201 73.52507781982422 5.359750270843506 75.62554931640625 5.353310108184814 L 75.63320922851562 5.353310108184814 C 77.11396026611328 5.353310108184814 78.5511474609375 5.881070137023926 79.68002319335938 6.839363574981689 C 80.80899810791016 7.797737121582031 81.56314849853516 9.13032341003418 81.80350494384766 10.59150981903076 C 81.88046264648438 11.05796337127686 81.93434906005859 11.5310173034668 81.9864501953125 11.98848342895508 C 82.01578521728516 12.24605655670166 82.04611968994141 12.51239013671875 82.08034515380859 12.77584362030029 L 82.11699676513672 13.05804347991943 L 81.83242797851562 13.05804347991943 L 53.85646438598633 13.05804347991943 L 53.57328033447266 13.05804347991943 L 53.6083984375 12.77704334259033 C 53.63694763183594 12.54859066009521 53.66369247436523 12.3140172958374 53.68954467773438 12.0871639251709 C 53.74551773071289 11.59623050689697 53.80338668823242 11.08860397338867 53.88522720336914 10.5888032913208 C 54.12090682983398 9.127683639526367 54.87347793579102 7.797190189361572 56.00312042236328 6.843443393707275 C 57.12697219848633 5.88248348236084 58.56023788452148 5.353256702423096 60.03890609741211 5.353256702423096 M 100.2657165527344 110.0718460083008 L 48.03144073486328 110.0718460083008 C 47.7820930480957 110.0714797973633 47.5355339050293 110.0193634033203 47.307373046875 109.9187469482422 L 44.52814483642578 110.0718460083008 L 33.62198638916016 110.0718460083008 C 29.6429328918457 110.0718460083008 26.41726493835449 106.8461761474609 26.41726493835449 102.8671264648438 L 24.61609268188477 102.8671264648438 C 23.62131881713867 102.8671264648438 22.81490516662598 102.0606994628906 22.81490516662598 101.0659332275391 L 22.81490516662598 84.85529327392578 C 22.81593322753906 84.38329315185547 23.00221252441406 83.93054962158203 23.33365249633789 83.59446716308594 L 20.54721260070801 73.92572021484375 C 12.70458602905273 73.72312164306641 5.893745899200439 68.47096252441406 3.704372406005859 60.93741607666016 C 2.376599073410034 56.3675651550293 2.934479236602783 51.45628356933594 5.2533860206604 47.3006706237793 C 8.45783519744873 41.54230499267578 14.5130500793457 38.04043197631836 20.99807357788086 38.04043197631836 C 21.67182922363281 38.04043197631836 22.35064888000488 38.07826614379883 23.03096008300781 38.1552848815918 C 30.25938606262207 38.97362899780273 36.28730392456055 44.05697631835938 38.31407928466797 51.04352188110352 C 39.64193344116211 55.61396408081055 39.08406448364258 60.52582931518555 36.76505279541016 64.68206787109375 C 36.02261352539062 66.01181793212891 35.11479949951172 67.2421875 34.06327819824219 68.34388732910156 C 34.16414642333984 68.29342651367188 34.26141357421875 68.23400115966797 34.36227798461914 68.18717956542969 C 35.21920013427734 67.77549743652344 36.12812042236328 67.48223114013672 37.06405258178711 67.31540679931641 L 52.96667861938477 64.32184600830078 L 57.03735733032227 62.16041564941406 L 57.03734588623047 60.24756240844727 C 52.48078536987305 57.41333770751953 49.74574661254883 52.39588165283203 49.83262634277344 47.03049850463867 L 49.83262634277344 45.22930908203125 C 45.85355758666992 45.22930908203125 42.62790679931641 42.00364303588867 42.62790679931641 38.02457809448242 C 42.62790679931641 34.04552459716797 45.85355758666992 30.81985664367676 49.83262634277344 30.81985664367676 C 49.83262634277344 30.75861740112305 49.84344100952148 30.69917678833008 49.84344100952148 30.63973617553711 C 45.64883804321289 29.78245735168457 42.63435745239258 26.09524345397949 42.62790679931641 21.81394958496094 C 42.62790679931641 20.81919097900391 43.43431854248047 20.01276397705078 44.42908096313477 20.01276397705078 L 49.83983993530273 20.01276397705078 L 49.83983993530273 18.92125701904297 C 49.83983993530273 17.33981704711914 49.89566421508789 15.87905693054199 50.01994705200195 14.45792388916016 L 50.01994705200195 14.44351005554199 C 50.1478271484375 12.98635005950928 50.33515930175781 11.50399017333984 50.57651901245117 10.04143047332764 C 50.94214630126953 7.791963577270508 52.1004524230957 5.747523784637451 53.8420524597168 4.27764368057251 C 55.58923721313477 2.798444032669067 57.79540634155273 1.998818397521973 60.0600700378418 1.998818397521973 C 60.44249725341797 1.998818397521973 60.82699203491211 2.021658897399902 61.21080017089844 2.067870140075684 C 63.86745071411133 2.387723445892334 66.27098846435547 3.799230337142944 67.84443664550781 5.963550090789795 C 69.420654296875 3.798923492431641 71.82761383056641 2.389043569564819 74.48655700683594 2.072870254516602 C 74.86582946777344 2.027771472930908 75.24514007568359 2.005514860153198 75.62301635742188 2.005514860153198 C 77.89431762695312 2.005514860153198 80.10692596435547 2.810256004333496 81.85584259033203 4.297456741333008 C 83.59803771972656 5.766590118408203 84.75595855712891 7.811496734619141 85.11958312988281 10.06124401092529 C 85.36094665527344 11.52019023895264 85.54826354980469 13.0025634765625 85.6761474609375 14.45972347259521 L 85.6761474609375 14.46873664855957 C 85.79502868652344 15.88985729217529 85.85626220703125 17.35061645507812 85.85626220703125 18.93205642700195 L 85.85626220703125 20.01276397705078 L 91.25979614257812 20.01276397705078 C 92.25457000732422 20.01276397705078 93.06098937988281 20.81919097900391 93.06098937988281 21.81394958496094 C 93.05453491210938 26.09524345397949 90.04005432128906 29.78245735168457 85.84545135498047 30.63973617553711 C 85.84545135498047 30.69917678833008 85.85626220703125 30.75861740112305 85.85626220703125 30.81985664367676 C 89.83531951904297 30.81985664367676 93.06098937988281 34.04552459716797 93.06098937988281 38.02457809448242 C 93.06098937988281 42.00364303588867 89.83533477783203 45.22930908203125 85.85626220703125 45.22930908203125 L 85.85625457763672 47.03048324584961 C 85.94441223144531 52.39716339111328 83.20921325683594 57.4162712097168 78.65153503417969 60.25116348266602 L 78.65153503417969 62.16041564941406 L 82.72219848632812 64.32183074951172 L 98.62842559814453 67.31719207763672 C 99.57313537597656 67.48817443847656 100.4900283813477 67.78755187988281 101.3536224365234 68.20697784423828 C 101.9253692626953 68.47072601318359 102.4685745239258 68.79242706298828 102.9746932983398 69.16699981689453 C 103.4821319580078 69.52747344970703 103.9538116455078 69.93580627441406 104.3832092285156 70.38640594482422 C 105.0320510864258 71.02484130859375 105.5864105224609 71.75267028808594 106.0294952392578 72.54781341552734 C 106.173583984375 72.79638671875 106.3284759521484 73.08277893066406 106.4599761962891 73.36916351318359 C 106.7157287597656 73.91733551025391 106.9283218383789 74.48462677001953 107.0958023071289 75.06587982177734 C 107.3434677124023 76.00345611572266 107.4693832397461 76.96903228759766 107.4704360961914 77.93876647949219 L 107.4704360961914 102.8671264648438 C 107.4704360961914 106.8461761474609 104.2447738647461 110.0718460083008 100.2657165527344 110.0718460083008 Z M 57.03735733032227 93.86121368408203 L 57.03735733032227 106.469482421875 L 100.2657165527344 106.469482421875 C 102.255241394043 106.469482421875 103.8680801391602 104.8566589355469 103.8680801391602 102.8671264648438 L 103.8680801391602 93.86121368408203 L 57.03735733032227 93.86121368408203 Z M 49.83262634277344 93.86121368408203 L 49.83262634277344 104.6683120727539 L 49.83262634277344 106.469482421875 L 53.43498611450195 106.469482421875 L 53.43498611450195 93.86121368408203 L 49.83262634277344 93.86121368408203 Z M 39.02553176879883 106.469482421875 C 38.67168045043945 106.4678726196289 38.32605361938477 106.3626708984375 38.03128051757812 106.1668853759766 L 33.08163833618164 102.8671264648438 L 30.01962661743164 102.8671264648438 C 30.01962661743164 104.8566589355469 31.63246536254883 106.469482421875 33.62198638916016 106.469482421875 L 39.02553176879883 106.469482421875 Z M 26.41726493835449 86.65648651123047 L 26.41726493835449 99.26476287841797 L 33.62198638916016 99.26476287841797 C 33.97583770751953 99.26638031005859 34.32147979736328 99.37156677246094 34.61625289916992 99.56735229492188 L 39.56589126586914 102.8671264648438 L 46.23026657104492 102.8671264648438 L 46.23026657104492 93.02365875244141 L 36.68399810791016 86.65648651123047 L 26.41726493835449 86.65648651123047 Z M 97.20370483398438 86.65648651123047 L 91.80015563964844 90.25885772705078 L 103.8680801391602 90.25885772705078 L 103.8680801391602 86.65648651123047 L 97.20370483398438 86.65648651123047 Z M 84.56121063232422 83.05412292480469 L 85.80764007568359 88.02178955078125 C 86.00483703613281 88.81185913085938 85.64742279052734 89.63596343994141 84.93586730957031 90.03189849853516 L 84.52700042724609 90.25885772705078 L 85.31590270996094 90.25885772705078 L 95.66368865966797 83.35671234130859 C 95.95999908447266 83.159912109375 96.30765533447266 83.05467987060547 96.66336059570312 83.05412292480469 L 103.8680801391602 83.05412292480469 L 103.8680801391602 77.93877410888672 C 103.8675689697266 77.29205322265625 103.7846527099609 76.64805603027344 103.6213226318359 76.02230834960938 C 103.5060272216797 75.6317138671875 103.3608932495117 75.25053405761719 103.1872253417969 74.88216400146484 C 103.1029357910156 74.69700622558594 103.0085220336914 74.51661682128906 102.9044418334961 74.34181976318359 C 102.6154937744141 73.81519317626953 102.2514419555664 73.33342742919922 101.82373046875 72.91166687011719 C 101.53076171875 72.60348510742188 101.2093200683594 72.32364654541016 100.8637161254883 72.07592010498047 C 100.5389709472656 71.83354949951172 100.1901092529297 71.62531280517578 99.82262420654297 71.45451354980469 L 99.82263946533203 71.45451354980469 C 99.23830413818359 71.16647338867188 98.61705017089844 70.96040344238281 97.97640991210938 70.84210968017578 L 85.03311920166016 68.40511322021484 L 89.35595703125 80.65315246582031 C 89.55063629150391 81.20441436767578 89.46565246582031 81.81587982177734 89.12808227539062 82.29306030273438 C 88.79048156738281 82.77036285400391 88.24221038818359 83.05412292480469 87.65744018554688 83.05412292480469 L 84.56121063232422 83.05412292480469 Z M 67.84443664550781 75.01364135742188 L 66.04325103759766 77.11021423339844 L 66.04325103759766 89.27000427246094 L 66.48995971679688 90.25885772705078 L 69.19173431396484 90.25885772705078 L 69.64562225341797 89.26460266113281 L 69.64562225341797 77.11021423339844 L 67.84443664550781 75.01364135742188 Z M 62.52375793457031 90.25885772705078 L 53.58809280395508 70.91596221923828 L 50.57651901245117 79.45176696777344 L 53.43498611450195 79.45176696777344 C 53.43695449829102 79.45175933837891 53.43886184692383 79.45175170898438 53.44083023071289 79.45175170898438 C 53.99479293823242 79.45175170898438 54.51813125610352 79.70674133300781 54.85954666137695 80.14325714111328 C 55.20218658447266 80.58130645751953 55.32323837280273 81.15309906005859 55.18753433227539 81.69242858886719 L 53.72137069702148 87.55708312988281 L 58.58457183837891 90.25885772705078 L 62.52375793457031 90.25885772705078 Z M 51.16730499267578 90.25885772705078 L 50.75842666625977 90.03191375732422 C 50.04686737060547 89.63596343994141 49.689453125 88.81185913085938 49.88666534423828 88.02178955078125 L 51.12767791748047 83.05412292480469 L 48.03144073486328 83.05412292480469 C 47.45019912719727 83.05351257324219 46.90497207641602 82.77243041992188 46.56729125976562 82.29933929443359 C 46.2296142578125 81.82623291015625 46.14099884033203 81.21925354003906 46.3293342590332 80.66936492919922 L 50.65216064453125 68.42132568359375 L 37.71968078613281 70.85652160644531 C 37.09177398681641 70.96883392333984 36.48213195800781 71.16638946533203 35.90769195556641 71.44369506835938 C 35.53538513183594 71.61354064941406 35.18217086791992 71.82245635986328 34.85400009155273 72.06692504882812 C 34.51873397827148 72.30172729492188 34.20742416381836 72.56899261474609 33.92458724975586 72.86484527587891 C 33.47870635986328 73.29547119140625 33.09877395629883 73.78951263427734 32.79705429077148 74.33100128173828 C 32.68718719482422 74.5111083984375 32.58992004394531 74.69124603271484 32.50706481933594 74.87135314941406 C 32.40979766845703 75.08209991455078 32.33954620361328 75.30364227294922 32.25849151611328 75.51979064941406 L 34.41991806030273 83.05412292480469 L 37.22434616088867 83.05412292480469 C 37.57821273803711 83.05574035644531 37.9238395690918 83.16092681884766 38.21861267089844 83.35671997070312 L 48.57180023193359 90.25885772705078 L 51.16730499267578 90.25885772705078 Z M 82.10079956054688 70.91236114501953 L 73.16513061523438 90.25525665283203 L 77.10791778564453 90.25525665283203 L 81.97110748291016 87.553466796875 L 80.50494384765625 81.68882751464844 L 80.50675964355469 81.68882751464844 C 80.37258911132812 81.15092468261719 80.49361419677734 80.58120727539062 80.83485412597656 80.14427185058594 C 81.17609405517578 79.70735168457031 81.69951629638672 79.45191192626953 82.25390625 79.45176696777344 L 85.11237335205078 79.45176696777344 L 82.10079956054688 70.91236114501953 Z M 30.66806602478027 83.05412292480469 L 29.69001197814941 79.65529632568359 L 26.23714637756348 80.64955139160156 L 26.92519950866699 83.05412292480469 L 30.66806602478027 83.05412292480469 Z M 62.44089126586914 81.31777954101562 L 62.38866424560547 81.38441467285156 L 62.44089126586914 81.49789428710938 L 62.44089126586914 81.31777954101562 Z M 73.24798583984375 81.3123779296875 L 73.24798583984375 81.49250030517578 L 73.30022430419922 81.37902069091797 L 73.24798583984375 81.3123779296875 Z M 77.17636871337891 65.45476531982422 L 70.29225158691406 72.3406982421875 L 72.81390380859375 75.27121734619141 L 72.82652282714844 75.29283142089844 L 74.95552062988281 77.77665710449219 L 79.95918273925781 66.92993927001953 L 77.17636871337891 65.45476531982422 Z M 58.50531768798828 65.45478057861328 L 55.72249221801758 66.92994689941406 L 60.73337173461914 77.77665710449219 L 62.85515975952148 75.29283142089844 L 62.86777114868164 75.27121734619141 L 65.38942718505859 72.3406982421875 L 58.50531768798828 65.45478057861328 Z M 27.67809295654297 72.66489410400391 C 27.12693214416504 72.88704681396484 26.55655860900879 73.08157348632812 25.96697235107422 73.24848175048828 C 25.38458633422852 73.40219116210938 24.79485321044922 73.52662658691406 24.20001220703125 73.621337890625 L 25.22849273681641 77.18946838378906 L 28.69215965270996 76.19701385498047 L 27.67809295654297 72.66489410400391 Z M 21.0089054107666 41.62841033935547 C 15.81606197357178 41.62841033935547 10.96763038635254 44.43508148193359 8.405452728271484 49.04781723022461 C 6.554479122161865 52.36795043945312 6.108892440795898 56.29066848754883 7.168039321899414 59.94137573242188 C 8.997528076171875 66.24563598632812 14.75467395782471 70.34507751464844 21.00832366943359 70.34507751464844 C 22.32354354858398 70.34507751464844 23.66183090209961 70.16349792480469 24.98893165588379 69.78302001953125 C 28.65549278259277 68.74239349365234 31.75727844238281 66.28555297851562 33.60976028442383 62.95464324951172 C 35.46225357055664 59.62374877929688 35.91317367553711 55.6926155090332 34.86299896240234 52.02877807617188 C 33.23934555053711 46.43775177001953 28.41325187683105 42.37128448486328 22.62785339355469 41.71944427490234 C 22.08582305908203 41.65837478637695 21.54570960998535 41.62841033935547 21.0089054107666 41.62841033935547 Z M 60.63972091674805 62.01092529296875 L 60.63972091674805 62.49364471435547 L 67.84443664550781 69.6983642578125 L 75.04917144775391 62.49364471435547 L 75.04917144775391 62.01092529296875 C 72.71722412109375 62.83054351806641 70.28126525878906 63.24020767211914 67.84442901611328 63.24020767211914 C 65.40819549560547 63.24020767211914 62.97109603881836 62.83034896850586 60.63972091674805 62.01092529296875 Z M 55.03984069824219 30.81985664367676 L 53.43498611450195 32.69308471679688 L 53.43498611450195 47.03049850463867 C 53.31707763671875 51.48775100708008 55.74970626831055 55.62250900268555 59.70310592651367 57.68448257446289 C 62.25927352905273 58.98854446411133 65.05049133300781 59.64057159423828 67.84172821044922 59.64057159423828 C 70.63296508789062 59.64057159423828 73.42420959472656 58.9885368347168 75.98036956787109 57.68447113037109 C 79.93524932861328 55.62335205078125 82.36990356445312 51.48872375488281 82.25390625 47.03049850463867 L 82.25390625 32.69308471679688 L 80.64905548095703 30.81985664367676 L 55.03984069824219 30.81985664367676 Z M 85.85626220703125 34.42221832275391 L 85.85626220703125 41.62694931030273 C 87.84578704833984 41.62694931030273 89.45862579345703 40.01411056518555 89.45862579345703 38.02457809448242 C 89.45862579345703 36.03505706787109 87.84578704833984 34.42221832275391 85.85626220703125 34.42221832275391 Z M 49.83262634277344 34.42221832275391 C 47.84678649902344 34.43109512329102 46.2391471862793 36.03873825073242 46.23026657104492 38.02457809448242 C 46.23026657104492 40.01411056518555 47.84309387207031 41.62694931030273 49.83262634277344 41.62694931030273 L 49.83262634277344 34.42221832275391 Z M 46.53826522827148 23.61513710021973 C 47.30441284179688 25.77241706848145 49.34453201293945 27.2147102355957 51.63381195068359 27.21749687194824 L 84.05507659912109 27.21749687194824 C 86.3443603515625 27.21469688415527 88.38447570800781 25.77241706848145 89.15062713623047 23.61513710021973 L 46.53826522827148 23.61513710021973 Z M 53.4962272644043 16.41040420532227 L 53.4962272644043 16.50045776367188 C 53.45660018920898 17.3073902130127 53.43498611450195 18.11612319946289 53.43498611450195 18.91764450073242 L 53.43498611450195 18.95006942749023 L 53.43498611450195 20.01276397705078 L 82.24668884277344 20.01276397705078 L 82.24668884277344 18.91764450073242 C 82.24489593505859 18.12152290344238 82.22508239746094 17.3073902130127 82.18545532226562 16.50045776367188 L 82.18545532226562 16.41040420532227 L 53.4962272644043 16.41040420532227 Z M 81.83242797851562 12.80804347991943 C 81.73696136474609 12.07316398620605 81.67572021484375 11.35268402099609 81.55683898925781 10.63221645355225 C 81.07965850830078 7.731390953063965 78.57228851318359 5.603305339813232 75.63321685791016 5.603305339813232 C 75.63069915771484 5.603305339813232 75.62805938720703 5.603307247161865 75.62554931640625 5.603310108184814 C 73.61262512207031 5.60948371887207 71.73475646972656 6.616963386535645 70.61646270751953 8.290683746337891 C 69.99648284912109 9.213296890258789 68.95783996582031 9.76671028137207 67.84625244140625 9.76671028137207 C 66.73464965820312 9.76671028137207 65.69602203369141 9.213296890258789 65.07602691650391 8.290683746337891 C 63.95658493041992 6.616390228271484 62.07737350463867 5.608923435211182 60.06334686279297 5.603310108184814 C 60.05514907836914 5.60327672958374 60.04709625244141 5.603260040283203 60.03890609741211 5.603260040283203 C 58.61894607543945 5.603260040283203 57.24519729614258 6.110317230224609 56.16558456420898 7.033456802368164 C 55.07975769042969 7.950216770172119 54.35833358764648 9.225669860839844 54.13203811645508 10.62861728668213 C 54.0131721496582 11.35448360443115 53.94651794433594 12.08756351470947 53.85646438598633 12.80804347991943 L 81.83242797851562 12.80804347991943 Z"></path></g><g class="a" transform="translate(0.208 17.218)"><path class="d" d="M 17.80860328674316 47.42110824584961 C 15.47473335266113 47.41992568969727 13.25491333007812 46.67819595336914 11.38912296295166 45.27611923217773 C 9.523343086242676 43.87402725219727 8.193363189697266 41.94816589355469 7.542973041534424 39.70674896240234 C 7.150623321533203 38.35743713378906 7.032073020935059 36.96540832519531 7.190583229064941 35.56925582885742 C 7.349083423614502 34.173095703125 7.776683330535889 32.84307861328125 8.461483001708984 31.61612701416016 C 10.34296321868896 28.21895790100098 13.92239284515381 26.10880851745605 17.80312347412109 26.10880851745605 C 18.20301246643066 26.10880851745605 18.60777282714844 26.13164710998535 19.00616264343262 26.17667770385742 C 21.11162376403809 26.41467666625977 23.08015251159668 27.26313781738281 24.69891357421875 28.63032722473145 C 26.31767272949219 29.99752807617188 27.48353385925293 31.79633712768555 28.07044410705566 33.83229827880859 C 28.46290397644043 35.18152618408203 28.58148384094238 36.57325744628906 28.4229736328125 37.9691276550293 C 28.26446342468262 39.36499786376953 27.83685302734375 40.69470596313477 27.15200233459473 41.92130661010742 C 25.26968383789062 45.31381607055664 21.6905632019043 47.42109680175781 17.81119346618652 47.42109680175781 L 17.80860328674316 47.42110824584961 Z M 17.80845260620117 29.46872711181641 C 15.14799308776855 29.47213745117188 12.69061279296875 30.91777801513672 11.39522361755371 33.24149703979492 C 10.4558629989624 34.91664886474609 10.22404289245605 36.93558883666992 10.75934314727783 38.78035736083984 C 11.21027278900146 40.33644866943359 12.13504314422607 41.66713714599609 13.43367290496826 42.62853622436523 C 14.69084358215332 43.55923843383789 16.24007415771484 44.07179641723633 17.79598236083984 44.07179641723633 C 18.47916412353516 44.07179641723633 19.16161346435547 43.97519683837891 19.82437324523926 43.78468704223633 C 21.7024040222168 43.25288772583008 23.26040267944336 42.02075576782227 24.21090316772461 40.31540679931641 C 25.16140365600586 38.61003875732422 25.389892578125 36.63688659667969 24.85428237915039 34.75943756103516 C 24.4087028503418 33.22129821777344 23.49678230285645 31.90024757385254 22.21698379516602 30.93859672546387 C 20.93724250793457 29.97699737548828 19.41469383239746 29.46872711181641 17.81394386291504 29.46872711181641 L 17.80845260620117 29.46872711181641 Z"></path><path class="e" d="M 17.80854415893555 47.54609680175781 L 17.81119346618652 47.29609680175781 C 21.64516258239746 47.29609680175781 25.18241310119629 45.21347808837891 27.0428638458252 41.86037826538086 C 27.7195930480957 40.64829635620117 28.14214324951172 39.33434677124023 28.29877281188965 37.95501708984375 C 28.45540237426758 36.57568740844727 28.33823394775391 35.20044708251953 27.95033264160156 33.86692810058594 C 27.37029266357422 31.85478782653809 26.21807289123535 30.07701683044434 24.61825370788574 28.72582817077637 C 23.0184326171875 27.3746280670166 21.07295227050781 26.53609848022461 18.99212265014648 26.30088806152344 C 18.59839248657227 26.25637817382812 18.1983528137207 26.23380851745605 17.80312347412109 26.23380851745605 C 13.96783351898193 26.23380851745605 10.4303035736084 28.31925773620605 8.570632934570312 31.67704772949219 C 7.893943309783936 32.88946914672852 7.471413135528564 34.20373916625977 7.314783096313477 35.58335876464844 C 7.158153057098389 36.96296691894531 7.275303363800049 38.33851623535156 7.663022994995117 39.67190933227539 C 8.305812835693359 41.88713836669922 9.620243072509766 43.79048919677734 11.46422290802002 45.17618942260742 C 13.30819320678711 46.56188583374023 15.50207328796387 47.29494857788086 17.80867385864258 47.29610824584961 L 17.80854415893555 47.54609680175781 M 17.80822372436523 29.34372711181641 L 17.80838394165039 29.34372711181641 L 17.80854415893555 29.34372711181641 L 17.81394386291504 29.34372711181641 C 19.44199371337891 29.34372711181641 20.99050331115723 29.86066818237305 22.29207229614258 30.83866691589355 C 23.59370231628418 31.81670761108398 24.52117347717285 33.16029739379883 24.9744930267334 34.72514724731445 C 25.51927375793457 36.63474655151367 25.28686332702637 38.64168930053711 24.32008361816406 40.37625885009766 C 23.35331344604492 42.11081695556641 21.76863288879395 43.36404800415039 19.85891342163086 43.90481948852539 C 19.18489265441895 44.09855651855469 18.49082374572754 44.19679641723633 17.79598236083984 44.19679641723633 C 16.2134838104248 44.19679641723633 14.63783359527588 43.67552947998047 13.35929298400879 42.72900772094727 C 12.0384635925293 41.75116729736328 11.09789276123047 40.39776611328125 10.6392936706543 38.8151969909668 C 10.09471321105957 36.93845748901367 10.33055305480957 34.88453674316406 11.28604316711426 33.18062591552734 C 12.60345363616943 30.81741714477539 15.1026029586792 29.34719848632812 17.80822372436523 29.34372711181641 M 17.80854415893555 47.54610824584961 C 12.99628353118896 47.54367828369141 8.763982772827148 44.36320877075195 7.42292308807373 39.7415771484375 C 6.625253200531006 36.99831771850586 6.96000337600708 34.04982757568359 8.352333068847656 31.55520820617676 C 10.27050876617432 28.09177207946777 13.90705299377441 25.98380851745605 17.80312156677246 25.98380851745605 C 18.20645332336426 25.98380851745605 18.61293601989746 26.00643157958984 19.02020263671875 26.05246734619141 C 23.36155319213867 26.5432071685791 26.98037338256836 29.59962844848633 28.19055366516113 33.79767608642578 C 28.98833274841309 36.54032897949219 28.65357398986816 39.48830795288086 27.26114273071289 41.98224639892578 C 25.35583305358887 45.41619873046875 21.73819541931152 47.54609680175781 17.81119728088379 47.54609680175781 C 17.81047821044922 47.54609680175781 17.80926322937012 47.54609680175781 17.80854415893555 47.54609680175781 L 17.80854415893555 47.54610824584961 Z M 17.81394004821777 29.59372520446777 C 17.81217765808105 29.59372520446777 17.81030654907227 29.59372711181641 17.80854415893555 29.59372711181641 C 15.19061279296875 29.59708786010742 12.77912330627441 31.01572799682617 11.50440311431885 33.3023567199707 C 10.57504367828369 34.95967864990234 10.34987354278564 36.92068862915039 10.87939357757568 38.74552917480469 C 11.79271221160889 41.89728546142578 14.67029285430908 43.94679260253906 17.79598617553711 43.94679260253906 C 18.45475578308105 43.94679260253906 19.12516784667969 43.85560989379883 19.78984260559082 43.66454696655273 C 21.62289237976074 43.14548873901367 23.17421340942383 41.91864776611328 24.10171318054199 40.25454711914062 C 25.02921295166016 38.59044647216797 25.25673294067383 36.62576675415039 24.73408317565918 34.79372787475586 C 23.84168434143066 31.71321105957031 21.02069473266602 29.59372520446777 17.81394004821777 29.59372520446777 Z"></path></g><g class="b" transform="translate(57.601 97)"><rect class="d" width="4" height="4"></rect><rect class="c" x="0.125" y="0.125" width="3.75" height="3.75"></rect></g><g class="b" transform="translate(64.601 97)"><rect class="d" width="4" height="4"></rect><rect class="c" x="0.125" y="0.125" width="3.75" height="3.75"></rect></g></g></g><rect class="c" width="170" height="135" transform="translate(538 1460)"></rect></g></svg>