<svg xmlns="http://www.w3.org/2000/svg" width="170.2" height="135" viewBox="0 0 170.2 135"><defs><style>.a{fill:#1c43b9;stroke:#fff;stroke-width:0.4px;}.b{fill:none;}</style></defs><g transform="translate(-537.8 -1755)"><g transform="translate(522 1791.085)"><path class="a" d="M67.375,16.811H60.6V13.778c0-.981-1.07-1.427-2.051-1.427H53.283A7.978,7.978,0,0,0,45.345,7a8.117,8.117,0,0,0-7.938,5.352H32.233c-.981,0-1.962.446-1.962,1.427v3.033H23.492A7.581,7.581,0,0,0,16,24.035V75.143c0,3.925,3.568,6.779,7.492,6.779H67.375c3.924,0,7.492-2.854,7.492-6.779V24.035A7.581,7.581,0,0,0,67.375,16.811Zm-33.537-.892h4.906a1.962,1.962,0,0,0,1.695-1.605A5.173,5.173,0,0,1,45.345,10.3a5.084,5.084,0,0,1,4.816,4.014,1.962,1.962,0,0,0,1.784,1.605h5.084v7.135H33.839ZM71.3,75.143c0,1.962-1.962,3.211-3.924,3.211H23.492c-1.962,0-3.925-1.249-3.925-3.211V24.035a4.014,4.014,0,0,1,3.925-3.657h6.779v4.549a1.873,1.873,0,0,0,1.962,1.695H58.545A1.962,1.962,0,0,0,60.6,24.927V20.378h6.779A4.014,4.014,0,0,1,71.3,24.035Z"></path><path class="a" d="M37.151,51.543l-5.708,5.441-2.408-2.5a1.784,1.784,0,0,0-2.5-.089,1.873,1.873,0,0,0,0,2.587l3.657,3.746a1.605,1.605,0,0,0,1.249.535,1.784,1.784,0,0,0,1.249-.535l6.957-6.6a1.695,1.695,0,0,0,0-2.5A1.784,1.784,0,0,0,37.151,51.543Z" transform="translate(-1.083 -4.764)"></path><path class="a" d="M67.3,56H46.784a1.784,1.784,0,0,0,0,3.568H67.3A1.784,1.784,0,1,0,67.3,56Z" transform="translate(-3.134 -5.296)"></path><path class="a" d="M37.151,35.543l-5.708,5.441-2.408-2.5a1.784,1.784,0,0,0-2.5-.089,1.873,1.873,0,0,0,0,2.587l3.657,3.746a1.605,1.605,0,0,0,1.249.535,1.784,1.784,0,0,0,1.249-.535l6.957-6.6a1.695,1.695,0,0,0,0-2.5A1.784,1.784,0,0,0,37.151,35.543Z" transform="translate(-1.083 -3.035)"></path><path class="a" d="M67.3,40H46.784a1.784,1.784,0,0,0,0,3.568H67.3A1.784,1.784,0,1,0,67.3,40Z" transform="translate(-3.134 -3.567)"></path><path class="a" d="M37.151,67.543l-5.708,5.441-2.408-2.5a1.784,1.784,0,0,0-2.5-.089,1.873,1.873,0,0,0,0,2.587l3.657,3.746a1.605,1.605,0,0,0,1.249.535,1.784,1.784,0,0,0,1.249-.535l6.957-6.6a1.695,1.695,0,0,0,0-2.5A1.784,1.784,0,0,0,37.151,67.543Z" transform="translate(-1.083 -6.493)"></path><path class="a" d="M67.3,72H46.784a1.784,1.784,0,0,0,0,3.568H67.3A1.784,1.784,0,0,0,67.3,72Z" transform="translate(-3.134 -7.025)"></path></g><rect class="b" width="170" height="135" transform="translate(538 1755)"></rect></g></svg>