<svg xmlns="http://www.w3.org/2000/svg" width="172.45" height="135" viewBox="0 0 172.45 135"><defs><style>.a{fill:#1c43b9;stroke:#1c43b9;stroke-width:0.9px;}.b{fill:none;}</style></defs><g transform="translate(-997.55 -1460)"><g transform="translate(996 1496.5)"><path class="a" d="M45.5,2A43.5,43.5,0,1,0,89,45.5,43.5,43.5,0,0,0,45.5,2Zm0,84.1A40.6,40.6,0,1,1,86.1,45.5,40.6,40.6,0,0,1,45.5,86.1Z" transform="translate(0 0)"></path><path class="a" d="M54.05,16A15.8,15.8,0,0,0,41,22.8,15.805,15.805,0,0,0,27.95,16,15.969,15.969,0,0,0,12,31.95c0,18.095,27.2,31.671,28.361,32.239L41,64.5l.639-.315C42.8,63.621,70,50.045,70,31.95A15.969,15.969,0,0,0,54.05,16ZM41,61.257C36.931,59.116,14.9,46.828,14.9,31.95A13.041,13.041,0,0,1,39.695,26.3L41,29,42.3,26.3A13.041,13.041,0,0,1,67.1,31.95C67.1,46.813,45.067,59.114,41,61.257Z" transform="translate(4.5 6.3)"></path></g><rect class="b" width="170" height="135" transform="translate(1000 1460)"></rect></g></svg>