<svg xmlns="http://www.w3.org/2000/svg" width="115" height="100" viewBox="0 0 115 100"><defs><style>.a{fill:#bd2c22;}.b{fill:none;}</style></defs><g transform="translate(-759 -867)"><g transform="translate(754.699 864.154)"><path class="a" d="M83.711,59.609H64.324v0a3.256,3.256,0,0,0-2.809,1.748l-.727,1.388V58.892a10.558,10.558,0,0,0-4.913-8.949l-7.733-4.921a11.7,11.7,0,0,0,2.038-6.628V25.429A9.44,9.44,0,0,0,40.751,16H37.215a4.71,4.71,0,0,0-3.771,1.888,3.517,3.517,0,0,0-2.122-.709,4.72,4.72,0,0,0-4.715,4.715v16.5a11.718,11.718,0,0,0,2.044,6.624l-7.738,4.924A10.558,10.558,0,0,0,16,58.892V71.4a10.583,10.583,0,0,0,3.536,7.9v6.246a1.179,1.179,0,0,0,1.179,1.179H68.8a5.863,5.863,0,0,0,4.983-2.746l12.473-19.75a3.007,3.007,0,0,0-2.542-4.613Zm-25.28-.717v8.356l-6.494,12.4h-.654a9.452,9.452,0,0,0-5.817-7.56v-11.3a1.179,1.179,0,0,0-1.179-1.179H41.414l5.735-12.425,7.46,4.747A8.212,8.212,0,0,1,58.43,58.892Zm-24.555-33.6a6.473,6.473,0,0,0,5.108,2.5h8.84V38.394a9.429,9.429,0,1,1-18.858,0V27.786h.2a5.69,5.69,0,0,0,4.709-2.5ZM38.394,50.18a11.73,11.73,0,0,0,5.373-1.293L39.424,58.3l-5.551-9.02A11.72,11.72,0,0,0,38.394,50.18Zm1.179,14.144a1.179,1.179,0,0,0,1.179-1.179V61.967h2.357v9.505A9.464,9.464,0,0,0,41.93,71.4a12.81,12.81,0,0,0-5.893,1.43V61.967h2.357v1.179a1.179,1.179,0,0,0,1.179,1.179ZM37.215,18.357h3.536a7.08,7.08,0,0,1,7.072,7.072h-8.84A4.13,4.13,0,0,1,34.858,21.3v-.589A2.36,2.36,0,0,1,37.215,18.357Zm-5.893,1.179A1.18,1.18,0,0,1,32.5,20.715V22.1a3.338,3.338,0,0,1-3.334,3.334h-.2V21.893a2.36,2.36,0,0,1,2.357-2.357Zm-9.144,32.4L29.767,47.1l7.7,12.507H34.858a1.179,1.179,0,0,0-1.179,1.179V72.85l-2.964-1.778a1.185,1.185,0,0,1-.572-1.011V60.788H27.786v4.877H18.357V58.892a8.212,8.212,0,0,1,3.821-6.961ZM18.357,71.4V68.022h9.429v2.039A3.554,3.554,0,0,0,29.5,73.093l4.749,2.849a1.179,1.179,0,0,0,1.26-.03l.594-.4a10.467,10.467,0,0,1,5.824-1.763A7.083,7.083,0,0,1,48.9,79.646h-22.3A8.26,8.26,0,0,1,18.357,71.4Zm3.536,9.5a10.521,10.521,0,0,0,3.536,1.042V82a4.684,4.684,0,0,0,.634,2.357h-4.17ZM27.786,82H50.7l-1.235,2.357H30.143A2.36,2.36,0,0,1,27.786,82ZM60.771,67.86h.017v-.032L63.6,62.454a.91.91,0,0,1,1.611.844L55.174,82.465a3.525,3.525,0,0,1-3.046,1.894Zm23.489-4.9L71.787,82.713a3.518,3.518,0,0,1-2.99,1.648H56.754a5.933,5.933,0,0,0,.509-.8L67.3,64.392a3.24,3.24,0,0,0,.246-2.425H83.711a.65.65,0,0,1,.549,1Z" transform="translate(-10.571)"></path><rect class="a" width="5" height="3" transform="translate(20.301 29.846)"></rect><path class="a" d="M152,165.893h1.179a3.54,3.54,0,0,0,3.536-3.536V160h-2.357v2.357a1.18,1.18,0,0,1-1.179,1.179H152Z" transform="translate(-126.534 -122.785)"></path><circle class="a" cx="1" cy="1" r="1" transform="translate(22.301 33.846)"></circle><rect class="a" width="5" height="3" transform="translate(30.301 29.846)"></rect><circle class="a" cx="1" cy="1" r="1" transform="translate(31.301 33.846)"></circle></g><rect class="b" width="115" height="100" transform="translate(759 867)"></rect></g></svg>