<svg xmlns="http://www.w3.org/2000/svg" width="170.5" height="135" viewBox="0 0 170.5 135"><defs><style>.a{fill:#1c43b9;stroke:#fff;}.b{fill:none;}</style></defs><g transform="translate(-999.5 -1167)"><g transform="translate(981.1 1197.318)"><path class="a" d="M71.234,57.611H63.454l-.853-3.3c5.756-4.05,9.167-9.06,10.126-14.389,3.2-.746,4.69-2.984,4.69-6.928,0-2.984-.746-5.116-2.132-6.4A5.206,5.206,0,0,0,72.3,25.315a70.663,70.663,0,0,0-.213-7.887,23.55,23.55,0,0,0-.746-4.263,20.467,20.467,0,0,0,.32-7.141,1.369,1.369,0,0,0-1.705-.959c-.426.107-.853.32-1.279.426a5.8,5.8,0,0,0,0-1.919,1.321,1.321,0,0,0-1.812-1.066A39.856,39.856,0,0,1,52.049,5.064c-10.552,0-19.186.533-19.932,12.471-.213,3.091-.213,5.649-.213,7.887A4.873,4.873,0,0,0,28.919,26.7c-1.492,1.279-2.132,3.411-2.132,6.4,0,3.944,1.492,6.182,4.69,6.928.853,5.329,4.37,10.339,10.126,14.389l-.853,3.3H32.863A14.011,14.011,0,0,0,18.9,71.681v14.6a5,5,0,0,0,5.01,5.01h13.75a14.52,14.52,0,0,0,28.779,0h13.75a5,5,0,0,0,5.01-5.01V71.574A14.011,14.011,0,0,0,71.234,57.611ZM34.995,38.532A2.292,2.292,0,0,0,32.863,36.4c-1.386-.107-2.452-.213-2.452-3.411,0-2.452.533-3.3.959-3.624a1.507,1.507,0,0,1,1.066-.32,12.624,12.624,0,0,0,.426,2.771c.32,1.279,3.624,1.172,3.837.107.213-.959-.533-7.248,2.345-12.79a35.9,35.9,0,0,0,13,2.132,35.9,35.9,0,0,0,13-2.132c2.984,5.649,2.238,11.831,2.452,12.79.213,1.172,3.517,1.172,3.837-.107a16.587,16.587,0,0,0,.32-2.771c.746,0,.959.213,1.066.32.32.32.959,1.172.959,3.624,0,3.091-.959,3.2-2.345,3.411a2.292,2.292,0,0,0-2.132,2.132c-.533,4.8-3.517,9.167-8.953,12.9a14.479,14.479,0,0,1-16.2,0C38.512,47.592,35.528,43.222,34.995,38.532ZM58.977,63.687l-5.01,3.731a3.525,3.525,0,0,1-4.05,0l-4.9-3.731a3.5,3.5,0,0,1-1.279-3.517L44.8,56.226a17.834,17.834,0,0,0,14.283,0l1.066,3.944A3.246,3.246,0,0,1,58.977,63.687Zm-6.928,36.346A10.765,10.765,0,1,1,62.814,89.268,10.736,10.736,0,0,1,52.049,100.033ZM81.467,86.07a1.231,1.231,0,0,1-1.279,1.279H66.438a14.459,14.459,0,0,0-28.672,0H23.91a1.231,1.231,0,0,1-1.279-1.279v-14.5A10.235,10.235,0,0,1,32.863,61.342H40a7.153,7.153,0,0,0,2.771,5.329l4.9,3.731a7.252,7.252,0,0,0,8.527,0l4.9-3.731a6.666,6.666,0,0,0,2.771-5.329h7.355A10.235,10.235,0,0,1,81.467,71.574Z"></path><circle class="a" cx="3.304" cy="3.304" r="3.304" transform="translate(41.816 27.874)"></circle><circle class="a" cx="3.304" cy="3.304" r="3.304" transform="translate(55.673 27.874)"></circle><path class="a" d="M50.605,44.12a9.315,9.315,0,0,0,7.887-3.944A1.848,1.848,0,1,0,55.4,38.151a6.258,6.258,0,0,1-9.593,0,1.848,1.848,0,0,0-3.091,2.025A9.18,9.18,0,0,0,50.605,44.12Z" transform="translate(1.55 2.3)"></path><path class="a" d="M53.5,80.429l-4.477,4.477L47,82.88a1.884,1.884,0,0,0-2.665,2.665l3.411,3.411a1.967,1.967,0,0,0,1.279.533,1.765,1.765,0,0,0,1.279-.533L56.059,83.2a1.866,1.866,0,0,0,0-2.665A1.833,1.833,0,0,0,53.5,80.429Z" transform="translate(1.639 5.108)"></path></g><rect class="b" width="170" height="135" transform="translate(1000 1167)"></rect></g></svg>