<svg xmlns="http://www.w3.org/2000/svg" width="170.7" height="135" viewBox="0 0 170.7 135"><defs><style>.a{fill:#1c43b9;stroke:#fff;stroke-width:1.4px;}.b{fill:none;}</style></defs><g transform="translate(-537.3 -1755)"><g transform="translate(1475.7 828.143)"><path class="a" d="M-902.773,953-937.7,964.011V985.4a57.386,57.386,0,0,0,24.368,46.84l10.559,7.4,10.559-7.4a57.14,57.14,0,0,0,24.368-46.84V964.011Zm30.053,32.4a52.1,52.1,0,0,1-22.292,42.779l-7.762,5.415-7.762-5.415A52.224,52.224,0,0,1-932.826,985.4v-17.87l30.053-9.476,30.053,9.476Z" transform="translate(0 0)"></path><path class="a" d="M-911.5,979.364v7.22l4.874-.632v-6.678a3.813,3.813,0,0,1,3.791-3.791h5.235a3.813,3.813,0,0,1,3.791,3.791v6.678l4.874.632v-7.22A8.666,8.666,0,0,0-897.6,970.7h-5.234A8.609,8.609,0,0,0-911.5,979.364Z" transform="translate(-2.554 -1.726)"></path><path class="a" d="M-900.755,987.9h-.451l-12.364,1.534a3.9,3.9,0,0,0-3.43,3.881v15.072a3.9,3.9,0,0,0,3.43,3.881l12.364,1.534h.9l12.364-1.534a3.9,3.9,0,0,0,3.43-3.881V993.315a3.9,3.9,0,0,0-3.43-3.881L-900.3,987.9Zm2.8,10.108a2.693,2.693,0,0,1-1.354,2.347l.812,5.866h-4.513l.812-5.866a2.693,2.693,0,0,1-1.354-2.347,2.812,2.812,0,0,1,2.8-2.8A2.7,2.7,0,0,1-897.957,998.008Z" transform="translate(-2.018 -3.403)"></path></g><rect class="b" width="170" height="135" transform="translate(538 1755)"></rect></g></svg>