<svg xmlns="http://www.w3.org/2000/svg" width="115" height="100" viewBox="0 0 115 100"><defs><style>.a{fill:#ce1010;}.b{fill:none;}</style></defs><g transform="translate(-536 -1151)"><g transform="translate(528 1181.522)"><path class="a" d="M59.845,29.808c-1.649-3.421-6.684-3.273-10.025-3.175-.766.022-1.427.042-1.926.018A3.805,3.805,0,0,1,46.5,26.4a2.24,2.24,0,0,1,.215-.5c.133-.244.319-.571.542-.961a42.969,42.969,0,0,0,3.765-7.827,8.106,8.106,0,0,0-1.085-6.176,5.861,5.861,0,0,0-3.692-2.9,3.061,3.061,0,0,0-2.539.558c-1.563,1.2-1.825,3.759-1.861,4.236-.543,3.974-4.292,7.547-6.1,9.267-.246.234-.458.437-.623.6a12.525,12.525,0,0,0-2.277,4.041,19.726,19.726,0,0,1-1.314,2.761,20.73,20.73,0,0,1-2.6,3.24h-1.8v-.33A2.847,2.847,0,0,0,24.3,29.574H12.844A2.848,2.848,0,0,0,10,32.418V54.663a2.848,2.848,0,0,0,2.844,2.844H24.3a2.848,2.848,0,0,0,2.784-2.264,16.491,16.491,0,0,0,2.946,2.105,1.267,1.267,0,0,0,.614.159H53.607a1.345,1.345,0,0,0,.2-.016A4.442,4.442,0,0,0,56.891,55.6a6.962,6.962,0,0,0,.834-4.629,6.156,6.156,0,0,0,.958-6.547,6.8,6.8,0,0,0,1.876-4.441,5.846,5.846,0,0,0-.839-3.038C61.674,34.436,60.742,31.3,59.845,29.808ZM24.6,54.663a.3.3,0,0,1-.3.3H12.844a.305.305,0,0,1-.3-.3V32.418a.3.3,0,0,1,.3-.3H24.3a.305.305,0,0,1,.3.3ZM57.163,37.732c.389.405,2.172,2.576-.9,5.548a1.269,1.269,0,0,0-.2,1.581,3.769,3.769,0,0,1-.565,4.744,1.269,1.269,0,0,0-.38,1.226,5.069,5.069,0,0,1-.345,3.353,1.852,1.852,0,0,1-1.284.784H30.98A11.144,11.144,0,0,1,28.351,52.9a1.272,1.272,0,0,0-.63-.424c-.112-.033-.322-.09-.582-.143V35.288h2.319a1.27,1.27,0,0,0,.873-.347,23.548,23.548,0,0,0,3.354-4.087,21.558,21.558,0,0,0,1.506-3.13A10.828,10.828,0,0,1,36.92,24.5c.154-.154.351-.342.58-.56,2.021-1.925,6.227-5.933,6.868-10.81,0-.027.006-.057.008-.083a4.107,4.107,0,0,1,.879-2.435.532.532,0,0,1,.492-.081,3.464,3.464,0,0,1,2.023,1.728,5.682,5.682,0,0,1,.811,4.156,42.132,42.132,0,0,1-3.53,7.27c-.23.406-.425.747-.563,1a2.967,2.967,0,0,0-.249,2.963c.708,1.26,2.357,1.481,3.535,1.538.6.027,1.3.008,2.122-.017,2.7-.079,6.768-.2,7.678,1.773a1.152,1.152,0,0,0,.074.138c.073.118,1.767,2.909-.411,4.8a1.281,1.281,0,0,0-.074,1.847Z" transform="translate(0 0)"></path></g><rect class="b" width="115" height="100" transform="translate(536 1151)"></rect></g></svg>