<svg xmlns="http://www.w3.org/2000/svg" width="115" height="100" viewBox="0 0 115 100"><defs><style>.a{fill:#ce1010;}.b{fill:none;}</style></defs><g transform="translate(-536 -1939)"><path class="a" d="M688.824,27.176a13.105,13.105,0,1,0,13.1,13.1A13.12,13.12,0,0,0,688.824,27.176Zm0,23.976A10.871,10.871,0,1,1,699.695,40.28,10.883,10.883,0,0,1,688.824,51.152Zm6.006-17.088-8.353,8.353L682.3,38.241l-2.19,2.189,6.367,6.367,10.543-10.544ZM657.67,20.939v2.376h14.666V20.939Zm24.458,6.182H657.67V29.5h21.076A14.828,14.828,0,0,1,682.128,27.121ZM657.67,53.32H681.9a14.875,14.875,0,0,1-3.275-2.375H657.67V53.32Zm0-20.243v2.376h17.2a14.732,14.732,0,0,1,1.068-2.376Zm0,5.956v2.376H674.1c-.028-.373-.047-.749-.047-1.128,0-.421.022-.835.057-1.247Zm0,5.956v2.375h18.2a14.638,14.638,0,0,1-1.04-2.375Zm29.821,10v2.587H653.116v-45.2h23.436v9.753a1.188,1.188,0,0,0,1.188,1.188h9.751v2.256c.439-.039.883-.063,1.332-.063.351,0,.7.017,1.043.041V22.137s0-.006,0-.01a1.181,1.181,0,0,0-.353-.844L678.576,10.345a1.244,1.244,0,0,0-.175-.144c-.018-.012-.037-.019-.056-.031a1.153,1.153,0,0,0-.148-.079c-.025-.011-.052-.016-.077-.024a.926.926,0,0,0-.145-.044A1.179,1.179,0,0,0,677.74,10H651.928a1.187,1.187,0,0,0-1.187,1.188V58.761a1.187,1.187,0,0,0,1.188,1.188h36.749a1.188,1.188,0,0,0,1.188-1.188V55.009c-.345.025-.691.041-1.043.041C688.374,55.05,687.93,55.026,687.492,54.988Zm-8.564-40.933,6.884,6.885h-6.884Z" transform="translate(-112.733 1961)"></path><rect class="b" width="115" height="100" transform="translate(536 1939)"></rect></g></svg>