<svg xmlns="http://www.w3.org/2000/svg" width="115" height="100" viewBox="0 0 115 100"><defs><style>.a{fill:#ce1010;stroke:#ce1011;stroke-width:0.2px;}.b{fill:none;}</style></defs><g transform="translate(-1205 -1151)"><g transform="translate(901 -210.451)"><path class="a" d="M11.659,58.381l15.586,6.232A3.83,3.83,0,0,0,28.7,64.9a3.935,3.935,0,0,0,1.963-.536l13.853-5.677a4.05,4.05,0,0,0,2.47-4.567,3.944,3.944,0,0,0-1.819-2.527c-.191-11.038-4.078-19.32-9.976-22.019h.4a.957.957,0,1,0,0-1.915h-.354a6.634,6.634,0,0,0,2.269-4.787,2.192,2.192,0,0,0-1.216-1.962A2.154,2.154,0,0,0,34,21.12l-.325.22a.479.479,0,0,1-.613,0l-.555-.565a2.365,2.365,0,0,0-1.7-.775,2.259,2.259,0,0,0-1.695.689l-.594.594a.479.479,0,0,1-.613.048l-.326-.249a2.154,2.154,0,0,0-2.288-.211,2.192,2.192,0,0,0-1.187,2,6.634,6.634,0,0,0,2.269,4.787h-.354a.957.957,0,0,0,0,1.915h.45c-3.829,1.762-6.855,5.878-8.559,11.756a5.323,5.323,0,0,0-1.235.067l-5.017.957V41.062H4v18.19h7.659Zm14.36-35.509a.268.268,0,0,1,.153-.249.44.44,0,0,1,.287.057l.326.239a2.393,2.393,0,0,0,3.111-.211l.594-.594a.488.488,0,0,1,.316-.2.507.507,0,0,1,.326.144l.555.555a2.393,2.393,0,0,0,3.131.239l.316-.239a.249.249,0,0,1,.287,0,.268.268,0,0,1,.172.258c0,2.652-2.872,4.787-4.787,4.787S26.019,25.5,26.019,22.872Zm4.787,7.659c.785,0,1.915,1.675,1.915,4.308h1.915a9.277,9.277,0,0,0-.7-3.667c5.294,2.164,8.961,9.794,9.315,19.856a3.83,3.83,0,0,0-1.57.3l-3.437,1.158a2.566,2.566,0,0,0-1.58-2.393L19.988,41.847a1.912,1.912,0,0,1-.211-.086C21.826,34.82,26.019,30.531,30.806,30.531ZM17.039,43.283a3.332,3.332,0,0,1,2.106.278l16.706,8.281a.7.7,0,0,1,.383.373.718.718,0,0,1,0,.546c-.249.622-1.331,1.13-2.872,1.312a9.487,9.487,0,0,1-4.193-.373L20.553,51l-.565,1.829,8.53,2.671a10.177,10.177,0,0,0,3.533.574,9.066,9.066,0,0,0,4.433-.957l5.744-1.963a2.068,2.068,0,0,1,1.733.067,2,2,0,0,1,1.206,1.331,2.154,2.154,0,0,1-1.34,2.374l-13.92,5.687-.153.067a2.01,2.01,0,0,1-1.79.163l-16.3-6.52V44.317Zm-7.3,14.054H5.915V42.977H9.744Z" transform="translate(302 1384.328)"></path><path class="a" d="M71.166,42.59l.517-9-1.474-7.63L66.916,10.289a3.83,3.83,0,0,0-7.544,1.331l2.221,12.541a3.667,3.667,0,0,1,0,1.12c-.2,1.637-.4,3-.6,4.126v-.67c-.2-2.738-2.872-7.822-5.964-7.592a2.6,2.6,0,0,0-1.79.9,2.527,2.527,0,0,0-.632,1.838L52.45,42.428A5.342,5.342,0,0,0,53.5,45.606l3.073,4.078-1.168.574,3.36,6.883,16.342-8.013-3.36-6.883ZM55.073,44.505a3.38,3.38,0,0,1-.67-2.01l.1-18.64a.718.718,0,0,1,.172-.517.737.737,0,0,1,.488-.249c1.493-.105,3.743,3.571,3.916,5.83l.6,8.789,1.915-.134-.22-3.016c.632-.527,1.292-2.374,2.125-9.037a5.534,5.534,0,0,0-.048-1.685L61.258,11.275a1.915,1.915,0,0,1,.335-1.4,1.857,1.857,0,0,1,1.235-.785,1.915,1.915,0,0,1,2.221,1.589l3.245,15.653,1.4,7.381-.536,9.842L58.328,48.852Zm4.6,10.091-1.685-3.437L70.9,44.85l1.675,3.437Z" transform="translate(299.934 1384.877)"></path><rect class="a" width="1.915" height="5.744" transform="translate(331.849 1392.84)"></rect><rect class="a" width="5.773" height="1.915" transform="translate(338.372 1399.59) rotate(-66.09)"></rect><rect class="a" width="1.915" height="5.773" transform="translate(323.16 1395.082) rotate(-23.91)"></rect><rect class="a" width="5.773" height="1.915" transform="translate(343.36 1402.59) rotate(-45)"></rect><rect class="a" width="1.915" height="5.773" transform="translate(316.807 1399.86) rotate(-45)"></rect></g><rect class="b" width="115" height="100" transform="translate(1205 1151)"></rect></g></svg>