<svg xmlns="http://www.w3.org/2000/svg" width="172.5" height="135" viewBox="0 0 172.5 135"><defs><style>.a{fill:#1c43b9;stroke:#fff;stroke-width:5px;}.b{fill:none;}</style></defs><g transform="translate(-535.5 -1755)"><path class="a" d="M63.663,38.058l-7.733,9.654A6.828,6.828,0,1,1,50.142,41.9L59.8,34.166a2.75,2.75,0,0,1,3.867,3.867ZM35.742,61.926a3.494,3.494,0,0,0-3.494-3.494h-14.7a3.494,3.494,0,0,0,0,6.989H32.239a3.494,3.494,0,0,0,3.494-3.494ZM79.916,24.4a4.62,4.62,0,0,0,1.371-2.648,4.391,4.391,0,0,0-4.916-4.916,4.611,4.611,0,0,0-2.648,1.371L70.1,21.831a33.843,33.843,0,0,0-16.49-6.9V11.635h3.156a4.518,4.518,0,0,0,4.56-3.943A4.391,4.391,0,0,0,57,2.87H41.69a4.518,4.518,0,0,0-4.56,3.943A4.391,4.391,0,0,0,41.5,11.635h3.384v3.283A34.072,34.072,0,0,0,29.2,21.23a4.374,4.374,0,0,0,5.17,7.048A25.239,25.239,0,1,1,35.928,69.99a4.374,4.374,0,0,0-5.686.846h0a4.374,4.374,0,0,0,.973,6.5,33.716,33.716,0,0,0,23.242,4.89,34.1,34.1,0,0,0,28.767-33.2,33.606,33.606,0,0,0-6.955-20.966ZM32.239,40.478a3.494,3.494,0,0,0,0-6.989H5.494a3.494,3.494,0,1,0,0,6.989Zm0,5.474H12.068a3.494,3.494,0,1,0,0,6.989H32.239a3.494,3.494,0,1,0,0-6.989Z" transform="translate(536 1792.758)"></path><rect class="b" width="170" height="135" transform="translate(538 1755)"></rect></g></svg>