<svg xmlns="http://www.w3.org/2000/svg" width="170" height="135" viewBox="0 0 170 135"><defs><style>.a{fill:#1c43b9;stroke:#fff;}.b{fill:none;}</style></defs><g transform="translate(-1000 -1460)"><g transform="translate(991 1482.512)"><path class="a" d="M84.1,75.1l-5.066-8.567a2.358,2.358,0,0,1,.83-3.23,2.385,2.385,0,0,1,.59-.248l5.6-1.5a2.351,2.351,0,0,1,1.981.36L99.589,69.21l.709-.708L86.725,54.928l-4.977-.613-27.42,27.42.613,4.977,13.573,13.573.709-.709L61.858,87.9a2.44,2.44,0,0,1-.21-2.148l1.423-5.316a2.364,2.364,0,0,1,3.555-1.375l8.492,5.021L84.1,75.1ZM71.3,44.9a7.4,7.4,0,0,1,7.716,1.716l2.969,2.969,6.055.747a2.355,2.355,0,0,1,1.448.681l15.816,15.817a2.362,2.362,0,0,1,0,3.34l-3.644,3.643a2.37,2.37,0,0,1-2.989.388l-12.4-7.821-1.607.431,4.34,7.337,11.584,2.913a2.36,2.36,0,0,1,.885,4.142L96.99,84.743l2.128,4.819A2.364,2.364,0,0,1,96.5,92.827l-4.215-.553.574,4.367a2.36,2.36,0,0,1-3.453,2.389l-4.65-2.053-3.538,4.49a2.358,2.358,0,0,1-4.149-.913L74.164,89l-7.339-4.34-.43,1.607L74.117,98.5a2.364,2.364,0,0,1-.224,3.082l-3.709,3.708a2.362,2.362,0,0,1-3.34,0L51.028,89.479a2.358,2.358,0,0,1-.673-1.384L49.6,81.977l-2.969-2.97a7.391,7.391,0,0,1-1.716-7.715C36.63,66.549,29.3,58.011,22.431,51.272,12.482,42.834,9.353,24.314,9.658,11.943a2.354,2.354,0,0,1,2.3-2.3c13.583-.337,29.333,2.58,39.213,12.653C57.933,29.2,66.545,36.59,71.3,44.9ZM49.972,75.667l1.872,1.873L77.552,51.83,75.68,49.958a2.667,2.667,0,0,0-3.743,0L49.972,71.924A2.664,2.664,0,0,0,49.972,75.667ZM26.791,26.778c4.986-4.986,13.335-.9,17.487,3.246s8.234,12.5,3.247,17.49-13.337.9-17.487-3.247S21.805,31.765,26.791,26.778Zm3.34,3.34c-2.765,2.766,1.188,8.749,3.246,10.807s8.042,6.013,10.808,3.247S43,35.423,40.939,33.365,32.9,27.353,30.132,30.118ZM78.6,87.283l1.883,7.5,1.67-2.12a2.362,2.362,0,0,1,2.835-.74L87.645,93.1l-.42-3.2a2.357,2.357,0,0,1,2.633-2.689l3.249.427-1.159-2.625a2.36,2.36,0,0,1,.686-2.839l2.158-1.7-7.5-1.884-8.7,8.7ZM67.485,47.729c-4.647-8.2-12.976-15.3-19.628-22.08C39.384,17.041,26,14.366,14.34,14.327c.042,12.563,2.6,24.19,11.388,33.582,6.77,6.639,13.829,14.925,22.014,19.564L67.485,47.729Z" transform="translate(0)"></path></g><rect class="b" width="170" height="135" transform="translate(1000 1460)"></rect></g></svg>