<svg xmlns="http://www.w3.org/2000/svg" width="170.15" height="135" viewBox="0 0 170.15 135"><defs><style>.a{fill:#1c43b9;stroke:#fff;stroke-width:0.3px;fill-rule:evenodd;}.b{fill:none;}</style></defs><g transform="translate(-999.85 -1460)"><g transform="translate(1000 1492.446)"><path class="a" d="M42.5,0a6.352,6.352,0,0,1,1.534,12.514v12.37c-.508-.038-1.016-.067-1.534-.067a18.579,18.579,0,0,0-2.445.173V12.207A6.349,6.349,0,0,1,42.5,0ZM22.66,42.5a22.1,22.1,0,0,1,39.681,0A22.1,22.1,0,0,1,22.66,42.5Zm23.849-8.851a7.376,7.376,0,1,1-11.383,6.185c0-.134,0-.278.01-.422a3.072,3.072,0,1,0,2.685-5.274,7.986,7.986,0,0,1,.642-.479A19.061,19.061,0,0,0,26.2,42.5a18.968,18.968,0,0,0,32.6,0A18.978,18.978,0,0,0,46.508,33.649ZM42.5,85a6.352,6.352,0,0,0,1.534-12.514V60.106c-.508.048-1.016.067-1.534.067a18.59,18.59,0,0,1-2.445-.163V72.783A6.354,6.354,0,0,0,42.5,85ZM65.735,52.061H77.108V59.1a6.361,6.361,0,1,0,3.989.307V48.071H65.735ZM78.642,13.387A6.352,6.352,0,0,0,77.108,25.9v8.391H65.735v3.989H81.1V25.594a6.349,6.349,0,0,0-2.455-12.207Zm-72.294,0A6.352,6.352,0,0,1,7.882,25.9v8.391H19.255v3.989H3.9V25.594A6.349,6.349,0,0,1,6.348,13.387ZM7.882,59.1a6.357,6.357,0,1,1-3.98.307V48.071H19.255v3.989H7.882Z"></path></g><rect class="b" width="170" height="135" transform="translate(1000 1460)"></rect></g></svg>