<svg xmlns="http://www.w3.org/2000/svg" width="170" height="135" viewBox="0 0 170 135"><defs><style>.a,.b{fill:#1c43b9;}.b{stroke:#fff;stroke-width:0.2px;}.c{fill:none;}.d,.e{stroke:none;}.e{fill:#fff;}</style></defs><g transform="translate(-1000 -1167)"><g transform="translate(998 1182.391)"><g class="a" transform="translate(14.903 0)"><path class="d" d="M 20.87651252746582 34.80294036865234 C 20.87646484375 34.80294036865234 20.87646484375 34.80294036865234 20.87641716003418 34.80294036865234 C 20.60217666625977 34.80292892456055 20.32750701904297 34.73806762695312 20.08210754394531 34.6153678894043 C 19.47631645202637 34.31246948242188 19.09999656677246 33.70356750488281 19.09999656677246 33.02628707885742 L 19.09999656677246 19.88978958129883 C 19.10791778564453 15.42136859893799 22.30307769775391 11.58904838562012 26.6973876953125 10.77755832672119 L 26.76506805419922 10.76505851745605 L 26.77756690979004 10.69737911224365 C 27.58905792236328 6.303078651428223 31.42137718200684 3.107918739318848 35.88996887207031 3.099998712539673 L 50.90292739868164 3.099998712539673 C 53.38124847412109 3.102968692779541 55.71133804321289 4.069758892059326 57.4638557434082 5.822278499603271 C 59.21637725830078 7.574798583984375 60.18316650390625 9.904889106750488 60.18613815307617 12.38332843780518 L 60.18613815307617 25.51971817016602 C 60.18679809570312 26.19715881347656 59.81100845336914 26.80644798278809 59.20542907714844 27.10991859436035 C 58.95959854125977 27.2315788269043 58.68417739868164 27.29611778259277 58.40940856933594 27.29635810852051 C 58.02759552001953 27.29635810852051 57.64902877807617 27.17016792297363 57.3435173034668 26.9410285949707 L 52.21464920043945 23.09390830993652 L 52.10774612426758 23.01371955871582 L 52.06096649169922 23.13890838623047 C 51.39770889282227 24.91413879394531 50.2251091003418 26.4249095916748 48.66994857788086 27.50788879394531 C 47.11479568481445 28.59086799621582 45.29109573364258 29.16665840148926 43.39602661132812 29.17299842834473 L 29.00813674926758 29.17299842834473 L 28.97479820251465 29.17299842834473 L 28.9481372833252 29.1929988861084 L 21.942626953125 34.44759750366211 C 21.6326847076416 34.68004989624023 21.26399993896484 34.80294036865234 20.87651252746582 34.80294036865234 Z M 26.85001754760742 14.39664840698242 L 26.74843788146973 14.42669868469238 C 25.56013679504395 14.77819919586182 24.53914642333984 15.48808860778809 23.79584693908691 16.47961807250977 C 23.05254745483398 17.47114944458008 22.65745735168457 18.65024948120117 22.65328788757324 19.88944816589355 L 22.65328788757324 29.27299880981445 L 22.65328788757324 29.47299957275391 L 22.81328773498535 29.35299873352051 L 27.31722640991211 25.97504806518555 C 27.62274742126465 25.74590873718262 28.00131797790527 25.61971855163574 28.38321685791016 25.61971855163574 L 43.39635848999023 25.61971855163574 C 45.8095588684082 25.60971832275391 47.97100830078125 24.07459831237793 48.7752571105957 21.79975891113281 L 48.8223991394043 21.66642951965332 L 48.68097686767578 21.66642951965332 L 35.88979721069336 21.66642951965332 C 33.80888748168945 21.66130828857422 31.76552772521973 20.94529914855957 30.13636779785156 19.65028953552246 C 28.5072078704834 18.35528945922852 27.34867668151855 16.52613830566406 26.87417793273926 14.49978828430176 L 26.85001754760742 14.39664840698242 Z M 35.88978576660156 6.653288841247559 L 35.88979721069336 6.653288841247559 C 32.73030853271484 6.653288841247559 30.15986824035645 9.223718643188477 30.15986824035645 12.38320827484131 C 30.15986824035645 15.54270839691162 32.73029708862305 18.11314964294434 35.88978576660156 18.11314964294434 L 50.90292739868164 18.11314964294434 C 51.28482818603516 18.11314964294434 51.66339874267578 18.23933792114258 51.96890640258789 18.46847915649414 L 56.47285842895508 21.84642791748047 L 56.63285827636719 21.96642875671387 L 56.63285827636719 21.76642799377441 L 56.63285827636719 12.38320827484131 C 56.63285827636719 9.223718643188477 54.06241607666016 6.653288841247559 50.90292739868164 6.653288841247559 L 35.88978576660156 6.653288841247559 Z"></path><path class="e" d="M 20.87650680541992 34.70293807983398 L 20.87649726867676 34.70293807983398 C 21.24220657348633 34.70293807983398 21.59011650085449 34.58697891235352 21.88261795043945 34.36760711669922 L 28.88812828063965 29.11300849914551 L 28.94146728515625 29.072998046875 L 29.00813674926758 29.072998046875 L 43.39568710327148 29.072998046875 C 45.27034759521484 29.06671905517578 47.07439804077148 28.49713897705078 48.61280822753906 27.42582893371582 C 50.15120697021484 26.3545093536377 51.31117630004883 24.86001777648926 51.9672966003418 23.10390853881836 L 52.06084823608398 22.85353851318359 L 52.274658203125 23.01391792297363 L 57.40351867675781 26.86102867126465 C 57.69182586669922 27.07726860046387 58.04908752441406 27.19635963439941 58.40932846069336 27.19635963439941 C 58.66882705688477 27.19613838195801 58.92892837524414 27.13517951965332 59.16062545776367 27.0205078125 C 59.73212814331055 26.73412895202637 60.08675765991211 26.15913963317871 60.08613586425781 25.51971817016602 L 60.08613586425781 12.38344860076904 C 60.08320617675781 9.931678771972656 59.12681579589844 7.626658916473389 57.39314651489258 5.892988681793213 C 55.65947723388672 4.159318923950195 53.35445785522461 3.202928781509399 50.90292739868164 3.199998617172241 L 35.89013671875 3.199998617172241 C 31.46968650817871 3.207838773727417 27.67865753173828 6.368578910827637 26.87589645385742 10.71553897857666 L 26.85090827941895 10.85089874267578 L 26.71554756164551 10.87588882446289 C 22.36857795715332 11.67864894866943 19.20783805847168 15.46968841552734 19.19999694824219 19.88978958129883 L 19.19999694824219 33.02628707885742 C 19.19999694824219 33.66544723510742 19.55513763427734 34.24007797241211 20.12682723999023 34.52591705322266 C 20.35841751098633 34.64171981811523 20.61765670776367 34.70293045043945 20.87650680541992 34.70293807983398 M 26.92323684692383 14.27070903778076 L 26.97153663635254 14.47698879241943 C 27.44092750549316 16.48150825500488 28.58698654174805 18.29094886779785 30.1985969543457 19.57200813293457 C 31.81020736694336 20.85306930541992 33.83155822753906 21.56136894226074 35.88979721069336 21.56642913818359 L 48.68097686767578 21.56642913818359 L 48.96381759643555 21.56642913818359 L 48.86953735351562 21.83308792114258 C 48.0512580871582 24.14762878417969 45.85208892822266 25.70954895019531 43.39635848999023 25.71971893310547 L 28.38321685791016 25.71971893310547 C 28.02281761169434 25.71971893310547 27.66554641723633 25.83880805969238 27.37722778320312 26.0550479888916 L 22.87328720092773 29.43299865722656 L 22.55328750610352 29.67299842834473 L 22.55328750610352 29.27299880981445 L 22.55328750610352 19.88911819458008 C 22.55752754211426 18.62823867797852 22.95952796936035 17.42850875854492 23.71582794189453 16.41963958740234 C 24.47213745117188 15.41076850891113 25.51098823547363 14.68845844268799 26.72007751464844 14.3307991027832 L 26.92323684692383 14.27070903778076 M 35.88978576660156 6.55328893661499 L 50.90292739868164 6.55328893661499 C 54.11755752563477 6.55328893661499 56.73285675048828 9.1685791015625 56.73285675048828 12.38320827484131 L 56.73285675048828 21.76642799377441 L 56.73285675048828 22.16642951965332 L 56.41285705566406 21.92642784118652 L 51.90890884399414 18.5484790802002 C 51.62059783935547 18.33223915100098 51.26332855224609 18.21314811706543 50.90292739868164 18.21314811706543 L 35.88978576660156 18.21314811706543 C 32.67515563964844 18.21314811706543 30.05986785888672 15.59784889221191 30.05986785888672 12.38320827484131 C 30.05986785888672 9.1685791015625 32.67515563964844 6.55328893661499 35.88978576660156 6.55328893661499 M 20.87640953063965 34.90293884277344 C 20.59035491943359 34.90292739868164 20.30292510986328 34.83758163452148 20.03738784790039 34.70480728149414 C 19.40160751342773 34.38691711425781 18.99999809265137 33.73711013793945 18.99999809265137 33.02628707885742 L 18.99999809265137 19.88978958129883 C 19.00800704956055 15.37103843688965 22.2356071472168 11.49981880187988 26.67922782897949 10.67921829223633 C 27.49982643127441 6.235608577728271 31.37104797363281 3.008008718490601 35.88978576660156 2.999998807907104 L 50.90292739868164 2.999998807907104 C 56.08255767822266 3.006198644638062 60.27993774414062 7.203578948974609 60.28613662719727 12.38320827484131 L 60.28613662719727 25.51971817016602 C 60.28682708740234 26.23059844970703 59.88577651977539 26.88083839416504 59.25022888183594 27.19931793212891 C 58.98883819580078 27.32867813110352 58.70115661621094 27.39610862731934 58.40949630737305 27.39635848999023 C 58.00344848632812 27.39635848999023 57.60835647583008 27.26466941833496 57.28351593017578 27.02102851867676 L 52.15464782714844 23.17390823364258 C 50.78828811645508 26.83096885681152 47.30030822753906 29.25992965698242 43.39635848999023 29.27299880981445 L 29.00813674926758 29.27299880981445 L 22.00262641906738 34.5275993347168 C 21.67148208618164 34.77595901489258 21.27524757385254 34.90295791625977 20.87640953063965 34.90293884277344 Z M 26.77680778503418 14.5225887298584 C 24.39728736877441 15.22645854949951 22.76163673400879 17.40835952758789 22.75328826904297 19.88978958129883 L 22.75328826904297 29.27299880981445 L 27.25722694396973 25.89504814147949 C 27.58206748962402 25.65141868591309 27.9771671295166 25.51971817016602 28.38321685791016 25.51971817016602 L 43.39635848999023 25.51971817016602 C 45.77366638183594 25.50986862182617 47.88855743408203 24.00780868530273 48.68097686767578 21.76642799377441 L 35.88979721069336 21.76642799377441 C 31.5403881072998 21.75572967529297 27.76846694946289 18.75745964050293 26.77680778503418 14.5225887298584 Z M 35.88979721069336 6.753288745880127 C 32.78046798706055 6.753288745880127 30.25986671447754 9.27388858795166 30.25986671447754 12.38320827484131 C 30.25986671447754 15.49253845214844 32.78046798706055 18.01314926147461 35.88978576660156 18.01314926147461 L 50.90292739868164 18.01314926147461 C 51.30896759033203 18.01314926147461 51.70407867431641 18.14484786987305 52.02890777587891 18.38847923278809 L 56.53285598754883 21.76642799377441 L 56.53285598754883 12.38320827484131 C 56.53285598754883 9.27388858795166 54.01223754882812 6.753288745880127 50.90292739868164 6.753288745880127 L 35.88978576660156 6.753288745880127 C 35.88979721069336 6.753288745880127 35.88979721069336 6.753288745880127 35.88979721069336 6.753288745880127 L 35.88978576660156 6.753288745880127 Z"></path></g><g class="a" transform="translate(25.423 3.507)"><path class="d" d="M 34.65328216552734 10.65328216552734 L 32.87663269042969 10.65328216552734 L 31.0999927520752 10.65328216552734 L 31.0999927520752 7.100002288818359 L 32.87663269042969 7.100002288818359 L 34.65328216552734 7.100002288818359 L 34.65328216552734 10.65328216552734 Z"></path><path class="e" d="M 34.55328369140625 10.55328178405762 L 34.55328369140625 7.200002193450928 L 32.87663269042969 7.200002193450928 L 31.19999313354492 7.200002193450928 L 31.19999313354492 10.55328178405762 L 32.87663269042969 10.55328178405762 L 34.55328369140625 10.55328178405762 M 34.7532844543457 10.75328254699707 L 32.87663269042969 10.75328254699707 L 30.99999237060547 10.75328254699707 L 30.99999237060547 7.000002384185791 L 32.87663269042969 7.000002384185791 L 34.7532844543457 7.000002384185791 L 34.7532844543457 10.75328254699707 Z"></path></g><g class="b" transform="translate(64 10.609)"><rect class="d" width="3" height="2"></rect><rect class="c" x="0.1" y="0.1" width="2.8" height="1.8"></rect></g><g class="a" transform="translate(21.916 3.507)"><path class="d" d="M 30.65327644348145 10.65328216552734 L 27.09999656677246 10.65328216552734 L 27.09999656677246 7.100002288818359 L 30.65327644348145 7.100002288818359 L 30.65327644348145 10.65328216552734 Z"></path><path class="e" d="M 30.55327606201172 10.55328178405762 L 30.55327606201172 7.200002193450928 L 27.19999694824219 7.200002193450928 L 27.19999694824219 10.55328178405762 L 30.55327606201172 10.55328178405762 M 30.75327682495117 10.75328254699707 L 26.99999618530273 10.75328254699707 L 26.99999618530273 7.000002384185791 L 30.75327682495117 7.000002384185791 L 30.75327682495117 10.75328254699707 Z"></path></g><g class="a" transform="translate(37.694 19.285)"><path class="d" d="M 63.76764297485352 58.68085861206055 L 50.63114166259766 58.68085861206055 C 49.65149307250977 58.68085861206055 48.8544921875 57.88386917114258 48.8544921875 56.90422821044922 L 48.8544921875 53.54315948486328 C 48.85427093505859 52.92355728149414 48.81614303588867 52.29756927490234 48.74117279052734 51.68254852294922 C 48.7401008605957 51.66740036010742 48.7358512878418 51.65052795410156 48.73244094848633 51.63697814941406 C 48.73104095458984 51.63142776489258 48.72922134399414 51.62596893310547 48.72873306274414 51.62041854858398 L 48.72873306274414 51.6142692565918 L 48.72801208496094 51.60921096801758 C 48.5073127746582 49.82286834716797 47.98947143554688 48.09968948364258 47.18885040283203 46.4875373840332 C 45.82745361328125 43.75424957275391 45.10557174682617 40.69561767578125 45.10120391845703 37.64220809936523 C 45.04333114624023 34.79428863525391 45.98086166381836 31.99484825134277 47.74108123779297 29.75768852233887 C 49.50130081176758 27.52052879333496 52.00156021118164 25.95066833496094 54.78131103515625 25.33727836608887 C 55.56769180297852 25.17897987365723 56.37461090087891 25.09852981567383 57.17785263061523 25.09852981567383 C 59.98228073120117 25.09852981567383 62.7205924987793 26.07848930358887 64.88835906982422 27.85788917541504 C 67.69554138183594 30.16247940063477 69.30263519287109 33.56731033325195 69.29756164550781 37.1993293762207 L 69.29756164550781 37.64234924316406 C 69.29383087158203 40.69556045532227 68.57260131835938 43.75418853759766 67.21183013916016 46.4874382019043 C 66.41120147705078 48.09967041015625 65.89336395263672 49.82284927368164 65.67265319824219 51.60921096801758 C 65.67208099365234 51.6126708984375 65.67041015625 51.61906814575195 65.66886901855469 51.62550735473633 C 65.66476440429688 51.64257431030273 65.65975189208984 51.66343307495117 65.65888977050781 51.6875114440918 C 65.58368682861328 52.30086135864258 65.54512786865234 52.92512130737305 65.54428100585938 53.54301834106445 L 65.54428100585938 56.90422821044922 C 65.54428100585938 57.88386917114258 64.74728393554688 58.68085861206055 63.76764297485352 58.68085861206055 Z M 52.25985336303711 51.17308807373047 L 52.27324295043945 51.28498077392578 C 52.36251068115234 52.03117752075195 52.40778350830078 52.79095077514648 52.40778350830078 53.54315948486328 L 52.40778350830078 55.02758026123047 L 52.40778350830078 55.12757873535156 L 52.50778198242188 55.12757873535156 L 61.8910026550293 55.12757873535156 L 61.99100112915039 55.12757873535156 L 61.99100112915039 55.02758026123047 L 61.99100112915039 53.54314804077148 C 61.99156188964844 52.7917594909668 62.03741073608398 52.03239822387695 62.12727355957031 51.28625106811523 L 62.14075088500977 51.17429733276367 L 62.02800369262695 51.17428970336914 L 52.37254333496094 51.17309951782227 L 52.25985336303711 51.17308807373047 Z M 54.68844223022461 38.03778076171875 L 54.68657302856445 38.03784942626953 C 54.49137115478516 38.04515838623047 54.32891082763672 38.19070816040039 54.30026245117188 38.38393783569336 C 54.27160263061523 38.5771598815918 54.38485336303711 38.76358795166016 54.56955337524414 38.82722854614258 L 58.69865036010742 40.20483779907227 C 59.42583084106445 40.44685745239258 59.91436386108398 41.1245002746582 59.91436386108398 41.89107894897461 L 59.91436386108398 47.5210075378418 L 59.91436386108398 47.62100982666016 L 60.01436233520508 47.62100982666016 L 62.87811279296875 47.62100982666016 L 62.95147323608398 47.62100982666016 L 62.97350311279297 47.55102920532227 C 63.25906372070312 46.64376831054688 63.61582183837891 45.75061798095703 64.03385925292969 44.89637756347656 C 65.15000915527344 42.65534973144531 65.74156951904297 40.14677047729492 65.74428558349609 37.64245986938477 L 65.74428558349609 37.19947052001953 C 65.74259185791016 34.6166877746582 64.59290313720703 32.20023727416992 62.58999252319336 30.56965827941895 C 61.06844329833984 29.33095932006836 59.14998245239258 28.64876937866211 57.18803024291992 28.64876937866211 C 56.60843276977539 28.64876937866211 56.02646255493164 28.70823860168457 55.45829391479492 28.82553863525391 C 53.48338317871094 29.28269958496094 51.71606063842773 30.41717910766602 50.47957229614258 32.0205078125 C 49.24308395385742 33.62384796142578 48.59493255615234 35.62144088745117 48.65453338623047 37.64529800415039 C 48.65786361694336 40.14693069458008 49.25008392333984 42.65549850463867 50.36711120605469 44.89701080322266 C 50.78486251831055 45.75067901611328 51.14162063598633 46.64384078979492 51.42715072631836 47.55102920532227 L 51.44918060302734 47.62100982666016 L 51.52254104614258 47.62100982666016 L 56.26108169555664 47.62100982666016 L 56.361083984375 47.62100982666016 L 56.361083984375 47.5210075378418 L 56.361083984375 43.244140625 L 56.361083984375 43.17201995849609 L 56.29265213012695 43.14925003051758 L 53.43826293945312 42.19966888427734 C 51.58665084838867 41.58245849609375 50.46962356567383 39.73611068725586 50.78227233886719 37.80949783325195 C 51.09491348266602 35.88286972045898 52.73848342895508 34.4845085144043 54.69032287597656 34.4845085144043 L 61.79100036621094 34.4845085144043 L 61.79100036621094 38.03778839111328 L 54.69031143188477 38.03778076171875 L 54.68844223022461 38.03778076171875 Z"></path><path class="e" d="M 57.17782211303711 25.19852066040039 C 56.38120269775391 25.19852066040039 55.5809211730957 25.2783088684082 54.80286026000977 25.43491744995117 C 52.04563140869141 26.04333877563477 49.56562042236328 27.60047912597656 47.81967163085938 29.81951904296875 C 46.07371520996094 32.03855895996094 45.14376831054688 34.8153190612793 45.20120239257812 37.64205932617188 C 45.20555114746094 40.68013763427734 45.92381286621094 43.7234001159668 47.27841949462891 46.44305801391602 C 48.08406829833984 48.06536865234375 48.60517120361328 49.79937744140625 48.82723999023438 51.59694671630859 L 48.82875061035156 51.60916137695312 L 48.82875061035156 51.60988998413086 L 48.82939910888672 51.612548828125 C 48.8330078125 51.62689208984375 48.83834838867188 51.6480712890625 48.84081268310547 51.67356109619141 C 48.91602325439453 52.29158782958984 48.95426940917969 52.92053604125977 48.95449066162109 53.54315948486328 L 48.95449066162109 56.90422821044922 C 48.95449066162109 57.82872772216797 49.70663452148438 58.58085632324219 50.63114166259766 58.58085632324219 L 63.76764297485352 58.58085632324219 C 64.692138671875 58.58085632324219 65.44428253173828 57.82872772216797 65.44428253173828 56.90422821044922 L 65.44428253173828 53.54287719726562 C 65.44513702392578 52.92222595214844 65.48379516601562 52.29520797729492 65.55917358398438 51.67908096313477 C 65.56082916259766 51.6470947265625 65.56721496582031 51.62054443359375 65.57164001464844 51.60212707519531 C 65.57245635986328 51.59872817993164 65.57335662841797 51.59534072875977 65.57398986816406 51.5922737121582 C 65.79640197753906 49.79632949829102 66.31729125976562 48.0639533996582 67.122314453125 46.44286727905273 C 68.47624206542969 43.72335052490234 69.19384765625 40.68009948730469 69.19756317138672 37.64234924316406 L 69.19756317138672 37.19918823242188 C 69.20259094238281 33.59727096557617 67.60882568359375 30.22066879272461 64.82492065429688 27.93518829345703 C 62.67498397827148 26.17041778564453 59.95919036865234 25.19852066040039 57.17782211303711 25.19852066040039 M 63.02483367919922 47.72100830078125 L 62.87811279296875 47.72100830078125 L 60.01436233520508 47.72100830078125 L 59.81436157226562 47.72100830078125 L 59.81436157226562 47.5210075378418 L 59.81436157226562 41.89107894897461 C 59.81436157226562 41.16762924194336 59.35333251953125 40.52811813354492 58.6670036315918 40.29969787597656 L 54.53697204589844 38.92176818847656 C 54.30678176879883 38.84246063232422 54.16562271118164 38.61009979248047 54.20134353637695 38.36927032470703 C 54.23705291748047 38.12844085693359 54.43954086303711 37.94702911376953 54.68283081054688 37.93791961669922 L 54.68657302856445 37.93777847290039 L 54.69031143188477 37.93777847290039 L 61.69100189208984 37.93778991699219 L 61.69100189208984 34.58451080322266 L 54.69032287597656 34.58451080322266 C 52.78778076171875 34.58451080322266 51.18572235107422 35.94754791259766 50.8809814453125 37.82551956176758 C 50.57622146606445 39.70346832275391 51.66504287719727 41.50317764282227 53.46982192993164 42.10478973388672 L 56.32421112060547 43.05437088012695 L 56.46108245849609 43.09989929199219 L 56.46108245849609 43.244140625 L 56.46108245849609 47.5210075378418 L 56.46108245849609 47.72100830078125 L 56.26108169555664 47.72100830078125 L 51.52254104614258 47.72100830078125 L 51.37582397460938 47.72100830078125 L 51.33177185058594 47.58105087280273 C 51.04773330688477 46.67861938476562 50.69285202026367 45.7901496887207 50.27761077880859 44.94160842895508 C 49.15414428710938 42.68719482421875 48.55831909179688 40.1641731262207 48.55449676513672 37.64530181884766 C 48.49494171142578 35.59942626953125 49.15043640136719 33.58023834228516 50.40038299560547 31.95944976806641 C 51.65095138549805 30.33786773681641 53.43838119506836 29.19046783447266 55.43807220458984 28.72760009765625 C 56.01288223266602 28.60894012451172 56.60166168212891 28.54877090454102 57.18804168701172 28.54877090454102 C 59.17292022705078 28.54877090454102 61.11379241943359 29.23892974853516 62.65313339233398 30.49210739135742 C 64.679443359375 32.14173889160156 65.84257507324219 34.58642959594727 65.84428405761719 37.19947052001953 L 65.84428405761719 37.64257049560547 C 65.841552734375 40.16222763061523 65.24636077880859 42.68618774414062 64.12368774414062 44.94033050537109 C 63.70783233642578 45.79008865356445 63.35295104980469 46.67855834960938 63.06888198852539 47.58105850219727 L 63.02483367919922 47.72100830078125 M 62.09100341796875 55.22757720947266 L 61.8910026550293 55.22757720947266 L 52.50778198242188 55.22757720947266 L 52.30778121948242 55.22757720947266 L 52.30778121948242 55.02758026123047 L 52.30778121948242 53.54315948486328 C 52.30778121948242 52.79489135742188 52.26275253295898 52.03913116455078 52.1739501953125 51.29684829711914 L 52.14717102050781 51.07305908203125 L 52.37255096435547 51.07308959960938 L 62.02801132202148 51.07428741455078 L 62.25352096557617 51.07431793212891 L 62.2265625 51.29819869995117 C 62.13717269897461 52.04042816162109 62.09156036376953 52.79579162597656 62.09100341796875 53.54315185546875 L 62.09100341796875 55.02758026123047 L 62.09100341796875 55.22757720947266 M 57.17782592773438 24.99851989746094 C 59.98814392089844 24.99851989746094 62.74153900146484 25.96630477905273 64.95181274414062 27.78059768676758 L 64.95181274414062 27.78059005737305 C 67.77085876464844 30.09494018554688 69.40264892578125 33.55210876464844 69.39756774902344 37.19947052001953 L 69.39756774902344 37.64234924316406 C 69.39379119873047 40.72758865356445 68.67637634277344 43.77011871337891 67.30135345458984 46.53200912475586 C 66.5078125 48.12995910644531 65.99067687988281 49.85078048706055 65.77189636230469 51.62146759033203 C 65.76814270019531 51.64585876464844 65.75875854492188 51.67025756835938 65.75875854492188 51.69464874267578 C 65.68336486816406 52.30794906616211 65.64513397216797 52.92523956298828 65.644287109375 53.54315948486328 L 65.644287109375 56.90422821044922 C 65.644287109375 57.94065856933594 64.8040771484375 58.78086090087891 63.76764297485352 58.78086090087891 L 50.63114166259766 58.78086090087891 C 49.59470367431641 58.78086090087891 48.75449371337891 57.94065856933594 48.75449371337891 56.90422821044922 L 48.75449371337891 53.54315948486328 C 48.7542724609375 52.92528915405273 48.7166748046875 52.30797958374023 48.64189910888672 51.69464874267578 C 48.6400146484375 51.67025756835938 48.62875366210938 51.64585876464844 48.62875366210938 51.62146759033203 C 48.41000366210938 49.85078048706055 47.89285278320312 48.12997055053711 47.09928894042969 46.53202056884766 C 45.72370910644531 43.77025985717773 45.00562286376953 40.72772979736328 45.00120544433594 37.64234924316406 C 44.880615234375 31.71012878417969 48.96570587158203 26.51815032958984 54.75976181030273 25.23962020874023 C 55.5629997253418 25.07791137695312 56.37257766723633 24.99851989746094 57.17782592773438 24.99851989746094 Z M 62.87811279296875 47.5210075378418 C 63.16610336303711 46.60604095458984 63.52241134643555 45.7139892578125 63.94404220581055 44.85242080688477 C 65.05964660644531 42.61248779296875 65.64157104492188 40.14471817016602 65.644287109375 37.64234924316406 L 65.644287109375 37.19947052001953 C 65.64262390136719 34.65786743164062 64.49787139892578 32.2518196105957 62.52686309814453 30.64720916748047 C 61.00516128540039 29.40839004516602 59.11585998535156 28.7487678527832 57.18804168701172 28.7487678527832 C 56.61879348754883 28.7487678527832 56.04594039916992 28.80632781982422 55.47851181030273 28.92346954345703 C 51.44636154174805 29.85691070556641 48.63265991210938 33.50536727905273 48.75449371337891 37.64236068725586 C 48.75785827636719 40.14485931396484 49.34043884277344 42.61262893676758 50.45661163330078 44.85240936279297 C 50.87824249267578 45.7139892578125 51.23456192016602 46.60604095458984 51.52254104614258 47.5210075378418 L 56.26108169555664 47.5210075378418 L 56.26108169555664 43.244140625 L 53.40669250488281 42.29455947875977 C 51.51801300048828 41.66498947143555 50.36466217041016 39.75860977172852 50.68356323242188 37.79347991943359 C 51.0024528503418 35.82833099365234 52.69947052001953 34.3845100402832 54.69032287597656 34.3845100402832 L 61.8910026550293 34.3845100402832 L 61.8910026550293 38.13779067993164 L 54.69031143188477 38.13777923583984 C 54.54312133789062 38.14328765869141 54.42078018188477 38.25289916992188 54.3991813659668 38.39859771728516 C 54.37757110595703 38.5443000793457 54.46286392211914 38.68470001220703 54.60212326049805 38.7326774597168 L 58.73030090332031 40.10997772216797 C 59.49705123901367 40.36516952514648 60.01436233520508 41.08251953125 60.01436233520508 41.89107894897461 L 60.01436233520508 47.5210075378418 L 62.87811279296875 47.5210075378418 Z M 52.37253189086914 51.27309036254883 C 52.46261215209961 52.02602005004883 52.50778198242188 52.78364944458008 52.50778198242188 53.54315948486328 L 52.50778198242188 55.02758026123047 L 61.8910026550293 55.02758026123047 L 61.8910026550293 53.54315185546875 C 61.89157104492188 52.78480911254883 61.93732070922852 52.02717971801758 62.02799224853516 51.27428817749023 L 52.37253189086914 51.27309036254883 Z"></path></g><g class="b" transform="translate(94 33.609)"><rect class="d" width="5" height="8"></rect><rect class="c" x="0.1" y="0.1" width="4.8" height="7.8"></rect></g><g class="b" transform="translate(78.583 44.703) rotate(-45)"><rect class="d" width="3.753" height="3.753"></rect><rect class="c" x="0.1" y="0.1" width="3.553" height="3.553"></rect></g><g class="b" transform="translate(75 56.609)"><rect class="d" width="6" height="5"></rect><rect class="c" x="0.1" y="0.1" width="5.8" height="4.8"></rect></g><g class="b" transform="translate(111 56.609)"><rect class="d" width="4" height="5"></rect><rect class="c" x="0.1" y="0.1" width="3.8" height="4.8"></rect></g><g class="b" transform="translate(107.777 44.702) rotate(-45)"><rect class="d" width="3.753" height="3.753"></rect><rect class="c" x="0.1" y="0.1" width="3.553" height="3.553"></rect></g><g class="a" transform="translate(6.569 11.668)"><path class="d" d="M 12.952880859375 33.14989852905273 L 9.621541023254395 31.90621185302734 C 10.69358921051025 29.03420257568359 12.06697559356689 26.26475143432617 13.70437526702881 23.67336082458496 C 15.3417854309082 21.08197021484375 17.25339889526367 18.65254020690918 19.38696098327637 16.45127868652344 L 21.93816184997559 18.92074203491211 C 19.97549819946289 20.94824600219727 18.21691131591797 23.18530082702637 16.71035575866699 25.57107925415039 C 15.20380973815918 27.95685958862305 13.93988609313965 30.50629997253418 12.952880859375 33.14989852905273 Z"></path><path class="e" d="M 12.89428997039795 33.02128219604492 C 13.87848854064941 30.40471649169922 15.13340759277344 27.88105964660645 16.62580490112305 25.51769065856934 C 18.11820411682129 23.15431976318359 19.85739517211914 20.93646430969238 21.79684448242188 18.92312431335449 L 19.38929748535156 16.59271049499512 C 17.28839302062988 18.77006721496582 15.40491485595703 21.16927337646484 13.78891563415527 23.72677993774414 C 12.17292594909668 26.28428649902344 10.81478500366211 29.01528930664062 9.750307083129883 31.84753799438477 L 12.89428997039795 33.02128219604492 M 13.01170539855957 33.27859878540039 L 9.492995262145996 31.9649600982666 L 9.492995262145996 31.96495056152344 C 11.66209506988525 26.11371994018555 15.03155517578125 20.7811393737793 19.38478469848633 16.30999946594238 L 22.07965469360352 18.91852951049805 C 18.08902549743652 23.02077102661133 15.00028514862061 27.9121208190918 13.01170539855957 33.27859878540039 Z"></path></g><g class="a" transform="translate(6.252 32.173)"><path class="d" d="M 24.61277008056641 62.71578979492188 C 21.02070236206055 59.95603561401367 17.87844657897949 56.67892456054688 15.27159976959229 52.97367477416992 C 12.66491222381592 49.26863098144531 10.64192199707031 45.20407867431641 9.257833480834961 40.89121627807617 L 12.64400291442871 39.82526016235352 C 13.92015552520752 43.79201507568359 15.7835111618042 47.53064727783203 18.1830005645752 50.93817520141602 C 20.58249855041504 54.34571075439453 23.47389602661133 57.35964202880859 26.77850341796875 59.89800643920898 L 24.61277008056641 62.71578979492188 Z"></path><path class="e" d="M 12.5793514251709 39.95044326782227 L 9.383888244628906 40.95636367797852 C 10.76401710510254 45.22391891479492 12.77186965942383 49.24686431884766 15.35338973999023 52.91612243652344 C 17.93522071838379 56.58583831787109 21.0434627532959 59.83466339111328 24.59448623657227 62.57548904418945 L 26.63833618164062 59.91628265380859 C 23.35879898071289 57.38454818725586 20.48732376098633 54.38422393798828 18.10124015808105 50.99575424194336 C 15.71486854553223 47.60686111450195 13.85772132873535 43.89192199707031 12.5793514251709 39.95044326782227 M 12.7088794708252 39.69999313354492 L 12.7088794708252 39.70000457763672 C 15.26842880249023 47.72239303588867 20.22837829589844 54.76603317260742 26.91881942749023 59.87954330444336 L 24.63119888305664 62.85591506958008 C 17.33096885681152 57.27284240722656 11.92080879211426 49.58308410644531 9.131999969482422 40.82598495483398 L 12.7088794708252 39.69999313354492 Z"></path></g><g class="a" transform="translate(38.877 36.361)"><path class="d" d="M 48.8093147277832 56.94046020507812 L 46.48904037475586 54.24888229370117 C 49.70386123657227 51.47167587280273 52.46395874023438 48.23118209838867 54.69435119628906 44.61549377441406 L 57.71427917480469 46.4700813293457 C 55.29547119140625 50.39985656738281 52.29986190795898 53.92207336425781 48.8093147277832 56.94046020507812 Z"></path><path class="e" d="M 48.81959533691406 56.79922866821289 C 52.24486541748047 53.82400131225586 55.18986129760742 50.36128234863281 57.57655715942383 46.50286102294922 L 54.72695159912109 44.75287246704102 C 52.51797866821289 48.31484985351562 49.79512786865234 51.51164245605469 46.62993240356445 54.25915908813477 L 48.81959533691406 56.79922866821289 M 48.79889678955078 57.08152770996094 L 46.34799575805664 54.23841857910156 C 49.60834503173828 51.43552780151367 52.41302871704102 48.14271926879883 54.66152572631836 44.47798919677734 L 57.8518180847168 46.43719863891602 C 55.40437698364258 50.43325805664062 52.3502082824707 54.02429962158203 48.79889678955078 57.08152770996094 Z"></path></g><g class="a" transform="translate(35.829 8.005)"><path class="d" d="M 55.24893951416016 26.02433776855469 C 51.8956184387207 21.67092323303223 47.77813720703125 18.08235168457031 43.00736999511719 15.35523700714111 L 44.76625442504883 12.2673978805542 C 49.95093536376953 15.22938251495361 54.42455673217773 19.12870216369629 58.06670761108398 23.86038017272949 L 55.24893951416016 26.02433776855469 Z"></path><path class="e" d="M 55.26712799072266 25.8842830657959 L 57.92631149291992 23.84211158752441 C 54.32387161254883 19.18321228027344 49.91067123413086 15.33656024932861 44.80353546142578 12.40398120880127 L 43.14361953735352 15.31806945800781 C 47.86018753051758 18.02901077270508 51.9372444152832 21.58235549926758 55.26712799072266 25.8842830657959 M 55.23056030273438 26.16455078125 C 51.87245941162109 21.78355979919434 47.66970825195312 18.12067031860352 42.87099838256836 15.39260005950928 L 44.7288703918457 12.13099002838135 C 49.9622802734375 15.10577011108398 54.54544830322266 19.10057067871094 58.20692825317383 23.87878036499023 L 55.23056030273438 26.1645393371582 L 55.23056030273438 26.16455078125 Z"></path></g><g class="a" transform="translate(0 21.039)"><path class="d" d="M 26.3963623046875 47.54306793212891 L 3.876643180847168 47.54306793212891 C 2.897003173828125 47.54306793212891 2.100003242492676 46.74607086181641 2.100003242492676 45.76641845703125 L 2.100003242492676 28.87662887573242 C 2.100003242492676 27.8969898223877 2.897003173828125 27.09998893737793 3.876643180847168 27.09998893737793 L 26.3963623046875 27.09998893737793 C 27.37600326538086 27.09998893737793 28.17300415039062 27.8969898223877 28.17300415039062 28.87662887573242 L 28.17300415039062 45.76641845703125 C 28.17300415039062 46.74607086181641 27.37600326538086 47.54306793212891 26.3963623046875 47.54306793212891 Z M 5.65328311920166 36.97074127197266 L 5.65328311920166 37.10947036743164 L 5.65328311920166 43.88977813720703 L 5.65328311920166 43.98978042602539 L 5.753283023834229 43.98978042602539 L 24.51971244812012 43.98978042602539 L 24.61971282958984 43.98978042602539 L 24.61971282958984 43.88977813720703 L 24.61971282958984 37.10947036743164 L 24.61971282958984 36.97072982788086 L 24.48809242248535 37.01459884643555 L 15.69978332519531 39.94403839111328 C 15.51799297332764 40.00545120239258 15.32892322540283 40.03651809692383 15.13744354248047 40.03651809692383 C 14.94596290588379 40.03651809692383 14.75689315795898 40.00545120239258 14.57548332214355 39.94416809082031 L 5.784903049468994 37.01459884643555 L 5.65328311920166 36.97074127197266 Z M 5.65328311920166 30.65328025817871 L 5.65328311920166 30.7532787322998 L 5.65328311920166 33.15349960327148 L 5.65328311920166 33.22557067871094 L 5.721652984619141 33.24837112426758 L 15.10487365722656 36.37673950195312 L 15.13650321960449 36.38727951049805 L 15.16813278198242 36.37673950195312 L 24.55134391784668 33.24837112426758 L 24.61971282958984 33.22557067871094 L 24.61971282958984 33.15349960327148 L 24.61971282958984 30.7532787322998 L 24.61971282958984 30.65328025817871 L 24.51971244812012 30.65328025817871 L 5.753283023834229 30.65328025817871 L 5.65328311920166 30.65328025817871 Z"></path><path class="e" d="M 26.3963623046875 47.44306945800781 C 27.32086372375488 47.44306945800781 28.0730037689209 46.6909294128418 28.0730037689209 45.76641845703125 L 28.0730037689209 28.87662887573242 C 28.0730037689209 27.95212936401367 27.32086372375488 27.19998931884766 26.3963623046875 27.19998931884766 L 3.876643180847168 27.19998931884766 C 2.95214319229126 27.19998931884766 2.200003147125244 27.95212936401367 2.200003147125244 28.87662887573242 L 2.200003147125244 45.76641845703125 C 2.200003147125244 46.6909294128418 2.95214319229126 47.44306945800781 3.876643180847168 47.44306945800781 L 26.3963623046875 47.44306945800781 M 5.553283214569092 36.83200073242188 L 5.816513061523438 36.91973114013672 L 14.60748291015625 39.84943008422852 C 14.77857303619385 39.90721893310547 14.95687294006348 39.93651962280273 15.13744354248047 39.93651962280273 C 15.31801319122314 39.93651962280273 15.49631309509277 39.90721893310547 15.66815280914307 39.84917068481445 L 24.45646286010742 36.91973114013672 L 24.71971321105957 36.83197784423828 L 24.71971321105957 37.10947036743164 L 24.71971321105957 43.88977813720703 L 24.71971321105957 44.08977890014648 L 24.51971244812012 44.08977890014648 L 5.753283023834229 44.08977890014648 L 5.553283214569092 44.08977890014648 L 5.553283214569092 43.88977813720703 L 5.553283214569092 37.10947036743164 L 5.553283214569092 36.83200073242188 M 5.553283214569092 30.55327987670898 L 5.753283023834229 30.55327987670898 L 24.51971244812012 30.55327987670898 L 24.71971321105957 30.55327987670898 L 24.71971321105957 30.7532787322998 L 24.71971321105957 33.15349960327148 L 24.71971321105957 33.29763793945312 L 24.58297348022461 33.34323120117188 L 15.19976329803467 36.47159957885742 L 15.13650321960449 36.49269104003906 L 15.07324314117432 36.47159957885742 L 5.690023422241211 33.34323120117188 L 5.553283214569092 33.29763793945312 L 5.553283214569092 33.15349960327148 L 5.553283214569092 30.7532787322998 L 5.553283214569092 30.55327987670898 M 26.3963623046875 47.64307022094727 L 3.876643180847168 47.64307022094727 C 2.840203285217285 47.64307022094727 2.000003337860107 46.80286026000977 2.000003337860107 45.76641845703125 L 2.000003337860107 28.87662887573242 C 2.000003337860107 27.8401985168457 2.840203285217285 26.9999885559082 3.876643180847168 26.9999885559082 L 26.3963623046875 26.9999885559082 C 27.43280410766602 26.9999885559082 28.27300262451172 27.8401985168457 28.27300262451172 28.87662887573242 L 28.27300262451172 45.76641845703125 C 28.27300262451172 46.80286026000977 27.43280410766602 47.64307022094727 26.3963623046875 47.64307022094727 Z M 5.753283023834229 37.10947036743164 L 5.753283023834229 43.88977813720703 L 24.51971244812012 43.88977813720703 L 24.51971244812012 37.10947036743164 L 15.73140335083008 40.03890991210938 C 15.53876304626465 40.10398101806641 15.33810329437256 40.13651275634766 15.13744354248047 40.13651275634766 C 14.93678283691406 40.13651275634766 14.73612308502197 40.10398101806641 14.54348278045654 40.03890991210938 L 5.753283023834229 37.10947036743164 Z M 5.753283023834229 30.7532787322998 L 5.753283023834229 33.15349960327148 L 15.13650321960449 36.28186798095703 L 24.51971244812012 33.15349960327148 L 24.51971244812012 30.7532787322998 L 5.753283023834229 30.7532787322998 Z"></path></g><g class="a" transform="translate(15.779 29.806)"><path class="d" d="M 42.51514053344727 81.93942260742188 C 41.9304084777832 81.93942260742188 41.29500961303711 81.90702819824219 40.57262802124023 81.84037780761719 C 40.34825897216797 81.82168579101562 40.10411834716797 81.79544830322266 39.82537078857422 81.76006317138672 C 39.48571014404297 81.71783447265625 39.13193130493164 81.6640625 38.74356079101562 81.59565734863281 C 38.0960578918457 81.48276519775391 37.4491081237793 81.34192657470703 36.82051086425781 81.17702484130859 C 36.75656890869141 81.15973663330078 36.69174957275391 81.14460754394531 36.62907028198242 81.12997436523438 C 36.55572891235352 81.11284637451172 36.48628234863281 81.09663391113281 36.41679763793945 81.07694244384766 L 36.40636825561523 81.07172393798828 L 36.39796829223633 81.06752777099609 L 36.38893890380859 81.06495666503906 C 31.18537902832031 79.58761596679688 26.69257926940918 76.27859497070312 23.73818969726562 71.74745178222656 C 20.78379058837891 67.21632385253906 19.56822967529297 61.77048492431641 20.31542015075684 56.41311645507812 C 21.06237030029297 51.0574836730957 23.72004890441895 46.15328598022461 27.79887962341309 42.60392379760742 C 31.87759971618652 39.05465316772461 37.10171127319336 37.09999465942383 42.50888061523438 37.09999465942383 L 42.52072906494141 37.09999465942383 L 42.52692794799805 37.09999465942383 C 47.93441009521484 37.09999465942383 53.15887832641602 39.05508422851562 57.23793792724609 42.60512542724609 C 61.31708145141602 46.15522384643555 63.97457122802734 51.05998611450195 64.72087860107422 56.41588592529297 C 65.46733093261719 61.77283477783203 64.25135803222656 67.21810150146484 61.29695892333984 71.74862670898438 C 58.34255981445312 76.27914428710938 53.85004043579102 79.58775329589844 48.64696884155273 81.06495666503906 L 48.63792037963867 81.06752777099609 L 48.62950134277344 81.07174682617188 L 48.61943054199219 81.07678985595703 C 48.547607421875 81.09664154052734 48.47389984130859 81.11406707763672 48.40251922607422 81.13094329833984 C 48.33750915527344 81.14630126953125 48.27251052856445 81.16168212890625 48.20750045776367 81.17903137207031 C 47.56369018554688 81.34813690185547 46.92192840576172 81.48768615722656 46.30041885375977 81.59368133544922 C 45.96540832519531 81.65208435058594 45.60160827636719 81.71283721923828 45.20886993408203 81.76192474365234 C 44.9906005859375 81.78838348388672 44.73089981079102 81.81842803955078 44.46249008178711 81.84028625488281 C 43.73696136474609 81.90702819824219 43.10031890869141 81.93942260742188 42.51514053344727 81.93942260742188 Z M 38.66748809814453 70.6795654296875 L 38.66748809814453 70.77956390380859 L 38.66748809814453 77.89579772949219 L 38.66748809814453 77.97703552246094 L 38.74700927734375 77.99367523193359 C 39.98564147949219 78.25286102294922 41.25532150268555 78.38428497314453 42.52077865600586 78.38428497314453 C 43.78622817993164 78.38428497314453 45.055908203125 78.25286102294922 46.29454040527344 77.99367523193359 L 46.37406158447266 77.97703552246094 L 46.37406158447266 77.89579772949219 L 46.37406158447266 70.77956390380859 L 46.37406158447266 70.6795654296875 L 46.2740592956543 70.6795654296875 L 38.76749038696289 70.6795654296875 L 38.66748809814453 70.6795654296875 Z M 42.51797103881836 44.6388053894043 C 43.02997970581055 44.6388053894043 43.52268981933594 44.85471343994141 43.86975860595703 45.23116302490234 L 55.1272087097168 58.36497497558594 C 55.62649917602539 58.94580459594727 55.69789886474609 59.77758407592773 55.30496978759766 60.43487548828125 L 49.94160842895508 69.37129211425781 L 49.92734909057617 69.39504241943359 L 49.92734909057617 69.42275238037109 L 49.92734909057617 76.7078857421875 L 49.92734909057617 76.86063385009766 L 50.06734848022461 76.79953765869141 C 52.07704925537109 75.92243194580078 53.89979934692383 74.71732330322266 55.48495864868164 73.21769714355469 C 57.02806854248047 71.75784301757812 58.3060302734375 70.0582275390625 59.28334045410156 68.16604614257812 C 60.26065063476562 66.27386474609375 60.90692138671875 64.24797821044922 61.20418930053711 62.1446533203125 C 61.50955963134766 59.98400497436523 61.43724060058594 57.80009460449219 60.98923873901367 55.65358352661133 C 60.54124069213867 53.50707626342773 59.73395919799805 51.47655487060547 58.58982086181641 49.61844635009766 C 57.47602844238281 47.80962371826172 56.07336044311523 46.21137619018555 54.42076873779297 44.86808395385742 C 52.76818084716797 43.52479553222656 50.91706085205078 42.47825622558594 48.91883850097656 41.75752639770508 C 46.86616134643555 41.01714324951172 44.71353912353516 40.64174652099609 42.52077102661133 40.64174652099609 C 40.32801055908203 40.64174652099609 38.17538833618164 41.01714324951172 36.12271118164062 41.75752639770508 C 34.12448883056641 42.47825622558594 32.27336883544922 43.52479553222656 30.62077903747559 44.86808395385742 C 28.96818923950195 46.21137619018555 27.56551933288574 47.80962371826172 26.45174026489258 49.61844635009766 C 25.3076000213623 51.47655487060547 24.50032043457031 53.50707626342773 24.05232048034668 55.65358352661133 C 23.60432052612305 57.80009460449219 23.5319995880127 59.98400497436523 23.83736991882324 62.1446533203125 C 24.13463973999023 64.24797821044922 24.78091049194336 66.27386474609375 25.75822067260742 68.16604614257812 C 26.73552894592285 70.0582275390625 28.01349067687988 71.75784301757812 29.55658912658691 73.21769714355469 C 31.14175033569336 74.71732330322266 32.96450042724609 75.92243194580078 34.97420120239258 76.79953765869141 L 35.11420059204102 76.86063385009766 L 35.11420059204102 76.7078857421875 L 35.11420059204102 69.42275238037109 L 35.11420059204102 69.39502716064453 L 35.09991836547852 69.37125396728516 L 29.73085975646973 60.43468475341797 C 29.3380298614502 59.77758407592773 29.4094295501709 58.94580459594727 29.90863037109375 58.36508560180664 L 41.1685905456543 45.22847366333008 C 41.51324081420898 44.85471343994141 42.00593948364258 44.6388053894043 42.51797103881836 44.6388053894043 Z M 42.52077865600586 53.98361587524414 C 43.57236862182617 53.98361587524414 44.60092163085938 54.34890365600586 45.41693878173828 55.0121955871582 C 46.23295974731445 55.67547607421875 46.80067825317383 56.60769653320312 47.01552963256836 57.63710403442383 C 47.23038101196289 58.6665153503418 47.08293151855469 59.74798583984375 46.60034942626953 60.68231582641602 C 46.11777114868164 61.61664581298828 45.32122039794922 62.36285400390625 44.35741806030273 62.78349304199219 L 44.29742050170898 62.80967330932617 L 44.29742050170898 62.87514495849609 L 44.29742050170898 67.02628326416016 L 44.29742050170898 67.12628173828125 L 44.39741897583008 67.12628173828125 L 47.08852005004883 67.12628173828125 L 47.14516067504883 67.12628173828125 L 47.17428970336914 67.07770538330078 L 51.5618896484375 59.75879287719727 L 51.59894943237305 59.69697570800781 L 51.55202865600586 59.64227294921875 L 42.5966911315918 49.20064544677734 L 42.52077102661133 49.11212539672852 L 42.44486999511719 49.20065307617188 L 33.49140930175781 59.64228439331055 L 33.44449996948242 59.69698333740234 L 33.48154830932617 59.75879287719727 L 37.8691291809082 67.07770538330078 L 37.89825820922852 67.12628173828125 L 37.95489883422852 67.12628173828125 L 40.64413070678711 67.12628173828125 L 40.7441291809082 67.12628173828125 L 40.7441291809082 67.02628326416016 L 40.7441291809082 62.8751335144043 L 40.7441291809082 62.80966567993164 L 40.68413162231445 62.78348541259766 C 39.72032928466797 62.36284637451172 38.92377853393555 61.61663436889648 38.44120025634766 60.68231582641602 C 37.9586181640625 59.74798583984375 37.8111686706543 58.6665153503418 38.02602005004883 57.63710403442383 C 38.24087142944336 56.60769653320312 38.80860137939453 55.67547607421875 39.62461853027344 55.0121955871582 C 40.44063949584961 54.34890365600586 41.46918106079102 53.98361587524414 42.52077865600586 53.98361587524414 Z M 42.52077865600586 57.54307556152344 C 41.94823837280273 57.54307556152344 41.48244857788086 58.00886535644531 41.48244857788086 58.58139419555664 C 41.48244857788086 59.15392303466797 41.94823837280273 59.61971282958984 42.52077865600586 59.61971282958984 C 43.09331130981445 59.61971282958984 43.55910110473633 59.15392303466797 43.55910110473633 58.58139419555664 C 43.55910110473633 58.00886535644531 43.09331130981445 57.54307556152344 42.52077865600586 57.54307556152344 Z"></path><path class="e" d="M 42.50888061523438 37.19999694824219 C 37.12583923339844 37.19999694824219 31.92504119873047 39.14593505859375 27.86452865600586 42.67935180664062 C 23.80389785766602 46.21288299560547 21.1580810546875 51.09520721435547 20.41445922851562 56.42693328857422 C 19.67060852050781 61.76038360595703 20.8807373046875 67.18192291259766 23.82196044921875 71.69283294677734 C 26.76316833496094 76.20375061035156 31.23590850830078 79.49800109863281 36.4162483215332 80.96875 L 36.43428039550781 80.973876953125 L 36.45103073120117 80.98225402832031 L 36.45297241210938 80.98323059082031 C 36.51741790771484 81.00121307373047 36.58294296264648 81.01651000976562 36.65198135375977 81.03262329101562 C 36.71543121337891 81.04743957519531 36.78105163574219 81.06275939941406 36.84589004516602 81.08029174804688 C 37.4716796875 81.24446105957031 38.11585998535156 81.38468933105469 38.76091003417969 81.49715423583984 C 39.14751815795898 81.56527709960938 39.49966049194336 81.61878967285156 39.83795928955078 81.66085815429688 C 40.11523818969727 81.69606018066406 40.35797882080078 81.72215270996094 40.58180999755859 81.74079895019531 C 41.30123138427734 81.80715942382812 41.93362808227539 81.83942413330078 42.51514053344727 81.83942413330078 C 43.09711074829102 81.83942413330078 43.73075866699219 81.80715942382812 44.45438003540039 81.74061584472656 C 44.7210578918457 81.71889495849609 44.97953033447266 81.68899536132812 45.19646072387695 81.66268920898438 C 45.58691787719727 81.61388397216797 45.94937133789062 81.55335998535156 46.28361129760742 81.49510192871094 C 46.90213012695312 81.38961791992188 47.54100036621094 81.25069427490234 48.18172836303711 81.08240509033203 C 48.24758911132812 81.06483459472656 48.31344985961914 81.04924011230469 48.37931823730469 81.03366088867188 C 48.44979858398438 81.01700592041016 48.51670455932617 81.00119018554688 48.58344268798828 80.98296356201172 L 48.58480072021484 80.98228454589844 L 48.60158920288086 80.97388458251953 L 48.61965942382812 80.96875 C 53.79950714111328 79.49814605712891 58.27198028564453 76.20429992675781 61.21318817138672 71.69400024414062 C 64.15440368652344 67.18370056152344 65.36495208740234 61.76273345947266 64.621826171875 56.42968368530273 C 63.87886047363281 51.09768676757812 61.23323059082031 46.21481323242188 57.17228698730469 42.68055725097656 C 53.11142730712891 39.1463623046875 47.91027069091797 37.19999694824219 42.52692794799805 37.19999694824219 L 42.52077865600586 37.19999694824219 L 42.50888061523438 37.19999694824219 M 49.82735061645508 77.01339721679688 L 49.82735061645508 76.7078857421875 L 49.82735061645508 69.42276000976562 L 49.82735061645508 69.36734008789062 L 49.85586166381836 69.31983947753906 L 55.21913909912109 60.38356399536133 C 55.58995056152344 59.76327514648438 55.52256774902344 58.97830581665039 55.05129241943359 58.4300537109375 L 43.79386138916016 45.29639434814453 C 43.4658088684082 44.94197845458984 43.0009880065918 44.73880767822266 42.51797103881836 44.73880767822266 C 42.03494262695312 44.73880767822266 41.57012176513672 44.94197845458984 41.24208068847656 45.29639434814453 L 29.98445892333984 58.43027496337891 C 29.51335144042969 58.97829437255859 29.44596862792969 59.76326370239258 29.81657028198242 60.38318634033203 L 35.18563842773438 69.31975555419922 L 35.21419906616211 69.36729431152344 L 35.21419906616211 69.42276000976562 L 35.21419906616211 76.7078857421875 L 35.21419906616211 77.01338195800781 L 34.93420028686523 76.89118957519531 C 32.91386795043945 76.00944519042969 31.08145904541016 74.79794311523438 29.48786926269531 73.29032897949219 C 27.93658065795898 71.82274627685547 26.65185165405273 70.11412048339844 25.66936874389648 68.21192932128906 C 24.6868896484375 66.30974578857422 24.03720092773438 64.27312469482422 23.73834991455078 62.15864562988281 C 23.43135833740234 59.98651504516602 23.50405883789062 57.79102325439453 23.95442962646484 55.63315582275391 C 24.40480041503906 53.47528839111328 25.21636962890625 51.43400573730469 26.3665885925293 49.56601715087891 C 27.48627853393555 47.74759674072266 28.89636993408203 46.14087677001953 30.55770111083984 44.79048156738281 C 32.21903991699219 43.44009399414062 34.07995986938477 42.38800811767578 36.08877944946289 41.6634521484375 C 38.15237045288086 40.91914367675781 40.31639862060547 40.541748046875 42.52077102661133 40.541748046875 C 44.72513961791992 40.541748046875 46.8891716003418 40.91914367675781 48.9527702331543 41.6634521484375 C 50.96158981323242 42.38800811767578 52.822509765625 43.44009399414062 54.48384857177734 44.79048156738281 C 56.14517974853516 46.14087677001953 57.55528259277344 47.74759674072266 58.67497253417969 49.56601715087891 C 59.82518768310547 51.43400573730469 60.63676071166992 53.47528839111328 61.08712768554688 55.63315582275391 C 61.53749847412109 57.79102325439453 61.61019897460938 59.98651504516602 61.30319976806641 62.15864562988281 C 61.00436019897461 64.27312469482422 60.35466766357422 66.30975341796875 59.3721923828125 68.21192932128906 C 58.38970947265625 70.11412048339844 57.10498046875 71.82274627685547 55.55368041992188 73.29034423828125 C 53.96009063720703 74.79795837402344 52.12767791748047 76.00945281982422 50.10734939575195 76.89120483398438 L 49.82735061645508 77.01339721679688 M 47.20180892944336 67.22628784179688 L 47.08852005004883 67.22628784179688 L 44.39741897583008 67.22628784179688 L 44.19741821289062 67.22628784179688 L 44.19741821289062 67.02628326416016 L 44.19741821289062 62.87514495849609 L 44.19741821289062 62.74421310424805 L 44.31742095947266 62.69184494018555 C 45.26023101806641 62.28036499023438 46.0394287109375 61.5504035949707 46.51150131225586 60.63642501831055 C 46.98357009887695 59.72244644165039 47.12781143188477 58.66452407836914 46.91764068603516 57.65753555297852 C 46.70746994018555 56.65054321289062 46.1521110534668 55.7386360168457 45.35385894775391 55.08978652954102 C 44.55561065673828 54.44094085693359 43.54946899414062 54.0836181640625 42.52077865600586 54.0836181640625 C 41.49208068847656 54.0836181640625 40.48593902587891 54.44094085693359 39.68769073486328 55.08978652954102 C 38.88945007324219 55.7386360168457 38.33407974243164 56.65054321289062 38.12390899658203 57.65753555297852 C 37.91373825073242 58.66452407836914 38.05797958374023 59.72244644165039 38.53004837036133 60.63642501831055 C 39.00212097167969 61.5504035949707 39.78131866455078 62.28035354614258 40.72412872314453 62.69183349609375 L 40.84413146972656 62.74420547485352 L 40.84413146972656 62.8751335144043 L 40.84413146972656 67.02628326416016 L 40.84413146972656 67.22628784179688 L 40.64413070678711 67.22628784179688 L 37.95489883422852 67.22628784179688 L 37.84160995483398 67.22628784179688 L 37.78335952758789 67.12911987304688 L 33.39577865600586 59.81020355224609 L 33.32167816162109 59.68659591674805 L 33.41548919677734 59.57718276977539 L 42.36894989013672 49.13554382324219 L 42.52075958251953 48.95850372314453 L 42.67258834838867 49.13553619384766 L 51.6279296875 59.57717514038086 L 51.72177124023438 59.68658447265625 L 51.64765930175781 59.81020355224609 L 47.26005935668945 67.12911987304688 L 47.20180892944336 67.22628784179688 M 42.52077865600586 59.7197151184082 C 41.89310073852539 59.7197151184082 41.38245010375977 59.20906448364258 41.38245010375977 58.58139419555664 C 41.38245010375977 57.9537239074707 41.89310073852539 57.44307327270508 42.52077865600586 57.44307327270508 C 43.1484489440918 57.44307327270508 43.65909957885742 57.9537239074707 43.65909957885742 58.58139419555664 C 43.65909957885742 59.20906448364258 43.1484489440918 59.7197151184082 42.52077865600586 59.7197151184082 M 42.52077102661133 78.48427581787109 C 41.24842834472656 78.48427581787109 39.97185897827148 78.35214233398438 38.72652816772461 78.091552734375 L 38.56748962402344 78.05827331542969 L 38.56748962402344 77.89579772949219 L 38.56748962402344 70.77956390380859 L 38.56748962402344 70.57955932617188 L 38.76749038696289 70.57955932617188 L 46.2740592956543 70.57955932617188 L 46.47406005859375 70.57955932617188 L 46.47406005859375 70.77956390380859 L 46.47406005859375 77.89579772949219 L 46.47406005859375 78.05827331542969 L 46.31502151489258 78.091552734375 C 45.0696907043457 78.35214233398438 43.79312133789062 78.48427581787109 42.52077102661133 78.48427581787109 M 42.50888061523438 36.99999237060547 C 42.51230621337891 36.99999237060547 42.51735305786133 36.99999237060547 42.52077865600586 36.99999237060547 C 42.52077102661133 36.99999237060547 42.52077102661133 36.99999237060547 42.52077102661133 36.99999237060547 L 42.52077865600586 36.99999237060547 C 42.5228271484375 36.99999237060547 42.52487564086914 36.99999237060547 42.52693557739258 36.99999237060547 C 53.75735855102539 37 63.26993560791016 45.27848815917969 64.81991577148438 56.40208435058594 C 66.37017822265625 67.5277099609375 59.48033142089844 78.09320068359375 48.67427825927734 81.16115570068359 L 48.6555290222168 81.1705322265625 C 48.51477813720703 81.20995330810547 48.37403106689453 81.23809814453125 48.23328018188477 81.27565002441406 C 47.60459899902344 81.44077301025391 46.96654891967773 81.58151245117188 46.31723022460938 81.69225311279297 C 45.95127868652344 81.75604248046875 45.59659957885742 81.81423950195312 45.22127151489258 81.86116027832031 C 44.97354888916016 81.89118957519531 44.72394943237305 81.91932678222656 44.47061157226562 81.93995666503906 C 43.81753921508789 82.00002288818359 43.1532096862793 82.0394287109375 42.51514053344727 82.0394287109375 C 41.87709045410156 82.0394287109375 41.21463012695312 82.00002288818359 40.56343841552734 81.93995666503906 C 40.31571960449219 81.91932678222656 40.06425094604492 81.89118957519531 39.81277847290039 81.85926818847656 C 39.45058822631836 81.81423950195312 39.08839797973633 81.7579345703125 38.72621154785156 81.69412231445312 C 38.0731315612793 81.58026123046875 37.42945098876953 81.44015502929688 36.79513931274414 81.27374267578125 C 36.65626907348633 81.23621368408203 36.51739120483398 81.20995330810547 36.38040161132812 81.1705322265625 L 36.36162948608398 81.16115570068359 C 25.55455017089844 78.09291076660156 18.66456604003906 67.52579498291016 20.21637725830078 56.3993034362793 C 21.76771545410156 45.27619171142578 31.27916717529297 36.99999237060547 42.50888061523438 36.99999237060547 Z M 50.02735137939453 76.70790100097656 C 58.17208862304688 73.15323638916016 62.70697784423828 64.37321472167969 60.89134979248047 55.67401504516602 C 59.07572937011719 46.97482299804688 51.40742111206055 40.74174499511719 42.52077102661133 40.74174499511719 C 33.63412094116211 40.74174499511719 25.96582794189453 46.97482299804688 24.15021133422852 55.67401504516602 C 22.33457946777344 64.37321472167969 26.86946105957031 73.15323638916016 35.01419830322266 76.7078857421875 L 35.01419830322266 69.42276000976562 L 29.6451301574707 60.48618316650391 C 29.23072052001953 59.79297637939453 29.30630111694336 58.912353515625 29.83279800415039 58.29989624023438 L 41.09265899658203 45.16339111328125 C 41.45967864990234 44.76527404785156 41.97647857666016 44.53880310058594 42.51797103881836 44.53880310058594 C 43.0594482421875 44.53880310058594 43.57624816894531 44.76527404785156 43.94327926635742 45.16339111328125 L 55.20314025878906 58.29989624023438 C 55.72962188720703 58.912353515625 55.80521011352539 59.79297637939453 55.39080047607422 60.48618316650391 L 50.02735137939453 69.42276000976562 L 50.02735137939453 76.7078857421875 L 50.02735137939453 76.70790100097656 Z M 47.08852005004883 67.02628326416016 L 51.47611999511719 59.70737457275391 L 42.52077865600586 49.26573181152344 L 33.56731796264648 59.70737457275391 L 37.95489883422852 67.02628326416016 L 40.64413070678711 67.02628326416016 L 40.64413070678711 62.8751335144043 C 38.60794830322266 61.98647308349609 37.47422790527344 59.79146575927734 37.92813110351562 57.61667633056641 C 38.38203811645508 55.44186401367188 40.29911041259766 53.88361358642578 42.52077865600586 53.88361358642578 C 44.74243927001953 53.88361358642578 46.65951919555664 55.44186401367188 47.11341857910156 57.61667633056641 C 47.56731796264648 59.79146575927734 46.43360137939453 61.98647308349609 44.39741897583008 62.87514495849609 L 44.39741897583008 67.02628326416016 L 47.08852005004883 67.02628326416016 Z M 42.52077865600586 59.51971435546875 C 43.03900146484375 59.51971435546875 43.45909881591797 59.09961318969727 43.45909881591797 58.58139419555664 C 43.45909881591797 58.06317520141602 43.03900146484375 57.64307403564453 42.52077865600586 57.64307403564453 C 42.00254821777344 57.64307403564453 41.58245086669922 58.06317520141602 41.58245086669922 58.58139419555664 C 41.58245086669922 59.09961318969727 42.00254821777344 59.51971435546875 42.52077865600586 59.51971435546875 Z M 42.52077484130859 78.28427886962891 C 43.77857208251953 78.28427886962891 45.03636932373047 78.15478515625 46.2740592956543 77.89579772949219 L 46.2740592956543 70.77956390380859 L 38.76749038696289 70.77956390380859 L 38.76749038696289 77.89579772949219 C 40.00518035888672 78.15478515625 41.26297760009766 78.28427886962891 42.52077484130859 78.28427886962891 Z"></path></g></g><rect class="c" width="170" height="135" transform="translate(1000 1167)"></rect></g></svg>