<svg xmlns="http://www.w3.org/2000/svg" width="115" height="100" viewBox="0 0 115 100"><defs><style>.a{fill:#ce1010;stroke:#fff;}.b{fill:none;}</style></defs><g transform="translate(-759 -1151)"><g transform="translate(483 -40)"><path class="a" d="M98.539,64.813A19.552,19.552,0,0,0,94.4,57.6a1.727,1.727,0,0,0-2.434,0,1.734,1.734,0,0,0,0,2.434,16.631,16.631,0,0,1,3.363,6.035,25.121,25.121,0,0,1,1.43,7.917c0,.376-.013.954-.025,1.267a1.651,1.651,0,0,0,.452,1.23,1.668,1.668,0,0,0,1.192.552h.075a1.723,1.723,0,0,0,1.719-1.644c.013-.389.025-1.016.025-1.418a28.529,28.529,0,0,0-1.656-9.159ZM59.92,55.854a1.712,1.712,0,0,0,1-.326,22.456,22.456,0,0,1,13.174-4.1A22.146,22.146,0,0,1,88.363,56.8a1.781,1.781,0,0,0,1.1.4,1.712,1.712,0,0,0,1.317-.615,1.738,1.738,0,0,0-.213-2.422A25.617,25.617,0,0,0,74.1,48a25.927,25.927,0,0,0-15.182,4.743,1.719,1.719,0,0,0,1,3.112ZM51.438,73.972a22.639,22.639,0,0,1,5.583-14.893,1.717,1.717,0,0,0-.176-2.422,1.71,1.71,0,0,0-2.422.163A26.109,26.109,0,0,0,48,73.972a36.7,36.7,0,0,0,1.932,11.317,1.709,1.709,0,0,0,1.644,1.217,1.739,1.739,0,0,0,.5-.075,1.716,1.716,0,0,0,1.016-.828,1.688,1.688,0,0,0,.125-1.3A33.516,33.516,0,0,1,51.438,73.972Z" transform="translate(229 1181)"></path><path class="a" d="M129.79,98.142A18.256,18.256,0,0,0,117.658,93.6a20.484,20.484,0,0,0-15.245,6.286,18.946,18.946,0,0,0-4.981,14.442,55.223,55.223,0,0,0,1.167,8.356,33.8,33.8,0,0,1,.64,10.552,1.783,1.783,0,0,0,1.255,1.832,1.358,1.358,0,0,0,.452.063,1.737,1.737,0,0,0,1.719-1.619,36.9,36.9,0,0,0-.69-11.531,53.462,53.462,0,0,1-1.1-7.917,15.564,15.564,0,0,1,4.065-11.857,17.074,17.074,0,0,1,12.723-5.194,14.85,14.85,0,0,1,9.874,3.7,21.078,21.078,0,0,1,6.148,10.176c1.43,4.931,1.819,11.2,1.142,18.13a1.735,1.735,0,0,0,1.543,1.882c.05,0,.113.013.163.013a1.707,1.707,0,0,0,1.706-1.556c.728-7.365.289-14.078-1.267-19.423A24.354,24.354,0,0,0,129.79,98.142Z" transform="translate(185.817 1141.121)"></path><path class="a" d="M174.758,158.8a21.08,21.08,0,0,0-5.094-11.368,13.026,13.026,0,0,0-9.649-4.228,15.712,15.712,0,0,0-6.788,1.506,1.734,1.734,0,0,0-.928,1.142,1.719,1.719,0,0,0,1.669,2.12,1.871,1.871,0,0,0,.74-.163A12.387,12.387,0,0,1,160,146.65a9.684,9.684,0,0,1,7.315,3.337,17.968,17.968,0,0,1,4.028,9.36,61.841,61.841,0,0,1,.891,9.172,67.951,67.951,0,0,1-.6,9.172,1.679,1.679,0,0,0,.314,1.28,1.714,1.714,0,0,0,1.117.69,1.875,1.875,0,0,0,.264.025,1.7,1.7,0,0,0,1.694-1.455,68.064,68.064,0,0,0,.652-9.724,63.062,63.062,0,0,0-.916-9.711Zm-23.613-8.03a1.716,1.716,0,0,0-1.418-2.685,1.732,1.732,0,0,0-1.418.74,13.372,13.372,0,0,0-1.807,10.012c1.117,6.437,2.12,13.94,1.179,20.7a1.779,1.779,0,0,0,.364,1.343,1.645,1.645,0,0,0,1.179.64c.05,0,.1.013.151.013a1.716,1.716,0,0,0,1.694-1.481c1.029-7.24-.025-15.081-1.192-21.807a9.862,9.862,0,0,1,1.267-7.478Zm16.587,23.149h-.063a1.715,1.715,0,0,0-1.656,1.782,22.617,22.617,0,0,1-.326,4.354,1.734,1.734,0,0,0,1.142,1.982,1.942,1.942,0,0,0,.54.088,1.709,1.709,0,0,0,1.681-1.393,26.58,26.58,0,0,0,.389-5.157A1.69,1.69,0,0,0,167.732,173.915Z" transform="translate(143.082 1097.745)"></path><path class="a" d="M206.232,191.82a7.313,7.313,0,0,0-5.082-2.02,7.537,7.537,0,0,0-5.972,2.572c-1.041,1.267-2.133,3.614-1.368,7.528a69.12,69.12,0,0,1,1.016,22.032,1.713,1.713,0,0,0,1.481,1.92,1.291,1.291,0,0,0,.213.013,1.72,1.72,0,0,0,1.706-1.506,72.69,72.69,0,0,0-1.041-23.137c-.4-2.058-.176-3.676.64-4.68a4.168,4.168,0,0,1,3.312-1.317c3.137,0,4.4,3.463,4.805,4.943a58.5,58.5,0,0,1,1.443,13.513,1.725,1.725,0,0,0,1.719,1.694h.025a1.714,1.714,0,0,0,1.694-1.731,62.023,62.023,0,0,0-1.568-14.354A11.388,11.388,0,0,0,206.232,191.82Z" transform="translate(101.708 1056.992)"></path><path class="a" d="M242.155,238.466a1.725,1.725,0,0,0-1.593-1.066,1.886,1.886,0,0,0-.652.125,1.716,1.716,0,0,0-.928,2.246c.828,2.008,1.481,5.8,1.769,10.389a81.46,81.46,0,0,1-.251,13.751,1.722,1.722,0,0,0,.364,1.267,1.668,1.668,0,0,0,1.154.627.95.95,0,0,0,.188.013,1.713,1.713,0,0,0,1.706-1.531,85.588,85.588,0,0,0,.251-14.529C243.848,244.828,243.133,240.813,242.155,238.466Z" transform="translate(62.097 1015.364)"></path></g><rect class="b" width="115" height="100" transform="translate(759 1151)"></rect></g></svg>