<svg xmlns="http://www.w3.org/2000/svg" width="115" height="100" viewBox="0 0 115 100"><defs><style>.a{fill:#ce1010;}.b{fill:none;}</style></defs><g transform="translate(-536 -1774)"><g transform="translate(538 1797)"><path class="a" d="M59.034,57.7H45.369a.969.969,0,1,0,0,1.938H59.034A.916.916,0,0,0,60,58.669.971.971,0,0,0,59.034,57.7Z" transform="translate(-1.341 -1.752)"></path><path class="a" d="M39.991,57.991a.959.959,0,1,0,1.357,0A.937.937,0,0,0,39.991,57.991Z" transform="translate(-1.196 -1.752)"></path><path class="a" d="M35.891,57.991a.959.959,0,1,0,1.357,0A.935.935,0,0,0,35.891,57.991Z" transform="translate(-1.069 -1.752)"></path><path class="a" d="M45.369,48.938H59.034a.969.969,0,0,0,0-1.938H45.369a.969.969,0,1,0,0,1.938Z" transform="translate(-1.341 -1.421)"></path><path class="a" d="M41.347,48.647a.959.959,0,1,0-1.357,0A.937.937,0,0,0,41.347,48.647Z" transform="translate(-1.196 -1.421)"></path><path class="a" d="M37.247,48.647a.959.959,0,1,0-1.357,0A.937.937,0,0,0,37.247,48.647Z" transform="translate(-1.069 -1.421)"></path><path class="a" d="M63.023,32.787a2.773,2.773,0,0,0-2.714-2.714H49.552a23.416,23.416,0,0,0,.485-4.555A24.518,24.518,0,1,0,25.518,50.037a25.268,25.268,0,0,0,4.652-.485v.388a2.786,2.786,0,0,0,.678,1.744,2.786,2.786,0,0,0-.678,1.744v6.881a2.773,2.773,0,0,0,2.714,2.714H60.309a2.773,2.773,0,0,0,2.714-2.714V53.429a2.786,2.786,0,0,0-.678-1.744,2.786,2.786,0,0,0,.678-1.744V43.059a2.786,2.786,0,0,0-.678-1.744,2.786,2.786,0,0,0,.678-1.744Zm-1.938,0v6.881a.834.834,0,0,1-.775.775H32.884a.834.834,0,0,1-.775-.775V32.787a.834.834,0,0,1,.775-.775H60.309A.834.834,0,0,1,61.085,32.787Zm0,10.369v6.881a.834.834,0,0,1-.775.775H32.884a.834.834,0,0,1-.775-.775V43.156a.834.834,0,0,1,.775-.775H60.309A.764.764,0,0,1,61.085,43.156ZM24.549,48c-3.1-.678-5.815-4.361-7.559-9.691h7.559ZM16.409,36.276a39.2,39.2,0,0,1-1.26-9.788h9.4v9.788ZM2.938,26.488H13.211a50.179,50.179,0,0,0,1.163,9.788H5.652A23.779,23.779,0,0,1,2.938,26.488ZM48.1,24.549H37.826a50.178,50.178,0,0,0-1.163-9.788h8.722A23.369,23.369,0,0,1,48.1,24.549Zm-12.211,0h-9.4V14.664h8.141A50.946,50.946,0,0,1,35.888,24.549Zm-9.4-11.823V3.035c3.1.678,5.815,4.361,7.559,9.691ZM24.549,3.035v9.691H16.99C18.735,7.4,21.448,3.714,24.549,3.035Zm0,11.629v9.788h-9.4a49.922,49.922,0,0,1,1.26-9.788ZM13.211,24.549H2.938a23.369,23.369,0,0,1,2.714-9.788h8.722A49.28,49.28,0,0,0,13.211,24.549Zm13.277,1.938h9.4c0,1.163-.1,2.423-.194,3.586h-2.81a2.773,2.773,0,0,0-2.714,2.714v3.489H26.488Zm11.145,3.586c.1-1.163.194-2.423.194-3.586H48.1a21.316,21.316,0,0,1-.485,3.586Zm6.493-17.347H36.082a21.917,21.917,0,0,0-4.942-9.11A23.266,23.266,0,0,1,44.125,12.726ZM19.9,3.617a21.917,21.917,0,0,0-4.942,9.11H6.912A22.942,22.942,0,0,1,19.9,3.617ZM6.912,38.214h8.044a21.917,21.917,0,0,0,4.942,9.11A22.076,22.076,0,0,1,6.912,38.214ZM26.488,48V38.214H30.17v1.357a2.786,2.786,0,0,0,.678,1.744,2.786,2.786,0,0,0-.678,1.744v4.458A16.007,16.007,0,0,1,26.488,48Zm34.6,12.308a.834.834,0,0,1-.775.775H32.884a.834.834,0,0,1-.775-.775V53.429a.834.834,0,0,1,.775-.775H60.309a.834.834,0,0,1,.775.775Z"></path><path class="a" d="M45.369,38.238H59.034a.969.969,0,1,0,0-1.938H45.369a.969.969,0,0,0,0,1.938Z" transform="translate(-1.341 -1.09)"></path><path class="a" d="M41.347,37.947a.959.959,0,1,0-1.357,0A.937.937,0,0,0,41.347,37.947Z" transform="translate(-1.196 -1.09)"></path><path class="a" d="M37.247,38.047a.959.959,0,1,0-1.357,0A1.164,1.164,0,0,0,37.247,38.047Z" transform="translate(-1.069 -1.094)"></path></g><rect class="b" width="115" height="100" transform="translate(536 1774)"></rect></g></svg>