<svg xmlns="http://www.w3.org/2000/svg" width="170" height="135" viewBox="0 0 170 135"><defs><style>.a{fill:#1c43b9;}.b{fill:none;}</style></defs><g transform="translate(-1000 -1460)"><g transform="translate(999 1498.213)"><path class="a" d="M89.725,9H5.511A4.517,4.517,0,0,0,1,13.511V73.664a4.517,4.517,0,0,0,4.511,4.511H89.725a4.517,4.517,0,0,0,4.511-4.511V13.511A4.517,4.517,0,0,0,89.725,9ZM5.511,12.008H89.725a1.505,1.505,0,0,1,1.5,1.5V21.03H4.008V13.511A1.505,1.505,0,0,1,5.511,12.008Zm84.213,63.16H5.511a1.505,1.505,0,0,1-1.5-1.5V24.038H91.229V73.664A1.505,1.505,0,0,1,89.725,75.168Z" transform="translate(0 0)"></path><rect class="a" width="2.432" height="3.04" transform="translate(7.294 15.08)"></rect><rect class="a" width="3.04" height="3.04" transform="translate(18.845 15.08)"></rect><rect class="a" width="3.04" height="3.04" transform="translate(12.766 15.08)"></rect><path class="a" d="M83.2,39.046H72.672v-3.16A7.519,7.519,0,1,0,63.8,27.015H35.076V24.008A3.011,3.011,0,0,0,32.069,21H8.008A3.011,3.011,0,0,0,5,24.008V33.03a3.011,3.011,0,0,0,3.008,3.008H18.534v12.03h37.6v3.008a3.011,3.011,0,0,0,3.008,3.008H69.664v3.008H35.076V54.084a3.011,3.011,0,0,0-3.008-3.008H8.008A3.011,3.011,0,0,0,5,54.084v9.023a3.011,3.011,0,0,0,3.008,3.008H32.069a3.011,3.011,0,0,0,3.008-3.008V60.1h37.6V54.084H83.2a3.011,3.011,0,0,0,3.008-3.008V42.053A3.011,3.011,0,0,0,83.2,39.046ZM8.008,63.107V54.084H32.069v9.023Zm63.16-39.1a4.511,4.511,0,1,1-4.511,4.511A4.517,4.517,0,0,1,71.168,24.008Zm-63.16,0H32.069V33.03H8.008ZM56.13,42.053v3.008H21.542V36.038H32.069a3.011,3.011,0,0,0,3.008-3.008V30.023H63.8a7.542,7.542,0,0,0,5.863,5.863v3.16H59.137A3.011,3.011,0,0,0,56.13,42.053Zm3.008,9.023V42.053H83.2l0,9.023Z" transform="translate(2.015 6.046)"></path><rect class="a" width="3.04" height="3.04" transform="translate(12.766 33.32)"></rect><rect class="a" width="12.16" height="3.04" transform="translate(18.845 33.32)"></rect><rect class="a" width="18.24" height="3.04" transform="translate(12.766 63.111)"></rect><rect class="a" width="3.04" height="3.04" transform="translate(79.037 50.951)"></rect><rect class="a" width="11.552" height="3.04" transform="translate(64.445 50.951)"></rect></g><rect class="b" width="170" height="135" transform="translate(1000 1460)"></rect></g></svg>