<svg xmlns="http://www.w3.org/2000/svg" width="170.25" height="135.25" viewBox="0 0 170.25 135.25"><defs><style>.a{fill:#1c43b9;stroke:#fff;stroke-width:0.5px;}.b{fill:none;}</style></defs><g transform="translate(-999.75 -1167)"><g transform="translate(1000 1194.077)"><path class="a" d="M38.618,90.535A38.118,38.118,0,1,1,76.735,52.418,38.17,38.17,0,0,1,38.618,90.535Zm0-71.643A33.64,33.64,0,1,0,72.143,52.647,33.614,33.614,0,0,0,38.618,18.892Z" transform="translate(-0.5 17.388)"></path><path class="a" d="M31.1,69.7A24.8,24.8,0,1,1,55.9,44.9,24.842,24.842,0,0,1,31.1,69.7Zm0-45.006A20.207,20.207,0,1,0,51.306,44.9,20.236,20.236,0,0,0,31.1,24.692Z" transform="translate(7.018 24.906)"></path><path class="a" d="M23.452,48.6A11.252,11.252,0,1,1,34.7,37.352,11.421,11.421,0,0,1,23.452,48.6Zm0-18.37a6.889,6.889,0,0,0,0,13.777,6.766,6.766,0,0,0,6.889-6.889A7.063,7.063,0,0,0,23.452,30.233Z" transform="translate(14.666 32.684)"></path><path class="a" d="M47.163,39.766H30.4V23L52.9.5V17.263H69.666Zm-12.17-4.592H45.326L58.873,21.625H48.54V11.292L34.992,24.84Z" transform="translate(38.258 -0.5)"></path><rect class="a" width="4.363" height="46.614" transform="translate(69.475 35.361) rotate(45)"></rect></g><rect class="b" width="170" height="135" transform="translate(1000 1167)"></rect></g></svg>