<svg xmlns="http://www.w3.org/2000/svg" width="171" height="135" viewBox="0 0 171 135"><defs><style>.a{fill:#1c43b9;stroke:#fff;stroke-width:2px;}.b{fill:none;}</style></defs><g transform="translate(-999 -1460)"><path class="a" d="M74.758,10.637H73.214C57.3,10.637,45.273.93,45.152.832l-.2-.166L44.14,0l0,0,0,0-.807.666-.2.166c-.121.1-12.144,9.8-28.062,9.8H13.517V50.553h0c0,23.514,30.319,33.284,30.617,33.379.3-.094,30.622-9.864,30.622-33.379h0V10.637ZM44.139,77.28C40.793,76.11,19.123,67.837,19.123,49.8V16.07A47.153,47.153,0,0,0,44.139,7.309,47.143,47.143,0,0,0,69.154,16.07V49.8C69.154,67.837,47.483,76.111,44.139,77.28Z" transform="translate(986.483 1501.068)"></path><rect class="b" width="170" height="135" transform="translate(1000 1460)"></rect></g></svg>