<svg xmlns="http://www.w3.org/2000/svg" width="172.2" height="135" viewBox="0 0 172.2 135"><defs><style>.a{fill:#1c43b9;stroke:#2345b2;stroke-width:1.4px;}.b{fill:none;}</style></defs><g transform="translate(-535.8 -1755)"><g transform="translate(529.75 1781.51)"><path class="a" d="M93.25,47.25A43.25,43.25,0,1,0,30.31,85.77a1,1,0,1,0,.92-1.78,41.267,41.267,0,1,1,21.11,4.44l6.17-3.56a1,1,0,0,0-1-1.74L46.49,89.5l11.02,6.36a1,1,0,0,0,1-1.74l-6.38-3.68A43.285,43.285,0,0,0,93.25,47.25Z"></path><path class="a" d="M71.76,69.01a.251.251,0,0,0,.04-.07,30.7,30.7,0,0,0,8.79-18.41c.03-.32.06-.63.08-.95.06-.77.1-1.55.1-2.33A30.664,30.664,0,0,0,71.8,25.56c-.02-.02-.03-.05-.05-.07s-.05-.03-.07-.05a30.709,30.709,0,0,0-43.38,0c-.02.02-.05.03-.07.05s-.03.05-.05.07a30.709,30.709,0,0,0,0,43.38c.02.02.02.05.04.07a.251.251,0,0,0,.07.04,30.709,30.709,0,0,0,43.38,0A.189.189,0,0,0,71.76,69.01ZM51,76V71.83a1,1,0,0,0-2,0V76a28.644,28.644,0,0,1-18.61-7.72l2.94-2.94a1,1,0,1,0-1.41-1.41l-2.94,2.94a28.665,28.665,0,0,1-7.72-18.61h4.17a1,1,0,0,0,0-2H21.26a28.644,28.644,0,0,1,7.72-18.61l2.94,2.94a.982.982,0,0,0,.71.29,1.024,1.024,0,0,0,.71-.29,1,1,0,0,0,0-1.41L30.4,26.24a28.665,28.665,0,0,1,18.61-7.72v4.17a1,1,0,0,0,2,0V18.52a28.644,28.644,0,0,1,18.61,7.72l-2.94,2.94a1,1,0,0,0,0,1.41.982.982,0,0,0,.71.29,1.024,1.024,0,0,0,.71-.29l2.94-2.94a28.661,28.661,0,0,1,7.75,19.61c0,.59-.02,1.17-.06,1.75H74.59a1,1,0,0,0,0,2h3.94a28.72,28.72,0,0,1-7.49,15.86L68.1,63.93a1,1,0,1,0-1.41,1.41l2.94,2.94A28.789,28.789,0,0,1,51,76Z"></path><path class="a" d="M54.68,49.99A5.42,5.42,0,0,0,51,41.91V28.04a1,1,0,0,0-2,0V41.92a5.431,5.431,0,1,0,4.37,9.59l4.98,4.98a.982.982,0,0,0,.71.29,1.024,1.024,0,0,0,.71-.29,1,1,0,0,0,0-1.41Zm-8.11-2.74A3.43,3.43,0,1,1,50,50.68,3.436,3.436,0,0,1,46.57,47.25Z"></path></g><rect class="b" width="170" height="135" transform="translate(538 1755)"></rect></g></svg>