<svg xmlns="http://www.w3.org/2000/svg" width="170" height="135" viewBox="0 0 170 135"><defs><style>.a{fill:#2345b2;}.b{fill:none;}</style></defs><g transform="translate(-1000 -1167)"><g transform="translate(991 1200.029)"><path class="a" d="M88.515,42.368c-2.6-5.389-10.528-5.155-15.791-5-1.206.035-2.248.066-3.034.028a5.994,5.994,0,0,1-2.192-.386,3.529,3.529,0,0,1,.338-.793c.209-.384.5-.9.853-1.514,1.809-3.181,4.837-8.505,5.93-12.329a12.768,12.768,0,0,0-1.709-9.729,9.232,9.232,0,0,0-5.816-4.562,4.822,4.822,0,0,0-4,.879c-2.462,1.894-2.875,5.921-2.931,6.673-.856,6.26-6.761,11.888-9.6,14.6-.387.369-.721.688-.982.949-1.6,1.6-2.61,4.023-3.586,6.366a31.072,31.072,0,0,1-2.07,4.349A32.654,32.654,0,0,1,39.829,47H37v-.52A4.485,4.485,0,0,0,32.52,42H14.48A4.485,4.485,0,0,0,10,46.48V81.52A4.485,4.485,0,0,0,14.48,86H32.52A4.487,4.487,0,0,0,36.9,82.434a25.976,25.976,0,0,0,4.641,3.316,2,2,0,0,0,.967.25H78.69a2.119,2.119,0,0,0,.318-.025,7,7,0,0,0,4.854-2.982c1.646-2.454,1.532-5.611,1.313-7.291A9.7,9.7,0,0,0,86.684,65.39a10.7,10.7,0,0,0,2.955-7,9.208,9.208,0,0,0-1.322-4.785C91.4,49.658,89.928,44.719,88.515,42.368ZM33,81.52a.48.48,0,0,1-.48.48H14.48a.481.481,0,0,1-.48-.48V46.48a.48.48,0,0,1,.48-.48H32.52a.481.481,0,0,1,.48.48ZM84.29,54.85c.613.638,3.422,4.058-1.41,8.739a2,2,0,0,0-.308,2.491c.107.174,2.6,4.288-.89,7.473a2,2,0,0,0-.6,1.931c.2.86.532,3.678-.543,5.281A2.917,2.917,0,0,1,78.517,82H43.048a17.554,17.554,0,0,1-4.141-3.259,2,2,0,0,0-.992-.668c-.176-.052-.507-.142-.916-.226V51h3.653a2,2,0,0,0,1.375-.547,37.092,37.092,0,0,0,5.283-6.438,33.958,33.958,0,0,0,2.372-4.931c.864-2.075,1.68-4.035,2.722-5.076.243-.243.553-.539.913-.882C56.5,30.093,63.125,23.78,64.135,16.1c0-.042.01-.089.013-.131.08-1.182.576-3.218,1.385-3.836A.837.837,0,0,1,66.308,12a5.456,5.456,0,0,1,3.186,2.722,8.95,8.95,0,0,1,1.278,6.547c-.961,3.363-3.954,8.625-5.561,11.451-.363.639-.669,1.177-.887,1.576-.985,1.807-1.118,3.377-.393,4.668,1.116,1.985,3.712,2.333,5.568,2.422.938.043,2.052.012,3.342-.026,4.247-.124,10.661-.313,12.1,2.793a1.815,1.815,0,0,0,.117.217c.115.186,2.784,4.583-.647,7.566a2.019,2.019,0,0,0-.116,2.91Z"></path></g><rect class="b" width="170" height="135" transform="translate(1000 1167)"></rect></g></svg>