<svg xmlns="http://www.w3.org/2000/svg" width="171.5" height="135" viewBox="0 0 171.5 135"><defs><style>.a,.b{fill:#1c43b9;}.a{stroke:#fff;stroke-width:3px;}.c{fill:none;}</style></defs><g transform="translate(-998.5 -1167)"><g transform="translate(997.952 1203.169)"><path class="a" d="M93.726,84.807,77.257,68.34c-1.967-1.969-3.477-3.493-6-2.916l-7.308-7.31A34.668,34.668,0,1,0,58.1,63.96l7.308,7.308c-.577,2.528,1.425,4.294,3.394,6.261L85.269,94c3.044,3.042,6.66,4.031,9.7.989S96.766,87.849,93.726,84.807ZM57.088,57.1A28.844,28.844,0,0,1,16.3,16.31,28.844,28.844,0,0,1,57.088,57.1Z" transform="translate(0)"></path><path class="b" d="M42.326,22.082h-.34C41.986,15.71,35.525,6.7,27.554,6.7S13.116,15.71,13.116,22.082h-.337a3.835,3.835,0,0,0-1.117,7.506c.026,1,.081,2.26.2,3.668-.791,1.955-.605,5.174,1.11,6.831,1,4.017,2.742,7.974,5.77,10.213,2.709,2,5.872,4.054,8.809,4.054s6.1-2.05,8.8-4.054c3.028-2.239,4.769-6.2,5.77-10.213,1.718-1.657,1.9-4.876,1.11-6.831.128-1.408.182-2.667.2-3.668a3.834,3.834,0,0,0-1.12-7.506ZM35.283,48.848c-2.472,1.827-5.323,3.7-7.729,3.7s-5.26-1.871-7.732-3.7c-2.274-1.685-3.733-4.583-4.678-7.715,4.422.931,9.892-1.517,12.41-1.517s7.988,2.451,12.41,1.517C39.021,44.265,37.557,47.16,35.283,48.848ZM15.493,34.634c1.245,0,8.937,2.376,8.937,2.376s-1.131,1.234-4.469,2.037C15.253,40.18,14.248,34.634,15.493,34.634Zm19.651,4.413c-3.338-.8-4.469-2.037-4.469-2.037s7.692-2.376,8.937-2.376S39.849,40.18,35.143,39.047Zm6.387-7.413a1.638,1.638,0,0,0-.563.058c-3.165.908-13.415,3.4-13.415,3.4s-10.25-2.488-13.42-3.4a1.623,1.623,0,0,0-.559-.058c-.042-.682-.067-1.31-.086-1.862h28.13C41.6,30.326,41.572,30.952,41.53,31.634Z" transform="translate(9.141 6.182)"></path></g><rect class="c" width="170" height="135" transform="translate(1000 1167)"></rect></g></svg>