<svg xmlns="http://www.w3.org/2000/svg" width="170.811" height="135" viewBox="0 0 170.811 135"><defs><style>.a{fill:#1c43b9;stroke:#fff;stroke-width:1.6px;}.b{fill:none;}</style></defs><g transform="translate(-537.189 -1460)"><path class="a" d="M30.21,25.16a12,12,0,1,0-12-12,12,12,0,0,0,12,12Zm0-18.91a7,7,0,1,1-7,7,7,7,0,0,1,7-7ZM39.7,26.72H36.59a2.9,2.9,0,0,0-2.27,1.09l-4.1,5.12-4.09-5.11a2.89,2.89,0,0,0-2.28-1.1h-3.1A11,11,0,0,0,9.86,39l2.45,18.44a9.61,9.61,0,0,0,4.86,7.34l3.95,28.9a5.78,5.78,0,0,0,5.74,5.12h6.71a5.77,5.77,0,0,0,5.74-5.07l4-29a9.58,9.58,0,0,0,4.85-7.29l2.46-18.53A11,11,0,0,0,39.7,26.72Zm5.92,11.57L43.15,56.83a4.66,4.66,0,0,1-3,3.86,2.5,2.5,0,0,0-1.61,2L34.35,93.06a.78.78,0,0,1-.78.69H26.86a.8.8,0,0,1-.78-.75L21.94,62.7a2.5,2.5,0,0,0-1.62-2,4.67,4.67,0,0,1-3-3.91l-2.5-18.45a5.95,5.95,0,0,1,5.91-6.62h2.1l4.55,5.68a3.5,3.5,0,0,0,2.75,1.33h.16A3.5,3.5,0,0,0,33,37.4l4.55-5.68h2.1a6,6,0,0,1,5.92,6.57ZM53.88,5.86A2.5,2.5,0,0,0,52,10l.1.11a51.27,51.27,0,0,1,8.06,12.55H55.23a2.5,2.5,0,0,0,0,5H62.1a47.24,47.24,0,0,1,2.23,12H57.5a2.5,2.5,0,0,0,0,5h6.83a47.24,47.24,0,0,1-2.23,12H55.23a2.5,2.5,0,0,0,0,5h4.93A51.29,51.29,0,0,1,52,74.38a2.5,2.5,0,0,0,1.88,4.14,36.335,36.335,0,0,0,0-72.67Zm5.54,5.49A31.36,31.36,0,0,1,78.36,22.67H65.62a55.27,55.27,0,0,0-6.2-11.32Zm0,61.69a55.23,55.23,0,0,0,6.2-11.32H78.36A31.35,31.35,0,0,1,59.42,73ZM81.64,56.72H67.34a52,52,0,0,0,2-12H85.11A31.1,31.1,0,0,1,81.64,56.72Zm3.47-17H69.36a52,52,0,0,0-2-12H81.64A31.1,31.1,0,0,1,85.11,39.7Z" transform="translate(528.215 1484.84)"></path><rect class="b" width="170" height="135" transform="translate(538 1460)"></rect></g></svg>