<svg xmlns="http://www.w3.org/2000/svg" width="170.2" height="135" viewBox="0 0 170.2 135"><defs><style>.a{fill:#1c43b9;stroke:#fff;stroke-width:0.4px;}.b{fill:none;}</style></defs><g transform="translate(-537.8 -1167)"><g transform="translate(535.66 1182.526)"><path class="a" d="M60.522,280.6a5.474,5.474,0,0,0-5.447,5.451v29.1a5.471,5.471,0,0,0,5.447,5.448h1.825v9.087a1.818,1.818,0,0,0,2.994,1.381l12.227-10.469h26.587a5.47,5.47,0,0,0,5.465-5.448v-29.1a5.489,5.489,0,0,0-5.465-5.451Zm0,3.64h43.633a1.779,1.779,0,0,1,1.829,1.811v29.1a1.772,1.772,0,0,1-1.822,1.811H76.882a1.821,1.821,0,0,0-1.179.444l-9.719,8.32v-6.953a1.818,1.818,0,0,0-1.825-1.811H60.522a1.764,1.764,0,0,1-1.811-1.811v-29.1A1.764,1.764,0,0,1,60.522,284.236Zm7.276,7.259a1.818,1.818,0,0,0-1.811,1.825v14.549A1.818,1.818,0,0,0,67.8,309.68h20a1.818,1.818,0,0,0,1.825-1.811v-2.251l6.335,3.81a1.818,1.818,0,0,0,2.752-1.559V293.32a1.821,1.821,0,0,0-2.752-1.556l-6.335,3.8V293.32a1.819,1.819,0,0,0-1.825-1.826Zm1.825,3.636h16.36v10.913H69.624Zm25.447,1.4v8.132l-5.451-3.278V299.8Zm-65.458,2.241A14.548,14.548,0,0,0,15.079,313.32V320.2a5.422,5.422,0,0,0,3.746,9.478,12.739,12.739,0,0,0,3.519,7.081v5.657A16.368,16.368,0,0,0,5.981,358.775V373.32a8.993,8.993,0,0,0,1.871,5.458H2.341A1.818,1.818,0,0,0,.53,380.589v7.273a1.818,1.818,0,0,0,1.811,1.825H107.8a1.818,1.818,0,0,0,1.825-1.825v-7.273a1.818,1.818,0,0,0-1.825-1.811h-4.656a7.186,7.186,0,0,0,1.016-3.64V340.593a5.474,5.474,0,0,0-5.447-5.451H51.439a5.489,5.489,0,0,0-5.465,5.451v2.752a16.361,16.361,0,0,0-5.447-.934v-5.657a12.709,12.709,0,0,0,3.512-7.074,5.453,5.453,0,0,0,3.761-9.51v-6.85A14.56,14.56,0,0,0,33.25,298.771Zm0,3.636H33.25A10.852,10.852,0,0,1,44.162,313.32v5.447H43.09l-4.915-4.911a1.818,1.818,0,0,0-2.575,0s-5.071,4.911-11.435,4.911H18.7V313.32a10.852,10.852,0,0,1,10.913-10.913Zm7.177,15.2,3.736,3.739v6.52a9.091,9.091,0,1,1-18.182,0V322.4h1.822c6.194,0,11.016-3.494,12.624-4.8ZM18.7,322.4v3.64a1.82,1.82,0,0,1,0-3.64Zm25.458,0a1.822,1.822,0,0,1,1.811,1.829,1.8,1.8,0,0,1-1.811,1.811Zm7.276,16.378H98.708a1.764,1.764,0,0,1,1.811,1.811V371.5H49.61v-3.548a1.82,1.82,0,1,0-3.636,0v7.184A7.171,7.171,0,0,0,47,378.778H42.351V376.95a9.114,9.114,0,0,0-9.1-9.084H20.526V360.59a1.818,1.818,0,0,0-3.636,0v9.1A1.817,1.817,0,0,0,18.7,371.5h9.1v7.276l-12.731,0a5.4,5.4,0,0,1-5.455-5.455V358.775a12.751,12.751,0,0,1,13.068-12.727s1.034,5.455,8.75,5.455,8.75-5.455,8.75-5.455a13.413,13.413,0,0,1,5.788,1.236v4.222a1.819,1.819,0,0,0,3.636,0V340.593a1.779,1.779,0,0,1,1.829-1.811Zm-25.458.565a12.557,12.557,0,0,0,10.909,0v4.883s-.068,3.636-5.455,3.636-5.455-3.636-5.455-3.636Zm49.091,10.345a5.456,5.456,0,1,0,5.451,5.465A5.485,5.485,0,0,0,75.071,349.692Zm0,3.64a1.818,1.818,0,1,1-1.825,1.825A1.791,1.791,0,0,1,75.071,353.331Zm-27.28,3.6a1.793,1.793,0,0,0-1.818,1.843v1.811a1.819,1.819,0,0,0,3.636,0v-1.811A1.725,1.725,0,0,0,47.792,356.936ZM31.439,371.5H33.25a5.406,5.406,0,0,1,5.465,5.448v1.829H31.439Zm18.171,3.636h50.909a3.58,3.58,0,0,1-3.622,3.64H53.25A3.6,3.6,0,0,1,49.61,375.138ZM4.166,382.414H105.984v3.636H4.166Z" transform="translate(1.811 -280.067)"></path></g><rect class="b" width="170" height="135" transform="translate(538 1167)"></rect></g></svg>