<svg xmlns="http://www.w3.org/2000/svg" width="115" height="100" viewBox="0 0 115 100"><defs><style>.a{fill:#ce1010;}.b{fill:none;}</style></defs><g transform="translate(-982 -867)"><g transform="translate(954 834.454)"><path class="a" d="M72.544,87.236h.084a5.549,5.549,0,0,0,5.544-5.544V79.844A5.549,5.549,0,0,0,72.628,74.3h-.084A5.549,5.549,0,0,0,67,79.844v1.848A5.549,5.549,0,0,0,72.544,87.236Zm-3.192-7.392a3.19,3.19,0,0,1,3.192-3.192h.084a3.19,3.19,0,0,1,3.192,3.192v1.848a3.19,3.19,0,0,1-3.192,3.192h-.084a3.19,3.19,0,0,1-3.192-3.192Z" transform="translate(-31.574 -23.795)"></path><path class="a" d="M47.538,161.717H45.22a1.189,1.189,0,0,0-.806.319l-3.225,3.024-3.108-3.024a1.17,1.17,0,0,0-.823-.336H34.8a5.759,5.759,0,0,0-5.729,6.283v13.49a3.613,3.613,0,0,0,3.612,3.612h.05a3.456,3.456,0,0,0,1.394-.3l.622,24.41a3.816,3.816,0,0,0,6.451,2.621,3.816,3.816,0,0,0,6.451-2.621l.622-24.376A3.615,3.615,0,0,0,53.3,181.49V168a5.758,5.758,0,0,0-1.462-4.385A5.868,5.868,0,0,0,47.538,161.717Zm-3.729,48.8a1.463,1.463,0,0,1-1.462-1.462V184.614H40v24.443a1.462,1.462,0,0,1-2.923.067l-.706-27.585h9.592l-.706,27.568A1.416,1.416,0,0,1,43.809,210.519Zm7.123-42.7V181.49a1.26,1.26,0,0,1-2.52,0v-2.873l.017-.538h-.017v-5.645H46.06V178.6l-.017.6h-9.71l-.034-1.176h-.017v-5.594H33.931v9a1.3,1.3,0,0,1-1.243,1.327,1.329,1.329,0,0,1-.907-.37,1.259,1.259,0,0,1-.37-.89V167.832a3.329,3.329,0,0,1,.857-2.621,3.363,3.363,0,0,1,2.52-1.126H36.77l3.561,3.461.017.017a.733.733,0,0,0,.118.1h.017c.05.034.084.05.134.084.017,0,.017.017.034.017.05.017.084.034.134.05H40.8a.491.491,0,0,0,.151.034h.034c.05,0,.084.017.134.017h.2a.491.491,0,0,0,.151-.034h0l.151-.05h.034a.9.9,0,0,0,.269-.168l.034-.034.034-.034,3.713-3.477h1.848a3.4,3.4,0,0,1,3.377,3.746Z" transform="translate(0 -96.513)"></path><path class="a" d="M382.244,87.236h.084a5.549,5.549,0,0,0,5.544-5.544V79.844a5.549,5.549,0,0,0-5.544-5.544h-.084a5.549,5.549,0,0,0-5.544,5.544v1.848A5.549,5.549,0,0,0,382.244,87.236Zm-3.192-7.392a3.19,3.19,0,0,1,3.192-3.192h.084a3.19,3.19,0,0,1,3.192,3.192v1.848a3.19,3.19,0,0,1-3.192,3.192h-.084a3.19,3.19,0,0,1-3.192-3.192Z" transform="translate(-289.246 -23.795)"></path><path class="a" d="M357.055,161.717h-2.318a1.189,1.189,0,0,0-.806.319L350.7,165.06l-3.108-3.024a1.17,1.17,0,0,0-.823-.336H344.3a5.759,5.759,0,0,0-5.729,6.283v13.49a3.613,3.613,0,0,0,3.612,3.612h.05a3.456,3.456,0,0,0,1.394-.3l.622,24.41a3.816,3.816,0,0,0,6.451,2.621,3.816,3.816,0,0,0,6.451-2.621l.622-24.376a3.615,3.615,0,0,0,5.023-3.326V168a5.759,5.759,0,0,0-5.745-6.283Zm-3.713,48.8a1.463,1.463,0,0,1-1.462-1.462V184.614h-2.352v24.443a1.462,1.462,0,0,1-2.923.067L345.9,181.54h9.592l-.706,27.568A1.438,1.438,0,0,1,353.342,210.519Zm7.106-42.7V181.49a1.26,1.26,0,0,1-2.52,0v-2.873l.017-.538h-.017v-5.645h-2.352V178.6l-.017.6h-9.71l-.034-1.176H345.8v-5.594h-2.352v9a1.3,1.3,0,0,1-1.243,1.327,1.329,1.329,0,0,1-.907-.37,1.259,1.259,0,0,1-.37-.89V167.832a3.4,3.4,0,0,1,3.377-3.746h1.982l3.561,3.461.017.017a.73.73,0,0,0,.118.1h0c.05.034.084.05.134.084.017,0,.017.017.034.017.05.017.084.034.134.05h.017a.49.49,0,0,0,.151.034h.034c.05,0,.084.017.134.017h.2a.49.49,0,0,0,.151-.034h0l.151-.05h.034a.9.9,0,0,0,.269-.168l.034-.034.034-.034,3.713-3.477h1.848a3.363,3.363,0,0,1,2.52,1.126A3.3,3.3,0,0,1,360.448,167.815Z" transform="translate(-257.506 -96.513)"></path><path class="a" d="M227.344,87.236h.084a5.549,5.549,0,0,0,5.544-5.544V79.844a5.549,5.549,0,0,0-5.544-5.544h-.084a5.549,5.549,0,0,0-5.544,5.544v1.848A5.549,5.549,0,0,0,227.344,87.236Zm-3.192-7.392a3.19,3.19,0,0,1,3.192-3.192h.084a3.19,3.19,0,0,1,3.192,3.192v1.848a3.19,3.19,0,0,1-3.192,3.192h-.084a3.19,3.19,0,0,1-3.192-3.192V79.844Z" transform="translate(-160.369 -23.795)"></path><path class="a" d="M202.255,161.717h-2.318a1.189,1.189,0,0,0-.806.319L195.9,165.06l-3.108-3.024a1.17,1.17,0,0,0-.823-.336H189.5a5.759,5.759,0,0,0-5.729,6.283v13.49a3.613,3.613,0,0,0,3.612,3.612h.05a3.455,3.455,0,0,0,1.394-.3l.622,24.41a3.816,3.816,0,0,0,6.451,2.621,3.816,3.816,0,0,0,6.451-2.621l.622-24.376A3.615,3.615,0,0,0,208,181.49V168a5.759,5.759,0,0,0-5.745-6.283Zm-3.713,48.8a1.463,1.463,0,0,1-1.462-1.462V184.614h-2.352v24.443a1.462,1.462,0,0,1-2.923.067L191.1,181.54h9.592l-.706,27.568A1.438,1.438,0,0,1,198.542,210.519Zm7.106-42.7V181.49a1.26,1.26,0,0,1-2.52,0v-2.873l.017-.538h-.017v-5.645h-2.352V178.6l-.017.6h-9.71l-.034-1.176H191v-5.594h-2.352v9a1.3,1.3,0,0,1-1.243,1.327,1.329,1.329,0,0,1-.907-.37,1.259,1.259,0,0,1-.37-.89V167.832a3.329,3.329,0,0,1,.857-2.621,3.363,3.363,0,0,1,2.52-1.126h1.982l3.561,3.461.017.017a.732.732,0,0,0,.118.1h.017c.05.034.084.05.134.084.017,0,.017.017.034.017.05.017.084.034.134.05h.017a.49.49,0,0,0,.151.034h.034c.05,0,.084.017.134.017h.2a.491.491,0,0,0,.151-.034h0l.151-.05h.034a.9.9,0,0,0,.269-.168l.034-.034.034-.034,3.713-3.477h1.848a3.363,3.363,0,0,1,2.52,1.126A3.412,3.412,0,0,1,205.649,167.815Z" transform="translate(-128.711 -96.513)"></path><path class="a" d="M156.472,53.092V51.244a5.549,5.549,0,0,0-5.544-5.544h-.084a5.549,5.549,0,0,0-5.544,5.544v1.848a5.549,5.549,0,0,0,5.544,5.544h.084A5.549,5.549,0,0,0,156.472,53.092Zm-2.352,0a3.19,3.19,0,0,1-3.192,3.192h-.084a3.19,3.19,0,0,1-3.192-3.192V51.244a3.19,3.19,0,0,1,3.192-3.192h.084a3.19,3.19,0,0,1,3.192,3.192Z" transform="translate(-96.72)"></path><path class="a" d="M311.372,53.092V51.244a5.549,5.549,0,0,0-5.544-5.544h-.084a5.549,5.549,0,0,0-5.544,5.544v1.848a5.549,5.549,0,0,0,5.544,5.544h.084A5.56,5.56,0,0,0,311.372,53.092Zm-2.352,0a3.19,3.19,0,0,1-3.192,3.192h-.084a3.19,3.19,0,0,1-3.192-3.192V51.244a3.19,3.19,0,0,1,3.192-3.192h.084a3.19,3.19,0,0,1,3.192,3.192Z" transform="translate(-225.598)"></path></g><rect class="b" width="115" height="100" transform="translate(982 867)"></rect></g></svg>