<svg xmlns="http://www.w3.org/2000/svg" width="115" height="100" viewBox="0 0 115 100"><defs><style>.a{fill:#ce1010;stroke:#ce1010;stroke-width:0.1px;}.b{fill:none;}</style></defs><g transform="translate(-982 -1151)"><g transform="translate(981 1182.6)"><path class="a" d="M57.882,38.491A15.491,15.491,0,1,0,42.391,53.982,15.5,15.5,0,0,0,57.882,38.491Zm-28.629,0A13.139,13.139,0,1,1,42.391,51.629,13.173,13.173,0,0,1,29.252,38.491Z" transform="translate(-10.443 -7.076)"></path><path class="a" d="M59.932,44.285a1.147,1.147,0,1,0,0-2.295H54.195V35.047a1.147,1.147,0,1,0-2.295,0v8.09a1.151,1.151,0,0,0,1.147,1.147Z" transform="translate(-21.1 -11.722)"></path><path class="a" d="M31.947,6.4A25.065,25.065,0,0,0,6.99,29.981H3.6a1.282,1.282,0,0,0-1.033.574,1.042,1.042,0,0,0,0,1.147l4.475,8.147a1.161,1.161,0,0,0,2.065,0L13.588,31.7a1.34,1.34,0,0,0,0-1.147,1.205,1.205,0,0,0-1.033-.574H9.342a22.625,22.625,0,1,1,4.131,14.573,1.194,1.194,0,1,0-1.951,1.377A25.013,25.013,0,1,0,31.947,6.4ZM8.08,36.808,5.613,32.333h4.934Z"></path></g><rect class="b" width="115" height="100" transform="translate(982 1151)"></rect></g></svg>