<svg xmlns="http://www.w3.org/2000/svg" width="115" height="100" viewBox="0 0 115 100"><defs><style>.a{fill:#ce1010;}.b{fill:none;}</style></defs><g transform="translate(-1205 -867)"><g transform="translate(1203 875.615)"><path class="a" d="M80.657,58.026c-.666-3.046-1.36-5.738-2.148-8.2A14.605,14.605,0,0,0,80.439,43.8a1.476,1.476,0,0,0,.014-.245A4.922,4.922,0,0,0,84.246,39.8a1.055,1.055,0,0,0,.027-.218,4.979,4.979,0,0,0,.068-.775,4.864,4.864,0,0,0-3.835-4.732c-.31-2.39,1.466-9.13-4.379-14.917a14.777,14.777,0,0,0-5.6-3.467c-.081-.285.489-3.454-2.176-3.454h-.789A3.027,3.027,0,0,0,65.549,13a3.7,3.7,0,0,0-2.788-.761,2.185,2.185,0,0,0-2.189,2.176V15.7c-12.225,4.233-9.721,17.313-9.981,18.371a4.847,4.847,0,0,0-1.156,9.1,5.242,5.242,0,0,0,1.305.422.419.419,0,0,0,.014.136A15.374,15.374,0,0,0,57.527,54.8l-.166.7c-4.069,2.71-6.98,1.658-10.848,4.717l0,0c-3.49-2.8-6.542-2.048-10.85-4.715l-.174-.727A14.609,14.609,0,0,0,41.971,43.8a4.8,4.8,0,0,0,.082-9.4V32.9c1.144-.76,1.37-2.455,1.428-3.835V21.869c0-.068-.122-7.166-11.232-7.452H22.322c-.544.014-1.047.054-1.537.1a.915.915,0,0,1-.925-.49,4.331,4.331,0,0,1-.49-1.632,1.026,1.026,0,0,0-1.645-.775c-5.877,4.522-7.019,9.685-6.636,11.218.387,2.8-.924,8.5,1.428,10.062v1.509a4.8,4.8,0,0,0,.082,9.4,14.606,14.606,0,0,0,6.486,10.96l-.182.745a20.264,20.264,0,0,1-5.756,2.312A13.189,13.189,0,0,0,3,70.807v3.739a1.02,1.02,0,0,0,1.02,1.02H89.006a1.027,1.027,0,0,0,1.02-1.02V70.808C90.025,64.566,85.719,59.289,80.657,58.026Zm-.15-21v-.843A2.846,2.846,0,0,1,82.3,38.812a1.81,1.81,0,0,1-.068.544,2.8,2.8,0,0,1-1.727,2.081ZM50.592,41.45c-2.741-1.373-2.146-4.461,0-5.276Zm-8.567-4.243a2.188,2.188,0,0,0,.027-.666,2.754,2.754,0,0,1-.027,5.14Zm-29.48,4.474A2.8,2.8,0,0,1,10.764,39.1a2.757,2.757,0,0,1,1.754-2.556v.5a.345.345,0,0,0,.027.163Zm40.4-14.862a12.692,12.692,0,0,1,8.934-9.4,1.032,1.032,0,0,0,.734-.979V14.417a.14.14,0,0,1,.15-.136c.175.043,1.768-.291,1.768.965a1.018,1.018,0,0,0,1.02,1.02c1.518,0,.513-1.985,2.012-1.985.641.038.925-.094.925.136V16.43c0,1.674,2.522.529,6.214,4.188,5.354,5.312,3.343,11.54,3.767,14.115a3.759,3.759,0,0,0-.041.993c-2.382-1.474.982-7.941-3.2-7.941-6.5,0-6.7-.02-6.84.014a2.23,2.23,0,0,1-1.985-1.088,1.018,1.018,0,0,0-1.822.258c-.014.054-.041.122-.054.177-1.7,5.217-7.434,9.781-11.844,11.436V34.556c-.014-.027-.041-.041-.054-.054C52.7,30.142,52.447,28.974,52.944,26.819Zm-39.379,4.3c-.611-.839-.438-9.082-.435-9.219.133-.427.163-3.7,4.6-7.642a6.606,6.606,0,0,0,.326.721,2.984,2.984,0,0,0,2.937,1.577c1.392-.174,2.238-.061,11.218-.1,9.029.231,9.233,5.222,9.233,5.412v7.152a4.033,4.033,0,0,1-.435,2.094,1.03,1.03,0,0,0-.585.218c-.465.342-.475.405-.435,4.732-.664-.19-.761-1.065-.761-1.768V28.178a2,2,0,0,0-.082-.571,2.367,2.367,0,0,0-2.3-1.781c-3.317.214-5.308-.595-5.548.843a2.5,2.5,0,0,1-1.088,1.645c-1.295.6-2.455-1.046-3.44-.49-1.216.7-2.418,1-3.114-.218-.466-.786-.318-1.781-1.373-1.781H17.726c-4.723,0-.789,9.566-3.141,10.239l-.027-3.93A1.025,1.025,0,0,0,13.565,31.116Zm1.02,11.5v-4.5c5.06-.447,1.57-10.253,3.141-10.253H21.52a4.015,4.015,0,0,0,1.958,2.284,4.237,4.237,0,0,0,3.794-.286c2.8,1.362,4.9.306,5.793-2,3.375.111,4.12-.247,4.12.313V34.3A3.8,3.8,0,0,0,38.5,37.574a2.729,2.729,0,0,0,1.482.544v4.5a12.7,12.7,0,0,1-25.4,0Zm19.1,13.353-6.4,8.82-6.4-8.825.034-.144a14.9,14.9,0,0,0,12.728,0ZM41.44,73.526H5.04v-2.72a11.137,11.137,0,0,1,8.566-11A22.575,22.575,0,0,0,18.9,57.852c.226-.12.428-.231.6-.331l6.946,9.588a1.086,1.086,0,0,0,1.678,0l6.95-9.579c4.491,2.571,7,1.888,9.932,4.1l0,0C40.456,66.564,41.619,72.257,41.44,73.526ZM71.424,60.609c-.082,4.659-.948,8.152-2,12.918H43.48c.112-.431-1.387-10.679,7.615-13.461a24.9,24.9,0,0,0,6.853-2.543L64.9,67.109a1.092,1.092,0,0,0,1.686,0l4.841-6.69v.19ZM59.345,55.967l.031-.13a14.9,14.9,0,0,0,11.871.272c.027.34.054.666.082.993L65.74,64.8Zm5.362-.824a13.072,13.072,0,0,1-11.925-11.6,21.362,21.362,0,0,1-.1-2.733c5.1-1.911,10.94-6.293,13.272-11.694,1.192.809,1.52.772,9.274.707,1.017,0-1.693,6.782,3.2,8.091v4.732a.265.265,0,0,0,.014.109.2.2,0,0,0,.014.1v.136A12.852,12.852,0,0,1,64.706,55.143Zm6.8,18.384c1.415-6.312,2.557-11.42,1.673-18.371a17.288,17.288,0,0,0,3.848-3.209c2.027,6.847,2.409,11.025,4.433,21.58Zm16.481,0H83.539c-.028-.16-2.373-13.031-2.407-13.19a11.271,11.271,0,0,1,6.853,10.47Z" transform="translate(0 0)"></path></g><rect class="b" width="115" height="100" transform="translate(1205 867)"></rect></g></svg>