<svg xmlns="http://www.w3.org/2000/svg" width="170.2" height="135" viewBox="0 0 170.2 135"><defs><style>.a{fill:#1c43b9;stroke:#fff;stroke-width:0.4px;}.b{fill:none;}</style></defs><g transform="translate(-537.8 -1460)"><g transform="translate(531 1476.163)"><path class="a" d="M205.339,21.767a17.63,17.63,0,0,0-9.718-9.339,17.379,17.379,0,0,0-13.462.294,17.579,17.579,0,0,0-5.385,3.7,2.082,2.082,0,0,0,2.945,2.945,13.306,13.306,0,0,1,4.123-2.819A13.468,13.468,0,0,1,194.7,41.2a14.008,14.008,0,0,1-4.88,1.136A2.084,2.084,0,0,0,189.9,46.5h.084a17.566,17.566,0,0,0,15.355-24.736Z" transform="translate(-98.005 0)"></path><path class="a" d="M127.341,66.842a17.786,17.786,0,0,0,6.394,1.22,17.368,17.368,0,0,0,7.068-1.514,17.63,17.63,0,0,0,9.339-9.718,17.379,17.379,0,0,0-.294-13.462,17.63,17.63,0,0,0-9.718-9.339,17.379,17.379,0,0,0-13.462.294h0a17.63,17.63,0,0,0-9.339,9.718,17.644,17.644,0,0,0,10.012,22.8ZM121.2,45.555a13.42,13.42,0,0,1,7.11-7.446h0a13.454,13.454,0,0,1,5.385-1.136,13.056,13.056,0,0,1,4.88.926,13.453,13.453,0,1,1-17.206,17.963A13.659,13.659,0,0,1,121.2,45.555Z" transform="translate(-63.211 -12.513)"></path><path class="a" d="M80.812,76.952a1.965,1.965,0,0,0,.715-.126A35.821,35.821,0,0,1,89.1,74.848a2.065,2.065,0,0,0-.631-4.081,41.976,41.976,0,0,0-8.414,2.188,2.108,2.108,0,0,0-1.22,2.65A2.2,2.2,0,0,0,80.812,76.952Z" transform="translate(-41.545 -34.487)"></path><path class="a" d="M93.115,100.348a30.807,30.807,0,0,0-4.207-9.213,2.065,2.065,0,1,0-3.45,2.272,27.388,27.388,0,0,1,3.66,7.993,21.994,21.994,0,0,1,.5,2.272,27.269,27.269,0,0,1-7.194,23.769,5.819,5.819,0,0,0-1.472,2.608l-3.87,13.378H68.42l-1.01-3.954a2.072,2.072,0,0,0-2.019-1.557l-22.17-.084h0a2.109,2.109,0,0,0-2.019,1.557l-1.052,4.039H31.526l-2.482-8.75a6.278,6.278,0,0,0-3.408-3.954,75.4,75.4,0,0,1-13.967-8.2,1.416,1.416,0,0,1-.547-1.136l.042-16.365,2.23-.042a2.18,2.18,0,0,0,1.641-.841l8.877-11.779c.042-.084.126-.168.168-.252a2.85,2.85,0,0,0-.252-2.777c-.084-.252-.21-.5-.294-.757l-.168-.379c-.337-.8-.715-1.6-1.094-2.356-.673-1.43-1.43-2.861-2.188-4.249-.084-.168-.168-.294-.252-.463h.589a17.15,17.15,0,0,1,5.805.926c.5.168,1.557.673,1.809.8a.041.041,0,0,1,.042.042c.379.21,2.608,1.514,3.113,1.893a18.319,18.319,0,0,1,5.385,6.479,2.07,2.07,0,0,0,3.7-1.851,22.786,22.786,0,0,0-6.6-7.951c-.715-.547-2.9-1.809-3.492-2.146a10.388,10.388,0,0,0-2.608-1.178A20.783,20.783,0,0,0,20.588,77c-.5,0-1.01,0-1.43.042l-.8.042a.534.534,0,0,0-.252.042h0c-.084,0-.168.042-.252.042a3.557,3.557,0,0,0-2.482,2.1,3.605,3.605,0,0,0,.21,2.608,6.078,6.078,0,0,0,.631,1.3c0,.042.084.126.126.168l.126.21c.715,1.346,1.43,2.692,2.1,4.081.337.757.715,1.472,1.01,2.188l.168.421a2.921,2.921,0,0,1,.21.547l-7.572,10.054L9.1,100.9a2.029,2.029,0,0,0-2.019,2.061L7,121.425a5.56,5.56,0,0,0,2.188,4.459,79,79,0,0,0,14.766,8.708,2,2,0,0,1,1.094,1.3l2.945,10.223a2.07,2.07,0,0,0,1.977,1.514H41.791a2.108,2.108,0,0,0,2.019-1.557l1.052-4.039,18.931.084,1.01,3.954a2.072,2.072,0,0,0,2.019,1.557H78.685a2.07,2.07,0,0,0,1.977-1.514L85,131.143a1.937,1.937,0,0,1,.421-.757A31.457,31.457,0,0,0,93.746,103Q93.493,101.673,93.115,100.348Z" transform="translate(0 -38.111)"></path><path class="a" d="M54.947,131.923a3.323,3.323,0,1,1-3.323-3.323A3.358,3.358,0,0,1,54.947,131.923Z" transform="translate(-23.926 -68.003)"></path></g><rect class="b" width="170" height="135" transform="translate(538 1460)"></rect></g></svg>