<svg xmlns="http://www.w3.org/2000/svg" width="170.225" height="135" viewBox="0 0 170.225 135"><defs><style>.a{fill:none;}.b{fill:#1c43b9;stroke:#2345b2;stroke-width:0.4px;}</style></defs><g transform="translate(-999.775 -1755)"><rect class="a" width="170" height="135" transform="translate(1000 1755)"></rect><g transform="translate(1000.011 1770.624)"><path class="b" d="M61.537,31.074A10.537,10.537,0,1,0,51,20.537,10.537,10.537,0,0,0,61.537,31.074Zm0-17.832a7.3,7.3,0,1,1-7.3,7.3,7.3,7.3,0,0,1,7.3-7.3Z" transform="translate(-9.663 -1.894)"></path><path class="b" d="M100.026,6.484A6.492,6.492,0,0,0,93.541,0H12.485A6.492,6.492,0,0,0,6,6.484V50.255a6.492,6.492,0,0,0,6.485,6.485H20.59V55.118A6.452,6.452,0,0,1,20.8,53.5H12.485a3.246,3.246,0,0,1-3.242-3.242V6.484a3.246,3.246,0,0,1,3.242-3.242H93.541a3.246,3.246,0,0,1,3.242,3.242V50.255A3.246,3.246,0,0,1,93.541,53.5H85.222a6.452,6.452,0,0,1,.213,1.621v1.621h8.106a6.492,6.492,0,0,0,6.485-6.485Z" transform="translate(-1.139)"></path><path class="b" d="M86.361,64.87V61.628a3.246,3.246,0,0,0-3.242-3.242H78.255V46.325c0-6.562-5.131-10.855-10.855-11.962a13.849,13.849,0,0,1-3.749,2.948h.817c5.112,0,10.545,3.159,10.545,9.014v12.06H39.348V46.325c0-5.855,5.433-9.014,10.544-9.014h.817a13.85,13.85,0,0,1-3.749-2.948c-5.725,1.108-10.855,5.4-10.855,11.962v12.06H31.242A3.246,3.246,0,0,0,28,61.628V64.87a3.246,3.246,0,0,0,3.242,3.242H83.119a3.246,3.246,0,0,0,3.242-3.242Zm-55.119,0V61.628H83.119l0,3.242Z" transform="translate(-5.306 -6.509)"></path><path class="b" d="M19.631,104a1.621,1.621,0,1,0,1.621,1.621A1.621,1.621,0,0,0,19.631,104Z" transform="translate(-3.414 -19.701)"></path><path class="b" d="M28.187,104.107a1.62,1.62,0,1,0-.381,3.218,1.527,1.527,0,0,0,.195.008,1.619,1.619,0,0,0,.186-3.226Z" transform="translate(-4.998 -19.719)"></path><path class="b" d="M36.508,108.393a1.62,1.62,0,1,0,.373,1.185,1.626,1.626,0,0,0-.373-1.185Z" transform="translate(-6.373 -20.422)"></path><path class="b" d="M37.621,115.629a1.621,1.621,0,1,0,1.621,1.621A1.621,1.621,0,0,0,37.621,115.629Z" transform="translate(-6.822 -21.904)"></path><path class="b" d="M11.084,104.1a1.622,1.622,0,0,0,.186,3.234,1.463,1.463,0,0,0,.186-.008,1.624,1.624,0,0,0-.373-3.226Z" transform="translate(-1.829 -19.717)"></path><path class="b" d="M2.759,108.367a1.622,1.622,0,1,0,2.278-.186,1.622,1.622,0,0,0-2.278.186Z" transform="translate(-0.451 -20.42)"></path><path class="b" d="M1.619,115.6A1.625,1.625,0,1,0,3.24,117.22,1.625,1.625,0,0,0,1.619,115.6Z" transform="translate(0 -21.898)"></path><path class="b" d="M25.632,85.958a1.619,1.619,0,0,0,1.226-2.678l-.021-.024,0,0,0,0,0,0-.019-.022a1.621,1.621,0,0,0-2.418,2.16l.018.02A1.622,1.622,0,0,0,25.632,85.958Z" transform="translate(-4.545 -15.664)"></path><path class="b" d="M17.828,97.59a1.627,1.627,0,0,0-.816-2.146l-.024-.011a1.621,1.621,0,0,0-1.352,2.947l.028.013h0l.036.016a1.615,1.615,0,0,0,2.128-.819Z" transform="translate(-2.785 -18.05)"></path><path class="b" d="M27.192,92.685A1.615,1.615,0,0,0,29.077,91.4l0-.009h0l.008-.044h0l0-.009a1.621,1.621,0,1,0-3.192-.567l0,.026a1.627,1.627,0,0,0,1.3,1.892Z" transform="translate(-4.902 -16.941)"></path><path class="b" d="M19.579,83.242h.032A1.621,1.621,0,1,0,19.622,80h-.067a1.621,1.621,0,1,0,.024,3.242Z" transform="translate(-3.402 -15.155)"></path><path class="b" d="M12.3,85.987a1.626,1.626,0,0,0,2.278-.283l.017-.021a1.621,1.621,0,0,0-2.544-2.011l0,.006h0l-.024.031-.011.014a1.616,1.616,0,0,0,.289,2.263Z" transform="translate(-2.214 -15.734)"></path><path class="b" d="M13.423,91.139a1.621,1.621,0,0,0-3.153.755l.013.053v0h0l0,.011a1.621,1.621,0,0,0,3.143-.8Z" transform="translate(-1.939 -17.029)"></path><path class="b" d="M23.341,95.08a1.618,1.618,0,0,0-.753.186l-.024.013a1.621,1.621,0,1,0,1.488,2.881l.017-.009.013-.007.031-.016a1.62,1.62,0,0,0-.772-3.047Z" transform="translate(-4.11 -18.011)"></path><path class="b" d="M124.512,108.394a1.626,1.626,0,1,0,.226,1.727,1.62,1.62,0,0,0-.226-1.727Z" transform="translate(-23.047 -20.424)"></path><path class="b" d="M116.187,104.107a1.62,1.62,0,1,0-.381,3.218,1.523,1.523,0,0,0,.195.008,1.619,1.619,0,0,0,.186-3.226Z" transform="translate(-21.668 -19.719)"></path><path class="b" d="M90.759,108.367a1.619,1.619,0,0,0,.186,2.286,1.6,1.6,0,0,0,1.046.389,1.621,1.621,0,1,0-1.232-2.675Z" transform="translate(-17.122 -20.421)"></path><path class="b" d="M107.631,104a1.621,1.621,0,1,0,1.621,1.621A1.621,1.621,0,0,0,107.631,104Z" transform="translate(-20.084 -19.701)"></path><path class="b" d="M124,117.251a1.621,1.621,0,1,0,1.621-1.621A1.621,1.621,0,0,0,124,117.251Z" transform="translate(-23.492 -21.904)"></path><path class="b" d="M89.623,115.609a1.617,1.617,0,1,0,1.621,1.613A1.617,1.617,0,0,0,89.623,115.609Z" transform="translate(-16.674 -21.9)"></path><path class="b" d="M99.084,104.1a1.622,1.622,0,0,0,.186,3.234,1.4,1.4,0,0,0,.186-.008,1.624,1.624,0,0,0-.373-3.226Z" transform="translate(-18.499 -19.717)"></path><path class="b" d="M105.828,97.59a1.627,1.627,0,0,0-.816-2.146l-.024-.011a1.621,1.621,0,1,0-1.352,2.947l.028.013h0l.036.016a1.615,1.615,0,0,0,2.128-.819Z" transform="translate(-19.455 -18.05)"></path><path class="b" d="M107.579,83.242h.032A1.621,1.621,0,1,0,107.622,80h-.067a1.621,1.621,0,1,0,.024,3.242Z" transform="translate(-20.072 -15.155)"></path><path class="b" d="M111.341,95.08a1.618,1.618,0,0,0-.753.186l-.024.013a1.621,1.621,0,1,0,1.488,2.881l.017-.009.013-.007.031-.016a1.62,1.62,0,0,0-.772-3.047Z" transform="translate(-20.78 -18.011)"></path><path class="b" d="M113.632,85.958a1.619,1.619,0,0,0,1.226-2.678l-.021-.024,0,0,0,0,0,0-.019-.022a1.621,1.621,0,0,0-2.418,2.16l.018.02A1.622,1.622,0,0,0,113.632,85.958Z" transform="translate(-21.215 -15.664)"></path><path class="b" d="M115.192,92.685a1.615,1.615,0,0,0,1.885-1.287l0-.009h0l.008-.044h0l0-.009a1.621,1.621,0,1,0-3.192-.567l0,.026a1.627,1.627,0,0,0,1.3,1.892Z" transform="translate(-21.572 -16.941)"></path><path class="b" d="M101.423,91.139a1.621,1.621,0,0,0-3.153.755l.013.053v0h0l0,.011a1.621,1.621,0,1,0,3.143-.8Z" transform="translate(-18.609 -17.029)"></path><path class="b" d="M100.3,85.987a1.626,1.626,0,0,0,2.278-.283l.017-.021a1.621,1.621,0,0,0-2.544-2.011l0,.006h0l-.024.031-.011.014A1.616,1.616,0,0,0,100.3,85.987Z" transform="translate(-18.884 -15.734)"></path><path class="b" d="M65.694,104H54.729C48.512,104,44,108.3,44,114.22v7.612a1.621,1.621,0,0,0,3.242,0V114.22c0-4.109,3.078-6.978,7.486-6.978H65.694c4.408,0,7.486,2.87,7.486,6.978v7.612a1.621,1.621,0,0,0,3.242,0V114.22C76.423,108.3,71.911,104,65.694,104Z" transform="translate(-8.337 -19.701)"></path><path class="b" d="M70.211,88.105a8.106,8.106,0,1,0-8.106,8.106,8.106,8.106,0,0,0,8.106-8.106Zm-12.969,0a4.863,4.863,0,1,1,4.863,4.863,4.863,4.863,0,0,1-4.863-4.863Z" transform="translate(-10.231 -15.155)"></path><path class="b" d="M37.621,124a1.621,1.621,0,1,0,1.621,1.621A1.621,1.621,0,0,0,37.621,124Z" transform="translate(-6.822 -23.49)"></path><path class="b" d="M1.621,124a1.621,1.621,0,1,0,1.621,1.621A1.621,1.621,0,0,0,1.621,124Z" transform="translate(-0.002 -23.49)"></path><path class="b" d="M125.621,124a1.621,1.621,0,1,0,1.621,1.621A1.621,1.621,0,0,0,125.621,124Z" transform="translate(-23.492 -23.49)"></path><path class="b" d="M89.621,124a1.621,1.621,0,1,0,1.621,1.621A1.621,1.621,0,0,0,89.621,124Z" transform="translate(-16.672 -23.49)"></path></g></g></svg>