<svg xmlns="http://www.w3.org/2000/svg" width="115" height="100" viewBox="0 0 115 100"><defs><style>.a{fill:#ce1010;}.b{fill:none;}</style></defs><g transform="translate(-1205 -1441)"><g transform="translate(1202 1466)"><path class="a" d="M57.015,5H6.985A2.988,2.988,0,0,0,4,7.985v34.03A2.988,2.988,0,0,0,6.985,45H28.942c-.177,1.931-.908,6-3.942,6H17v2H47V51H39c-3.022,0-3.759-4.068-3.94-6H57.015A2.988,2.988,0,0,0,60,42.015V7.985A2.988,2.988,0,0,0,57.015,5Zm-28,46a12.077,12.077,0,0,0,1.942-6h2.1a12.1,12.1,0,0,0,1.942,6ZM58,42.015a.986.986,0,0,1-.985.985H6.985A.986.986,0,0,1,6,42.015V41H58ZM58,39H6V11H58ZM58,9H6V7.985A.986.986,0,0,1,6.985,7h50.03A.986.986,0,0,1,58,7.985Z"></path><path class="a" d="M17,34A14.977,14.977,0,0,1,41.861,22.725L33.285,31.3A2.951,2.951,0,0,0,32,31a3,3,0,1,0,3,3,2.951,2.951,0,0,0-.3-1.285l8.576-8.576A14.921,14.921,0,0,1,47,34v1h6V34a20.894,20.894,0,0,0-5.484-14.1l1.191-1.191-1.414-1.414L46.1,18.484A20.965,20.965,0,0,0,11,34v1h6Zm15,1a1,1,0,1,1,1-1A1,1,0,0,1,32,35ZM46.109,21.305A18.915,18.915,0,0,1,50.974,33h-2A16.924,16.924,0,0,0,44.7,22.716ZM33,15.049A18.9,18.9,0,0,1,44.691,19.9L43.276,21.31A16.908,16.908,0,0,0,33,17.049Zm-2,0v2A16.908,16.908,0,0,0,20.724,21.31L19.309,19.9A18.9,18.9,0,0,1,31,15.049ZM13.026,33a18.915,18.915,0,0,1,4.865-11.695L19.3,22.716A16.927,16.927,0,0,0,15.03,33Z"></path></g><rect class="b" width="115" height="100" transform="translate(1205 1441)"></rect></g></svg>