<svg xmlns="http://www.w3.org/2000/svg" width="170.7" height="135" viewBox="0 0 170.7 135"><defs><style>.a,.b{fill:#1c43b9;}.b{stroke:#1b43b9;stroke-width:0.7px;}.c{fill:none;}.d,.e{stroke:none;}.e{fill:#1b43b9;}</style></defs><g transform="translate(-999.3 -1167)"><g transform="translate(964.002 1163)"><g transform="translate(35.998 36)"><g transform="translate(0 0.002)"><g class="a" transform="translate(-35.998 -36.008)"><path class="d" d="M 122.652458190918 118.0303192138672 L 52.67956161499023 118.0303192138672 C 52.25994110107422 118.0303192138672 51.87218475341797 117.8398742675781 51.61570739746094 117.5078125 C 51.35880661010742 117.1789474487305 51.27119445800781 116.7555770874023 51.37652969360352 116.3477630615234 C 51.51451873779297 115.8109436035156 51.58452987670898 115.2538223266602 51.58452987670898 114.6922454833984 C 51.58452987670898 112.9249572753906 50.89572906494141 111.2618255615234 49.64500427246094 110.0092086791992 C 48.39276123046875 108.7588577270508 46.72961807250977 108.0700531005859 44.96234130859375 108.0700531005859 C 44.39887237548828 108.0700531005859 43.84183883666992 108.1400451660156 43.30671691894531 108.2780914306641 C 43.19709396362305 108.3066558837891 43.08328247070312 108.3212661743164 42.96930694580078 108.3212661743164 C 42.6724967956543 108.3212814331055 42.37994003295898 108.2206420898438 42.14553833007812 108.0379104614258 C 41.81471633911133 107.7824020385742 41.62425994873047 107.394645690918 41.62425994873047 106.9750213623047 L 41.62425994873047 101.076545715332 C 41.62425994873047 100.334342956543 42.22809600830078 99.73051452636719 42.97029495239258 99.73051452636719 C 43.71249389648438 99.73051452636719 44.31631851196289 100.334342956543 44.31631851196289 101.076545715332 L 44.31631851196289 105.3996963500977 C 44.53068923950195 105.3852691650391 44.74681854248047 105.3779907226562 44.96234130859375 105.3779907226562 C 46.22070693969727 105.3779907226562 47.44087219238281 105.6245803833008 48.58895111083984 106.1109008789062 C 49.69689559936523 106.5789413452148 50.6927604675293 107.250244140625 51.54854965209961 108.1060333251953 C 52.40583801269531 108.9633331298828 53.07718276977539 109.9592666625977 53.54390716552734 111.0661697387695 C 54.0300178527832 112.2142105102539 54.27659606933594 113.4343643188477 54.27659606933594 114.6922454833984 C 54.27659606933594 114.9099349975586 54.26914978027344 115.1260528564453 54.25439834594727 115.338264465332 L 120.1379013061523 115.338264465332 L 117.5679397583008 111.4833221435547 L 117.5671539306641 111.482536315918 L 117.5452270507812 111.4502410888672 C 117.3487396240234 111.1514663696289 117.2790603637695 110.7941970825195 117.3490524291992 110.4442749023438 C 117.4187927246094 110.0928192138672 117.6223526000977 109.788703918457 117.922119140625 109.5884246826172 C 118.1426696777344 109.4404907226562 118.400276184082 109.3621139526367 118.6665649414062 109.3621139526367 C 119.1190872192383 109.3621139526367 119.5385513305664 109.5864562988281 119.7886276245117 109.9622192382812 L 123.772575378418 115.9381561279297 C 124.0488967895508 116.3489990234375 124.0750045776367 116.8785705566406 123.8399200439453 117.3190231323242 C 123.6056137084961 117.7577896118164 123.1506195068359 118.0303192138672 122.652458190918 118.0303192138672 Z M 42.97029495239258 96.44621276855469 C 42.22809600830078 96.44621276855469 41.62425994873047 95.84239196777344 41.62425994873047 95.10018920898438 C 41.62425994873047 94.35798645019531 42.22809600830078 93.75415802001953 42.97029495239258 93.75415802001953 C 43.71249389648438 93.75415802001953 44.31631851196289 94.35798645019531 44.31631851196289 95.10018920898438 C 44.31631851196289 95.84239196777344 43.71249389648438 96.44621276855469 42.97029495239258 96.44621276855469 Z M 42.97029495239258 90.47004699707031 C 42.22809600830078 90.47004699707031 41.62425994873047 89.86621856689453 41.62425994873047 89.1240234375 L 41.62425994873047 39.51668548583984 L 37.74007415771484 42.10614395141602 C 37.51979446411133 42.25388717651367 37.26157379150391 42.33226776123047 36.9941291809082 42.33226776123047 C 36.54248428344727 42.33226776123047 36.12370681762695 42.10775375366211 35.87389373779297 41.7317008972168 C 35.67348480224609 41.43107604980469 35.60281753540039 41.07174301147461 35.67521667480469 40.72036743164062 C 35.74508285522461 40.36835479736328 35.94917297363281 40.06387710571289 36.24939346313477 39.86552047729492 L 42.22433853149414 35.88220977783203 C 42.44386291503906 35.73537826538086 42.70279693603516 35.65761184692383 42.97269439697266 35.65761184692383 C 43.19511795043945 35.65761184692383 43.41415023803711 35.71215438842773 43.60612869262695 35.81534576416016 C 44.04383850097656 36.04896545410156 44.31631851196289 36.50389862060547 44.31631851196289 37.00212097167969 L 44.31631851196289 89.1240234375 C 44.31631851196289 89.86621856689453 43.71249389648438 90.47004699707031 42.97029495239258 90.47004699707031 Z"></path><path class="e" d="M 122.6524658203125 117.6803207397461 C 123.02099609375 117.6803207397461 123.3576583862305 117.4791259765625 123.5311508178711 117.1542129516602 C 123.704460144043 116.8295135498047 123.6863403320312 116.4370880126953 123.4813537597656 116.1323013305664 L 119.4972457885742 110.156135559082 C 119.3117828369141 109.87744140625 119.001220703125 109.7121124267578 118.6665649414062 109.7121124267578 C 118.4711380004883 109.7121124267578 118.2799072265625 109.7698745727539 118.1165542602539 109.8794403076172 C 117.8956298828125 110.0270538330078 117.7440414428711 110.2519607543945 117.6922454833984 110.5129089355469 C 117.6404571533203 110.7718734741211 117.6922454833984 111.0368194580078 117.8376693725586 111.2579345703125 L 117.8396530151367 111.2599258422852 L 120.7918930053711 115.6882781982422 L 53.87080764770508 115.6882781982422 C 53.90866851806641 115.3595809936523 53.92658615112305 115.0249252319336 53.92658615112305 114.6922378540039 C 53.92658615112305 113.481071472168 53.68953704833984 112.3077545166016 53.22139739990234 111.2021560668945 C 52.77119827270508 110.1344299316406 52.12378692626953 109.1762390136719 51.30106735229492 108.3535232543945 C 50.47834014892578 107.5308074951172 49.51817321777344 106.8833847045898 48.45241928100586 106.4331817626953 C 47.34683227539062 105.96484375 46.17351531982422 105.7279891967773 44.96233749389648 105.7279891967773 C 44.63165664672852 105.7279891967773 44.29500961303711 105.7459259033203 43.96631622314453 105.7817840576172 L 43.96631622314453 101.076545715332 C 43.96631622314453 100.5267333984375 43.52009201049805 100.0805130004883 42.97029113769531 100.0805130004883 C 42.42047882080078 100.0805130004883 41.97426986694336 100.5267333984375 41.97426986694336 101.076545715332 L 41.97426986694336 106.9750289916992 C 41.97426986694336 107.2855834960938 42.11570358276367 107.5726318359375 42.36072540283203 107.7618789672852 C 42.53657150268555 107.8989639282227 42.75099563598633 107.9712677001953 42.96930694580078 107.9712677001953 C 43.05271148681641 107.9712677001953 43.13669586181641 107.9607086181641 43.21929168701172 107.9391784667969 C 43.78304290771484 107.7937545776367 44.37070465087891 107.7200546264648 44.96233749389648 107.7200546264648 C 46.82292556762695 107.7200546264648 48.57394027709961 108.4451599121094 49.89268112182617 109.7619094848633 C 51.20943450927734 111.0806427001953 51.93453979492188 112.8316650390625 51.93453979492188 114.6922378540039 C 51.93453979492188 115.2818832397461 51.86083221435547 115.8695449829102 51.71540832519531 116.4352874755859 C 51.63771438598633 116.7360992431641 51.70146942138672 117.0490417480469 51.89270401000977 117.2938613891602 C 52.08195114135742 117.5388870239258 52.36879730224609 117.6803207397461 52.67956161499023 117.6803207397461 L 122.6524658203125 117.6803207397461 M 42.97029113769531 96.09621429443359 C 43.52009201049805 96.09621429443359 43.96631622314453 95.64800262451172 43.96631622314453 95.10018920898438 C 43.96631622314453 94.55038452148438 43.52009201049805 94.10415649414062 42.97029113769531 94.10415649414062 C 42.42047882080078 94.10415649414062 41.97426986694336 94.55038452148438 41.97426986694336 95.10018920898438 C 41.97426986694336 95.64800262451172 42.42047882080078 96.09621429443359 42.97029113769531 96.09621429443359 M 42.97029113769531 90.12004852294922 C 43.52009201049805 90.12004852294922 43.96631622314453 89.67183685302734 43.96631622314453 89.12403106689453 L 43.96631622314453 37.00212097167969 C 43.96631622314453 36.63359451293945 43.76511383056641 36.29693222045898 43.44042205810547 36.12362670898438 C 43.29594039916992 36.04596710205078 43.13431167602539 36.00761413574219 42.97270202636719 36.00761413574219 C 42.77779769897461 36.00761413574219 42.58293533325195 36.06343841552734 42.41849136352539 36.17342758178711 L 36.44232559204102 40.15754699707031 C 36.21922302246094 40.30495834350586 36.06980895996094 40.53005218505859 36.01802062988281 40.791015625 C 35.9642333984375 41.05196762084961 36.01802062988281 41.31690979003906 36.16543197631836 41.53802871704102 C 36.35069274902344 41.81692123413086 36.66145706176758 41.98226165771484 36.99412536621094 41.98226165771484 C 37.19133758544922 41.98226165771484 37.38257598876953 41.92449951171875 37.54592895507812 41.81492233276367 L 41.97426986694336 38.86269760131836 L 41.97426986694336 89.12403106689453 C 41.97426986694336 89.67183685302734 42.42047882080078 90.12004852294922 42.97029113769531 90.12004852294922 M 122.6524658203125 118.3803253173828 L 52.67956161499023 118.3803253173828 C 52.15069198608398 118.3803253173828 51.66196060180664 118.1402893066406 51.33870315551758 117.7217483520508 C 51.0154914855957 117.3079833984375 50.90490341186523 116.7741775512695 51.03765487670898 116.2602386474609 C 51.16823196411133 115.7522506713867 51.23453903198242 115.2244415283203 51.23453903198242 114.6922378540039 C 51.23453903198242 113.0183334350586 50.58206939697266 111.4430313110352 49.3973388671875 110.2565078735352 C 48.21155166625977 109.0725250244141 46.63624572753906 108.420051574707 44.96233749389648 108.420051574707 C 44.42836380004883 108.420051574707 43.90073776245117 108.4863128662109 43.39413833618164 108.6169891357422 C 43.25656127929688 108.6528549194336 43.11304473876953 108.6712646484375 42.96930313110352 108.6712646484375 C 42.59495162963867 108.6712875366211 42.2259635925293 108.5443801879883 41.93036270141602 108.3139495849609 C 41.51430511474609 107.9926147460938 41.27426910400391 107.5038986206055 41.27426910400391 106.9750289916992 L 41.27426910400391 101.076545715332 C 41.27426910400391 100.1413421630859 42.03510284423828 99.38050842285156 42.97029113769531 99.38050842285156 C 43.90547943115234 99.38050842285156 44.66631698608398 100.1413421630859 44.66631698608398 101.076545715332 L 44.66631698608398 105.0323944091797 C 44.76498413085938 105.0294647216797 44.86371231079102 105.0279922485352 44.96233749389648 105.0279922485352 C 46.26789093017578 105.0279922485352 47.53399658203125 105.2839126586914 48.72545623779297 105.7886276245117 C 49.87483215332031 106.2741470336914 50.90814971923828 106.9706649780273 51.79604339599609 107.8585433959961 C 52.68546676635742 108.7479705810547 53.38203430175781 109.7814178466797 53.86640930175781 110.9301910400391 C 54.37068176269531 112.1211318969727 54.6265869140625 113.38720703125 54.6265869140625 114.6922378540039 C 54.6265869140625 114.7912902832031 54.62509918212891 114.8900375366211 54.62213897705078 114.9882736206055 L 119.4839248657227 114.9882736206055 L 117.2956695556641 111.7058868408203 L 117.2941055297852 111.7043228149414 L 117.2528228759766 111.642578125 C 117.0053939819336 111.2663726806641 116.9176788330078 110.8164291381836 117.0058364868164 110.3756408691406 C 117.0937118530273 109.9329376220703 117.3501281738281 109.5496597290039 117.727653503418 109.2974014282227 C 118.0055770874023 109.1110076904297 118.3305969238281 109.0121078491211 118.6665649414062 109.0121078491211 C 119.2365036010742 109.0121078491211 119.764892578125 109.294807434082 120.0800094604492 109.7683334350586 L 124.0637893676758 115.7440032958984 C 124.4117279052734 116.261344909668 124.4448699951172 116.9289016723633 124.1486892700195 117.4838180541992 C 123.853385925293 118.0368499755859 123.2800903320312 118.3803253173828 122.6524658203125 118.3803253173828 Z M 42.97029113769531 96.79621887207031 C 42.03510284423828 96.79621887207031 41.27426910400391 96.03537750244141 41.27426910400391 95.10018920898438 C 41.27426910400391 94.16499328613281 42.03510284423828 93.40415954589844 42.97029113769531 93.40415954589844 C 43.90547943115234 93.40415954589844 44.66631698608398 94.16499328613281 44.66631698608398 95.10018920898438 C 44.66631698608398 96.03537750244141 43.90547943115234 96.79621887207031 42.97029113769531 96.79621887207031 Z M 42.97029113769531 90.82005310058594 C 42.03510284423828 90.82005310058594 41.27426910400391 90.05921936035156 41.27426910400391 89.12403106689453 L 41.27426910400391 40.17066192626953 L 37.93421936035156 42.39735794067383 C 37.65694046020508 42.58335876464844 37.33127975463867 42.6822624206543 36.99412536621094 42.6822624206543 C 36.42494964599609 42.6822624206543 35.89718627929688 42.39929962158203 35.58235168457031 41.92534637451172 C 35.33044052124023 41.5474853515625 35.24130630493164 41.09514236450195 35.3319091796875 40.65225219726562 C 35.42107391357422 40.20640563964844 35.67831420898438 39.8233528137207 36.05644607543945 39.57350921630859 L 42.03019714355469 35.59099197387695 C 42.30707931518555 35.40580368041992 42.63329315185547 35.3076171875 42.97270202636719 35.3076171875 C 43.25276184082031 35.3076171875 43.52909088134766 35.37657928466797 43.77183151245117 35.50705337524414 C 44.32287979125977 35.80117034912109 44.66631698608398 36.37441635131836 44.66631698608398 37.00212097167969 L 44.66631698608398 89.12403106689453 C 44.66631698608398 90.05921936035156 43.90547943115234 90.82005310058594 42.97029113769531 90.82005310058594 Z"></path></g><g transform="translate(0 69.72)"><g class="a" transform="translate(-36 -386)"><path class="d" d="M 44.9642448425293 404.2784729003906 C 43.70636367797852 404.2784729003906 42.48621368408203 404.0318908691406 41.33769607543945 403.5455627441406 C 40.22954559326172 403.0774536132812 39.23366546630859 402.4060974121094 38.37800598144531 401.5501708984375 C 37.52212524414062 400.6943359375 36.85081481933594 399.6984558105469 36.38276672363281 398.5902709960938 C 35.89658355712891 397.4422912597656 35.65000534057617 396.2221984863281 35.65000534057617 394.9642333984375 C 35.65000534057617 393.9036560058594 35.82761383056641 392.8625183105469 36.17791366577148 391.8696594238281 C 36.51470565795898 390.9109802246094 37.0057258605957 390.017333984375 37.63720321655273 389.2139892578125 C 38.26013565063477 388.4192810058594 39.00463485717773 387.7346801757812 39.84971618652344 387.1795654296875 C 40.70733642578125 386.6142578125 41.64497375488281 386.1983947753906 42.63613510131836 385.9438781738281 C 43.39443588256836 385.7488708496094 44.17776489257812 385.6499938964844 44.9642448425293 385.6499938964844 C 46.22263336181641 385.6499938964844 47.44280624389648 385.8965759277344 48.59084320068359 386.3829040527344 C 49.69882583618164 386.8509521484375 50.69469451904297 387.5222778320312 51.55045318603516 388.3780212402344 C 52.40776443481445 389.2353515625 53.07910537719727 390.2312927246094 53.54580307006836 391.3381652832031 C 54.03191375732422 392.4862060546875 54.27849578857422 393.7063598632812 54.27849578857422 394.9642333984375 C 54.27849578857422 395.7519226074219 54.17959594726562 396.5352783203125 53.98455429077148 397.2925720214844 C 53.73008346557617 398.2835693359375 53.31421661376953 399.2212219238281 52.74857330322266 400.0792236328125 C 52.19366455078125 400.9240112304688 51.509033203125 401.66845703125 50.71403503417969 402.2914123535156 C 49.91177368164062 402.9222412109375 49.01814651489258 403.413330078125 48.05843353271484 403.7507019042969 C 47.06593322753906 404.1008605957031 46.02477645874023 404.2784729003906 44.9642448425293 404.2784729003906 Z M 44.9642448425293 388.342041015625 C 44.4007453918457 388.342041015625 43.84371566772461 388.4120483398438 43.30863571166992 388.5500793457031 C 40.38239669799805 389.3028869628906 38.34016418457031 391.9403686523438 38.34205627441406 394.9640197753906 C 38.34205627441406 396.7315063476562 39.03085327148438 398.3946228027344 40.28158569335938 399.6472778320312 C 41.53564453125 400.8975219726562 43.19885635375977 401.5863952636719 44.9642448425293 401.5863952636719 C 47.9896240234375 401.5863952636719 50.62556457519531 399.5441589355469 51.37835311889648 396.6200256347656 C 51.51641464233398 396.0829162597656 51.58643341064453 395.5257873535156 51.58643341064453 394.9642333984375 C 51.58643341064453 393.1969299316406 50.89762496948242 391.5338134765625 49.64690399169922 390.2811889648438 C 48.39464569091797 389.0308532714844 46.73150634765625 388.342041015625 44.9642448425293 388.342041015625 Z"></path><path class="e" d="M 44.9642448425293 403.928466796875 C 45.98616409301758 403.928466796875 46.98817443847656 403.7571411132812 47.94236373901367 403.4205017089844 C 48.86667633056641 403.0955810546875 49.72525405883789 402.6236572265625 50.49816513061523 402.0158996582031 C 51.26311492919922 401.41650390625 51.9224853515625 400.6993408203125 52.45636367797852 399.8865966796875 C 53.00019454956055 399.0616760253906 53.40059661865234 398.1594848632812 53.64561462402344 397.2052917480469 C 53.8328742980957 396.4782104492188 53.92849349975586 395.7232055664062 53.92849349975586 394.9642333984375 C 53.92849349975586 393.7530517578125 53.69143295288086 392.5797424316406 53.22330474853516 391.4741516113281 C 52.77309417724609 390.4064025878906 52.12567520141602 389.4482421875 51.30296325683594 388.6255187988281 C 50.48024368286133 387.8027954101562 49.52007293701172 387.1553955078125 48.45432662963867 386.7051696777344 C 47.34873580932617 386.2368469238281 46.1754150390625 386 44.9642448425293 386 C 44.2072639465332 386 43.45227432250977 386.0953979492188 42.72318649291992 386.2828674316406 C 41.76898574829102 386.5278930664062 40.86658477783203 386.928466796875 40.04187393188477 387.4721069335938 C 39.2291145324707 388.0059814453125 38.5119743347168 388.6653442382812 37.9123649597168 389.4302978515625 C 37.30479431152344 390.2032165527344 36.83268356323242 391.0617980957031 36.50797653198242 391.9861145019531 C 36.17131423950195 392.9403076171875 36.00000381469727 393.9423217773438 36.00000381469727 394.9642333984375 C 36.00000381469727 396.1732177734375 36.23705673217773 397.3487243652344 36.70518493652344 398.4541015625 C 37.1553955078125 399.5200500488281 37.80280303955078 400.4800415039062 38.62552642822266 401.302734375 C 39.44824600219727 402.1256713867188 40.40841674804688 402.7730712890625 41.47416305541992 403.2232666015625 C 42.57975387573242 403.69140625 43.75307464599609 403.928466796875 44.9642448425293 403.928466796875 M 44.9642448425293 387.9920349121094 C 46.82482528686523 387.9920349121094 48.57583618164062 388.7171630859375 49.89457321166992 390.0339050292969 C 51.21132659912109 391.3526306152344 51.93643569946289 393.1014404296875 51.93643569946289 394.9642333984375 C 51.93643569946289 395.5558776855469 51.86272430419922 396.1415405273438 51.71730422973633 396.707275390625 C 50.92446517944336 399.7869873046875 48.1495361328125 401.9364013671875 44.96822357177734 401.9364013671875 L 44.9642448425293 401.9364013671875 C 43.10366439819336 401.9364013671875 41.35265350341797 401.2093200683594 40.03390502929688 399.8945617675781 C 38.7171630859375 398.5758056640625 37.9920539855957 396.8247985839844 37.9920539855957 394.9642333984375 C 37.99006652832031 391.7809143066406 40.13948440551758 389.0039978027344 43.22119522094727 388.211181640625 C 43.78494644165039 388.0657348632812 44.37260437011719 387.9920349121094 44.9642448425293 387.9920349121094 M 44.9642448425293 404.6284484863281 C 43.65922546386719 404.6284484863281 42.39315414428711 404.37255859375 41.20122528076172 403.8678588867188 C 40.05155563354492 403.3822326660156 39.01822662353516 402.6856384277344 38.13048553466797 401.7976379394531 C 37.2425651550293 400.9097595214844 36.54603576660156 399.8764343261719 36.06034469604492 398.7264404296875 C 35.55590438842773 397.5353393554688 35.30000305175781 396.2693481445312 35.30000305175781 394.9642333984375 C 35.30000305175781 393.8638916015625 35.48432540893555 392.7835388183594 35.84785461425781 391.7532043457031 C 36.19723510742188 390.7586669921875 36.70678329467773 389.8312683105469 37.36203384399414 388.9976806640625 C 38.00814437866211 388.1734313964844 38.78067398071289 387.4630432128906 39.65756607055664 386.8870239257812 C 40.54713439941406 386.3006286621094 41.52030563354492 385.8690490722656 42.5490837097168 385.6048583984375 C 43.33572387695312 385.402587890625 44.14837646484375 385.3000183105469 44.9642448425293 385.3000183105469 C 46.26980590820312 385.3000183105469 47.53589630126953 385.555908203125 48.72735595703125 386.0606079101562 C 49.87680435180664 386.5462036132812 50.91011428833008 387.2427062988281 51.79794311523438 388.1305541992188 C 52.68738555908203 389.0199890136719 53.38395309448242 390.053466796875 53.86831665039062 391.2021789550781 C 54.37259674072266 392.3931579589844 54.62849426269531 393.6592102050781 54.62849426269531 394.9642333984375 C 54.62849426269531 395.7813415527344 54.52587509155273 396.5940856933594 54.32349395751953 397.3798828125 C 54.05942535400391 398.4082641601562 53.62781524658203 399.3814392089844 53.04079437255859 400.2718811035156 C 52.46529388427734 401.1479797363281 51.75487518310547 401.9204711914062 50.92991638183594 402.56689453125 C 50.09787368774414 403.2211303710938 49.17050552368164 403.7307739257812 48.17450332641602 404.0809020996094 C 47.1448860168457 404.4441528320312 46.06454467773438 404.6284484863281 44.9642448425293 404.6284484863281 Z M 44.9642448425293 388.6920471191406 C 44.43021392822266 388.6920471191406 43.90260314941406 388.75830078125 43.39607620239258 388.8889770507812 C 40.62443542480469 389.6020202636719 38.69026565551758 392.1000366210938 38.69205474853516 394.9638061523438 C 38.69205474853516 396.6380920410156 39.34451293945312 398.2134094238281 40.52925491333008 399.3999633789062 C 41.71669387817383 400.5838012695312 43.29213333129883 401.2363891601562 44.9642448425293 401.2363891601562 C 47.82988357543945 401.2363891601562 50.32644653320312 399.3021850585938 51.03940582275391 396.5327453613281 C 51.17012405395508 396.0242309570312 51.23643493652344 395.4964294433594 51.23643493652344 394.9642333984375 C 51.23643493652344 393.2903442382812 50.58396530151367 391.7150268554688 49.39922332763672 390.5285034179688 C 48.21342468261719 389.3445129394531 46.63812637329102 388.6920471191406 44.9642448425293 388.6920471191406 Z"></path></g></g></g><g transform="translate(5.977 47.809)"><g class="a" transform="translate(-66 -276)"><path class="d" d="M 94.88477325439453 310.2149353027344 C 94.14258575439453 310.2149353027344 93.53876495361328 309.6111145019531 93.53876495361328 308.868896484375 L 93.53876495361328 278.3420715332031 L 66.99602508544922 278.3420715332031 C 66.25382995605469 278.3420715332031 65.64999389648438 277.7382202148438 65.64999389648438 276.9960327148438 C 65.64999389648438 276.2538452148438 66.25382995605469 275.6499938964844 66.99602508544922 275.6499938964844 L 94.88477325439453 275.6499938964844 C 95.23896026611328 275.6499938964844 95.58546447753906 275.7933654785156 95.83545684814453 276.0433349609375 C 96.08623504638672 276.2914428710938 96.23081970214844 276.63916015625 96.23081970214844 276.9960327148438 L 96.23081970214844 308.868896484375 C 96.23081970214844 309.6111145019531 95.62698364257812 310.2149353027344 94.88477325439453 310.2149353027344 Z"></path><path class="e" d="M 94.88477325439453 309.8649291992188 C 95.43458557128906 309.8649291992188 95.88081359863281 309.418701171875 95.88081359863281 308.868896484375 L 95.88081359863281 276.9960327148438 C 95.88081359863281 276.7330627441406 95.77523803710938 276.4761047363281 95.58798980712891 276.2908325195312 C 95.40272521972656 276.1055908203125 95.14773559570312 276 94.88477325439453 276 L 66.99602508544922 276 C 66.44622039794922 276 66 276.4462280273438 66 276.9960327148438 C 66 277.5458374023438 66.44622039794922 277.9920654296875 66.99602508544922 277.9920654296875 L 93.88876342773438 277.9920654296875 L 93.88876342773438 308.868896484375 C 93.88876342773438 309.418701171875 94.33497619628906 309.8649291992188 94.88477325439453 309.8649291992188 M 94.88477325439453 310.56494140625 C 93.94960021972656 310.56494140625 93.18876647949219 309.8041076660156 93.18876647949219 308.868896484375 L 93.18876647949219 278.6920776367188 L 66.99602508544922 278.6920776367188 C 66.06083679199219 278.6920776367188 65.29999542236328 277.9312133789062 65.29999542236328 276.9960327148438 C 65.29999542236328 276.0608520507812 66.06083679199219 275.3000183105469 66.99602508544922 275.3000183105469 L 94.88477325439453 275.3000183105469 C 95.33108520507812 275.3000183105469 95.76779937744141 275.480712890625 96.08293914794922 275.7958374023438 C 96.39839935302734 276.1079406738281 96.58081817626953 276.5463562011719 96.58081817626953 276.9960327148438 L 96.58081817626953 308.868896484375 C 96.58081817626953 309.8041076660156 95.81997680664062 310.56494140625 94.88477325439453 310.56494140625 Z"></path></g></g><g transform="translate(5.977 29.881)"><g class="a" transform="translate(-66 -186)"><path class="d" d="M 112.8132781982422 238.1434020996094 C 112.0710754394531 238.1434020996094 111.4672470092773 237.5395812988281 111.4672470092773 236.7973785400391 L 111.4672470092773 188.342041015625 L 66.99602508544922 188.342041015625 C 66.25382995605469 188.342041015625 65.65000152587891 187.7382202148438 65.65000152587891 186.9960174560547 C 65.65000152587891 186.2538146972656 66.25382995605469 185.6499938964844 66.99602508544922 185.6499938964844 L 112.8132781982422 185.6499938964844 C 113.1682052612305 185.6499938964844 113.5145492553711 185.7940216064453 113.7638549804688 186.0452270507812 C 114.0152130126953 186.2928009033203 114.159294128418 186.6391296386719 114.159294128418 186.9960174560547 L 114.159294128418 236.7973785400391 C 114.159294128418 237.5395812988281 113.5554809570312 238.1434020996094 112.8132781982422 238.1434020996094 Z"></path><path class="e" d="M 112.8132781982422 237.7933959960938 C 113.3630905151367 237.7933959960938 113.8092956542969 237.3471984863281 113.8092956542969 236.7973785400391 L 113.8092956542969 186.9960174560547 C 113.8092956542969 186.7330627441406 113.7035293579102 186.4760894775391 113.5164642333984 186.2928314208984 C 113.3312072753906 186.1055755615234 113.0760269165039 186 112.8132781982422 186 L 66.99602508544922 186 C 66.44622039794922 186 66 186.4462127685547 66 186.9960174560547 C 66 187.5458221435547 66.44622039794922 187.9920501708984 66.99602508544922 187.9920501708984 L 111.8172454833984 187.9920501708984 L 111.8172454833984 236.7973785400391 C 111.8172454833984 237.3471984863281 112.2634658813477 237.7933959960938 112.8132781982422 237.7933959960938 M 112.8132781982422 238.4933929443359 C 111.8780899047852 238.4933929443359 111.1172485351562 237.7325744628906 111.1172485351562 236.7973785400391 L 111.1172485351562 188.6920471191406 L 66.99602508544922 188.6920471191406 C 66.06083679199219 188.6920471191406 65.29999542236328 187.9312133789062 65.29999542236328 186.9960174560547 C 65.29999542236328 186.0608215332031 66.06083679199219 185.3000030517578 66.99602508544922 185.3000030517578 L 112.8132781982422 185.3000030517578 C 113.2596588134766 185.3000030517578 113.6953964233398 185.4807891845703 114.0097732543945 185.7961730957031 C 114.3272857666016 186.1091003417969 114.5093002319336 186.5461273193359 114.5093002319336 186.9960174560547 L 114.5093002319336 236.7973785400391 C 114.5093002319336 237.7325744628906 113.7484664916992 238.4933929443359 112.8132781982422 238.4933929443359 Z"></path></g></g><g transform="translate(5.977 11.952)"><g class="a" transform="translate(-66 -96)"><path class="d" d="M 130.7417602539062 166.0718994140625 C 129.9995574951172 166.0718994140625 129.3957214355469 165.4680786132812 129.3957214355469 164.7258758544922 L 129.3957214355469 144.8053283691406 C 129.3957214355469 144.0631256103516 129.9995574951172 143.4592895507812 130.7417602539062 143.4592895507812 C 131.4839630126953 143.4592895507812 132.0877990722656 144.0631256103516 132.0877990722656 144.8053283691406 L 132.0877990722656 164.7258758544922 C 132.0877990722656 165.4680786132812 131.4839630126953 166.0718994140625 130.7417602539062 166.0718994140625 Z M 130.7417602539062 140.1752014160156 C 129.9995574951172 140.1752014160156 129.3957214355469 139.5713653564453 129.3957214355469 138.8291625976562 C 129.3957214355469 138.0869598388672 129.9995574951172 137.4831390380859 130.7417602539062 137.4831390380859 C 131.4839630126953 137.4831390380859 132.0877990722656 138.0869598388672 132.0877990722656 138.8291625976562 C 132.0877990722656 139.5713653564453 131.4839630126953 140.1752014160156 130.7417602539062 140.1752014160156 Z M 130.7417602539062 134.1990203857422 C 129.9995574951172 134.1990203857422 129.3957214355469 133.5951995849609 129.3957214355469 132.8530120849609 L 129.3957214355469 98.34205627441406 L 66.99801635742188 98.34205627441406 C 66.25382995605469 98.34205627441406 65.64999389648438 97.73823547363281 65.64999389648438 96.99604034423828 C 65.64999389648438 96.25382995605469 66.25382995605469 95.64999389648438 66.99602508544922 95.64999389648438 L 130.7417602539062 95.64999389648438 C 131.0945281982422 95.64999389648438 131.4412689208984 95.79288482666016 131.693115234375 96.04201507568359 C 131.9449157714844 96.29653930664062 132.0877990722656 96.64328765869141 132.0877990722656 96.99604034423828 L 132.0877990722656 132.8530120849609 C 132.0877990722656 133.5951995849609 131.4839630126953 134.1990203857422 130.7417602539062 134.1990203857422 Z"></path><path class="e" d="M 130.7417602539062 165.7218933105469 C 131.2915649414062 165.7218933105469 131.73779296875 165.2756958007812 131.73779296875 164.7258758544922 L 131.73779296875 144.8053283691406 C 131.73779296875 144.2555236816406 131.2915649414062 143.8092956542969 130.7417602539062 143.8092956542969 C 130.1919555664062 143.8092956542969 129.7457275390625 144.2555236816406 129.7457275390625 144.8053283691406 L 129.7457275390625 164.7258758544922 C 129.7457275390625 165.2756958007812 130.1919555664062 165.7218933105469 130.7417602539062 165.7218933105469 M 130.7417602539062 139.8251953125 C 131.2915649414062 139.8251953125 131.73779296875 139.3789825439453 131.73779296875 138.8291625976562 C 131.73779296875 138.2793579101562 131.2915649414062 137.8331451416016 130.7417602539062 137.8331451416016 C 130.1919555664062 137.8331451416016 129.7457275390625 138.2793579101562 129.7457275390625 138.8291625976562 C 129.7457275390625 139.3789825439453 130.1919555664062 139.8251953125 130.7417602539062 139.8251953125 M 130.7417602539062 133.8490295410156 C 131.2915649414062 133.8490295410156 131.73779296875 133.4028167724609 131.73779296875 132.8530120849609 L 131.73779296875 96.99604034423828 C 131.73779296875 96.73307800292969 131.6322021484375 96.47809600830078 131.4469604492188 96.29084014892578 C 131.2597045898438 96.10558319091797 131.0045166015625 96 130.7417602539062 96 L 66.99602508544922 96 C 66.44622802734375 96 66 96.44622039794922 66 96.99604034423828 C 66 97.54583740234375 66.44622802734375 97.99205780029297 66.99602508544922 97.99205780029297 L 66.99801635742188 97.99205780029297 L 129.7457275390625 97.99205780029297 L 129.7457275390625 132.8530120849609 C 129.7457275390625 133.4028167724609 130.1919555664062 133.8490295410156 130.7417602539062 133.8490295410156 M 130.7417602539062 166.4218902587891 C 129.8065643310547 166.4218902587891 129.0457305908203 165.6610717773438 129.0457305908203 164.7258758544922 L 129.0457305908203 144.8053283691406 C 129.0457305908203 143.8701324462891 129.8065643310547 143.1092987060547 130.7417602539062 143.1092987060547 C 131.6769561767578 143.1092987060547 132.4377899169922 143.8701324462891 132.4377899169922 144.8053283691406 L 132.4377899169922 164.7258758544922 C 132.4377899169922 165.6610717773438 131.6769561767578 166.4218902587891 130.7417602539062 166.4218902587891 Z M 130.7417602539062 140.5251922607422 C 129.8065643310547 140.5251922607422 129.0457305908203 139.7643585205078 129.0457305908203 138.8291625976562 C 129.0457305908203 137.8939819335938 129.8065643310547 137.1331481933594 130.7417602539062 137.1331481933594 C 131.6769561767578 137.1331481933594 132.4377899169922 137.8939819335938 132.4377899169922 138.8291625976562 C 132.4377899169922 139.7643585205078 131.6769561767578 140.5251922607422 130.7417602539062 140.5251922607422 Z M 130.7417602539062 134.5490264892578 C 129.8065643310547 134.5490264892578 129.0457305908203 133.7881927490234 129.0457305908203 132.8530120849609 L 129.0457305908203 98.69205474853516 L 66.99801635742188 98.69205474853516 C 66.06083679199219 98.69205474853516 65.29999542236328 97.93122863769531 65.29999542236328 96.99604034423828 C 65.29999542236328 96.06083679199219 66.06083679199219 95.29999542236328 66.99602508544922 95.29999542236328 L 130.7417602539062 95.29999542236328 C 131.1859588623047 95.29999542236328 131.6224212646484 95.47976684570312 131.9392700195312 95.79319763183594 L 131.9419555664062 95.79586029052734 L 131.9446105957031 95.79855346679688 C 132.2580413818359 96.11539459228516 132.4377899169922 96.55185699462891 132.4377899169922 96.99604034423828 L 132.4377899169922 132.8530120849609 C 132.4377899169922 133.7881927490234 131.6769561767578 134.5490264892578 130.7417602539062 134.5490264892578 Z"></path></g></g><g transform="translate(5.977 0)"><g class="a" transform="translate(-66.001 -36)"><path class="d" d="M 72.97091674804688 42.32616424560547 C 72.70476531982422 42.32616424560547 72.44722747802734 42.24778366088867 72.22615051269531 42.09950256347656 L 66.25080108642578 38.11594390869141 C 65.95158386230469 37.91689300537109 65.74775695800781 37.61274337768555 65.67714691162109 37.25970458984375 C 65.60659790039062 36.90696334838867 65.67758941650391 36.54831314086914 65.87702941894531 36.24979400634766 C 66.12631988525391 35.87451171875 66.54509735107422 35.65000152587891 66.99674987792969 35.65000152587891 C 67.26420593261719 35.65000152587891 67.52243041992188 35.7283821105957 67.74350738525391 35.87666320800781 L 73.71884918212891 39.86022186279297 C 74.01869964599609 40.06012344360352 74.22235870361328 40.36432266235352 74.29232025146484 40.71677398681641 C 74.36235046386719 41.06963348388672 74.29149627685547 41.42807388305664 74.09280395507812 41.72608184814453 C 73.84333038330078 42.10165405273438 73.42380523681641 42.32616424560547 72.97091674804688 42.32616424560547 Z"></path><path class="e" d="M 72.97091674804688 41.97616195678711 C 73.30558013916016 41.97616195678711 73.61634063720703 41.81082153320312 73.80159759521484 41.53193283081055 C 73.94902038574219 41.31081390380859 74.00080871582031 41.04587173461914 73.94902038574219 40.784912109375 C 73.897216796875 40.52395248413086 73.74581909179688 40.29885101318359 73.52470397949219 40.15144348144531 L 67.54853820800781 36.16733169555664 C 67.38520050048828 36.05777359008789 67.19395446777344 36.00000381469727 66.99674987792969 36.00000381469727 C 66.66407012939453 36.00000381469727 66.35330963134766 36.16534423828125 66.16804504394531 36.44423294067383 C 65.86326599121094 36.90041351318359 65.98677062988281 37.51993179321289 66.4449462890625 37.82472229003906 L 72.42110443115234 41.80883407592773 C 72.58445739746094 41.91839218139648 72.77568817138672 41.97616195678711 72.97091674804688 41.97616195678711 M 72.97091674804688 42.67616271972656 C 72.63508605957031 42.67616271972656 72.31013488769531 42.57727432250977 72.03119659423828 42.39018249511719 L 66.05665588378906 38.40716171264648 C 65.67978668212891 38.15645217895508 65.42292022705078 37.7731819152832 65.33394622802734 37.32834243774414 C 65.24504089355469 36.88380432128906 65.33454895019531 36.43172454833984 65.58599853515625 36.05536270141602 C 65.89981079101562 35.58296203613281 66.42756652832031 35.30000305175781 66.99674987792969 35.30000305175781 C 67.33388519287109 35.30000305175781 67.65953063964844 35.39889144897461 67.93846893310547 35.58599472045898 L 73.91299438476562 39.56900405883789 C 74.29078674316406 39.82087326049805 74.54741668701172 40.20429229736328 74.6356201171875 40.64862442016602 C 74.72381591796875 41.09300231933594 74.63446044921875 41.54460144042969 74.38402557373047 41.92023468017578 C 74.06983947753906 42.39320373535156 73.54133605957031 42.67616271972656 72.97091674804688 42.67616271972656 Z"></path></g></g><g transform="translate(81.674 79.682)"><g class="a" transform="translate(-445.997 -436)"><path class="d" d="M 446.9933471679688 444.3182067871094 L 446.9913635253906 444.3182067871094 C 446.725341796875 444.3182067871094 446.4677734375 444.2398681640625 446.2465515136719 444.0916442871094 C 445.9481811523438 443.89453125 445.7441101074219 443.5899658203125 445.6737060546875 443.2353515625 C 445.6018371582031 442.8864440917969 445.6725158691406 442.527099609375 445.8732604980469 442.2260131835938 L 449.8573303222656 436.2498779296875 C 450.1069641113281 435.8743896484375 450.5257263183594 435.6499938964844 450.9772644042969 435.6499938964844 C 451.2447509765625 435.6499938964844 451.5029602050781 435.7283935546875 451.7240295410156 435.8766784667969 C 452.0223693847656 436.0751037597656 452.2261962890625 436.3792419433594 452.296875 436.7322387695312 C 452.3674621582031 437.0849609375 452.2965698242188 437.4436340332031 452.0972290039062 437.7421569824219 L 448.1132507324219 443.7181396484375 C 447.8634948730469 444.09375 447.4447631835938 444.3182067871094 446.9933471679688 444.3182067871094 Z"></path><path class="e" d="M 446.9933471679688 443.9682006835938 C 447.3260192871094 443.9682006835938 447.6365966796875 443.8028564453125 447.822021484375 443.5239868164062 L 451.80615234375 437.5478210449219 C 452.1107482910156 437.0916442871094 451.9872436523438 436.4721069335938 451.529052734375 436.1673278808594 C 451.36572265625 436.0577697753906 451.1744689941406 436 450.9772644042969 436 C 450.6445922851562 436 450.3338317871094 436.1653442382812 450.1485595703125 436.4440307617188 L 446.1644592285156 442.420166015625 C 446.0170288085938 442.6412963867188 445.9632568359375 442.90625 446.0170288085938 443.1672058105469 C 446.06884765625 443.4283447265625 446.21826171875 443.6534729003906 446.4413452148438 443.8008728027344 C 446.6048889160156 443.9104309082031 446.796142578125 443.9682006835938 446.9913635253906 443.9682006835938 L 446.9933471679688 443.9682006835938 M 446.9933471679688 444.668212890625 L 446.9913635253906 444.668212890625 C 446.6557312011719 444.668212890625 446.330810546875 444.5693664550781 446.0517578125 444.3824157714844 C 445.6776428222656 444.1352844238281 445.4205322265625 443.7526245117188 445.3311462402344 443.3070983886719 C 445.2402038574219 442.8638305664062 445.3292846679688 442.4109802246094 445.58203125 442.0318603515625 L 449.5661315917969 436.0557250976562 C 449.8805236816406 435.5827941894531 450.4082336425781 435.2999877929688 450.9772644042969 435.2999877929688 C 451.3144226074219 435.2999877929688 451.6400756835938 435.3988952636719 451.9190063476562 435.5859985351562 C 452.2941589355469 435.8355407714844 452.551025390625 436.21875 452.6400451660156 436.6635437011719 C 452.7290344238281 437.1080627441406 452.6396179199219 437.5601501464844 452.3883056640625 437.9365234375 L 448.4044494628906 443.9122924804688 C 448.0899047851562 444.3853454589844 447.5622253417969 444.668212890625 446.9933471679688 444.668212890625 Z"></path></g></g><g class="b" transform="translate(41.002 39)"><rect class="d" width="4" height="4"></rect><rect class="c" x="-0.35" y="-0.35" width="4.7" height="4.7"></rect></g><g class="b" transform="translate(23.002 57)"><rect class="d" width="4" height="4"></rect><rect class="c" x="-0.35" y="-0.35" width="4.7" height="4.7"></rect></g><g class="b" transform="translate(59.002 21)"><rect class="d" width="4" height="4"></rect><rect class="c" x="-0.35" y="-0.35" width="4.7" height="4.7"></rect></g></g></g><rect class="c" width="170" height="135" transform="translate(1000 1167)"></rect></g></svg>