<svg xmlns="http://www.w3.org/2000/svg" width="115" height="100" viewBox="0 0 115 100"><defs><style>.a{fill:#ce1010;stroke:#ce1010;stroke-width:0.5px;}.b{fill:none;}</style></defs><g transform="translate(-982 -1939)"><g transform="translate(240 3.266)"><path class="a" d="M352.319,149.9a.7.7,0,0,0-.7.7v1.557h-8.213v-8.213h8.213v.516a.7.7,0,1,0,1.4,0v-1.216a.7.7,0,0,0-.7-.7h-9.613a.7.7,0,0,0-.7.7v9.613a.7.7,0,0,0,.7.7h9.613a.7.7,0,0,0,.7-.7V150.6A.7.7,0,0,0,352.319,149.9Z" transform="translate(435.59 1839.675)"></path><path class="a" d="M384.988,164.993l-5.3,3.988-.995-1.835a.7.7,0,0,0-1.231.668l1.382,2.549a.7.7,0,0,0,1.037.226l5.948-4.477a.7.7,0,0,0-.842-1.119Z" transform="translate(404.345 1819.969)"></path><path class="a" d="M128.673,17.252V15.38a5.38,5.38,0,1,0-10.76,0v1.872a5.38,5.38,0,1,0,10.76,0Zm-9.36,0V15.38a3.98,3.98,0,0,1,7.959,0v1.872a3.98,3.98,0,0,1-7.959,0Z" transform="translate(633.531 1956.75)"></path><path class="a" d="M79.458,125.477c-.131-.013-1.572-.023-4.284-.028h0a.7.7,0,0,0-.607.352l-2.414,4.208-2.286-4.195a.7.7,0,0,0-.615-.365H65.375a5.563,5.563,0,0,0-5.563,5.562c0,.163.023,11.49.025,11.97a3.286,3.286,0,0,0,3.282,3.281h.037a3.212,3.212,0,0,0,1.909-.658l.644,21.8c0,.016,0,.032,0,.048a2.146,2.146,0,0,0,2.143,1.942h8.635a2.145,2.145,0,0,0,2.143-1.948c0-.016,0-.032,0-.048l.6-21.753a3.283,3.283,0,0,0,5.2-2.666V131.536A5.563,5.563,0,0,0,79.458,125.477Zm3.58,5.954a.684.684,0,0,0,0,.07v11.478a1.884,1.884,0,1,1-3.767.067v-.079a.7.7,0,0,0-.7-.689h-.006a.7.7,0,0,0-.695.7c0,.034,0,.069,0,.1l.014.83-.646,23.42a.75.75,0,0,1-.747.661H67.855a.75.75,0,0,1-.747-.659l-.693-23.428L66.4,142.9a.7.7,0,0,0-.7-.69h-.005a.7.7,0,0,0-.695.7,1.924,1.924,0,0,1-1.852,1.953h-.029a1.884,1.884,0,0,1-1.881-1.882c0-.118-.025-11.808-.025-11.969a4.162,4.162,0,0,1,4.162-4.162h3.461l2.686,4.929a.7.7,0,0,0,1.222.013l2.835-4.941c1.482,0,3.521.012,3.752.022a4.166,4.166,0,0,1,3.708,4.559Z" transform="translate(684.852 1854.774)"></path><path class="a" d="M352.319,12.616a.7.7,0,0,0,.7-.7V10.7a.7.7,0,0,0-.7-.7h-9.613a.7.7,0,0,0-.7.7v9.613a.7.7,0,0,0,.7.7h9.613a.7.7,0,0,0,.7-.7V18.056a.7.7,0,1,0-1.4,0v1.557h-8.213V11.4h8.213v.516A.7.7,0,0,0,352.319,12.616Z" transform="translate(435.59 1956.75)"></path><path class="a" d="M384.988,32.447l-5.3,3.988L378.7,34.6a.7.7,0,0,0-1.231.668l1.382,2.549a.7.7,0,0,0,1.037.226l5.948-4.478a.7.7,0,0,0-.842-1.119Z" transform="translate(404.345 1937.048)"></path><path class="a" d="M352.319,275.086h-9.613a.7.7,0,0,0-.7.7V285.4a.7.7,0,0,0,.7.7h9.613a.7.7,0,0,0,.7-.7v-9.613A.7.7,0,0,0,352.319,275.086Zm-.7,9.613h-8.213v-8.213h8.213Z" transform="translate(435.59 1722.6)"></path><path class="a" d="M352.319,407.629h-9.613a.7.7,0,0,0-.7.7v9.613a.7.7,0,0,0,.7.7h9.613a.7.7,0,0,0,.7-.7v-9.613A.7.7,0,0,0,352.319,407.629Zm-.7,9.613h-8.213v-8.213h8.213Z" transform="translate(435.59 1605.526)"></path></g><rect class="b" width="115" height="100" transform="translate(982 1939)"></rect></g></svg>