<svg xmlns="http://www.w3.org/2000/svg" width="170" height="135" viewBox="0 0 170 135"><defs><style>.a{fill:#1c43b9;}.b{fill:none;}</style></defs><g transform="translate(-1000 -1460)"><path class="a" d="M300.213,60.213V72.851a2.106,2.106,0,0,1-4.213,0V58.106A2.106,2.106,0,0,1,298.106,56h14.744a2.106,2.106,0,0,1,0,4.213Zm63.19,0H350.764a2.106,2.106,0,1,1,0-4.213h14.744a2.106,2.106,0,0,1,2.106,2.106V72.851a2.106,2.106,0,1,1-4.213,0Zm-63.19,63.19h12.638a2.106,2.106,0,0,1,0,4.213H298.106A2.106,2.106,0,0,1,296,125.509V110.765a2.106,2.106,0,0,1,4.213,0Zm63.19,0V110.765a2.106,2.106,0,1,1,4.213,0v14.744a2.106,2.106,0,0,1-2.106,2.106H350.764a2.106,2.106,0,1,1,0-4.213Zm-31.595-13.691a17.9,17.9,0,1,1,17.9-17.9A17.9,17.9,0,0,1,331.808,109.711Zm0-4.213a13.691,13.691,0,1,0-13.691-13.691A13.691,13.691,0,0,0,331.808,105.5Z" transform="translate(704 1446.588)"></path><rect class="b" width="170" height="135" transform="translate(1000 1460)"></rect></g></svg>