<svg xmlns="http://www.w3.org/2000/svg" width="170" height="135" viewBox="0 0 170 135"><defs><style>.a{fill:#1c43b9;stroke:#fff;stroke-width:1.2px;}.b{fill:none;}</style></defs><g transform="translate(-1000 -1755)"><g transform="translate(985 1786.081)"><path class="a" d="M69.913,67.106,59.575,59.715a1.491,1.491,0,0,0-.976-.343A2.723,2.723,0,0,0,56.506,60.6L47.8,72.629c-.761,1.054-.273,2.292.756,2.292a1.509,1.509,0,0,0,.41-.06L53.2,73.644l.063,24.291L64.9,94.567l-.061-24.294,4.228-1.22C70.364,68.679,70.746,67.8,69.913,67.106Z" transform="translate(-1.603 -3.017)"></path><g transform="translate(42.578 21.183)"><path class="a" d="M46.653,33.549a2.648,2.648,0,0,1-.71-5.2L67.2,22.416a2.647,2.647,0,1,1,1.424,5.1L47.367,33.45A2.62,2.62,0,0,1,46.653,33.549Z" transform="translate(-44.007 -22.317)"></path></g><g transform="translate(42.578 31.661)"><path class="a" d="M46.653,44.587a2.648,2.648,0,0,1-.71-5.2L67.2,33.454a2.647,2.647,0,1,1,1.424,5.1L47.367,44.488A2.62,2.62,0,0,1,46.653,44.587Z" transform="translate(-44.007 -33.356)"></path></g><g transform="translate(42.578 41.503)"><path class="a" d="M46.653,54.956a2.648,2.648,0,0,1-.71-5.2L67.2,43.823a2.647,2.647,0,1,1,1.424,5.1L47.367,54.857A2.657,2.657,0,0,1,46.653,54.956Z" transform="translate(-44.007 -43.725)"></path></g><path class="a" d="M74.43,6.4c-1.747.383-3.932.943-6.386,1.61V6.317c0-3.429-2.867-6.952-6.218-6.218C52.892,2.054,32.669,8.6,22.1,10.875c-3.352.72-6.219,3.546-6.219,6.976V75.7c0,3.429,2.825,6.7,6.219,6.219,1.9-.27,4.05-.709,6.386-1.272v1.355c0,3.429,2.824,6.7,6.218,6.219a112.27,112.27,0,0,0,14.654-3.521l-.013-5.329c-5.284,1.555-10.418,2.987-14.641,3.975-.722.17-1.344-.6-1.344-1.344V25.381a3.26,3.26,0,0,1,2.577-3.652C41.7,20.189,56.774,16.087,66.258,13.5l1.785-.486h0l6.386-1.741a1.345,1.345,0,0,1,1.344,1.344V70.475c0,.741-.631,1.142-1.344,1.344-2.464.7-5.524,1.626-8.905,2.659l.012,5.1c3.232-1.062,6.267-2.06,8.893-2.885,3.271-1.028,6.219-2.249,6.219-6.219V12.618C80.649,9.19,77.781,5.667,74.43,6.4ZM34.705,17.176c-3.352.721-6.218,3.547-6.218,6.976v51.27c-2.269.615-4.415,1.167-6.386,1.628-.722.169-1.344-.6-1.344-1.345V19.079a3.26,3.26,0,0,1,2.577-3.652C32.012,13.108,61.827,4.973,61.827,4.973a1.345,1.345,0,0,1,1.344,1.344V9.37C53.623,12.085,41.918,15.625,34.705,17.176Z" transform="translate(0 0)"></path></g><rect class="b" width="170" height="135" transform="translate(1000 1755)"></rect></g></svg>