<svg xmlns="http://www.w3.org/2000/svg" width="116.183" height="100" viewBox="0 0 116.183 100"><defs><style>.a{fill:#ce1010;stroke:#fff;stroke-width:1.7px;fill-rule:evenodd;}.b{fill:none;}</style></defs><g transform="translate(-757.817 -1441)"><g transform="translate(744 1464.821)"><path class="a" d="M53.948,25.324l3.552-3.1-3.01-3.453-3.557,3.1A23.151,23.151,0,0,1,53.948,25.324ZM37.571,18.086V13.371h4.581V6.5H28.41v6.871H32.99v4.715a20.614,20.614,0,1,0,4.581,0ZM35.281,54.6A16.033,16.033,0,1,1,51.314,38.565,16.032,16.032,0,0,1,35.281,54.6Zm2.29-27.485H32.99V40.855H44.442v-4.58H37.571Z" transform="translate(0 0)"></path></g><rect class="b" width="115" height="100" transform="translate(759 1441)"></rect></g></svg>