<svg xmlns="http://www.w3.org/2000/svg" xmlns:xlink="http://www.w3.org/1999/xlink" width="480" height="297" viewBox="0 0 480 297"><defs><style>.a{fill:#fff;stroke:#707070;}.b{clip-path:url(#a);}.c{fill:#d5d5d5;stroke:#2f51b5;stroke-width:1.5px;}</style><clipPath id="a"><rect class="a" width="480" height="297" transform="translate(1440 243)"></rect></clipPath></defs><g class="b" transform="translate(-1440 -243)"><g transform="translate(1403.961 225.215)"><rect class="c" width="7.861" height="2.139" transform="translate(178.425 113.114)"></rect><rect class="c" width="7.863" height="2.139" transform="translate(152.057 217.865)"></rect><rect class="c" width="7.863" height="2.139" transform="translate(291.214 160.407)"></rect><rect class="c" width="7.861" height="2.139" transform="translate(205.19 190.583)"></rect><rect class="c" width="7.863" height="2.139" transform="translate(97.831 318.013)"></rect><rect class="c" width="7.861" height="2.139" transform="translate(368.655 408.376)"></rect><rect class="c" width="7.861" height="2.139" transform="translate(313.677 465.115)"></rect><rect class="c" width="7.863" height="2.139" transform="translate(160.706 459.585)"></rect><rect class="c" width="7.863" height="2.139" transform="translate(282.875 213.834)"></rect><rect class="c" width="7.863" height="2.139" transform="translate(367.924 214.119)"></rect><rect class="c" width="7.861" height="2.139" transform="translate(161.888 283.52)"></rect><rect class="c" width="7.863" height="2.139" transform="translate(449.279 214.147)"></rect><rect class="c" width="7.863" height="2.139" transform="translate(323.238 152.313)"></rect><rect class="c" width="7.863" height="2.139" transform="translate(392.849 117.266)"></rect><rect class="c" width="7.863" height="2.139" transform="translate(271.783 108.355)"></rect><rect class="c" width="7.861" height="2.139" transform="translate(332.64 113.114)"></rect><rect class="c" width="7.863" height="2.139" transform="translate(292.503 38.858)"></rect><rect class="c" width="7.863" height="2.139" transform="translate(128.202 201.937)"></rect><rect class="c" width="7.863" height="2.139" transform="translate(500.845 216.818)"></rect><rect class="c" width="7.863" height="2.139" transform="translate(225.649 102.463)"></rect><rect class="c" width="7.863" height="2.139" transform="translate(51.244 352.537)"></rect><rect class="c" width="7.861" height="2.139" transform="translate(272.558 352.537)"></rect><rect class="c" width="7.863" height="2.139" transform="translate(360.944 349.694)"></rect><rect class="c" width="7.863" height="2.139" transform="translate(308.205 235.352)"></rect><rect class="c" width="7.863" height="2.139" transform="translate(308.205 263.94)"></rect><rect class="c" width="7.863" height="2.139" transform="translate(168.003 263.94)"></rect><rect class="c" width="7.863" height="2.139" transform="translate(249.018 505.401)"></rect><path class="c" d="M121.116,93.377l-9.061,9.061,9.061,9.059,9.062-9.059Zm-6.037,9.061,6.037-6.037,6.037,6.037-6.037,6.035Z" transform="translate(86.077 64.612)"></path><path class="c" d="M106.234,60.212,97.172,51.15l-9.059,9.062,9.059,9.062Zm-9.062-6.037,6.037,6.037-6.037,6.037-6.035-6.037Z" transform="translate(58.815 16.53)"></path><path class="c" d="M128.44,149.444l9.062,9.062,9.061-9.062-9.061-9.059Zm9.062,6.037-6.037-6.037,6.037-6.035,6.035,6.035Z" transform="translate(104.734 118.138)"></path><path class="c" d="M81.812,157.4l-9.064-9.061L63.689,157.4l9.059,9.062Zm-9.064-6.037,6.037,6.037-6.037,6.038L66.713,157.4Z" transform="translate(31.005 127.192)"></path><path class="c" d="M86.853,126.361,77.792,117.3l-9.061,9.062,9.061,9.059Zm-9.062-6.037,6.037,6.037L77.792,132.4l-6.037-6.035Z" transform="translate(36.745 91.851)"></path><path class="c" d="M197.326,251.668l9.061,9.059,9.059-9.059-9.059-9.059Zm9.061,6.035-6.037-6.035,6.037-6.035,6.035,6.035Z" transform="translate(183.172 234.537)"></path><path class="c" d="M59.913,118.225l-9.059-9.062-9.062,9.062,9.062,9.062Zm-9.059-6.037,6.035,6.037-6.035,6.037-6.037-6.037Z" transform="translate(6.071 82.587)"></path><path class="c" d="M63.8,97.68l6.97-3.666,6.972,3.666-1.332-7.763,5.642-5.5-7.8-1.133-3.486-7.064L67.28,83.285l-7.793,1.133,5.638,5.5Zm.284-11.769,4.62-.672,2.066-4.185,2.066,4.185,4.62.672-3.343,3.257.789,4.6L70.766,91.6l-4.13,2.171.787-4.6Z" transform="translate(26.22 45.077)"></path><path class="c" d="M193.076,201.9l-2.573-5.214L187.93,201.9l-5.753.834,4.162,4.059-.982,5.729,5.146-2.705,5.146,2.705-.984-5.729,4.166-4.059Zm-.267,6.713-2.305-1.208-2.305,1.208.441-2.566-1.865-1.818,2.577-.374,1.153-2.335,1.153,2.335,2.577.374-1.865,1.818Z" transform="translate(165.922 182.247)"></path><path class="c" d="M140.2,236.984l4.162-4.059-5.751-.836-2.573-5.214-2.573,5.214-5.755.836,4.166,4.059-.984,5.729,5.146-2.707,5.146,2.707Zm-1.856,1.818-2.305-1.21-2.305,1.21.441-2.566-1.867-1.818,2.579-.374,1.153-2.335,1.153,2.335,2.577.374-1.865,1.818Z" transform="translate(103.907 216.621)"></path><path class="c" d="M195.895,233.968l-2.573-5.216-2.573,5.216L185,234.8l4.162,4.057-.982,5.729,5.146-2.705,5.143,2.705-.982-5.729,4.164-4.057Zm-.269,6.713-2.3-1.21-2.305,1.21.438-2.569L189.59,236.3l2.579-.374,1.153-2.338,1.153,2.338,2.577.374-1.865,1.816Z" transform="translate(169.132 218.759)"></path><path class="c" d="M100.581,210.713,98.008,205.5l-2.573,5.214-5.753.836,4.162,4.059-.984,5.729,5.148-2.708,5.146,2.708-.984-5.729,4.164-4.059Zm-.267,6.713-2.305-1.21-2.305,1.21.441-2.566-1.865-1.818,2.577-.374,1.153-2.335,1.153,2.335,2.579.374-1.867,1.818Z" transform="translate(60.602 192.281)"></path><path class="c" d="M187.711,63.049l6.972-3.666,6.972,3.666-1.332-7.763,5.642-5.5-7.8-1.133-3.486-7.064L191.2,48.656,183.4,49.789l5.638,5.5ZM188,51.282l4.62-.672,2.066-4.185,2.066,4.185,4.62.672-3.343,3.259.789,4.6-4.132-2.171-4.13,2.171.787-4.6Z" transform="translate(167.32 5.647)"></path><path class="c" d="M73.6,185.269h2.139v-2.863H78.6v-2.139H75.739v-2.861H73.6v2.861H70.739v2.139H73.6Z" transform="translate(39.032 160.292)"></path><path class="c" d="M77.606,193.721a9.448,9.448,0,1,0-9.446-9.449A9.458,9.458,0,0,0,77.606,193.721Zm0-16.756a7.309,7.309,0,1,1-7.308,7.308A7.32,7.32,0,0,1,77.606,176.965Z" transform="translate(36.096 157.355)"></path><path class="c" d="M126.889,245.347h2.139v-2.863h2.861v-2.139h-2.861v-2.861h-2.139v2.861h-2.861v2.139h2.861Z" transform="translate(99.71 228.701)"></path><path class="c" d="M130.9,253.8a9.446,9.446,0,1,0-9.446-9.446A9.457,9.457,0,0,0,130.9,253.8Zm0-16.754a7.308,7.308,0,1,1-7.308,7.308A7.318,7.318,0,0,1,130.9,237.044Z" transform="translate(96.774 225.765)"></path><path class="c" d="M235.766,216.045h-2.139v2.863h-2.863v2.139h2.863v2.861h2.139v-2.861h2.861v-2.139h-2.861Z" transform="translate(221.247 204.29)"></path><path class="c" d="M237.634,213.466a9.447,9.447,0,1,0,9.446,9.449A9.458,9.458,0,0,0,237.634,213.466Zm0,16.756a7.309,7.309,0,1,1,7.308-7.308A7.317,7.317,0,0,1,237.634,230.222Z" transform="translate(218.31 201.353)"></path><path class="c" d="M69.006,217.3H66.868v2.861H64.006V222.3h2.861v2.863h2.139V222.3H71.87V220.16H69.006Z" transform="translate(31.366 205.718)"></path><path class="c" d="M70.873,214.72a9.448,9.448,0,1,0,9.449,9.446A9.457,9.457,0,0,0,70.873,214.72Zm0,16.756a7.309,7.309,0,1,1,7.31-7.31A7.317,7.317,0,0,1,70.873,231.476Z" transform="translate(28.429 202.781)"></path><path class="c" d="M219.43,192.543h2.139V189.68h2.863v-2.139h-2.863V184.68H219.43v2.861h-2.861v2.139h2.861Z" transform="translate(205.083 168.575)"></path><path class="c" d="M223.437,201a9.448,9.448,0,1,0-9.447-9.449A9.46,9.46,0,0,0,223.437,201Zm0-16.756a7.309,7.309,0,1,1-7.308,7.308A7.318,7.318,0,0,1,223.437,184.24Z" transform="translate(202.147 165.639)"></path><path class="c" d="M256.761,181.167h-2.139v2.861h-2.863v2.139h2.863v2.863h2.139v-2.863h2.861v-2.139h-2.861Z" transform="translate(245.153 164.576)"></path><path class="c" d="M258.629,178.588a9.446,9.446,0,1,0,9.446,9.446A9.459,9.459,0,0,0,258.629,178.588Zm0,16.754a7.308,7.308,0,1,1,7.308-7.308A7.317,7.317,0,0,1,258.629,195.342Z" transform="translate(242.216 161.639)"></path><path class="c" d="M103.865,89.253H106V86.391h2.861V84.252H106V81.39h-2.139v2.862H101v2.139h2.863Z" transform="translate(73.491 50.963)"></path><path class="c" d="M107.871,97.706a9.448,9.448,0,1,0-9.449-9.449A9.458,9.458,0,0,0,107.871,97.706Zm0-16.756a7.309,7.309,0,1,1-7.31,7.308A7.316,7.316,0,0,1,107.871,80.95Z" transform="translate(70.554 48.026)"></path><path class="c" d="M170.3,161.207h2.139v-2.862H175.3v-2.139h-2.861v-2.862H170.3v2.862H167.44v2.139H170.3Z" transform="translate(149.142 132.894)"></path><path class="c" d="M174.31,169.659a9.448,9.448,0,1,0-9.449-9.446A9.459,9.459,0,0,0,174.31,169.659Zm0-16.756a7.309,7.309,0,1,1-7.31,7.31A7.318,7.318,0,0,1,174.31,152.9Z" transform="translate(146.205 129.957)"></path><path class="c" d="M114.394,178.176h-2.139v2.863h-2.861v2.139h2.861v2.861h2.139v-2.861h2.863v-2.139h-2.863Z" transform="translate(83.047 161.17)"></path><path class="c" d="M125.71,185.046a9.448,9.448,0,1,0-9.449,9.446A9.458,9.458,0,0,0,125.71,185.046Zm-9.449,7.308a7.309,7.309,0,1,1,7.31-7.308A7.316,7.316,0,0,1,116.261,192.353Z" transform="translate(80.111 158.233)"></path><path class="c" d="M189.156,119.059h2.139V116.2h2.863v-2.139h-2.863V111.2h-2.139v2.862h-2.861V116.2h2.861Z" transform="translate(170.611 84.903)"></path><path class="c" d="M193.161,127.512a9.448,9.448,0,1,0-9.446-9.446A9.456,9.456,0,0,0,193.161,127.512Zm0-16.756a7.309,7.309,0,1,1-7.308,7.31A7.319,7.319,0,0,1,193.161,110.756Z" transform="translate(167.674 81.965)"></path><rect class="c" width="2.139" height="1.976" transform="translate(393.711 150.937)"></rect><rect class="c" width="2.139" height="1.976" transform="translate(402.166 150.937)"></rect><rect class="c" width="1.976" height="2.139" transform="translate(398.02 146.628)"></rect><rect class="c" width="1.976" height="2.139" transform="translate(398.02 155.081)"></rect><rect class="c" width="2.139" height="1.976" transform="translate(370.786 186.852)"></rect><rect class="c" width="2.139" height="1.976" transform="translate(379.24 186.852)"></rect><rect class="c" width="1.976" height="2.139" transform="translate(375.094 182.544)"></rect><rect class="c" width="1.976" height="2.139" transform="translate(375.094 190.997)"></rect><rect class="c" width="2.139" height="1.976" transform="translate(243.191 96.905)"></rect><rect class="c" width="2.139" height="1.976" transform="translate(251.643 96.905)"></rect><rect class="c" width="1.974" height="2.139" transform="translate(247.499 92.597)"></rect><rect class="c" width="1.974" height="2.139" transform="translate(247.499 101.051)"></rect><rect class="c" width="2.139" height="1.975" transform="translate(235.179 43.167)"></rect><rect class="c" width="2.139" height="1.975" transform="translate(243.631 43.167)"></rect><rect class="c" width="1.974" height="2.139" transform="translate(239.488 38.858)"></rect><rect class="c" width="1.974" height="2.139" transform="translate(239.488 47.312)"></rect><rect class="c" width="2.139" height="1.976" transform="translate(190.392 379.278)"></rect><rect class="c" width="2.139" height="1.976" transform="translate(198.847 379.278)"></rect><rect class="c" width="1.976" height="2.139" transform="translate(194.701 374.97)"></rect><rect class="c" width="1.976" height="2.139" transform="translate(194.701 383.424)"></rect><rect class="c" width="2.14" height="1.976" transform="translate(45.652 337.806)"></rect><rect class="c" width="2.139" height="1.976" transform="translate(54.105 337.806)"></rect><rect class="c" width="1.976" height="2.139" transform="translate(49.959 333.498)"></rect><rect class="c" width="1.976" height="2.139" transform="translate(49.959 341.952)"></rect><rect class="c" width="2.139" height="1.974" transform="translate(152.327 477.507)"></rect><rect class="c" width="2.139" height="1.974" transform="translate(160.779 477.507)"></rect><rect class="c" width="1.974" height="2.139" transform="translate(156.635 473.198)"></rect><rect class="c" width="1.974" height="2.139" transform="translate(156.635 481.65)"></rect><rect class="c" width="2.139" height="1.976" transform="translate(310.274 507.508)"></rect><rect class="c" width="2.139" height="1.976" transform="translate(318.727 507.508)"></rect><rect class="c" width="1.974" height="2.139" transform="translate(314.583 503.2)"></rect><rect class="c" width="1.974" height="2.139" transform="translate(314.583 511.654)"></rect><rect class="c" width="2.139" height="1.975" transform="translate(125.161 163.511)"></rect><rect class="c" width="2.139" height="1.975" transform="translate(133.613 163.511)"></rect><rect class="c" width="1.976" height="2.139" transform="translate(129.47 159.202)"></rect><rect class="c" width="1.976" height="2.139" transform="translate(129.47 167.655)"></rect><rect class="c" width="2.139" height="1.975" transform="translate(330.159 99.018)"></rect><rect class="c" width="2.139" height="1.975" transform="translate(338.612 99.018)"></rect><rect class="c" width="1.974" height="2.139" transform="translate(334.468 94.709)"></rect><rect class="c" width="1.974" height="2.139" transform="translate(334.468 103.162)"></rect><rect class="c" width="2.139" height="1.976" transform="translate(461.846 134.532)"></rect><rect class="c" width="2.139" height="1.976" transform="translate(470.298 134.532)"></rect><rect class="c" width="1.976" height="2.139" transform="translate(466.152 130.224)"></rect><rect class="c" width="1.976" height="2.139" transform="translate(466.152 138.677)"></rect><path class="c" d="M201.367,156.277h6.57v2.549h2.139v-2.549h6.185v2.549H218.4v-2.549h21.367v2.549h2.139v-2.549h6.183v2.549h2.139v-2.549h6.981V96.833H201.367Zm2.139-57.305h51.563v55.167H203.506Z" transform="translate(187.773 68.547)"></path><path class="c" d="M248.11,99.684H204.4v6.54h2.139v-4.4h39.432v43.2H206.54V140.58H204.4v6.584H248.11Z" transform="translate(191.228 71.794)"></path><path class="c" d="M212.194,103.332h-8.758v7.532h8.758Zm-2.139,5.394h-4.481v-3.255h4.481Z" transform="translate(190.129 75.948)"></path><path class="c" d="M212.194,114.714h-8.758v7.534h8.758Zm-2.139,5.4h-4.481v-3.257h4.481Z" transform="translate(190.129 88.908)"></path><path class="c" d="M225.175,113.147a4.248,4.248,0,1,0-4.247,4.25A4.252,4.252,0,0,0,225.175,113.147Zm-6.358,0a2.11,2.11,0,1,1,2.111,2.111A2.112,2.112,0,0,1,218.817,113.147Z" transform="translate(205.207 82.288)"></path><rect class="c" width="2.139" height="16.181" transform="translate(395.629 187.127)"></rect><path class="c" d="M146.049,206.176H102.34v6.539h2.139v-4.4h39.432v43.2H104.479v-4.444H102.34v6.583h43.709Z" transform="translate(75.015 193.052)"></path><path class="c" d="M110.133,209.824h-8.758v7.532h8.758Zm-2.139,5.394h-4.48v-3.255h4.48Z" transform="translate(73.916 197.206)"></path><path class="c" d="M110.133,221.206h-8.758v7.535h8.758Zm-2.139,5.4h-4.48v-3.257h4.48Z" transform="translate(73.916 210.166)"></path><path class="c" d="M123.113,219.639a4.247,4.247,0,1,0-4.247,4.247A4.25,4.25,0,0,0,123.113,219.639Zm-6.356,0a2.109,2.109,0,1,1,2.109,2.109A2.11,2.11,0,0,1,116.757,219.639Z" transform="translate(88.995 203.546)"></path><path class="c" d="M148.168,265.318v-2.551h6.978V203.325H99.306v59.442h6.57v2.551h2.139v-2.551H114.2v2.551h2.139v-2.551h21.365v2.551h2.139v-2.551h6.185v2.551Zm-8.324-4.69h-38.4V205.464h51.563v55.165H139.844Z" transform="translate(71.56 189.806)"></path><rect class="c" width="2.139" height="16.18" transform="translate(177.356 414.878)"></rect><path class="c" d="M253.511,153.608H209.8v6.54h2.139v-4.4h39.434v43.2H211.939V194.5H209.8v6.583h43.711Z" transform="translate(197.376 133.195)"></path><path class="c" d="M217.594,157.256h-8.758v7.532h8.758Zm-2.139,5.394h-4.48v-3.255h4.48Z" transform="translate(196.278 137.349)"></path><path class="c" d="M217.594,168.638h-8.758v7.532h8.758Zm-2.139,5.394h-4.48v-3.255h4.48Z" transform="translate(196.278 150.309)"></path><path class="c" d="M230.574,167.071a4.247,4.247,0,1,0-4.247,4.25A4.251,4.251,0,0,0,230.574,167.071Zm-6.356,0a2.109,2.109,0,1,1,2.109,2.111A2.11,2.11,0,0,1,224.218,167.071Z" transform="translate(211.357 143.689)"></path><path class="c" d="M255.629,212.748V210.2h6.979V150.757h-55.84V210.2h6.57v2.549h2.139V210.2h6.185v2.549H223.8V210.2h21.367v2.549h2.139V210.2h6.185v2.549Zm-8.324-4.688h-38.4V152.9h51.563V208.06H247.305Z" transform="translate(193.922 129.949)"></path><rect class="c" width="2.139" height="16.181" transform="translate(407.176 302.452)"></rect><path class="c" d="M105.323,128.578a15.732,15.732,0,1,0-15.734-15.732A15.75,15.75,0,0,0,105.323,128.578Zm0-29.325a13.593,13.593,0,1,1-13.6,13.593A13.608,13.608,0,0,1,105.323,99.253Z" transform="translate(60.496 68.867)"></path><path class="c" d="M97.714,117.862h.751v1.683H100.6v-1.683h.751a2.825,2.825,0,0,0,2.821-2.823V111.4a2.825,2.825,0,0,0-2.821-2.821h-3.64a.684.684,0,0,1-.682-.682v-3.64a.684.684,0,0,1,.682-.68h3.64a.684.684,0,0,1,.682.68v1.822h2.139v-1.822a2.823,2.823,0,0,0-2.821-2.819H100.6V99.921H98.465v1.518h-.751a2.823,2.823,0,0,0-2.821,2.819v3.64a2.825,2.825,0,0,0,2.821,2.821h3.64a.684.684,0,0,1,.682.682v3.638a.685.685,0,0,1-.682.684h-3.64a.685.685,0,0,1-.682-.684v-1.818H94.893v1.818A2.825,2.825,0,0,0,97.714,117.862Z" transform="translate(66.535 72.064)"></path><rect class="c" width="2.64" height="2.139" transform="translate(156.552 180.644)"></rect><rect class="c" width="2.64" height="2.139" transform="translate(172.444 180.644)"></rect><path class="c" d="M83.908,116.366a2.008,2.008,0,0,0-1.692,1.989v5.09a2.011,2.011,0,0,0,1.692,1.991l6.114.994a23.454,23.454,0,0,0,2.849,6.85l-3.627,5.037a2,2,0,0,0,.21,2.6l3.6,3.6a2,2,0,0,0,2.6.212L100.7,141.1a23.388,23.388,0,0,0,6.848,2.851l.995,6.1a2.029,2.029,0,0,0,2.008,1.707h6.358a2.01,2.01,0,0,0,1.991-1.692l1-6.112a23.412,23.412,0,0,0,6.848-2.851l5.024,3.617a2.026,2.026,0,0,0,2.628-.212l3.574-3.574a2.029,2.029,0,0,0,.216-2.631l-3.616-5.024a23.513,23.513,0,0,0,2.849-6.85l6.114-1a2.007,2.007,0,0,0,1.69-1.989v-5.09a2.008,2.008,0,0,0-1.692-1.989l-6.112-.994a23.526,23.526,0,0,0-2.849-6.852l3.625-5.037a2,2,0,0,0-.21-2.6l-3.6-3.6a1.991,1.991,0,0,0-2.6-.21l-5.041,3.627a23.463,23.463,0,0,0-6.848-2.849l-.994-6.1a2.032,2.032,0,0,0-2.01-1.707h-6.356a2.011,2.011,0,0,0-1.991,1.694l-1,6.112A23.439,23.439,0,0,0,100.7,100.7L95.67,97.079a2.03,2.03,0,0,0-2.628.212l-3.578,3.578a2.033,2.033,0,0,0-.212,2.626l3.619,5.024a23.466,23.466,0,0,0-2.849,6.852Zm8.046.16a21.38,21.38,0,0,1,3.1-7.455l.4-.616-4.48-6.076,3.443-3.563,6.211,4.47.614-.406a21.34,21.34,0,0,1,7.453-3.1l.723-.148,1.11-7.453,6.256-.086,1.228,7.539.721.148a21.334,21.334,0,0,1,7.455,3.1l.614.406,6.063-4.5,3.589,3.441-4.478,6.223.4.616a21.424,21.424,0,0,1,3.1,7.455l.148.719,7.449,1.11.1,4.968-7.554,1.232-.148.721a21.413,21.413,0,0,1-3.1,7.453l-.4.616,4.478,6.076-3.443,3.565-6.209-4.47-.614.4a21.381,21.381,0,0,1-7.455,3.1l-.721.148-1.11,7.451-6.258.086-1.225-7.537-.723-.148a21.387,21.387,0,0,1-7.453-3.1l-.614-.4-6.063,4.493-3.589-3.441,4.478-6.223-.4-.616a21.409,21.409,0,0,1-3.1-7.453l-.148-.721-7.451-1.11-.1-4.968,7.556-1.232Z" transform="translate(52.101 60.814)"></path><path class="c" d="M219.712,217.713a18.048,18.048,0,1,0,18.046,18.048A18.068,18.068,0,0,0,219.712,217.713Zm0,33.958a15.91,15.91,0,1,1,15.907-15.91A15.926,15.926,0,0,1,219.712,251.671Z" transform="translate(188.111 206.189)"></path><path class="c" d="M215.115,222.809h-1.037v-1.925h-2.139v1.925H210.9a3.1,3.1,0,0,0-3.1,3.1v4.211a3.1,3.1,0,0,0,3.1,3.1h4.213a.959.959,0,0,1,.958.958v4.215a.959.959,0,0,1-.958.958H210.9a.959.959,0,0,1-.958-.958v-2.109h-2.139v2.109a3.1,3.1,0,0,0,3.1,3.1h1.037v2.117h2.139V241.49h1.037a3.1,3.1,0,0,0,3.1-3.1v-4.215a3.1,3.1,0,0,0-3.1-3.1H210.9a.961.961,0,0,1-.958-.96V225.91a.962.962,0,0,1,.958-.962h4.213a.962.962,0,0,1,.958.962v2.1h2.139v-2.1A3.1,3.1,0,0,0,215.115,222.809Z" transform="translate(195.104 209.8)"></path><rect class="c" width="2.719" height="2.139" transform="translate(397.262 440.88)"></rect><rect class="c" width="2.719" height="2.139" transform="translate(415.664 440.88)"></rect><path class="c" d="M263.922,240l-7.19-1.172a26.954,26.954,0,0,0-3.364-8.086l4.267-5.928a2.148,2.148,0,0,0-.227-2.791l-4.168-4.168a2.159,2.159,0,0,0-2.793-.229l-5.926,4.267a26.889,26.889,0,0,0-8.091-3.362l-1.166-7.171a2.178,2.178,0,0,0-2.16-1.837h-7.361a2.161,2.161,0,0,0-2.139,1.818l-1.17,7.19a26.9,26.9,0,0,0-8.088,3.362l-5.907-4.254a2.192,2.192,0,0,0-2.827.229l-4.138,4.14a2.179,2.179,0,0,0-.231,2.825l4.256,5.909a26.953,26.953,0,0,0-3.364,8.086L194.94,240a2.159,2.159,0,0,0-1.814,2.137v5.894a2.158,2.158,0,0,0,1.818,2.137l7.19,1.17a26.964,26.964,0,0,0,3.364,8.088l-4.267,5.926a2.151,2.151,0,0,0,.227,2.793l4.17,4.17a2.153,2.153,0,0,0,2.791.225l5.926-4.267a26.976,26.976,0,0,0,8.09,3.364l1.166,7.171a2.179,2.179,0,0,0,2.16,1.837h7.361a2.162,2.162,0,0,0,2.139-1.82l1.17-7.188a26.988,26.988,0,0,0,8.088-3.364l5.907,4.256a2.182,2.182,0,0,0,2.827-.231l4.138-4.138a2.187,2.187,0,0,0,.231-2.827l-4.256-5.907a26.965,26.965,0,0,0,3.364-8.088l7.194-1.17a2.159,2.159,0,0,0,1.814-2.137v-5.894A2.159,2.159,0,0,0,263.922,240Zm-.342,8.056-8.634,1.407-.152.721a24.866,24.866,0,0,1-3.61,8.689l-.4.614,5.1,7.16-4.2,4.143-7.094-5.1-.614.4a24.833,24.833,0,0,1-8.691,3.61l-.721.152-1.433,8.655h-1.508l-5.9-.041-1.4-8.614-.721-.152a24.833,24.833,0,0,1-8.692-3.61l-.614-.4-7.143,5.118-4.172-4.2,5.118-7.113-.4-.614a24.907,24.907,0,0,1-3.612-8.689l-.15-.721-8.655-1.433.021-5.922,8.634-1.4.152-.723a24.887,24.887,0,0,1,3.61-8.692l.4-.614-5.1-7.158,4.2-4.147,7.094,5.111.614-.406a24.844,24.844,0,0,1,8.692-3.612l.721-.15,1.433-8.655,7.41.041,1.4,8.615.721.15a24.844,24.844,0,0,1,8.691,3.612l.614.406,7.143-5.12,4.173,4.2-5.118,7.113.4.614a24.891,24.891,0,0,1,3.61,8.692l.152.723,8.655,1.431Z" transform="translate(178.39 196.864)"></path><path class="c" d="M208.361,79.278a12.2,12.2,0,1,0-12.2-12.195A12.209,12.209,0,0,0,208.361,79.278Zm0-22.253A10.057,10.057,0,1,1,198.3,67.084,10.068,10.068,0,0,1,208.361,57.026Z" transform="translate(181.849 20.785)"></path><path class="c" d="M202.586,71.011h.312v1.018h2.139V71.011h.31a2.4,2.4,0,0,0,2.4-2.4V65.85a2.4,2.4,0,0,0-2.4-2.4h-2.761a.262.262,0,0,1-.259-.261V60.431a.256.256,0,0,1,.259-.259h2.761a.256.256,0,0,1,.259.259v1.382h2.139V60.431a2.4,2.4,0,0,0-2.4-2.4h-.31v-.9H202.9v.9h-.312a2.4,2.4,0,0,0-2.4,2.4v2.761a2.4,2.4,0,0,0,2.4,2.4h2.761a.26.26,0,0,1,.259.259v2.761a.261.261,0,0,1-.259.261h-2.761a.261.261,0,0,1-.259-.261V67.231h-2.139v1.379A2.4,2.4,0,0,0,202.586,71.011Z" transform="translate(186.432 23.347)"></path><rect class="c" width="2.519" height="2.139" transform="translate(382.92 86.799)"></rect><rect class="c" width="2.519" height="2.139" transform="translate(394.979 86.799)"></rect><path class="c" d="M195.956,60.138l2.648,3.674a18.039,18.039,0,0,0-2.064,4.957l-4.47.729a1.78,1.78,0,0,0-1.5,1.764v3.86a1.784,1.784,0,0,0,1.5,1.767l4.47.727a18.051,18.051,0,0,0,2.064,4.96l-2.656,3.685a1.781,1.781,0,0,0,.188,2.305l2.735,2.733a1.781,1.781,0,0,0,2.306.186l3.683-2.652a18.028,18.028,0,0,0,4.96,2.062l.727,4.459a1.8,1.8,0,0,0,1.779,1.512h4.825a1.788,1.788,0,0,0,1.764-1.5l.729-4.47a18.043,18.043,0,0,0,4.957-2.062l3.672,2.643a1.793,1.793,0,0,0,2.329-.188l2.71-2.712a1.8,1.8,0,0,0,.192-2.327l-2.645-3.674a18.265,18.265,0,0,0,2.064-4.96l4.468-.727a1.784,1.784,0,0,0,1.5-1.767v-3.86a1.78,1.78,0,0,0-1.5-1.764l-4.47-.729a18.178,18.178,0,0,0-2.062-4.957l2.654-3.687a1.778,1.778,0,0,0-.188-2.3l-2.733-2.733a1.779,1.779,0,0,0-2.306-.188L224.6,57.555a18.076,18.076,0,0,0-4.957-2.064l-.727-4.459a1.8,1.8,0,0,0-1.779-1.512h-4.825a1.78,1.78,0,0,0-1.764,1.5l-.729,4.47a18.061,18.061,0,0,0-4.96,2.064l-3.672-2.646a1.8,1.8,0,0,0-2.327.188l-2.714,2.714A1.8,1.8,0,0,0,195.956,60.138Zm4.213-3.326,4.624,3.328.614-.4a15.926,15.926,0,0,1,5.567-2.314l.723-.15.911-5.614h4.245l.913,5.614.721.15a15.926,15.926,0,0,1,5.567,2.314l.614.4,4.622-3.328,2.31,2.31-3.326,4.624.4.614a15.935,15.935,0,0,1,2.316,5.567l.15.721,5.614.915v3.264l-5.614.915-.15.721a15.952,15.952,0,0,1-2.316,5.567l-.4.614,3.326,4.624-2.308,2.31-4.624-3.328-.614.4a15.973,15.973,0,0,1-5.567,2.314l-.721.15-.913,5.612h-4.245l-.911-5.612-.723-.15a15.973,15.973,0,0,1-5.567-2.314l-.614-.4-4.622,3.328-2.31-2.31,3.328-4.624-.4-.614a15.977,15.977,0,0,1-2.314-5.567l-.148-.721-5.616-.915V71.563l5.616-.915.148-.723a15.95,15.95,0,0,1,2.314-5.565l.4-.614-3.328-4.624Z" transform="translate(175.478 14.674)"></path><path class="c" d="M89.368,180.917a12.2,12.2,0,1,0-12.2-12.195A12.209,12.209,0,0,0,89.368,180.917Zm0-22.253A10.057,10.057,0,1,1,79.31,168.722,10.07,10.07,0,0,1,89.368,158.664Z" transform="translate(46.356 136.516)"></path><path class="c" d="M83.6,172.647h.31v1.018h2.139v-1.018h.312a2.4,2.4,0,0,0,2.4-2.4v-2.761a2.4,2.4,0,0,0-2.4-2.4H83.6a.262.262,0,0,1-.261-.261v-2.761a.26.26,0,0,1,.261-.259h2.761a.26.26,0,0,1,.259.259v1.382h2.139v-1.382a2.4,2.4,0,0,0-2.4-2.4h-.312v-.894H83.906v.894H83.6a2.4,2.4,0,0,0-2.4,2.4v2.761a2.4,2.4,0,0,0,2.4,2.4h2.761a.26.26,0,0,1,.259.259v2.761a.261.261,0,0,1-.259.261H83.6a.262.262,0,0,1-.261-.261v-1.379H81.2v1.379A2.4,2.4,0,0,0,83.6,172.647Z" transform="translate(50.939 139.08)"></path><rect class="c" width="2.519" height="2.139" transform="translate(128.436 304.168)"></rect><rect class="c" width="2.521" height="2.139" transform="translate(140.493 304.168)"></rect><path class="c" d="M73.078,178.527l4.468.729a18.116,18.116,0,0,0,2.064,4.957L76.956,187.9a1.778,1.778,0,0,0,.188,2.3l2.731,2.731a1.777,1.777,0,0,0,2.308.188l3.685-2.652a18.1,18.1,0,0,0,4.96,2.064l.725,4.459a1.8,1.8,0,0,0,1.779,1.51h4.825a1.78,1.78,0,0,0,1.764-1.5l.727-4.47a18.14,18.14,0,0,0,4.962-2.064l3.672,2.643a1.788,1.788,0,0,0,2.327-.188l2.718-2.714a1.8,1.8,0,0,0,.184-2.325l-2.643-3.674a18.177,18.177,0,0,0,2.062-4.957l4.47-.729a1.78,1.78,0,0,0,1.5-1.764V172.9a1.78,1.78,0,0,0-1.5-1.764l-4.472-.729a18.1,18.1,0,0,0-2.06-4.957l2.654-3.687a1.778,1.778,0,0,0-.188-2.3l-2.733-2.733a1.779,1.779,0,0,0-2.308-.186l-3.683,2.652a18.142,18.142,0,0,0-4.962-2.064l-.723-4.453a1.793,1.793,0,0,0-1.782-1.516H93.321a1.782,1.782,0,0,0-1.767,1.5l-.727,4.47a18.1,18.1,0,0,0-4.96,2.064L82.2,156.546a1.794,1.794,0,0,0-2.327.188l-2.714,2.714a1.793,1.793,0,0,0-.19,2.327l2.646,3.674a18.115,18.115,0,0,0-2.064,4.957l-4.468.729a1.782,1.782,0,0,0-1.5,1.764v3.862A1.782,1.782,0,0,0,73.078,178.527Zm.637-5.327,5.612-.915.148-.721A16,16,0,0,1,81.791,166l.4-.614-3.326-4.624,2.308-2.31,4.624,3.328.614-.4a15.975,15.975,0,0,1,5.567-2.314l.723-.15.911-5.612h4.243l.911,5.612.723.15a15.978,15.978,0,0,1,5.569,2.314l.614.4,4.622-3.328,2.31,2.31-3.326,4.624.4.614A15.994,15.994,0,0,1,112,171.564l.148.721,5.612.915v3.266l-5.612.913L112,178.1a15.994,15.994,0,0,1-2.316,5.567l-.4.614,3.326,4.626-2.308,2.308-4.624-3.328-.614.4a15.976,15.976,0,0,1-5.569,2.314l-.723.15-.911,5.612H93.616l-.911-5.612-.723-.15a15.973,15.973,0,0,1-5.567-2.314l-.614-.4-4.624,3.328L78.87,188.9l3.326-4.624-.4-.614a16,16,0,0,1-2.316-5.567l-.148-.721-5.612-.915Z" transform="translate(39.986 130.406)"></path><path class="c" d="M143.334,143.225a14.5,14.5,0,1,0,14.5-14.5A14.517,14.517,0,0,0,143.334,143.225Zm26.864,0a12.363,12.363,0,1,1-12.361-12.364A12.374,12.374,0,0,1,170.2,143.225Z" transform="translate(121.693 104.859)"></path><path class="c" d="M151.463,130.837v2.37h-.6a2.676,2.676,0,0,0-2.673,2.673v3.332a2.676,2.676,0,0,0,2.673,2.675H154.2a.535.535,0,0,1,.535.535v3.332a.535.535,0,0,1-.535.535h-3.332a.535.535,0,0,1-.535-.535v-2.735h-2.139v2.735a2.674,2.674,0,0,0,2.673,2.673h.6v2.522H153.6v-2.522h.6a2.674,2.674,0,0,0,2.673-2.673v-3.332a2.674,2.674,0,0,0-2.673-2.673h-3.332a.537.537,0,0,1-.535-.537V135.88a.535.535,0,0,1,.535-.535H154.2a.535.535,0,0,1,.535.535v2.735h2.139V135.88a2.676,2.676,0,0,0-2.673-2.673h-.6v-2.37Z" transform="translate(127.226 107.266)"></path><rect class="c" width="2.596" height="2.139" transform="translate(270.954 247.015)"></rect><rect class="c" width="2.598" height="2.139" transform="translate(285.508 247.015)"></rect><path class="c" d="M170.357,123.886a1.942,1.942,0,0,0-1.927-1.64h-5.824a1.929,1.929,0,0,0-1.912,1.625l-.9,5.539a21.545,21.545,0,0,0-6.189,2.575l-4.553-3.276a1.945,1.945,0,0,0-2.524.2l-3.279,3.276a1.95,1.95,0,0,0-.2,2.521l3.279,4.553a21.552,21.552,0,0,0-2.575,6.191l-5.543.9a1.931,1.931,0,0,0-1.623,1.912v4.66a1.93,1.93,0,0,0,1.625,1.912l5.541.9a21.553,21.553,0,0,0,2.575,6.191l-3.289,4.568a1.922,1.922,0,0,0,.205,2.5l3.3,3.3a1.925,1.925,0,0,0,2.5.2l4.568-3.287a21.531,21.531,0,0,0,6.189,2.575l.9,5.529a1.947,1.947,0,0,0,1.929,1.636h5.824a1.929,1.929,0,0,0,1.91-1.625l.9-5.539a21.568,21.568,0,0,0,6.191-2.575L182,172.49a1.94,1.94,0,0,0,2.521-.2l3.274-3.274a1.945,1.945,0,0,0,.205-2.524l-3.276-4.553a21.534,21.534,0,0,0,2.573-6.191l5.541-.9a1.926,1.926,0,0,0,1.625-1.912v-4.66a1.929,1.929,0,0,0-1.625-1.912l-5.541-.9a21.533,21.533,0,0,0-2.573-6.191l3.287-4.568a1.931,1.931,0,0,0-.2-2.5l-3.3-3.3a1.933,1.933,0,0,0-2.5-.2l-4.566,3.287a21.583,21.583,0,0,0-6.191-2.575Zm7.158,10.689,5.61-4.04,3.054,3.054-4.038,5.61.4.616a19.4,19.4,0,0,1,2.823,6.795l.148.721,6.814,1.11v4.318l-6.814,1.11-.148.721a19.426,19.426,0,0,1-2.823,6.8l-.4.614,4.038,5.612-3.054,3.052-5.61-4.038-.614.4a19.471,19.471,0,0,1-6.8,2.825l-.723.148-1.108,6.812h-5.5L161.67,170l-.723-.148a19.426,19.426,0,0,1-6.794-2.825l-.616-.4-5.612,4.038-3.052-3.054,4.04-5.61-.4-.614a19.475,19.475,0,0,1-2.829-6.8l-.148-.721-6.812-1.11V148.44l6.812-1.11.148-.721a19.448,19.448,0,0,1,2.829-6.795l.4-.616-4.042-5.61,3.056-3.054,5.61,4.04.616-.406a19.416,19.416,0,0,1,6.794-2.825l.723-.15,1.108-6.809h5.5l1.108,6.809.723.15a19.46,19.46,0,0,1,6.8,2.825Z" transform="translate(114.004 97.484)"></path><path class="c" d="M258.735,132.705a12.2,12.2,0,1,0,12.2,12.2A12.208,12.208,0,0,0,258.735,132.705Zm0,22.253A10.057,10.057,0,1,1,268.793,144.9,10.067,10.067,0,0,1,258.735,154.958Z" transform="translate(239.21 109.393)"></path><path class="c" d="M255.723,135.849h-.31v-.894h-2.139v.894h-.312a2.4,2.4,0,0,0-2.4,2.4v2.761a2.4,2.4,0,0,0,2.4,2.4h2.761a.26.26,0,0,1,.261.259v2.761a.262.262,0,0,1-.261.261h-2.761a.262.262,0,0,1-.259-.261V145.05h-2.139v1.379a2.4,2.4,0,0,0,2.4,2.4h.312v1.018h2.139v-1.018h.31a2.4,2.4,0,0,0,2.4-2.4v-2.761a2.4,2.4,0,0,0-2.4-2.4h-2.761a.262.262,0,0,1-.259-.261v-2.761a.261.261,0,0,1,.259-.261h2.761a.262.262,0,0,1,.261.261v1.379h2.139v-1.379A2.4,2.4,0,0,0,255.723,135.849Z" transform="translate(243.792 111.955)"></path><rect class="c" width="2.519" height="2.139" transform="translate(490.655 253.225)"></rect><rect class="c" width="2.519" height="2.139" transform="translate(502.714 253.225)"></rect><path class="c" d="M287.765,147.315l-4.468-.727a18.191,18.191,0,0,0-2.062-4.96l2.652-3.685a1.775,1.775,0,0,0-.188-2.3l-2.731-2.733a1.774,1.774,0,0,0-2.306-.188l-3.687,2.654a18.047,18.047,0,0,0-4.958-2.064l-.727-4.461a1.8,1.8,0,0,0-1.779-1.51h-4.825a1.776,1.776,0,0,0-1.762,1.5l-.729,4.47a18.009,18.009,0,0,0-4.962,2.064l-3.67-2.643a1.793,1.793,0,0,0-2.329.186l-2.716,2.714a1.8,1.8,0,0,0-.186,2.325l2.646,3.674a18.128,18.128,0,0,0-2.064,4.96l-4.47.727a1.782,1.782,0,0,0-1.5,1.767v3.86a1.784,1.784,0,0,0,1.5,1.766l4.47.727a18.13,18.13,0,0,0,2.064,4.96l-2.656,3.685a1.778,1.778,0,0,0,.188,2.305l2.738,2.735a1.789,1.789,0,0,0,2.3.184l3.683-2.652a18.126,18.126,0,0,0,4.962,2.062l.725,4.453a1.791,1.791,0,0,0,1.779,1.518h4.825a1.782,1.782,0,0,0,1.764-1.5l.729-4.47a18.139,18.139,0,0,0,4.958-2.062l3.674,2.643a1.794,1.794,0,0,0,2.327-.188l2.71-2.712a1.791,1.791,0,0,0,.193-2.329l-2.643-3.672a18.193,18.193,0,0,0,2.062-4.96l4.468-.727a1.784,1.784,0,0,0,1.5-1.766v-3.86A1.782,1.782,0,0,0,287.765,147.315Zm-.635,5.329-5.614.913-.148.721a15.958,15.958,0,0,1-2.316,5.567l-.4.616,3.323,4.624-2.308,2.308-4.624-3.328-.614.4a15.97,15.97,0,0,1-5.567,2.316l-.721.148-.913,5.614h-4.243l-.911-5.614-.723-.148a16.015,16.015,0,0,1-5.569-2.316l-.614-.4-4.624,3.328-2.308-2.308,3.328-4.624-.4-.616a16,16,0,0,1-2.316-5.567l-.148-.721-5.612-.913v-3.266l5.612-.913.148-.721a16,16,0,0,1,2.316-5.567l.4-.616-3.328-4.624,2.308-2.308,4.624,3.328.614-.406a15.973,15.973,0,0,1,5.569-2.312l.723-.15.911-5.614h4.243l.913,5.614.721.15a15.9,15.9,0,0,1,5.565,2.312l.616.406,4.624-3.328,2.308,2.308-3.323,4.624.4.616a15.957,15.957,0,0,1,2.316,5.567l.148.721,5.614.913Z" transform="translate(232.839 103.282)"></path><path class="c" d="M148.9,212.181a12.2,12.2,0,1,0,12.2,12.2A12.208,12.208,0,0,0,148.9,212.181Zm0,22.253a10.057,10.057,0,1,1,10.058-10.056A10.067,10.067,0,0,1,148.9,234.434Z" transform="translate(114.143 199.89)"></path><path class="c" d="M145.885,215.9h-.31v-1.963h-2.139V215.9h-.312a2.4,2.4,0,0,0-2.4,2.4v2.761a2.4,2.4,0,0,0,2.4,2.4h2.761a.262.262,0,0,1,.261.259v2.761a.262.262,0,0,1-.261.261h-2.761a.261.261,0,0,1-.259-.261v-2.449h-2.139v2.449a2.4,2.4,0,0,0,2.4,2.4h.312v2.089h2.139v-2.089h.31a2.4,2.4,0,0,0,2.4-2.4v-2.761a2.4,2.4,0,0,0-2.4-2.4h-2.761a.261.261,0,0,1-.259-.261v-2.761a.261.261,0,0,1,.259-.259h2.761a.261.261,0,0,1,.261.259v2.451h2.139v-2.451A2.4,2.4,0,0,0,145.885,215.9Z" transform="translate(118.725 201.884)"></path><rect class="c" width="2.519" height="2.139" transform="translate(255.751 423.198)"></rect><rect class="c" width="2.519" height="2.139" transform="translate(267.81 423.198)"></rect><path class="c" d="M179.431,232.417v-3.86a1.782,1.782,0,0,0-1.5-1.764l-4.466-.727A18.209,18.209,0,0,0,171.4,221.1l2.652-3.685a1.781,1.781,0,0,0-.188-2.3l-2.733-2.735a1.77,1.77,0,0,0-2.3-.186l-3.687,2.654a18.041,18.041,0,0,0-4.957-2.062l-.727-4.463a1.8,1.8,0,0,0-1.672-1.506l-4.932,0-.079,0a1.772,1.772,0,0,0-1.683,1.5l-.729,4.468a18.036,18.036,0,0,0-4.96,2.064l-3.67-2.641a1.791,1.791,0,0,0-2.331.184l-2.718,2.716a1.8,1.8,0,0,0-.184,2.325l2.646,3.672a18.075,18.075,0,0,0-2.064,4.962l-4.47.727a1.78,1.78,0,0,0-1.5,1.764v3.86a1.781,1.781,0,0,0,1.5,1.767l4.472.727a18.028,18.028,0,0,0,2.062,4.959l-2.654,3.685a1.773,1.773,0,0,0,.186,2.306l2.735,2.733a1.781,1.781,0,0,0,2.305.186l3.685-2.652a18.031,18.031,0,0,0,4.96,2.062l.725,4.453a1.791,1.791,0,0,0,1.779,1.519h4.825a1.78,1.78,0,0,0,1.764-1.5l.729-4.47a18.044,18.044,0,0,0,4.957-2.062l3.676,2.648a1.794,1.794,0,0,0,2.325-.192l2.71-2.71a1.8,1.8,0,0,0,.192-2.331L171.4,239.87a18.164,18.164,0,0,0,2.062-4.959l4.468-.727A1.783,1.783,0,0,0,179.431,232.417Zm-2.139-.3-5.612.913-.15.721a15.939,15.939,0,0,1-2.316,5.567l-.4.614,3.324,4.624-2.308,2.308L165.2,243.54l-.616.406a15.868,15.868,0,0,1-5.563,2.312l-.723.148-.913,5.616h-4.241l-.913-5.616-.723-.148a15.871,15.871,0,0,1-5.567-2.314l-.616-.4-4.622,3.328-2.31-2.308,3.328-4.624-.4-.614a16.017,16.017,0,0,1-2.316-5.567l-.148-.721-5.612-.913v-3.268l5.612-.911.148-.723a16.061,16.061,0,0,1,2.316-5.569l.4-.614-3.328-4.624,2.308-2.307,4.624,3.328.614-.4a16.066,16.066,0,0,1,5.569-2.316l.723-.148.913-5.612h4.241l.913,5.612.723.148a16.028,16.028,0,0,1,5.565,2.316l.614.4,4.624-3.328,2.308,2.31-3.324,4.622.4.614a15.983,15.983,0,0,1,2.316,5.569l.15.723,5.612.911Z" transform="translate(107.772 193.78)"></path><path class="c" d="M162.614,99.836V97.877h-4.853v-.665a2.286,2.286,0,0,0-2.284-2.282h-9.534v2.139l9.68.143-.148,25.223h-9.532v2.139h9.532a2.289,2.289,0,0,0,2.286-2.286V120.1h4.853v-1.959h3.719a2.015,2.015,0,0,1,.757.15l12.584,5.152a4.108,4.108,0,0,0,3.437-.145l22.353-11.431a3.033,3.033,0,0,0-2.149-5.633l-2.335.627v-18.7a16.365,16.365,0,0,0-11-15.433V69.732l3.441-6.23a2.627,2.627,0,0,0-2.453-3.567h-13.91a2.626,2.626,0,0,0-2.169,1.14,2.674,2.674,0,0,0-.225,2.564l3.426,6.179v2.81a16.369,16.369,0,0,0-11.271,15.531V99.845c-.032,0-.066-.009-.1-.009Zm-2.139,18.121h-2.714V100.016h2.714Zm43.385-9.66a.894.894,0,0,1,.631,1.662l-22.353,11.431a1.97,1.97,0,0,1-1.653.068L167.9,116.306a4.139,4.139,0,0,0-1.563-.308h-3.719V101.975h4.111a3.485,3.485,0,0,1,1.309.252L174.969,105a4.1,4.1,0,0,0,1.411.3l8.873.259a1.866,1.866,0,0,1-.006,3.73l-8.277.212a2.6,2.6,0,0,0-2.5,2.3l2.126.235a.452.452,0,0,1,.432-.4l8.277-.212a4.01,4.01,0,0,0,2.562-1.037l.545,2.047ZM176.654,62.285a.482.482,0,0,1,.406-.212h13.91a.476.476,0,0,1,.4.212.6.6,0,0,1,.118.317l-3.2,5.766h-3.208V65.4h-2.139v2.971h-3.21L176.6,62.737A.477.477,0,0,1,176.654,62.285Zm3.578,8.221h7.612V72.13a16.4,16.4,0,0,0-3.212-.321h-1.459a16.262,16.262,0,0,0-2.941.28Zm2.941,3.441h1.459a14.226,14.226,0,0,1,14.209,14.211v19.269l-10.944,2.93a3.994,3.994,0,0,0-2.581-6.94l-8.871-.259a2.014,2.014,0,0,1-.682-.141l-6.8-2.725V88.159A14.228,14.228,0,0,1,183.173,73.948Z" transform="translate(124.664 26.533)"></path><path class="c" d="M164.341,87.115h.706V88.6h2.139V87.115h.706a2.782,2.782,0,0,0,2.778-2.778V80.788a2.781,2.781,0,0,0-2.778-2.778h-3.55a.64.64,0,0,1-.639-.639v-3.55a.639.639,0,0,1,.639-.637h3.55a.639.639,0,0,1,.639.637V75.6h2.139V73.821a2.78,2.78,0,0,0-2.778-2.776h-.706V69.4h-2.139v1.645h-.706a2.78,2.78,0,0,0-2.778,2.776v3.55a2.782,2.782,0,0,0,2.778,2.778h3.55a.64.64,0,0,1,.639.639v3.548a.64.64,0,0,1-.639.639h-3.55a.64.64,0,0,1-.639-.639V82.561h-2.139v1.775A2.782,2.782,0,0,0,164.341,87.115Z" transform="translate(142.45 37.311)"></path><rect class="c" width="3.083" height="2.139" transform="translate(316.362 115.321)"></rect><rect class="c" width="3.041" height="2.139" transform="translate(297.729 115.321)"></rect><path class="c" d="M142.048,106.828h-.285v-1.414h-2.139v1.414h-.284a2.379,2.379,0,0,0-2.376,2.376v2.71a2.377,2.377,0,0,0,2.376,2.374h2.708a.238.238,0,0,1,.237.237v2.71a.234.234,0,0,1-.237.235H139.34a.236.236,0,0,1-.237-.235v-1.356h-2.139v1.356a2.377,2.377,0,0,0,2.376,2.374h.284v1.382h2.139v-1.382h.285a2.377,2.377,0,0,0,2.376-2.374v-2.71a2.378,2.378,0,0,0-2.376-2.376H139.34a.236.236,0,0,1-.237-.235V109.2a.238.238,0,0,1,.237-.237h2.708a.238.238,0,0,1,.237.237v1.356h2.139V109.2A2.379,2.379,0,0,0,142.048,106.828Z" transform="translate(114.44 78.318)"></path><path class="c" d="M186.849,101.549h-62.83v32.14h62.83Zm-2.139,8.4a7.413,7.413,0,0,1-6.264-6.264h6.264Zm0,2.139V123.15a9.53,9.53,0,0,0-8.4,8.4H134.56a9.53,9.53,0,0,0-8.4-8.4V112.09a9.534,9.534,0,0,0,8.4-8.4h41.747A9.534,9.534,0,0,0,184.71,112.09Zm-52.288-8.4a7.413,7.413,0,0,1-6.264,6.264v-6.264Zm-6.264,21.6a7.416,7.416,0,0,1,6.264,6.264h-6.264Zm52.288,6.264a7.416,7.416,0,0,1,6.264-6.264v6.264Z" transform="translate(99.7 73.917)"></path><path class="c" d="M145.13,103.423a12.062,12.062,0,1,0,12.062,12.062A12.076,12.076,0,0,0,145.13,103.423Zm0,21.985a9.923,9.923,0,1,1,9.923-9.923A9.935,9.935,0,0,1,145.13,125.408Z" transform="translate(110.004 76.051)"></path><rect class="c" width="62.83" height="2.139" transform="translate(223.719 170.105)"></rect><path class="c" d="M161.646,94.871a1.07,1.07,0,0,0-1.069,1.069v1.884c-3.279-2.949-8.324-4.729-13.794-4.729-6.474,0-12.387,2.474-15.435,6.461a1.07,1.07,0,0,0,1.7,1.3c2.65-3.467,7.913-5.62,13.734-5.62,4.949,0,9.476,1.566,12.355,4.162h-1.976a1.069,1.069,0,1,0,0,2.139h4.485a1.07,1.07,0,0,0,1.069-1.069V95.94A1.07,1.07,0,0,0,161.646,94.871Z" transform="translate(107.795 64.292)"></path><path class="c" d="M137.754,119.647a1.068,1.068,0,0,0-1.069-1.069H132.2a1.068,1.068,0,0,0-1.069,1.069v4.525a1.069,1.069,0,1,0,2.139,0v-1.886c3.279,2.951,8.326,4.733,13.8,4.733,6.474,0,12.389-2.477,15.433-6.463a1.07,1.07,0,1,0-1.7-1.3c-2.648,3.467-7.911,5.623-13.732,5.623-4.949,0-9.479-1.568-12.357-4.164h1.978A1.07,1.07,0,0,0,137.754,119.647Z" transform="translate(107.795 93.308)"></path><path class="c" d="M177.388,216.9H177.1v-1.418h-2.139V216.9h-.285a2.377,2.377,0,0,0-2.376,2.374v2.71a2.377,2.377,0,0,0,2.376,2.374h2.71a.236.236,0,0,1,.235.235v2.712a.236.236,0,0,1-.235.235h-2.71a.238.238,0,0,1-.237-.235v-1.356H172.3v1.356a2.377,2.377,0,0,0,2.376,2.374h.285v1.382H177.1v-1.382h.287a2.377,2.377,0,0,0,2.374-2.374V224.6a2.377,2.377,0,0,0-2.374-2.374h-2.71a.238.238,0,0,1-.237-.235v-2.71a.238.238,0,0,1,.237-.235h2.71a.236.236,0,0,1,.235.235v1.356h2.139v-1.356A2.377,2.377,0,0,0,177.388,216.9Z" transform="translate(154.678 203.654)"></path><path class="c" d="M222.188,211.623h-62.83v32.142h62.83Zm-2.139,8.4a7.413,7.413,0,0,1-6.264-6.264h6.264Zm0,2.139v11.059a9.532,9.532,0,0,0-8.4,8.4H169.9a9.532,9.532,0,0,0-8.4-8.4V222.165a9.534,9.534,0,0,0,8.4-8.4h41.747A9.534,9.534,0,0,0,220.049,222.165Zm-52.288-8.4a7.413,7.413,0,0,1-6.264,6.264v-6.264Zm-6.264,21.6a7.411,7.411,0,0,1,6.264,6.264H161.5Zm52.288,6.264a7.411,7.411,0,0,1,6.264-6.264v6.264Z" transform="translate(139.939 199.254)"></path><path class="c" d="M180.467,213.5a12.063,12.063,0,1,0,12.064,12.062A12.076,12.076,0,0,0,180.467,213.5Zm0,21.988a9.924,9.924,0,1,1,9.925-9.926A9.935,9.935,0,0,1,180.467,235.485Z" transform="translate(150.243 201.388)"></path><rect class="c" width="62.829" height="2.139" transform="translate(299.297 405.517)"></rect><path class="c" d="M191.429,210.539a1.068,1.068,0,0,0,1.069,1.069h4.487a1.068,1.068,0,0,0,1.069-1.069v-4.523a1.069,1.069,0,1,0-2.139,0V207.9c-3.279-2.951-8.326-4.733-13.794-4.733-6.478,0-12.389,2.477-15.435,6.463a1.07,1.07,0,1,0,1.7,1.3c2.648-3.469,7.911-5.622,13.735-5.622,4.947,0,9.474,1.566,12.353,4.162H192.5A1.07,1.07,0,0,0,191.429,210.539Z" transform="translate(148.034 189.628)"></path><path class="c" d="M197.835,230.63a1.07,1.07,0,1,0-1.7-1.3c-2.652,3.467-7.913,5.623-13.735,5.623-4.947,0-9.476-1.568-12.357-4.164h1.978a1.069,1.069,0,0,0,0-2.139h-4.485a1.068,1.068,0,0,0-1.069,1.069v4.526a1.069,1.069,0,0,0,2.139,0v-1.884c3.281,2.949,8.328,4.731,13.794,4.731C188.874,237.093,194.785,234.617,197.835,230.63Z" transform="translate(148.034 218.645)"></path><rect class="c" width="2.139" height="6.002" transform="translate(71.774 149.16)"></rect><rect class="c" width="2.139" height="2.681" transform="translate(71.774 158.842)"></rect><rect class="c" width="2.139" height="6.002" transform="translate(75.845 144.83)"></rect><rect class="c" width="2.139" height="2.681" transform="translate(75.845 154.511)"></rect><rect class="c" width="2.139" height="6.003" transform="translate(79.852 150.314)"></rect><rect class="c" width="2.139" height="2.681" transform="translate(79.852 159.997)"></rect><path class="c" d="M67.4,113.217V114.8a2.6,2.6,0,0,0,2.592,2.592H70.5v1.193H72.64v-1.193h.511a2.594,2.594,0,0,0,2.59-2.592v-3.161a2.593,2.593,0,0,0-2.59-2.592H69.99a.454.454,0,0,1-.453-.453v-3.161a.454.454,0,0,1,.453-.453h3.161a.452.452,0,0,1,.451.453v1.58h2.139v-1.58a2.593,2.593,0,0,0-2.59-2.592H72.64v-1.273H70.5v1.273H69.99a2.594,2.594,0,0,0-2.592,2.592v3.161a2.6,2.6,0,0,0,2.592,2.592h3.161a.452.452,0,0,1,.451.453V114.8a.453.453,0,0,1-.451.453H69.99a.455.455,0,0,1-.453-.453v-1.583Z" transform="translate(35.228 73.939)"></path><rect class="c" width="2.573" height="2.139" transform="translate(98.39 183.302)"></rect><rect class="c" width="2.573" height="2.139" transform="translate(112.197 183.302)"></rect><rect class="c" width="13.571" height="2.139" transform="translate(70.7 167.869)"></rect><rect class="c" width="13.571" height="2.139" transform="translate(70.7 184.903)"></rect><rect class="c" width="13.571" height="2.139" transform="translate(70.7 189.161)"></rect><rect class="c" width="13.571" height="2.139" transform="translate(70.7 193.42)"></rect><rect class="c" width="13.571" height="2.139" transform="translate(70.7 197.678)"></rect><rect class="c" width="13.571" height="2.139" transform="translate(70.7 201.937)"></rect><rect class="c" width="9.269" height="2.139" transform="translate(86.958 184.903)"></rect><rect class="c" width="9.269" height="2.139" transform="translate(86.958 189.161)"></rect><rect class="c" width="9.269" height="2.139" transform="translate(86.958 193.42)"></rect><rect class="c" width="9.269" height="2.139" transform="translate(86.958 197.678)"></rect><path class="c" d="M60.072,144.918h9.265A31.732,31.732,0,0,0,79.7,146.5c9.87,0,17.188-3.475,20.076-9.534,2.457-5.15,1.294-11.277-3.189-16.808-6.523-8.048-9.344-13.373-10.387-15.651a2.351,2.351,0,0,0,1.69-2.235v-1.3a2.377,2.377,0,0,0-2.374-2.374h-.282L87.9,93.7a3.458,3.458,0,0,0-3.035-5.111H74.519A3.456,3.456,0,0,0,71.486,93.7l2.673,4.9h-.282a2.378,2.378,0,0,0-2.374,2.374v1.3a2.351,2.351,0,0,0,1.69,2.235c-1.044,2.278-3.862,7.6-10.385,15.649-.432.533-.821,1.067-1.187,1.606l1.771,1.2c.334-.49.684-.977,1.076-1.459,7.46-9.2,10.2-14.917,11.006-16.859h8.443c.8,1.942,3.546,7.659,11.006,16.859,3.942,4.863,5.007,10.163,2.921,14.541-2.519,5.285-9.134,8.315-18.147,8.315a29.453,29.453,0,0,1-9.846-1.521l-.509,1.429V142.78H60.072ZM73.364,92.673a1.315,1.315,0,0,1,1.155-1.948H84.87a1.317,1.317,0,0,1,1.157,1.948l-3.236,5.922H76.6Zm.278,8.3a.236.236,0,0,1,.235-.235H85.511a.236.236,0,0,1,.235.235v1.3a.235.235,0,0,1-.235.235H73.877a.235.235,0,0,1-.235-.235Z" transform="translate(26.886 59.157)"></path><rect class="c" width="13.571" height="2.139" transform="translate(70.7 172.128)"></rect><rect class="c" width="13.571" height="2.139" transform="translate(70.7 180.644)"></rect><rect class="c" width="13.571" height="2.139" transform="translate(70.7 176.386)"></rect><path class="c" d="M203.179,71.229a26.019,26.019,0,0,0-23.893,36.3l.423.982,1.963-.847-.423-.982a23.872,23.872,0,1,1,43.659.453l-.443.973,1.944.888.445-.973a26.02,26.02,0,0,0-23.675-36.794Z" transform="translate(160.22 39.393)"></path><path class="c" d="M183.919,92.606h5.6V90.467h-5.6a4.957,4.957,0,0,0-4.951,4.953v10.257h3.069v7.616h2.139v-9.754h-3.069V95.42A2.816,2.816,0,0,1,183.919,92.606Z" transform="translate(162.268 61.299)"></path><path class="c" d="M200.358,90.467h-5.6v2.139h5.6a2.817,2.817,0,0,1,2.814,2.814v8.118H200.1v9.754h2.139v-7.616h3.069V95.42A4.959,4.959,0,0,0,200.358,90.467Z" transform="translate(180.251 61.299)"></path><path class="c" d="M184.155,107.266H187.9V116.2h2.139V105.127h-3.749V95.435a3.628,3.628,0,0,1,3.625-3.625h10.612a3.628,3.628,0,0,1,3.625,3.625v9.692h-3.862V116.2h2.139v-8.937h3.862V95.435a5.77,5.77,0,0,0-5.764-5.764H189.919a5.77,5.77,0,0,0-5.764,5.764Z" transform="translate(168.175 60.392)"></path><rect class="c" width="2.139" height="8.396" transform="translate(362.392 168.2)"></rect><rect class="c" width="2.139" height="4.308" transform="translate(362.329 156.688)"></rect><path class="c" d="M184.487,85.471a4.277,4.277,0,1,0,4.277,4.277A4.283,4.283,0,0,0,184.487,85.471Zm0,6.416a2.139,2.139,0,1,1,2.139-2.139A2.142,2.142,0,0,1,184.487,91.887Z" transform="translate(163.683 55.61)"></path><path class="c" d="M198.752,85.471a4.277,4.277,0,1,0,4.277,4.277A4.283,4.283,0,0,0,198.752,85.471Zm0,6.416a2.139,2.139,0,1,1,2.139-2.139A2.141,2.141,0,0,1,198.752,91.887Z" transform="translate(179.926 55.61)"></path><path class="c" d="M191.637,93.375A4.277,4.277,0,1,0,187.36,89.1,4.283,4.283,0,0,0,191.637,93.375Zm0-6.416A2.139,2.139,0,1,1,189.5,89.1,2.141,2.141,0,0,1,191.637,86.959Z" transform="translate(171.824 54.869)"></path><path class="c" d="M187.4,86.928v1.664a2.676,2.676,0,0,0,2.673,2.673h.595v1.792h2.139V91.266h.6a2.677,2.677,0,0,0,2.671-2.673V85.264a2.677,2.677,0,0,0-2.671-2.673h-3.33a.534.534,0,0,1-.535-.533v-3.33a.534.534,0,0,1,.535-.533h3.33a.534.534,0,0,1,.533.533v1.666h2.139V78.729a2.676,2.676,0,0,0-2.671-2.671h-.6V74.137h-2.139v1.921h-.595a2.675,2.675,0,0,0-2.673,2.671v3.33a2.675,2.675,0,0,0,2.673,2.671h3.33a.534.534,0,0,1,.533.535v3.328a.534.534,0,0,1-.533.535h-3.33a.535.535,0,0,1-.535-.535V86.928Z" transform="translate(171.868 42.704)"></path><rect class="c" width="2.596" height="2.139" transform="translate(353.643 125.629)"></rect><rect class="c" width="2.598" height="2.139" transform="translate(371.053 125.629)"></rect><path class="c" d="M168.064,211.556a26.009,26.009,0,1,0-47.566-.492l.423.982,1.963-.849-.423-.982a23.87,23.87,0,1,1,43.656.456l-.443.971,1.944.888Z" transform="translate(93.28 157.283)"></path><path class="c" d="M125.132,196.141h5.6V194h-5.6a4.957,4.957,0,0,0-4.953,4.951V209.21h5.21v-2.139h-3.071v-8.118A2.816,2.816,0,0,1,125.132,196.141Z" transform="translate(95.328 179.19)"></path><path class="c" d="M141.314,207.071v9.754h2.139V209.21h3.069V198.953A4.955,4.955,0,0,0,141.571,194h-5.6v2.139h5.6a2.816,2.816,0,0,1,2.812,2.812v8.118Z" transform="translate(113.311 179.19)"></path><path class="c" d="M145.369,198.97v9.692H141.5v11.078h2.139V210.8h3.865V198.97a5.773,5.773,0,0,0-5.766-5.766H131.13a5.771,5.771,0,0,0-5.764,5.766V210.8h3.751v8.94h2.139V208.662H127.5V198.97a3.63,3.63,0,0,1,3.625-3.627h10.612A3.632,3.632,0,0,1,145.369,198.97Z" transform="translate(101.234 178.281)"></path><rect class="c" width="2.139" height="8.396" transform="translate(236.662 389.625)"></rect><rect class="c" width="2.139" height="4.307" transform="translate(236.601 378.113)"></rect><path class="c" d="M125.7,189.005a4.277,4.277,0,1,0,4.277,4.277A4.284,4.284,0,0,0,125.7,189.005Zm0,6.416a2.139,2.139,0,1,1,2.139-2.139A2.141,2.141,0,0,1,125.7,195.421Z" transform="translate(96.742 173.5)"></path><path class="c" d="M139.963,197.56a4.277,4.277,0,1,0-4.277-4.277A4.282,4.282,0,0,0,139.963,197.56Zm0-6.416a2.139,2.139,0,1,1-2.139,2.139A2.139,2.139,0,0,1,139.963,191.144Z" transform="translate(112.985 173.5)"></path><path class="c" d="M132.848,188.354a4.277,4.277,0,1,0,4.277,4.277A4.282,4.282,0,0,0,132.848,188.354Zm0,6.416a2.139,2.139,0,1,1,2.139-2.139A2.139,2.139,0,0,1,132.848,194.77Z" transform="translate(104.883 172.759)"></path><path class="c" d="M137.283,183.929v-1.664a2.674,2.674,0,0,0-2.673-2.673h-.595v-1.921h-2.139v1.921h-.595a2.674,2.674,0,0,0-2.671,2.673v3.328a2.673,2.673,0,0,0,2.671,2.671h3.328a.536.536,0,0,1,.535.535v3.33a.533.533,0,0,1-.535.533h-3.328a.531.531,0,0,1-.533-.533v-1.664h-2.139v1.664a2.675,2.675,0,0,0,2.671,2.671h.595v1.792h2.139V194.8h.595a2.675,2.675,0,0,0,2.673-2.671V188.8a2.676,2.676,0,0,0-2.673-2.673h-3.328a.531.531,0,0,1-.533-.533v-3.328a.533.533,0,0,1,.533-.535h3.328a.535.535,0,0,1,.535.535v1.664Z" transform="translate(104.929 160.595)"></path><rect class="c" width="2.598" height="2.139" transform="translate(227.913 347.054)"></rect><rect class="c" width="2.598" height="2.139" transform="translate(245.323 347.054)"></rect><path class="c" d="M110.6,108.664H173.63V76.424H110.6Zm2.139-8.386a7.4,7.4,0,0,1,6.247,6.247h-6.247Zm0-2.139V86.948a9.514,9.514,0,0,0,8.386-8.386h41.984a9.516,9.516,0,0,0,8.384,8.386V98.14a9.514,9.514,0,0,0-8.384,8.386H121.123A9.514,9.514,0,0,0,112.738,98.14Zm52.508,8.386a7.4,7.4,0,0,1,6.245-6.247v6.247Zm6.245-21.716a7.4,7.4,0,0,1-6.245-6.247h6.245Zm-52.506-6.247a7.4,7.4,0,0,1-6.247,6.247V78.563Z" transform="translate(84.419 45.309)"></path><path class="c" d="M130.38,100.858c5.227,0,9.476-4.947,9.476-11.027s-4.25-11.025-9.476-11.025S120.9,83.751,120.9,89.831,125.156,100.858,130.38,100.858Zm0-19.913c4.046,0,7.338,3.986,7.338,8.886s-3.291,8.888-7.338,8.888-7.338-3.989-7.338-8.888S126.334,80.945,130.38,80.945Z" transform="translate(96.153 48.021)"></path><rect class="c" width="63.03" height="2.139" transform="translate(195.018 110.545)"></rect><rect class="c" width="63.03" height="2.139" transform="translate(195.018 116.152)"></rect><path class="c" d="M270.632,134.018H207.6v32.238h63.029Zm-2.139,8.386a7.4,7.4,0,0,1-6.245-6.247h6.245Zm0,2.137v11.194a9.511,9.511,0,0,0-8.384,8.384H218.125a9.511,9.511,0,0,0-8.384-8.384V144.54a9.511,9.511,0,0,0,8.384-8.384h41.984A9.511,9.511,0,0,0,268.493,144.54Zm-52.506-8.384a7.4,7.4,0,0,1-6.245,6.247v-6.247Zm-6.245,21.716a7.4,7.4,0,0,1,6.245,6.245h-6.245Zm52.506,6.245a7.393,7.393,0,0,1,6.245-6.245v6.245Z" transform="translate(194.874 110.889)"></path><path class="c" d="M227.383,136.4c-5.225,0-9.476,4.947-9.476,11.025s4.252,11.027,9.476,11.027,9.476-4.947,9.476-11.027S232.61,136.4,227.383,136.4Zm0,19.913c-4.046,0-7.338-3.989-7.338-8.888s3.292-8.886,7.338-8.886,7.338,3.987,7.338,8.886S231.43,156.313,227.383,156.313Z" transform="translate(206.607 113.601)"></path><rect class="c" width="63.028" height="2.139" transform="translate(402.477 233.719)"></rect><rect class="c" width="63.028" height="2.139" transform="translate(402.477 239.326)"></rect><path class="c" d="M164.587,158.156H101.556V190.4h63.031Zm-2.139,8.386a7.393,7.393,0,0,1-6.245-6.247h6.245Zm0,2.139v11.194a9.51,9.51,0,0,0-8.384,8.384H112.08a9.514,9.514,0,0,0-8.386-8.386V168.68a9.512,9.512,0,0,0,8.386-8.386h41.984A9.512,9.512,0,0,0,162.448,168.68Zm-52.506-8.386a7.4,7.4,0,0,1-6.247,6.247v-6.247Zm-6.247,21.716a7.4,7.4,0,0,1,6.247,6.247h-6.247Zm52.508,6.247a7.4,7.4,0,0,1,6.245-6.247v6.247Z" transform="translate(74.122 138.374)"></path><path class="c" d="M121.337,160.538c-5.225,0-9.476,4.947-9.476,11.027s4.252,11.025,9.476,11.025,9.476-4.945,9.476-11.025S126.564,160.538,121.337,160.538Zm0,19.913c-4.046,0-7.338-3.986-7.338-8.886s3.291-8.888,7.338-8.888,7.338,3.989,7.338,8.888S125.384,180.451,121.337,180.451Z" transform="translate(85.856 141.086)"></path><rect class="c" width="63.03" height="2.139" transform="translate(175.679 285.343)"></rect><rect class="c" width="63.03" height="2.139" transform="translate(175.679 290.95)"></rect><path class="c" d="M98,148.32v1.069a11.964,11.964,0,1,0,23.927,0V148.32h-4.733l-5.772-18.185h16.827a7.555,7.555,0,0,0,2.665,2.665v41.706H124.55v6.968H108.89v2.139h51.687v-2.139H144.92v-6.968h-6.363V132.8a7.607,7.607,0,0,0,2.665-2.665h16.825l-5.768,18.185h-4.735v1.069a11.965,11.965,0,1,0,23.93,0V148.32h-4.733l-5.772-18.185h.888a3.823,3.823,0,0,0,0-7.646H141.233a7.515,7.515,0,0,0-13,0H107.613a3.823,3.823,0,1,0,0,7.646h.885l-5.768,18.185Zm61.51,10.9a9.839,9.839,0,0,1-9.765-8.758h19.535A9.843,9.843,0,0,1,159.508,159.217Zm-4.985-10.9,4.985-15.719L164.5,148.32Zm-11.741,28.324v4.829H126.688v-4.829h16.093Zm-9.731-2.139V133.686a7.527,7.527,0,0,0,3.368,0v40.821Zm9.057-49.878h19.748a1.684,1.684,0,0,1,0,3.368H142.108a7.546,7.546,0,0,0,0-3.368Zm-7.374-3.743a5.457,5.457,0,0,1,4.906,3.12l0,.006a5.37,5.37,0,0,1,0,4.6l-.006.013a5.447,5.447,0,0,1-2.6,2.594,5.382,5.382,0,0,1-4.587,0l-.009,0a5.424,5.424,0,0,1,2.3-10.334Zm-28.806,5.426a1.687,1.687,0,0,1,1.685-1.683h19.748a7.464,7.464,0,0,0,0,3.368H107.613A1.689,1.689,0,0,1,105.928,126.311Zm4.031,32.905a9.839,9.839,0,0,1-9.765-8.758h19.535A9.842,9.842,0,0,1,109.96,159.217Zm0-26.616,4.987,15.719h-9.973Z" transform="translate(70.071 93.5)"></path><path class="c" d="M111.193,120.35l-.663.836,1.672,1.33.665-.836a9.691,9.691,0,0,1,14.889-.366l.706.8,1.608-1.409-.706-.8a11.829,11.829,0,0,0-18.172.445Z" transform="translate(84.341 90.221)"></path><path class="c" d="M194.713,244.425h.885a3.824,3.824,0,0,0,0-7.648H174.975a7.517,7.517,0,0,0-13,0H141.355a3.824,3.824,0,0,0,0,7.648h.885l-5.768,18.185H131.74v1.069a11.963,11.963,0,1,0,23.925,0V262.61h-4.733l-5.768-18.185h16.825a7.562,7.562,0,0,0,2.663,2.663V288.8h-6.36v6.968H142.632V297.9h51.687v-2.139H178.662V288.8H172.3V247.088a7.561,7.561,0,0,0,2.663-2.663h16.827l-5.768,18.185h-4.733v1.069a11.963,11.963,0,1,0,23.925,0V262.61h-4.733ZM143.7,273.5a9.837,9.837,0,0,1-9.765-8.756h19.532A9.838,9.838,0,0,1,143.7,273.5Zm-4.985-10.894,4.985-15.719,4.987,15.719ZM161.1,242.287H141.355a1.685,1.685,0,0,1,0-3.371H161.1a7.546,7.546,0,0,0-.192,1.687A7.646,7.646,0,0,0,161.1,242.287Zm15.422,48.648v4.829H160.43v-4.829h16.093Zm-9.733-2.139V247.976a7.6,7.6,0,0,0,3.371,0V288.8Zm3.987-43.289-.006,0a5.358,5.358,0,0,1-4.594,0,5.456,5.456,0,0,1-2.6-2.6l0-.006a5.355,5.355,0,0,1,0-4.6v0a5.415,5.415,0,0,1,9.812.006l.009.017a5.339,5.339,0,0,1,0,4.572l-.007.011A5.427,5.427,0,0,1,170.777,245.508Zm5.073-6.591H195.6a1.685,1.685,0,0,1,0,3.371H175.85a7.473,7.473,0,0,0,0-3.371Zm17.4,7.975,4.985,15.719h-9.97Zm0,26.613a9.837,9.837,0,0,1-9.765-8.756h19.532A9.838,9.838,0,0,1,193.25,273.5Z" transform="translate(108.492 223.638)"></path><path class="c" d="M154.206,230.156a11.776,11.776,0,0,0-9.271,4.485l-.663.838,1.675,1.328.665-.838a9.687,9.687,0,0,1,14.887-.364l.7.8,1.61-1.409-.706-.806A11.847,11.847,0,0,0,154.206,230.156Z" transform="translate(122.761 220.357)"></path><path class="c" d="M82.565,74.815v3.942a2.97,2.97,0,0,0,2.968,2.968h3.942a.831.831,0,0,1,.83.83V86.5a.83.83,0,0,1-.83.828H85.533a.83.83,0,0,1-.83-.828V84.527H82.565V86.5a2.97,2.97,0,0,0,2.968,2.966h.9v1.914h2.139V89.465h.9A2.97,2.97,0,0,0,92.443,86.5V82.555a2.971,2.971,0,0,0-2.968-2.968H85.533a.831.831,0,0,1-.83-.83V74.815a.831.831,0,0,1,.83-.83h3.942a.831.831,0,0,1,.83.83v1.972h2.139V74.815a2.971,2.971,0,0,0-2.968-2.968h-.9V70.121H86.434v1.726h-.9A2.971,2.971,0,0,0,82.565,74.815Z" transform="translate(52.498 38.132)"></path><path class="c" d="M97.229,77.873l.759.684,8.822-8.9L106,68.908a31.232,31.232,0,0,0-19.413-8.326l-1.134-.068V73.042l.975.09A18.493,18.493,0,0,1,97.229,77.873ZM87.6,62.807a29.119,29.119,0,0,1,16.128,6.927l-5.836,5.886A20.558,20.558,0,0,0,87.6,71.113Z" transform="translate(55.792 27.192)"></path><path class="c" d="M97.542,105.564l.986.126,2.489-12.372-1.191-.1a18.645,18.645,0,0,1-16.94-16.829l-.09-.971H70.268l.068,1.136A31.187,31.187,0,0,0,97.542,105.564ZM80.968,78.078a20.875,20.875,0,0,0,.62,2.675L74.1,84.342c-.3-.847-.556-1.717-.778-2.6Zm1.364,4.692a20.981,20.981,0,0,0,1.234,2.449l-7.222,3.976a28.94,28.94,0,0,1-1.45-2.862Zm-4.85,8.24L84.755,87A20.273,20.273,0,0,0,86.25,88.79l-6.679,4.893A29.717,29.717,0,0,1,77.482,91.01ZM84.233,98a29.07,29.07,0,0,1-3.187-2.74L87.8,90.307a20.766,20.766,0,0,0,2.387,1.786ZM92.106,93.2a20.525,20.525,0,0,0,2.757,1.14l-4.491,7.12a29.212,29.212,0,0,1-4.344-2.237Zm4.72,10.1a28.611,28.611,0,0,1-4.406-1.078l4.6-7.286c.475.1.952.2,1.439.269Zm-19.71-25.75-4.26,2.042c-.118-.674-.222-1.354-.293-2.042Z" transform="translate(38.496 44.157)"></path><path class="c" d="M100.876,75.938A18.623,18.623,0,0,1,87.768,103.3l-.761.135-1.844,12.682,1.313-.081a31.134,31.134,0,0,0,23.835-48.62l-.716-1.052-9.113,8.863Zm8.364-6.251a28.994,28.994,0,0,1-21.579,44.1l1.24-8.531a20.767,20.767,0,0,0,14.231-29.627Z" transform="translate(55.456 33.848)"></path><path class="c" d="M83.074,88.587A18.572,18.572,0,0,1,98.388,73.28l.894-.148V60.489l-1.183.126A31.289,31.289,0,0,0,70.436,88.3l-.126,1.183H82.926ZM72.712,87.344A29.167,29.167,0,0,1,97.144,62.893v8.446A20.711,20.711,0,0,0,81.132,87.344Z" transform="translate(38.544 27.164)"></path><path class="c" d="M154.857,180.855h.9a2.969,2.969,0,0,0,2.966-2.966v-3.944a2.971,2.971,0,0,0-2.966-2.968h-3.944a.83.83,0,0,1-.83-.828v-3.944a.831.831,0,0,1,.83-.83h3.944a.83.83,0,0,1,.828.83v1.972h2.139v-1.972a2.971,2.971,0,0,0-2.966-2.969h-.9v-1.726h-2.139v1.726h-.9a2.971,2.971,0,0,0-2.968,2.969v3.944a2.97,2.97,0,0,0,2.968,2.966h3.944a.83.83,0,0,1,.828.83v3.944a.828.828,0,0,1-.828.828h-3.944a.829.829,0,0,1-.83-.828v-1.972h-2.139v1.972a2.97,2.97,0,0,0,2.968,2.966h.9v1.914h2.139Z" transform="translate(127.971 142.194)"></path><path class="c" d="M163.513,169.262l.757.684,8.82-8.9-.806-.753a31.209,31.209,0,0,0-19.411-8.324l-1.131-.066v12.528l.973.088A18.491,18.491,0,0,1,163.513,169.262ZM153.881,154.2a29.09,29.09,0,0,1,16.125,6.927l-5.836,5.886a20.549,20.549,0,0,0-10.289-4.506Z" transform="translate(131.267 131.256)"></path><path class="c" d="M166.112,184.6a18.642,18.642,0,0,1-16.942-16.831l-.092-.969H136.551l.068,1.136a31.187,31.187,0,0,0,27.206,29.017l.986.122,2.489-12.37ZM154.084,181.7a21,21,0,0,0,2.389,1.788l-5.956,5.9a29.3,29.3,0,0,1-3.189-2.74Zm4.305,2.9a20.883,20.883,0,0,0,2.755,1.138l-4.489,7.12a28.788,28.788,0,0,1-4.341-2.237Zm-11.14-15.127a20.916,20.916,0,0,0,.622,2.678l-7.492,3.589c-.3-.849-.556-1.719-.778-2.6Zm1.364,4.692a20.65,20.65,0,0,0,1.236,2.449l-7.222,3.974a28.933,28.933,0,0,1-1.452-2.859Zm-5.214-5.218-4.26,2.042c-.118-.676-.222-1.354-.293-2.042Zm.366,13.459,7.272-4a21.01,21.01,0,0,0,1.5,1.786l-6.677,4.891A29.371,29.371,0,0,1,143.765,182.4Zm19.344,12.293a29.114,29.114,0,0,1-4.406-1.078l4.594-7.289c.475.1.954.2,1.441.269Z" transform="translate(113.97 148.22)"></path><path class="c" d="M182.007,176.315A31.013,31.013,0,0,0,176.6,158.8l-.716-1.054-9.115,8.863.394.714a18.631,18.631,0,0,1-13.108,27.362l-.761.133L151.446,207.5l1.313-.081A31.226,31.226,0,0,0,182.007,176.315Zm-26.823,20.33a20.767,20.767,0,0,0,14.229-29.627l6.112-5.941a29,29,0,0,1-21.581,44.1Z" transform="translate(130.93 137.91)"></path><path class="c" d="M149.212,180.873l.146-.9A18.569,18.569,0,0,1,164.67,164.67l.9-.148V151.879l-1.183.126a31.3,31.3,0,0,0-27.666,27.685l-.126,1.183Zm14.216-26.59v8.446a20.7,20.7,0,0,0-16.012,16.006h-8.422A29.171,29.171,0,0,1,163.428,154.283Z" transform="translate(114.016 131.226)"></path><rect class="c" width="13.348" height="2.139" transform="translate(65.385 231.357)"></rect><path class="c" d="M62.01,181.913h20.54v-52.3H47.929v-7.494h41.1v10.129h10.39v3.246h2.139v-4.622L90.676,119.977H45.79v9.633H39.329v52.3H62.01Zm29.156-58.422,6.6,6.615h-6.6ZM80.411,179.774H62.01V163.465h18.4Zm0-18.45H62.01V145.014h18.4ZM41.468,131.748H80.411v11.127H41.468Zm18.4,13.266v16.309h-18.4V145.014Zm-18.4,34.76V163.465h18.4v16.309Z" transform="translate(3.267 94.901)"></path><rect class="c" width="8.116" height="2.139" transform="translate(49.878 247)"></rect><path class="c" d="M52.338,138.726h2.989v2.989h2.139v-2.989h2.989v-2.139H57.466V133.6H55.327v2.988H52.338Z" transform="translate(18.08 110.413)"></path><path class="c" d="M50.188,143.941l-1.512-1.512-2.114,2.113-2.113-2.113-1.512,1.512,2.114,2.113-2.114,2.113,1.512,1.512,2.113-2.113,2.114,2.113,1.512-1.512-2.114-2.113Z" transform="translate(7.374 120.466)"></path><rect class="c" width="8.116" height="2.139" transform="translate(70.419 265.45)"></rect><path class="c" d="M54.844,143.812a1.069,1.069,0,1,0,0-2.139h-.079a1.036,1.036,0,0,0-1.029,1.069A1.1,1.1,0,0,0,54.844,143.812Z" transform="translate(19.672 119.605)"></path><path class="c" d="M54.844,145.574h-.079a1.036,1.036,0,0,0-1.029,1.069,1.1,1.1,0,0,0,1.108,1.069,1.069,1.069,0,1,0,0-2.139Z" transform="translate(19.672 124.047)"></path><path class="c" d="M66.559,128.167a3.415,3.415,0,0,0-3.3,3.516v28.829a24.479,24.479,0,0,0,1.4,8.165,1.992,1.992,0,0,0,.823,1.018v1.987a1.069,1.069,0,0,0,2.139,0v-1.989a1.982,1.982,0,0,0,.823-1.018,24.453,24.453,0,0,0,1.4-8.163V135.689h2.312v14.38H74.3V133.55H69.852v-1.867A3.412,3.412,0,0,0,66.559,128.167Zm0,2.139a1.282,1.282,0,0,1,1.155,1.377v1.867H65.4v-1.867A1.284,1.284,0,0,1,66.559,130.306Zm1.155,30.207a22.253,22.253,0,0,1-1.155,7.092,22.3,22.3,0,0,1-1.157-7.092V135.689h2.312Z" transform="translate(30.52 104.226)"></path><rect class="c" width="11.687" height="2.139" transform="translate(484.855 295.803)"></rect><rect class="c" width="7.228" height="2.139" transform="translate(471.647 309.129)"></rect><path class="c" d="M250.672,170.086h2.139v-2.545h2.546V165.4h-2.546v-2.546h-2.139V165.4h-2.546v2.139h2.546Z" transform="translate(241.016 143.726)"></path><path class="c" d="M245.2,170.347l-1.8,1.8-1.8-1.8-1.512,1.512,1.8,1.8-1.8,1.8,1.512,1.512,1.8-1.8,1.8,1.8,1.512-1.512-1.8-1.8,1.8-1.8Z" transform="translate(231.863 152.255)"></path><rect class="c" width="7.23" height="2.139" transform="translate(489.143 324.845)"></rect><path class="c" d="M250.418,171.873a1.069,1.069,0,1,0,0-2.139h-.066a1.041,1.041,0,0,0-1.035,1.069A1.1,1.1,0,0,0,250.418,171.873Z" transform="translate(242.372 151.557)"></path><path class="c" d="M250.418,173.058h-.066a1.04,1.04,0,0,0-1.035,1.069,1.1,1.1,0,0,0,1.1,1.069,1.069,1.069,0,1,0,0-2.139Z" transform="translate(242.372 155.342)"></path><path class="c" d="M263.364,161.381a2.971,2.971,0,1,0-5.931,0V185.94a20.942,20.942,0,0,0,1.2,7,1.858,1.858,0,0,0,.693.915v1.6a1.069,1.069,0,0,0,2.139,0v-1.6a1.858,1.858,0,0,0,.691-.911,20.972,20.972,0,0,0,1.2-7.006V164.953h1.653v12.09h2.139V162.814h-3.792Zm-2.964-1.014a.936.936,0,0,1,.825,1.014v1.433h-1.653v-1.433A.937.937,0,0,1,260.4,160.368Zm.825,25.572a18.747,18.747,0,0,1-.828,5.52,18.826,18.826,0,0,1-.825-5.52V164.953h1.653Z" transform="translate(251.614 138.457)"></path><path class="c" d="M242.549,151.252v8.206h-5.5v44.871H274.18V159.458H244.688v-6.067h34.693v8.629h8.852v2.607h2.139v-4l-9.363-9.372ZM239.183,172.9h15.36v13.576h-15.36Zm0,29.293V188.612h15.36v13.578Zm32.858,0h-15.36V188.612h15.36Zm0-15.717h-15.36V172.9h15.36Zm0-15.715H239.183V161.6h32.858Zm9.479-15.969,5.088,5.092H281.52Z" transform="translate(228.397 130.512)"></path><rect class="c" width="2.139" height="5.736" transform="translate(130.324 216.067)"></rect><rect class="c" width="2.139" height="2.643" transform="translate(130.324 225.456)"></rect><rect class="c" width="2.139" height="5.735" transform="translate(136.327 212.036)"></rect><rect class="c" width="2.139" height="2.643" transform="translate(136.327 221.425)"></rect><rect class="c" width="2.139" height="5.735" transform="translate(142.331 217.142)"></rect><rect class="c" width="2.139" height="2.643" transform="translate(142.331 226.531)"></rect><path class="c" d="M82.078,131.665v8.946a18.019,18.019,0,0,0-4.354,5.952H73.331a3.123,3.123,0,0,0-3.12,3.118v6.4a3.123,3.123,0,0,0,3.12,3.118h4.617a18.931,18.931,0,0,0,6.769,7.535l-1.36,8.349H93.666l1.957-4.414a26.753,26.753,0,0,0,6.632.03l1.944,4.384h10.315l-1.36-8.136c5.161-3.276,8.2-8.056,8.55-13.3,1.831-.308,4.269-1.662,4.726-5.439l-2.122-.257c-.3,2.44-1.64,3.232-2.594,3.495-.584-7.276-6.41-13.5-14.962-15.957.011-.175.049-.346.049-.524a7.835,7.835,0,0,0-15.67,0c0,.205.049.4.066.607-.291.088-.588.165-.873.263a16.432,16.432,0,0,0-6.912-3.826Zm16.889-2.4a5.7,5.7,0,0,1,5.7,5.7,5.627,5.627,0,0,1-1.127,3.368c-.026-.006-.056-.006-.083-.013a15.864,15.864,0,0,0-3.452-.385c-.28,0-.554.019-.83.034-.049,0-.1,0-.148.006a15.445,15.445,0,0,0-2.049.257c-.073.013-.143.03-.216.045a13.96,13.96,0,0,0-1.893.526l-.056.017a5.668,5.668,0,0,1,4.158-9.551Zm-14.75,12.31v-7.055a11.911,11.911,0,0,1,4.945,3.225l.481.607.727-.27c.419-.156.864-.278,1.3-.411a7.827,7.827,0,0,0,1.163,2.094,8.613,8.613,0,0,0-1.559,1.2l1.508,1.516a7.635,7.635,0,0,1,2.624-1.57,11.008,11.008,0,0,1,1.1-.355c.287-.077.573-.152.873-.21.411-.079.832-.133,1.258-.173.3-.03.588-.06.89-.068.443-.015.888,0,1.33.028.3.019.6.032.892.071a12.893,12.893,0,0,1,1.287.242,8.78,8.78,0,0,1,4.187,2.036l1.508-1.516a9.488,9.488,0,0,0-3.08-1.961,7.852,7.852,0,0,0,.674-1.422c8,2.353,13.313,8.294,13.313,15.063,0,5.075-2.99,9.757-8.2,12.843l-.631.372,1.185,7.079h-6.4l-2.032-4.579-.8.113a25.114,25.114,0,0,1-7.622-.038l-.808-.126-2.051,4.63h-6.4l1.183-7.267-.607-.376a16.809,16.809,0,0,1-6.827-7.59l-.278-.65H73.331a.983.983,0,0,1-.982-.98v-6.4a.983.983,0,0,1,.982-.98h5.845l.263-.686a15.75,15.75,0,0,1,4.41-6.119Z" transform="translate(38.431 103.044)"></path><rect class="c" width="2.139" height="2.577" transform="translate(113.467 254.216)"></rect><path class="c" d="M220.271,258.706c-.586-7.272-6.412-13.5-14.962-15.948.013-.175.049-.346.049-.524a7.835,7.835,0,1,0-15.67,0c0,.205.051.4.066.605-.291.088-.586.165-.873.261a16.406,16.406,0,0,0-6.912-3.824l-1.335-.342v8.946a17.987,17.987,0,0,0-4.35,5.952h-4.4a3.122,3.122,0,0,0-3.118,3.12v6.4a3.123,3.123,0,0,0,3.118,3.118H176.5A18.922,18.922,0,0,0,183.274,274l-1.36,8.351h10.31l1.955-4.416a27.055,27.055,0,0,0,6.63.032l1.946,4.384h10.317l-1.362-8.138c5.163-3.274,8.2-8.056,8.553-13.3,1.828-.306,4.267-1.66,4.726-5.436l-2.122-.259C222.568,257.654,221.225,258.441,220.271,258.706Zm-22.749-22.169a5.7,5.7,0,0,1,5.7,5.7,5.643,5.643,0,0,1-1.125,3.366c-.028-.006-.06-.006-.088-.013a15.727,15.727,0,0,0-3.45-.385c-.278,0-.55.019-.821.034-.053,0-.1,0-.156.006a15.234,15.234,0,0,0-2.057.259c-.064.011-.126.026-.19.038a14,14,0,0,0-1.916.533l-.049.013a5.642,5.642,0,0,1-1.54-3.852A5.7,5.7,0,0,1,197.522,236.537Zm12.468,36.223-.631.374,1.185,7.081h-6.4l-2.032-4.581-.8.113a25.128,25.128,0,0,1-7.624-.038l-.811-.124-2.047,4.63h-6.4l1.185-7.269-.607-.376a16.831,16.831,0,0,1-6.831-7.59l-.276-.65h-6.012a.979.979,0,0,1-.98-.98v-6.4a.981.981,0,0,1,.98-.982h5.845l.263-.686a15.735,15.735,0,0,1,4.412-6.119l.366-.319v-7.058a11.875,11.875,0,0,1,4.945,3.225l.483.61.727-.269c.419-.156.862-.278,1.3-.411a7.762,7.762,0,0,0,1.161,2.094,8.467,8.467,0,0,0-1.559,1.2l1.508,1.516a7.626,7.626,0,0,1,2.622-1.57,11,11,0,0,1,1.108-.355c.282-.077.565-.152.862-.21.415-.079.838-.133,1.268-.173.291-.03.584-.058.881-.068.445-.015.89,0,1.337.028.3.019.595.034.885.071a12.707,12.707,0,0,1,1.285.242,8.806,8.806,0,0,1,4.192,2.036l1.508-1.516a9.527,9.527,0,0,0-3.08-1.963,7.634,7.634,0,0,0,.674-1.42c8.005,2.355,13.313,8.294,13.313,15.06C218.192,264.994,215.2,269.675,209.991,272.759Z" transform="translate(150.656 225.187)"></path><rect class="c" width="2.139" height="2.577" transform="translate(324.249 483.628)"></rect><rect class="c" width="2.139" height="5.735" transform="translate(422.938 93.074)"></rect><rect class="c" width="2.139" height="2.643" transform="translate(422.938 102.463)"></rect><rect class="c" width="2.139" height="5.736" transform="translate(428.943 89.042)"></rect><rect class="c" width="2.139" height="2.643" transform="translate(428.943 98.431)"></rect><rect class="c" width="2.139" height="5.736" transform="translate(434.946 94.148)"></rect><rect class="c" width="2.139" height="2.643" transform="translate(434.946 103.537)"></rect><path class="c" d="M218.9,83.1a18.062,18.062,0,0,0-4.354,5.95h-4.391a3.124,3.124,0,0,0-3.12,3.12v6.4a3.122,3.122,0,0,0,3.12,3.118h4.615a18.931,18.931,0,0,0,6.769,7.535l-1.36,8.351h10.308l1.959-4.416a26.73,26.73,0,0,0,6.63.032l1.944,4.384h10.317l-1.362-8.135c5.165-3.276,8.206-8.056,8.555-13.3,1.826-.308,4.267-1.662,4.724-5.439l-2.122-.257c-.3,2.436-1.64,3.234-2.594,3.5-.582-7.276-6.41-13.506-14.964-15.959.013-.175.049-.349.049-.524a7.835,7.835,0,1,0-15.67,0c0,.205.049.4.066.605-.291.088-.586.167-.87.263a16.46,16.46,0,0,0-6.912-3.826l-1.337-.344Zm16.889-11.346a5.7,5.7,0,0,1,5.7,5.7,5.645,5.645,0,0,1-1.123,3.366c-.039-.009-.079-.011-.115-.019a15.893,15.893,0,0,0-3.424-.376c-.278,0-.552.019-.828.032-.047,0-.092,0-.139.006a15.784,15.784,0,0,0-2.068.259l-.184.039a14,14,0,0,0-1.923.535l-.047.013a5.666,5.666,0,0,1,4.155-9.551ZM220.671,84.389l.366-.321V77.01a11.886,11.886,0,0,1,4.947,3.227l.483.607.725-.269c.419-.156.862-.276,1.3-.408a7.744,7.744,0,0,0,1.163,2.094,8.462,8.462,0,0,0-1.561,1.2l1.508,1.516a7.619,7.619,0,0,1,2.63-1.574,11.337,11.337,0,0,1,1.1-.353c.284-.077.569-.152.868-.21.413-.079.834-.133,1.262-.173.3-.028.59-.058.892-.068.438-.015.879,0,1.317.028.306.019.612.034.909.071a12.756,12.756,0,0,1,1.255.237,8.759,8.759,0,0,1,4.209,2.042l1.508-1.516a9.482,9.482,0,0,0-3.08-1.963,7.719,7.719,0,0,0,.674-1.422c8,2.355,13.315,8.3,13.315,15.063,0,5.077-2.99,9.757-8.2,12.843l-.631.374,1.187,7.079h-6.4l-2.034-4.579-.8.111a25.062,25.062,0,0,1-7.624-.036l-.809-.124-2.051,4.628h-6.4l1.185-7.269-.61-.376a16.805,16.805,0,0,1-6.827-7.588l-.278-.652h-6.01a.981.981,0,0,1-.982-.98v-6.4a.983.983,0,0,1,.982-.982H216l.263-.684A15.7,15.7,0,0,1,220.671,84.389Z" transform="translate(194.225 37.56)"></path><rect class="c" width="2.139" height="2.576" transform="translate(406.082 131.223)"></rect><rect class="c" width="2.139" height="5.737" transform="translate(130.963 403.017)"></rect><rect class="c" width="2.139" height="2.644" transform="translate(130.963 412.407)"></rect><rect class="c" width="2.139" height="5.737" transform="translate(136.968 398.986)"></rect><rect class="c" width="2.139" height="2.642" transform="translate(136.968 408.376)"></rect><rect class="c" width="2.139" height="5.737" transform="translate(142.972 404.092)"></rect><rect class="c" width="2.139" height="2.642" transform="translate(142.972 413.483)"></rect><path class="c" d="M126.728,235.621l-2.122-.259c-.3,2.442-1.638,3.232-2.594,3.494-.584-7.276-6.412-13.5-14.962-15.954.011-.175.049-.346.049-.524a7.835,7.835,0,0,0-15.67,0c0,.205.049.4.066.607-.291.088-.586.165-.87.261a16.456,16.456,0,0,0-6.912-3.824l-1.337-.344v8.95a17.959,17.959,0,0,0-4.354,5.95H73.629a3.123,3.123,0,0,0-3.118,3.118v6.4a3.123,3.123,0,0,0,3.118,3.12h4.615a18.977,18.977,0,0,0,6.769,7.535L83.655,262.5H93.964l1.957-4.416a26.853,26.853,0,0,0,6.632.03L104.5,262.5h10.317l-1.364-8.138c5.165-3.276,8.208-8.054,8.555-13.3C123.832,240.751,126.27,239.4,126.728,235.621ZM99.265,216.683a5.7,5.7,0,0,1,5.7,5.7,5.616,5.616,0,0,1-1.127,3.366c-.03-.006-.06-.006-.09-.013a15.823,15.823,0,0,0-3.445-.383c-.282,0-.558.019-.836.034l-.13,0a15.408,15.408,0,0,0-2.072.261c-.062.011-.12.024-.18.036a14.239,14.239,0,0,0-1.912.53c-.019.009-.041.011-.06.017a5.666,5.666,0,0,1,4.158-9.549Zm12.466,36.225-.631.372,1.185,7.081h-6.4l-2.032-4.581-.8.111a24.984,24.984,0,0,1-7.622-.036l-.808-.126-2.051,4.632h-6.4l1.183-7.269-.607-.376a16.8,16.8,0,0,1-6.827-7.59l-.278-.65H73.629a.981.981,0,0,1-.979-.982v-6.4a.979.979,0,0,1,.979-.979h5.845l.263-.687a15.706,15.706,0,0,1,4.41-6.117l.368-.321v-7.06a11.9,11.9,0,0,1,4.947,3.229l.481.605.725-.27c.419-.154.864-.276,1.3-.408a7.859,7.859,0,0,0,1.163,2.094,8.527,8.527,0,0,0-1.559,1.2l1.508,1.516A7.633,7.633,0,0,1,95.7,228.33a10.845,10.845,0,0,1,1.091-.351c.291-.079.582-.156.888-.214.4-.079.815-.13,1.232-.171.3-.03.61-.06.92-.071.434-.015.866,0,1.3.028.308.019.618.034.918.071.434.056.853.145,1.272.242a8.777,8.777,0,0,1,4.2,2.04l1.508-1.516a9.53,9.53,0,0,0-3.08-1.965,7.841,7.841,0,0,0,.674-1.42c8.005,2.353,13.315,8.3,13.315,15.063C119.935,245.14,116.943,249.821,111.732,252.907Z" transform="translate(38.773 202.58)"></path><rect class="c" width="2.139" height="2.575" transform="translate(114.106 441.168)"></rect><path class="c" d="M112.695,94.4h2.889l17.993,6.433a15.224,15.224,0,0,0,6.183,1.6,9.625,9.625,0,0,0,5.289-1.536L168.9,85.189c.353-.192,3.452-1.963,4.01-4.647a4.2,4.2,0,0,0-.892-3.49c-3.078-4-9.215-.115-10.236.575a23.574,23.574,0,1,0-39.54-4.538l-1.591-.734a4.045,4.045,0,0,0-1.7-.374h-6.251V68.17H100.312v2.139h10.244v26.6H100.312v2.139h12.383Zm9.32-31.588a21.436,21.436,0,1,1,36.873,14.872l1.082,1.042A59.531,59.531,0,0,1,149.531,83.7a4.166,4.166,0,0,0,.2-1.251,5.44,5.44,0,0,0-2.646-4.656,15.41,15.41,0,1,0-9.575-.742h-5.5a5.362,5.362,0,0,1-2.239-.492l-4.239-1.953.009,0A21.362,21.362,0,0,1,122.015,62.812ZM143.453,76.1a13.293,13.293,0,1,1,13.292-13.292A13.307,13.307,0,0,1,143.453,76.1ZM112.695,74.12h6.251a1.927,1.927,0,0,1,.808.177l9.126,4.2a7.549,7.549,0,0,0,3.135.689h12.913a1.486,1.486,0,0,1,.682.163,3.393,3.393,0,0,1,1.983,3.1,1.615,1.615,0,0,1-.477,1.253,4.334,4.334,0,0,1-2.782.768l-13.6,0-.229.024c-.2.043-4.8,1.086-4.8,4.628V90.2h2.139V89.127c0-1.61,2.494-2.372,3.022-2.513l13.407-.006a7.853,7.853,0,0,0,1.358-.075v.026l1.067-.075c5.593-.383,15.649-6.679,16.123-6.981.056-.038,5.469-3.773,7.5-1.144a2.085,2.085,0,0,1,.492,1.743c-.3,1.465-2.231,2.817-3.02,3.257L143.827,99.146a7.587,7.587,0,0,1-4.068,1.153,13.608,13.608,0,0,1-5.327-1.42l-18.3-6.555-3.435-.038Z" transform="translate(72.706 2.966)"></path><rect class="c" width="2.139" height="6.645" transform="translate(176.501 88.972)"></rect><path class="c" d="M125,47.106h-.86v-1.67H122v1.67h-.862a2.933,2.933,0,0,0-2.93,2.928v3.86a2.933,2.933,0,0,0,2.93,2.93H125a.79.79,0,0,1,.789.789v3.86a.792.792,0,0,1-.789.791h-3.86a.792.792,0,0,1-.791-.791V59.545h-2.139v1.929a2.933,2.933,0,0,0,2.93,2.93H122v1.991h2.139V64.4H125a2.931,2.931,0,0,0,2.928-2.93v-3.86A2.931,2.931,0,0,0,125,54.686h-3.86a.792.792,0,0,1-.791-.791v-3.86a.792.792,0,0,1,.791-.789H125a.791.791,0,0,1,.789.789v1.931h2.139V50.034A2.931,2.931,0,0,0,125,47.106Z" transform="translate(93.087 10.024)"></path><rect class="c" width="2.669" height="2.139" transform="translate(206.125 65.095)"></rect><rect class="c" width="2.671" height="2.139" transform="translate(223.128 65.095)"></rect><path class="c" d="M279.335,219.318a23.574,23.574,0,1,0-39.538-4.54l-1.6-.736a4.13,4.13,0,0,0-1.7-.37h-6.249v-3.811H217.87V212h10.244v26.6H217.87v2.139h12.383v-4.647h2.887l17.993,6.433a15.264,15.264,0,0,0,6.185,1.606,9.612,9.612,0,0,0,5.289-1.538l23.848-15.713c.353-.192,3.45-1.961,4.01-4.647a4.2,4.2,0,0,0-.892-3.49C286.5,214.752,280.353,218.629,279.335,219.318ZM239.573,204.5a21.436,21.436,0,1,1,36.87,14.874l1.082,1.041a59.606,59.606,0,0,1-10.439,4.977,4.116,4.116,0,0,0,.2-1.253,5.435,5.435,0,0,0-2.648-4.656,15.409,15.409,0,1,0-9.573-.742h-5.5a5.347,5.347,0,0,1-2.239-.492L243.1,216.3l.007-.006A21.359,21.359,0,0,1,239.573,204.5ZM261.009,217.8A13.292,13.292,0,1,1,274.3,204.5,13.307,13.307,0,0,1,261.009,217.8Zm24.342,7.254-23.964,15.786a7.58,7.58,0,0,1-4.07,1.157,13.581,13.581,0,0,1-5.327-1.422l-18.3-6.555-3.435-.039V215.811H236.5a1.952,1.952,0,0,1,.808.178l9.128,4.2a7.549,7.549,0,0,0,3.135.689h12.913a1.45,1.45,0,0,1,.68.163,3.391,3.391,0,0,1,1.985,3.1,1.608,1.608,0,0,1-.479,1.253,4.329,4.329,0,0,1-2.78.768l-13.6,0-.227.026c-.2.041-4.8,1.084-4.8,4.626v1.069H245.4v-1.069c0-1.612,2.492-2.37,3.02-2.513l13.407-.006a8.182,8.182,0,0,0,1.358-.077l0,.028,1.067-.073c5.59-.385,15.646-6.679,16.123-6.983.051-.038,5.468-3.773,7.5-1.144a2.077,2.077,0,0,1,.49,1.743C288.069,223.259,286.14,224.611,285.351,225.05Z" transform="translate(206.565 164.304)"></path><rect class="c" width="2.139" height="6.644" transform="translate(427.917 392.002)"></rect><path class="c" d="M242.559,188.8H241.7v-1.668h-2.139V188.8H238.7a2.933,2.933,0,0,0-2.928,2.93v3.86a2.931,2.931,0,0,0,2.928,2.928h3.862a.792.792,0,0,1,.789.791v3.86a.791.791,0,0,1-.789.789H238.7a.791.791,0,0,1-.789-.789v-1.929h-2.139v1.929a2.931,2.931,0,0,0,2.928,2.928h.862v1.993H241.7v-1.993h.862a2.931,2.931,0,0,0,2.928-2.928V199.3a2.933,2.933,0,0,0-2.928-2.93H238.7a.791.791,0,0,1-.789-.789v-3.86a.793.793,0,0,1,.789-.791h3.862a.793.793,0,0,1,.789.791v1.931h2.139v-1.931A2.933,2.933,0,0,0,242.559,188.8Z" transform="translate(226.946 171.362)"></path><rect class="c" width="2.669" height="2.139" transform="translate(457.541 368.124)"></rect><rect class="c" width="2.671" height="2.139" transform="translate(474.544 368.124)"></rect><path class="c" d="M145.692,216.209a4.194,4.194,0,0,0-.892-3.492c-3.078-3.989-9.22-.109-10.238.577a23.571,23.571,0,1,0-39.537-4.54l-1.6-.736a4.129,4.129,0,0,0-1.7-.37H85.48v-3.811H73.1v2.139H83.341v26.6H73.1v2.139H85.48v-4.645h2.889l17.993,6.431a15.21,15.21,0,0,0,6.183,1.606,9.609,9.609,0,0,0,5.289-1.538l23.848-15.711C142.035,220.662,145.134,218.9,145.692,216.209ZM94.8,198.477a21.435,21.435,0,1,1,36.871,14.874l1.082,1.042a59.837,59.837,0,0,1-10.439,4.975,4.166,4.166,0,0,0,.2-1.251,5.443,5.443,0,0,0-2.648-4.658,15.41,15.41,0,1,0-9.575-.742h-5.5a5.393,5.393,0,0,1-2.239-.49l-4.239-1.955.009,0A21.36,21.36,0,0,1,94.8,198.477Zm21.436,13.294a13.294,13.294,0,1,1,13.292-13.294A13.308,13.308,0,0,1,116.238,211.771Zm.374,23.04a7.565,7.565,0,0,1-4.068,1.155,13.568,13.568,0,0,1-5.327-1.422l-18.3-6.553-3.437-.039V209.787h6.251a1.95,1.95,0,0,1,.808.175l9.128,4.207a7.538,7.538,0,0,0,3.133.686h12.913a1.485,1.485,0,0,1,.682.163,3.4,3.4,0,0,1,1.985,3.1,1.622,1.622,0,0,1-.479,1.253,4.344,4.344,0,0,1-2.782.768l-13.6,0-.229.026c-.195.041-4.8,1.082-4.8,4.626v1.069h2.139v-1.069c0-1.613,2.492-2.372,3.02-2.513l13.409-.006a8.586,8.586,0,0,0,1.358-.079l0,.03,1.067-.075c5.59-.385,15.646-6.679,16.123-6.981.053-.036,5.464-3.773,7.5-1.144a2.076,2.076,0,0,1,.492,1.743c-.3,1.467-2.231,2.817-3.02,3.255Z" transform="translate(41.717 157.445)"></path><rect class="c" width="2.139" height="6.644" transform="translate(118.298 379.118)"></rect><path class="c" d="M97.785,182.772h-.86V181.1H94.787v1.67h-.862A2.931,2.931,0,0,0,91,185.7v3.862a2.931,2.931,0,0,0,2.928,2.928h3.86a.793.793,0,0,1,.791.789v3.862a.793.793,0,0,1-.791.789h-3.86a.791.791,0,0,1-.789-.789v-1.929H91v1.929a2.931,2.931,0,0,0,2.928,2.928h.862v1.993h2.139V200.07h.86a2.933,2.933,0,0,0,2.93-2.928V193.28a2.933,2.933,0,0,0-2.93-2.928h-3.86a.791.791,0,0,1-.789-.789V185.7a.791.791,0,0,1,.789-.789h3.86a.793.793,0,0,1,.791.789v1.933h2.139V185.7A2.933,2.933,0,0,0,97.785,182.772Z" transform="translate(62.099 164.501)"></path><rect class="c" width="2.669" height="2.139" transform="translate(147.922 355.24)"></rect><rect class="c" width="2.671" height="2.139" transform="translate(164.925 355.24)"></rect><path class="c" d="M240.675,192.267a4.2,4.2,0,0,0-.894-3.49c-3.084-4-9.218-.113-10.236.575a23.574,23.574,0,1,0-39.54-4.538l-1.593-.734a4.038,4.038,0,0,0-1.7-.374h-6.249V179.9H168.078v2.139h10.244v26.6H168.078v2.139h12.383v-4.647h2.887l17.993,6.433a15.264,15.264,0,0,0,6.185,1.606,9.626,9.626,0,0,0,5.289-1.538l23.848-15.711C237.016,196.722,240.112,194.951,240.675,192.267Zm-50.894-17.729a21.436,21.436,0,1,1,36.873,14.872l1.082,1.041a59.483,59.483,0,0,1-10.441,4.975,4.1,4.1,0,0,0,.2-1.251,5.44,5.44,0,0,0-2.646-4.656,15.41,15.41,0,1,0-9.575-.742h-5.494a5.305,5.305,0,0,1-2.241-.492l-4.239-1.953.006,0A21.36,21.36,0,0,1,189.781,174.537Zm21.436,13.292a13.293,13.293,0,1,1,13.294-13.292A13.307,13.307,0,0,1,211.217,187.829Zm.374,23.042a7.553,7.553,0,0,1-4.066,1.155A13.581,13.581,0,0,1,202.2,210.6l-18.3-6.555-3.435-.038V185.845h6.249a1.925,1.925,0,0,1,.809.178l9.13,4.207a7.45,7.45,0,0,0,3.135.686H212.7a1.468,1.468,0,0,1,.678.163,3.391,3.391,0,0,1,1.985,3.1,1.608,1.608,0,0,1-.479,1.253,4.336,4.336,0,0,1-2.778.768l-13.6,0-.227.024c-.2.043-4.8,1.086-4.8,4.628v1.069h2.139v-1.069c0-1.612,2.494-2.37,3.022-2.515l13.407,0a8.048,8.048,0,0,0,1.356-.075l0,.023,1.067-.073c5.593-.383,15.649-6.679,16.126-6.981.053-.039,5.46-3.783,7.5-1.144a2.078,2.078,0,0,1,.492,1.743c-.3,1.465-2.233,2.819-3.022,3.259Z" transform="translate(149.868 130.183)"></path><rect class="c" width="2.139" height="6.644" transform="translate(321.429 327.915)"></rect><path class="c" d="M192.767,158.831h-.862v-1.67h-2.139v1.67H188.9a2.931,2.931,0,0,0-2.928,2.928v3.862a2.931,2.931,0,0,0,2.928,2.928h3.862a.791.791,0,0,1,.789.789v3.86a.792.792,0,0,1-.789.791H188.9a.792.792,0,0,1-.789-.791V171.27h-2.139V173.2a2.931,2.931,0,0,0,2.928,2.93h.862v1.991h2.139v-1.991h.862a2.931,2.931,0,0,0,2.928-2.93v-3.86a2.931,2.931,0,0,0-2.928-2.928H188.9a.791.791,0,0,1-.789-.789v-3.862a.791.791,0,0,1,.789-.789h3.862a.791.791,0,0,1,.789.789v1.931H195.7v-1.931A2.931,2.931,0,0,0,192.767,158.831Z" transform="translate(170.249 137.241)"></path><rect class="c" width="2.669" height="2.139" transform="translate(351.053 304.038)"></rect><rect class="c" width="2.671" height="2.139" transform="translate(368.056 304.038)"></rect><path class="c" d="M165.982,75.6a22.738,22.738,0,0,0,29.958,1.955l4.106,4.106-1.493,1.495L214.4,99a2.46,2.46,0,0,0,3.484,0l3.719-3.721a2.46,2.46,0,0,0,0-3.484L205.756,75.953l-1.495,1.495-4.106-4.108a22.771,22.771,0,0,0-34.174-29.956A22.81,22.81,0,0,0,165.982,75.6Zm54.106,18.166-3.719,3.721a.367.367,0,0,1-.46,0L201.578,83.159l4.179-4.181,14.331,14.333A.361.361,0,0,1,220.088,93.769ZM202.75,78.96l-1.191,1.191-3.982-3.982c.205-.192.423-.368.622-.567s.376-.419.569-.627ZM167.494,44.9a20.643,20.643,0,1,1,0,29.195A20.51,20.51,0,0,1,167.494,44.9Z" transform="translate(139.896 0.087)"></path><path class="c" d="M167.227,66.762a15.654,15.654,0,1,0,0-22.137A15.607,15.607,0,0,0,167.227,66.762Zm1.512-20.625a13.516,13.516,0,1,1,0,19.113A13.48,13.48,0,0,1,168.74,46.137Z" transform="translate(143.689 3.886)"></path><path class="c" d="M170.63,62.162h.984v1.69h2.139v-1.69h.984a3.053,3.053,0,0,0,3.048-3.048V55.008a3.051,3.051,0,0,0-3.048-3.045H170.63a.911.911,0,0,1-.909-.909V46.948a.91.91,0,0,1,.909-.909h4.106a.908.908,0,0,1,.909.909V49h2.139V46.948a3.052,3.052,0,0,0-3.048-3.048h-.984V42.467h-2.139V43.9h-.984a3.052,3.052,0,0,0-3.048,3.048v4.106A3.053,3.053,0,0,0,170.63,54.1h4.106a.908.908,0,0,1,.909.907v4.106a.91.91,0,0,1-.909.909H170.63a.911.911,0,0,1-.909-.909V57.061h-2.139v2.053A3.053,3.053,0,0,0,170.63,62.162Z" transform="translate(149.304 6.643)"></path><path class="c" d="M167.247,277.562l-19.374-10.907-1.029,1.829-5.011-2.821a22.6,22.6,0,1,0-21.015,14.211,22.657,22.657,0,0,0,18.114-9.034l5,2.815-1.029,1.826,19.376,10.909a2.47,2.47,0,0,0,3.351-.941l2.554-4.534A2.466,2.466,0,0,0,167.247,277.562Zm-40.874-.58a20.478,20.478,0,1,1,12.332-9.677A20.319,20.319,0,0,1,126.373,276.983Zm18.608-5.191-4.872-2.742c.145-.24.319-.451.458-.7s.244-.5.37-.742l4.859,2.735-.406.723Zm21.342,8.076L163.77,284.4a.329.329,0,0,1-.443.126l-17.509-9.857,1.435-2.551,1.435-2.549,17.511,9.857A.327.327,0,0,1,166.324,279.868Z" transform="translate(70.352 225.47)"></path><path class="c" d="M124.715,239.95a15.541,15.541,0,1,0,7.344,9.359A15.556,15.556,0,0,0,124.715,239.95Zm4.057,20.118a13.4,13.4,0,1,1-15.291-19.483,13.54,13.54,0,0,1,3.631-.5,13.409,13.409,0,0,1,11.66,19.984Z" transform="translate(74.118 229.236)"></path><path class="c" d="M117.765,251.315a3.035,3.035,0,0,0-3.736-2.1l-3.924,1.1a.891.891,0,0,1-1.1-.62l-1.1-3.922a.9.9,0,0,1,.622-1.1l3.922-1.1a.9.9,0,0,1,1.1.62l.55,1.963,2.06-.575-.55-1.961a3.032,3.032,0,0,0-3.734-2.107l-.932.261-.381-1.362-2.06.577.381,1.362-.935.261a3.039,3.039,0,0,0-2.1,3.736l1.1,3.924a3.033,3.033,0,0,0,3.736,2.1l3.922-1.1a.9.9,0,0,1,1.1.62l1.1,3.924a.9.9,0,0,1-.618,1.1l-3.924,1.1a.905.905,0,0,1-.68-.083.884.884,0,0,1-.421-.537l-.55-1.963-2.06.575.55,1.961a3.031,3.031,0,0,0,2.913,2.22,3.1,3.1,0,0,0,.821-.113l.932-.261.451,1.608,2.06-.577-.451-1.608.935-.261a3.036,3.036,0,0,0,2.1-3.736Z" transform="translate(78.881 232.029)"></path><path class="c" d="M79.68,176.678h5.43v2.01H106.4a2.467,2.467,0,0,0,2.464-2.464v-4.868a2.467,2.467,0,0,0-2.464-2.464H85.11v2.01H79.682a21.726,21.726,0,1,0,0,5.774Zm27.046-5.321v4.868a.325.325,0,0,1-.325.325H87.249v-5.518H106.4A.326.326,0,0,1,106.726,171.357ZM85.11,173.043v1.5H79.858c.009-.25.038-.5.038-.749s-.03-.5-.038-.749Zm-46.512.749A19.579,19.579,0,1,1,58.18,193.371,19.6,19.6,0,0,1,38.6,173.791Z" transform="translate(0 131.447)"></path><path class="c" d="M69.507,170.182A14.939,14.939,0,1,0,54.571,185.12,14.955,14.955,0,0,0,69.507,170.182Zm-27.738,0a12.8,12.8,0,1,1,12.8,12.8A12.815,12.815,0,0,1,41.769,170.182Z" transform="translate(3.61 135.057)"></path><path class="c" d="M50.324,177.9v-1.555h.883a2.952,2.952,0,0,0,2.949-2.949v-3.905a2.951,2.951,0,0,0-2.949-2.949H47.3a.811.811,0,0,1-.811-.811v-3.907a.813.813,0,0,1,.811-.811h3.905a.813.813,0,0,1,.811.811v1.955h2.139v-1.955a2.952,2.952,0,0,0-2.949-2.949h-.883v-1.309H48.185v1.309H47.3a2.952,2.952,0,0,0-2.949,2.949v3.907a2.952,2.952,0,0,0,2.949,2.949h3.905a.811.811,0,0,1,.811.811v3.905a.811.811,0,0,1-.811.811H47.3a.811.811,0,0,1-.811-.811v-1.953H44.353v1.953a2.952,2.952,0,0,0,2.949,2.949h.883V177.9Z" transform="translate(8.987 137.696)"></path><path class="c" d="M157.519,109.9V143.5a2.467,2.467,0,0,0,2.464,2.464h45.37a2.468,2.468,0,0,0,2.466-2.464v-8.384h.984a1.962,1.962,0,0,0,1.961-1.959v-9.387a1.962,1.962,0,0,0-1.961-1.961h-.984v-6.752a2.468,2.468,0,0,0-2.466-2.464h-2.109v-5.062a2.455,2.455,0,0,0-2.453-2.451h-10.1a1.069,1.069,0,0,0,0,2.139h10.1a.314.314,0,0,1,.314.312v5.062H162.346a2.687,2.687,0,1,1,0-5.374H173.24a1.069,1.069,0,0,0,0-2.139H162.346A4.832,4.832,0,0,0,157.519,109.9Zm51.105,23.07h-17.33a2.654,2.654,0,0,1-2.652-2.652V126.6a2.656,2.656,0,0,1,2.652-2.654h17.33ZM162.346,114.73h43.006a.327.327,0,0,1,.327.325v6.752H191.295A4.8,4.8,0,0,0,186.5,126.6v3.723a4.8,4.8,0,0,0,4.791,4.791H205.68V143.5a.328.328,0,0,1-.327.325h-45.37a.326.326,0,0,1-.325-.325V113.909A4.8,4.8,0,0,0,162.346,114.73Z" transform="translate(137.845 77.936)"></path><path class="c" d="M167.2,107.443a1.068,1.068,0,0,0,1.069,1.069h1.365v1.364a1.069,1.069,0,1,0,2.139,0v-1.364h1.365a1.069,1.069,0,0,0,0-2.139h-1.365v-1.364a1.069,1.069,0,1,0-2.139,0v1.364h-1.365A1.067,1.067,0,0,0,167.2,107.443Z" transform="translate(148.864 76.64)"></path><path class="c" d="M175.307,101.08v1.364h-1.364a1.069,1.069,0,1,0,0,2.139h1.364v1.364a1.069,1.069,0,1,0,2.139,0v-1.364h1.364a1.069,1.069,0,1,0,0-2.139h-1.364V101.08a1.069,1.069,0,1,0-2.139,0Z" transform="translate(155.328 72.166)"></path><path class="c" d="M172.47,94.694a1.067,1.067,0,0,0-1.069,1.069v2.911h-2.913a1.069,1.069,0,0,0,0,2.139H171.4v2.913a1.069,1.069,0,0,0,2.139,0v-2.913h2.911a1.069,1.069,0,1,0,0-2.139H173.54V95.763A1.068,1.068,0,0,0,172.47,94.694Z" transform="translate(149.118 66.112)"></path><path class="c" d="M165.184,98.914a1.067,1.067,0,0,0-1.069,1.069v2.911H161.2a1.069,1.069,0,0,0,0,2.139h2.913v2.911a1.069,1.069,0,1,0,2.139,0v-2.911h2.913a1.069,1.069,0,0,0,0-2.139h-2.913V99.983A1.068,1.068,0,0,0,165.184,98.914Z" transform="translate(140.821 70.917)"></path><path class="c" d="M236.951,224.161v-7.383h.676a1.963,1.963,0,0,0,1.961-1.959v-8.206a1.963,1.963,0,0,0-1.961-1.959h-.676v-5.926a2.317,2.317,0,0,0-2.316-2.314h-1.771V192a2.308,2.308,0,0,0-2.308-2.305h-9.034a1.069,1.069,0,1,0,0,2.139h9.034a.168.168,0,0,1,.169.167v4.412H196.182a2.289,2.289,0,1,1,0-4.579h9.739a1.069,1.069,0,1,0,0-2.139h-9.739a4.432,4.432,0,0,0-4.429,4.427v30.038a2.319,2.319,0,0,0,2.316,2.314h40.566A2.317,2.317,0,0,0,236.951,224.161Zm.5-9.521H222.462a2.657,2.657,0,0,1-2.654-2.654v-2.541a2.655,2.655,0,0,1,2.654-2.652H237.45Zm-43.558,9.521V197.9a4.39,4.39,0,0,0,2.291.657h38.453a.177.177,0,0,1,.177.175v5.926H222.462a4.8,4.8,0,0,0-4.793,4.791v2.541a4.8,4.8,0,0,0,4.793,4.793h12.351v7.383a.177.177,0,0,1-.177.175H194.069A.177.177,0,0,1,193.892,224.161Z" transform="translate(176.826 174.287)"></path><path class="c" d="M203.65,195.169a1.068,1.068,0,0,0,1.069-1.069v-1.106h1.108a1.069,1.069,0,0,0,0-2.139H204.72v-1.108a1.069,1.069,0,1,0-2.139,0v1.108h-1.106a1.069,1.069,0,1,0,0,2.139h1.106V194.1A1.07,1.07,0,0,0,203.65,195.169Z" transform="translate(186.679 173.128)"></path><path class="c" d="M208.725,185.164a1.07,1.07,0,0,0-1.069,1.069v1.108H206.55a1.069,1.069,0,1,0,0,2.139h1.106v1.108a1.069,1.069,0,0,0,2.139,0V189.48H210.9a1.069,1.069,0,0,0,0-2.139h-1.108v-1.108A1.068,1.068,0,0,0,208.725,185.164Z" transform="translate(192.458 169.127)"></path><path class="c" d="M209.863,185.04a1.07,1.07,0,0,0-1.069-1.069H206.3v-2.492a1.069,1.069,0,1,0-2.139,0v2.492h-2.492a1.069,1.069,0,1,0,0,2.139h2.492V188.6a1.069,1.069,0,1,0,2.139,0v-2.489h2.489A1.068,1.068,0,0,0,209.863,185.04Z" transform="translate(186.906 163.713)"></path><path class="c" d="M198.719,193.442a1.068,1.068,0,0,0,1.069-1.069v-2.492h2.489a1.069,1.069,0,0,0,0-2.139h-2.489v-2.489a1.069,1.069,0,0,0-2.139,0v2.489h-2.492a1.069,1.069,0,0,0,0,2.139h2.492v2.492A1.07,1.07,0,0,0,198.719,193.442Z" transform="translate(179.486 168.011)"></path><path class="c" d="M168.526,149.829a22.11,22.11,0,0,0,22.084,22.084c.265,0,.522-.03.783-.041v.041h38.13V144.234H211.949a22.07,22.07,0,0,0-43.423,5.595Zm58.858,19.945H200.028a22.158,22.158,0,0,0,6.091-4.247h21.265Zm0-6.386H208a21.991,21.991,0,0,0,2.6-4.245h16.78Zm0-6.384h-15.91a21.884,21.884,0,0,0,1-4.245h14.909Zm0-10.631v4.247H212.653c.011-.265.041-.526.041-.791a22.19,22.19,0,0,0-.3-3.456Zm-16.829,3.456a19.945,19.945,0,1,1-19.945-19.947A19.967,19.967,0,0,1,210.555,149.829Z" transform="translate(150.378 103.743)"></path><path class="c" d="M180.461,133.408v1.9h-1.027a2.843,2.843,0,0,0-2.934,2.735v3.745a2.844,2.844,0,0,0,2.934,2.735h4.192c.432,0,.8.272.8.595v3.747c0,.323-.364.594-.8.594h-4.192c-.432,0-.8-.272-.8-.594v-1.069H176.5v1.069a2.843,2.843,0,0,0,2.934,2.733h1.027v1.754H182.6V151.6h1.027a2.843,2.843,0,0,0,2.934-2.733v-3.747a2.842,2.842,0,0,0-2.934-2.733h-4.192c-.432,0-.8-.274-.8-.6V138.04c0-.323.363-.6.8-.6h4.192c.432,0,.8.274.8.6v1.069h2.139V138.04a2.843,2.843,0,0,0-2.934-2.735H182.6v-1.9Z" transform="translate(159.458 110.194)"></path><path class="c" d="M204.881,134.328l-1.512-1.512-3.766,3.766V124.171h-2.139v12.411l-3.766-3.766-1.512,1.512,6.348,6.348Zm-6.072,3.048-.276.276-.276-.276Z" transform="translate(177.319 99.676)"></path><path class="c" d="M204.177,131.93v31.565l-3.766-3.766L198.9,161.24l6.348,6.348,6.345-6.348-1.512-1.512-3.764,3.766V131.93Zm.794,32.358h.55l-.274.276Z" transform="translate(184.963 108.511)"></path><path class="c" d="M189.414,121.234v8.876l-2.54-2.539-1.512,1.512,5.121,5.12,5.119-5.12-1.512-1.512-2.538,2.538v-8.875Z" transform="translate(169.55 96.331)"></path><path class="c" d="M171.89,146a14.888,14.888,0,1,0,14.889-14.889A14.905,14.905,0,0,0,171.89,146Zm27.638,0a12.75,12.75,0,1,1-12.749-12.751A12.763,12.763,0,0,1,199.528,146Z" transform="translate(154.209 107.575)"></path><path class="c" d="M147.672,76.771h10.621c.738,3.385,2.3,7.853,5.59,10.094l1.2-1.767c-4.709-3.21-5.3-12.734-5.3-12.83l-.021-.408-6.44-6.439a2.465,2.465,0,0,1,0-3.492,2.528,2.528,0,0,1,3.492,0l8.332,8.334,1.512-1.512-1.349-1.35h.244V56.439c3.095,2.626,6.739,6.365,6.8,8.446.024.716.058,1.587.1,2.541.148,3.758.4,10.045-.051,11.579l-.18.592a39.794,39.794,0,0,0-1.734,14.2H154.81V88.9l-.56-.3c-3.08-1.672-3.362-8.7-3.212-11.26L148.9,77.21c-.062,1.037-.46,9.889,3.768,12.915V93.8h-3.15v8.065h2.139V95.936h21.566v5.926h2.139V93.8h-2.737a37.379,37.379,0,0,1,1.638-13.57l.188-.618c.509-1.732.364-6.581.137-12.267-.036-.947-.073-1.811-.094-2.524-.124-3.929-7.021-9.633-8.942-11.149V36.633H138.208V76.771h9.464Zm15.745-38V65.5l-5.088-5.088a4.716,4.716,0,0,0-6.516,0,4.6,4.6,0,0,0,0,6.517l5.868,5.871c.032.389.1,1.031.218,1.829H147.672V38.772Zm-23.07,35.861V38.772h5.186V74.633Z" transform="translate(115.857 0)"></path><rect class="c" width="2.139" height="5.364" transform="translate(274.644 41.472)"></rect><rect class="c" width="2.139" height="5.365" transform="translate(274.644 50.185)"></rect><rect class="c" width="2.139" height="14.078" transform="translate(266.668 41.472)"></rect><path class="c" d="M193.588,217.487V202.4c4-.853,9.346-2.68,12.006-6.583l-1.767-1.2c-3.865,5.67-15.253,6.367-15.368,6.373l-.408.024-7.584,7.582a3.128,3.128,0,0,1-4.425-4.423l9.887-9.883-1.514-1.512-1.94,1.94v-.567H169.239c3.15-3.766,7.845-8.388,10.443-8.469.836-.026,1.848-.066,2.956-.109,4.485-.18,11.994-.483,13.854.066l.708.216c2.763.855,7.853,2.4,16.977,2.038v19h-5.89l-.3.558c-2.034,3.745-10.458,4.1-13.54,3.914l-.128,2.134c.1.006.654.039,1.5.039,3.261,0,10.881-.453,13.7-4.506h4.658v3.734h9.363v-2.139h-7.224V184.644h7.224v-2.139h-9.363v3.244c-8.811.355-13.7-1.125-16.346-1.946l-.738-.222c-2.027-.595-7.785-.421-14.541-.154-1.1.045-2.107.086-2.939.109-4.624.145-11.433,8.448-13.129,10.608h-20.1v32.031h47.207Zm-45.068-21.2h32.386l-6.375,6.371a5.266,5.266,0,0,0,7.449,7.447l7.013-7.013c.483-.038,1.36-.128,2.457-.3v12.558H148.52Zm0,27.753v-6.549h42.929v6.549Z" transform="translate(125.163 166.099)"></path><rect class="c" width="5.965" height="2.139" transform="translate(277.284 365.728)"></rect><rect class="c" width="5.965" height="2.139" transform="translate(287.618 365.728)"></rect><rect class="c" width="16.299" height="2.139" transform="translate(277.284 375.189)"></rect><path class="c" d="M231.03,87.862v50.205h25.348c.9,4.26,2.842,9.983,7,12.819l1.2-1.767c-6.076-4.14-6.82-16.324-6.827-16.446l-.023-.408-8.067-8.071a3.407,3.407,0,0,1,4.818-4.818l10.541,10.544,1.512-1.512-2.19-2.19h.7v-14.2c4.046,3.368,9.087,8.467,9.175,11.29.03.9.07,1.989.12,3.185.2,5.086.509,12.776-.077,14.765l-.231.761c-.911,2.951-2.558,8.394-2.169,18.153H251.463v-6.309l-.558-.3c-4.029-2.188-4.406-11.215-4.211-14.509l-2.134-.126c-.032.52-.678,12.434,4.765,16.173v5.075h-3.982v9.919h2.139v-7.78h27.845v7.78h2.139V160.17h-3.456c-.385-9.451,1.2-14.686,2.072-17.522l.24-.787c.633-2.152.447-8.272.163-15.456-.047-1.189-.09-2.271-.118-3.165-.154-4.921-9.055-12.2-11.313-13.972V87.862H242.433v0h-2.139v0Zm2.139,48.066V90h7.126v45.928ZM262.913,90v34.781L256,117.863a5.545,5.545,0,0,0-7.843,7.842l7.5,7.5c.043.522.141,1.5.331,2.725H242.433V90Z" transform="translate(221.549 58.33)"></path><rect class="c" width="2.139" height="6.22" transform="translate(478.611 152.313)"></rect><rect class="c" width="2.139" height="6.22" transform="translate(478.611 163.334)"></rect><rect class="c" width="2.139" height="17.241" transform="translate(468.521 152.313)"></rect><path class="c" d="M93.149,256.273h2.139v-9.917H91.83c-.385-9.453,1.2-14.688,2.075-17.526l.24-.785c.635-2.158.449-8.3.16-15.51-.047-1.168-.09-2.231-.118-3.112-.154-4.921-9.053-12.2-11.311-13.972V174.046H60.254v0H58.116v0H48.851v50.205H74.2c.9,4.26,2.842,9.983,7,12.821l1.2-1.767c-6.076-4.143-6.822-16.327-6.829-16.448l-.024-.409-8.069-8.071a3.406,3.406,0,0,1,4.818-4.816L82.849,216.1l1.512-1.512-2.19-2.188h.7V198.2c4.046,3.368,9.085,8.467,9.173,11.29.03.888.073,1.957.12,3.131.19,4.8.511,12.824-.075,14.821l-.233.759c-.909,2.951-2.554,8.394-2.166,18.155h-20.4v-6.311l-.56-.3c-4.031-2.188-4.408-11.213-4.213-14.509L62.38,225.1c-.03.522-.678,12.436,4.769,16.175v5.077H63.163v9.917H65.3V248.5H93.149ZM50.99,222.113V176.185h7.126v45.928Zm22.828-18.063a5.545,5.545,0,0,0-7.842,7.84l7.5,7.5c.041.522.139,1.5.331,2.723H60.254V176.185H80.736v34.783Z" transform="translate(14.109 156.465)"></path><rect class="c" width="2.139" height="6.22" transform="translate(88.994 336.633)"></rect><rect class="c" width="2.139" height="6.22" transform="translate(88.994 347.654)"></rect><rect class="c" width="2.139" height="17.241" transform="translate(78.902 336.633)"></rect></g></g></svg>