<svg xmlns="http://www.w3.org/2000/svg" width="171.018" height="135" viewBox="0 0 171.018 135"><defs><style>.a{fill:#1c43b9;stroke:#1c43b9;stroke-width:2px;}.b{fill:none;}</style></defs><g transform="translate(-998.982 -1755)"><path class="a" d="M66.668,35.993a6.322,6.322,0,0,0-5.98,4.314L51.94,38.192A16.547,16.547,0,0,0,48.775,24.9l8-6.778a10.065,10.065,0,1,0-.974-1.149l-8.011,6.771a16.562,16.562,0,0,0-22.473-1.7L16.915,12.41a6.253,6.253,0,1,0-1.141,1l8.4,9.646a16.577,16.577,0,0,0,1.392,25.189l-6.17,8.878a9.89,9.89,0,1,0,1.255.86l6.162-8.893a16.554,16.554,0,0,0,17.566.053L53.264,62.08a4.374,4.374,0,1,0,1.255-.86L45.633,48.287a16.661,16.661,0,0,0,5.942-8.619l8.8,2.123v.5a6.314,6.314,0,1,0,6.291-6.3ZM55.432,11.162a8.444,8.444,0,1,1,1.522,4.816,8.444,8.444,0,0,1-1.522-4.816Zm-40.647,1.08a4.778,4.778,0,1,1,1.149-1,4.778,4.778,0,0,1-1.149,1Zm8,53.421a8.368,8.368,0,1,1-3.043-6.428,8.368,8.368,0,0,1,3.043,6.428Zm31.366-2.282a2.815,2.815,0,1,1-.669,1.8A2.815,2.815,0,0,1,54.154,63.381Zm-3.7-25.546A15.1,15.1,0,1,1,40.24,20.594,15.04,15.04,0,0,1,50.449,37.835Zm16.219,9.258A4.793,4.793,0,0,1,61.876,42.3c0-.046,0-.091,0-.145a4.785,4.785,0,1,1,4.785,4.93Z" transform="translate(995.44 1799.417)"></path><rect class="b" width="170" height="135" transform="translate(1000 1755)"></rect></g></svg>